# This file uses centimeters as units for non-parametric coordinates.

mtllib Depressor_Anguli_Oris_Muscle_Right.mtl
g default
v -0.436050 0.705053 0.635289
v -0.440166 0.670179 0.620365
v -0.495255 0.973404 0.843815
v -0.493014 0.981764 0.839650
v -0.272390 0.474134 0.916950
v -0.265770 0.444849 0.898837
v -0.445479 0.962524 0.906163
v -0.439998 0.972485 0.905351
v -0.379934 0.503382 0.731588
v -0.403054 0.551188 0.759416
v -0.469452 0.963152 0.874512
v -0.458497 0.989746 0.874280
v -0.545431 0.831247 0.717825
v -0.568082 0.837326 0.738310
v -0.420515 0.764132 0.876493
v -0.432736 0.771749 0.895911
v -0.502613 0.788935 0.828785
v -0.490560 0.778221 0.811741
v -0.475297 0.759573 0.669779
v -0.561871 0.926630 0.816079
v -0.383229 0.560982 0.904181
v -0.464674 0.905888 0.897697
v -0.513214 0.904911 0.866407
v -0.469029 0.636189 0.781983
v -0.547178 0.920177 0.800500
v -0.502061 0.757607 0.684477
v -0.443200 0.895580 0.885224
v -0.408701 0.558428 0.924544
v -0.488752 0.635622 0.797818
v -0.498120 0.890766 0.857931
v -0.413564 0.572750 0.669197
v -0.346595 0.490585 0.835936
v -0.455051 0.960390 0.889455
v -0.474011 0.990463 0.858645
v -0.332635 0.453180 0.816212
v -0.415594 0.618870 0.688965
v -0.479963 0.965559 0.856284
v -0.446970 0.987000 0.893094
v -0.456548 0.760374 0.845741
v -0.530691 0.794052 0.758130
v -0.546324 0.806870 0.782995
v -0.471831 0.777512 0.864311
v -0.420166 0.585506 0.847295
v -0.477883 0.699335 0.720670
v -0.509916 0.694319 0.737008
v -0.488848 0.901033 0.885630
v -0.466567 0.884871 0.872997
v -0.529582 0.902672 0.825495
v -0.544268 0.913563 0.843058
v -0.444561 0.588787 0.863818
v -0.531107 0.957384 0.836288
v -0.459252 0.966154 0.904617
v -0.490562 0.976116 0.878655
v -0.523501 0.949423 0.829688
v -0.454731 0.933092 0.896178
v -0.493083 0.930790 0.870932
v -0.474682 0.972633 0.894438
v -0.475279 0.926676 0.884637
v -0.513369 0.936663 0.847759
v -0.516429 0.970911 0.854195
vt 0.499004 0.101593
vt 0.399402 0.101593
vt 0.399402 0.001992
vt 0.499004 0.001992
vt 0.499004 0.699203
vt 0.399402 0.699203
vt 0.399402 0.599602
vt 0.499004 0.599602
vt 0.399402 0.998008
vt 0.399402 0.898407
vt 0.499004 0.898407
vt 0.499004 0.998008
vt 0.499004 0.201195
vt 0.399402 0.201195
vt 0.000996 0.400398
vt 0.100598 0.400398
vt 0.100598 0.500000
vt 0.000996 0.500000
vt 0.399402 0.500000
vt 0.499004 0.500000
vt 0.100598 0.001992
vt 0.100598 0.101593
vt 0.000996 0.101593
vt 0.000996 0.001992
vt 0.100598 0.599602
vt 0.100598 0.699203
vt 0.000996 0.699203
vt 0.000996 0.599602
vt 0.100598 0.798805
vt 0.100598 0.898407
vt 0.000996 0.898407
vt 0.000996 0.798805
vt 0.100598 0.201195
vt 0.000996 0.201195
vt 0.399402 0.400398
vt 0.499004 0.400398
vt 0.299801 0.101593
vt 0.299801 0.001992
vt 0.299801 0.699203
vt 0.299801 0.599602
vt 0.399402 0.798805
vt 0.299801 0.898407
vt 0.299801 0.798805
vt 0.299801 0.201195
vt 0.200199 0.500000
vt 0.200199 0.400398
vt 0.299801 0.400398
vt 0.299801 0.500000
vt 0.200199 0.101593
vt 0.200199 0.001992
vt 0.200199 0.798805
vt 0.200199 0.699203
vt 0.200199 0.998008
vt 0.200199 0.898407
vt 0.299801 0.998008
vt 0.200199 0.300797
vt 0.200199 0.201195
vt 0.299801 0.300797
vt 0.399402 0.300797
vt 0.200199 0.599602
vt 0.499004 0.798805
vt 0.499004 0.300797
vt 0.100598 0.300797
vt 0.100598 0.998008
vt 0.000996 0.998008
vt 0.000996 0.300797
vn -0.825198 -0.332568 -0.456560
vn -0.844371 -0.292105 -0.449125
vn 0.801911 0.581251 0.138153
vn 0.778262 0.618494 0.108510
vn 0.701986 0.660673 -0.265945
vn 0.815581 0.413562 -0.404715
vn 0.859141 0.509678 -0.045887
vn 0.642090 0.614173 0.458815
vn 0.884027 0.420340 0.204478
vn 0.797278 0.469048 0.379923
vn -0.823729 -0.498268 -0.270555
vn -0.902683 -0.408702 -0.134634
vn -0.307637 0.731189 0.608869
vn -0.558850 0.238520 0.794226
vn -0.377373 0.100322 0.920611
vn -0.234103 0.407966 0.882474
vn -0.574764 -0.556524 0.599939
vn -0.606562 -0.700169 0.376624
vn 0.541183 0.144117 -0.828463
vn -0.777188 0.601619 0.184483
vn -0.430350 0.868539 -0.245845
vn 0.479671 -0.222688 -0.848720
vn 0.980469 0.016288 -0.195999
vn 0.522813 0.118050 -0.844234
vn 0.655121 -0.227259 -0.720535
vn 0.559516 -0.444689 0.699423
vn 0.675207 -0.064032 -0.734844
vn 0.741546 -0.112720 -0.661365
vn 0.629524 -0.450391 -0.633125
vn 0.625770 -0.390005 -0.675506
vn -0.687081 0.405097 0.603172
vn -0.409713 0.883769 0.226026
vn -0.813318 -0.480912 0.327470
vn -0.693604 -0.699430 0.172369
vn -0.974121 -0.111132 -0.196820
vn 0.784208 0.502950 -0.363399
vn 0.750880 0.178586 -0.635835
vn 0.944735 0.192663 -0.265250
vn 0.898172 0.420218 -0.129246
vn 0.925186 0.363659 -0.108550
vn 0.832906 0.288268 -0.472408
vn -0.915902 -0.318460 0.244349
vn -0.260861 -0.108034 0.959312
vn -0.634887 -0.157801 0.756318
vn -0.768006 -0.140314 0.624883
vn -0.363092 -0.006233 0.931732
vn -0.981761 0.046649 0.184309
vn 0.580991 0.498213 -0.643610
vn 0.714199 0.270648 -0.645500
vn 0.572862 0.238040 -0.784325
vn 0.850957 0.230886 -0.471767
vn -0.701300 -0.183590 0.688820
vn -0.797884 -0.176198 0.576486
vn -0.822110 -0.238400 0.517012
vn -0.876621 -0.463280 0.130030
vn 0.936716 0.266344 -0.227210
vn 0.802235 0.594126 0.058591
vn -0.784781 -0.618524 -0.039324
vn -0.623391 0.346891 0.700750
vn -0.365953 0.850452 0.377901
s 1
g Depressor_Anguli_Oris_Muscle_Right_Mesh group1
usemtl Depressor_Anguli_Oris_Muscle_Right_phong1SG
f 2/1/1 26/2/2 19/3/3 1/4/4
f 32/5/5 43/6/6 21/7/7 5/8/8
f 19/9/3 44/10/9 36/11/10 1/12/4
f 31/13/11 45/14/12 26/2/2 2/1/1
f 38/15/13 57/16/14 52/17/15 8/18/16
f 21/7/7 28/19/17 6/20/18 5/8/8
f 54/21/19 51/22/20 4/23/21 3/24/22
f 55/25/23 58/26/24 33/27/25 7/28/26
f 56/29/27 59/30/28 37/31/29 11/32/30
f 51/22/20 60/33/31 34/34/32 4/23/21
f 28/19/17 50/35/33 35/36/34 6/20/18
f 52/17/15 55/25/23 7/28/26 8/18/16
f 19/3/3 26/2/2 14/37/35 13/38/36
f 21/7/7 43/6/6 39/39/37 15/40/38
f 24/41/39 44/10/9 40/42/40 18/43/41
f 26/2/2 45/14/12 41/44/42 14/37/35
f 22/45/43 46/46/44 42/47/45 16/48/46
f 28/19/17 21/7/7 15/40/38 16/48/46
f 20/49/47 25/50/48 13/38/36 14/37/35
f 30/51/49 47/52/50 39/39/37 18/43/41
f 25/53/48 48/54/51 40/42/40 13/55/36
f 23/56/52 49/57/53 41/44/42 17/58/54
f 29/59/55 50/35/33 42/47/45 17/58/54
f 27/60/56 22/45/43 16/48/46 15/40/38
f 43/6/6 32/5/5 10/61/57 24/41/39
f 36/11/10 44/10/9 24/41/39 10/61/57
f 45/14/12 31/13/11 9/62/58 29/59/55
f 46/46/44 57/16/14 53/63/59 23/56/52
f 33/27/25 58/26/24 56/29/27 11/32/30
f 37/31/29 59/30/28 54/64/19 3/65/22
f 34/34/32 60/33/31 53/63/59 12/66/60
f 35/36/34 50/35/33 29/59/55 9/62/58
f 39/39/37 43/6/6 24/41/39 18/43/41
f 40/42/40 44/10/9 19/9/3 13/55/36
f 41/44/42 45/14/12 29/59/55 17/58/54
f 42/47/45 46/46/44 23/56/52 17/58/54
f 39/39/37 47/52/50 27/60/56 15/40/38
f 40/42/40 48/54/51 30/51/49 18/43/41
f 41/44/42 49/57/53 20/49/47 14/37/35
f 42/47/45 50/35/33 28/19/17 16/48/46
f 52/17/15 57/16/14 46/46/44 22/45/43
f 51/22/20 54/21/19 25/50/48 20/49/47
f 58/26/24 55/25/23 27/60/56 47/52/50
f 59/30/28 56/29/27 30/51/49 48/54/51
f 60/33/31 51/22/20 20/49/47 49/57/53
f 55/25/23 52/17/15 22/45/43 27/60/56
f 53/63/59 57/16/14 38/15/13 12/66/60
f 56/29/27 58/26/24 47/52/50 30/51/49
f 54/64/19 59/30/28 48/54/51 25/53/48
f 53/63/59 60/33/31 49/57/53 23/56/52
