# This file uses centimeters as units for non-parametric coordinates.

mtllib Depressor_Anguli_Oris_Muscle_Left.mtl
g default
v 0.436050 0.705053 0.635289
v 0.440166 0.670179 0.620365
v 0.495255 0.973404 0.843815
v 0.493014 0.981764 0.839650
v 0.272390 0.474134 0.916950
v 0.265770 0.444849 0.898837
v 0.445479 0.962524 0.906163
v 0.439998 0.972485 0.905351
v 0.379934 0.503382 0.731588
v 0.403054 0.551188 0.759416
v 0.469452 0.963152 0.874512
v 0.458497 0.989746 0.874280
v 0.545431 0.831247 0.717825
v 0.568082 0.837326 0.738310
v 0.420515 0.764132 0.876493
v 0.432736 0.771749 0.895911
v 0.502613 0.788935 0.828785
v 0.490560 0.778221 0.811741
v 0.475297 0.759573 0.669779
v 0.561871 0.926630 0.816079
v 0.383229 0.560982 0.904181
v 0.464674 0.905888 0.897697
v 0.513214 0.904911 0.866407
v 0.469029 0.636189 0.781983
v 0.547178 0.920177 0.800500
v 0.502061 0.757607 0.684477
v 0.443200 0.895580 0.885224
v 0.408701 0.558428 0.924544
v 0.488752 0.635622 0.797818
v 0.498120 0.890766 0.857931
v 0.413564 0.572750 0.669197
v 0.346595 0.490585 0.835936
v 0.455051 0.960390 0.889455
v 0.474011 0.990463 0.858645
v 0.332635 0.453180 0.816212
v 0.415594 0.618870 0.688965
v 0.479963 0.965559 0.856284
v 0.446970 0.987000 0.893094
v 0.456548 0.760374 0.845741
v 0.530691 0.794052 0.758130
v 0.546324 0.806870 0.782995
v 0.471831 0.777512 0.864311
v 0.420166 0.585506 0.847295
v 0.477883 0.699335 0.720670
v 0.509916 0.694319 0.737008
v 0.488848 0.901033 0.885630
v 0.466567 0.884871 0.872997
v 0.529582 0.902672 0.825495
v 0.544268 0.913563 0.843058
v 0.444561 0.588787 0.863818
v 0.531107 0.957384 0.836288
v 0.459252 0.966154 0.904617
v 0.490562 0.976116 0.878655
v 0.523501 0.949423 0.829688
v 0.454731 0.933092 0.896178
v 0.493083 0.930790 0.870932
v 0.474682 0.972633 0.894438
v 0.475279 0.926676 0.884637
v 0.513369 0.936663 0.847759
v 0.516429 0.970911 0.854195
vt 0.499004 0.101593
vt 0.399402 0.101593
vt 0.399402 0.001992
vt 0.499004 0.001992
vt 0.499004 0.699203
vt 0.399402 0.699203
vt 0.399402 0.599602
vt 0.499004 0.599602
vt 0.399402 0.998008
vt 0.399402 0.898407
vt 0.499004 0.898407
vt 0.499004 0.998008
vt 0.499004 0.201195
vt 0.399402 0.201195
vt 0.000996 0.400398
vt 0.100598 0.400398
vt 0.100598 0.500000
vt 0.000996 0.500000
vt 0.399402 0.500000
vt 0.499004 0.500000
vt 0.100598 0.001992
vt 0.100598 0.101593
vt 0.000996 0.101593
vt 0.000996 0.001992
vt 0.100598 0.599602
vt 0.100598 0.699203
vt 0.000996 0.699203
vt 0.000996 0.599602
vt 0.100598 0.798805
vt 0.100598 0.898407
vt 0.000996 0.898407
vt 0.000996 0.798805
vt 0.100598 0.201195
vt 0.000996 0.201195
vt 0.399402 0.400398
vt 0.499004 0.400398
vt 0.299801 0.101593
vt 0.299801 0.001992
vt 0.299801 0.699203
vt 0.299801 0.599602
vt 0.399402 0.798805
vt 0.299801 0.898407
vt 0.299801 0.798805
vt 0.299801 0.201195
vt 0.200199 0.500000
vt 0.200199 0.400398
vt 0.299801 0.400398
vt 0.299801 0.500000
vt 0.200199 0.101593
vt 0.200199 0.001992
vt 0.200199 0.798805
vt 0.200199 0.699203
vt 0.200199 0.998008
vt 0.200199 0.898407
vt 0.299801 0.998008
vt 0.200199 0.300797
vt 0.200199 0.201195
vt 0.299801 0.300797
vt 0.399402 0.300797
vt 0.200199 0.599602
vt 0.499004 0.798805
vt 0.499004 0.300797
vt 0.100598 0.300797
vt 0.100598 0.998008
vt 0.000996 0.998008
vt 0.000996 0.300797
vn 0.825199 -0.332568 -0.456558
vn -0.778258 0.618496 0.108520
vn -0.801909 0.581252 0.138157
vn 0.844370 -0.292105 -0.449127
vn -0.701986 0.660673 -0.265945
vn -0.642092 0.614176 0.458808
vn -0.859141 0.509678 -0.045889
vn -0.815581 0.413562 -0.404715
vn -0.797276 0.469047 0.379929
vn -0.884026 0.420339 0.204482
vn 0.823729 -0.498268 -0.270555
vn 0.902683 -0.408702 -0.134632
vn 0.307631 0.731177 0.608887
vn 0.234105 0.407962 0.882475
vn 0.377371 0.100321 0.920612
vn 0.558844 0.238514 0.794232
vn 0.606561 -0.700167 0.376629
vn 0.574762 -0.556522 0.599943
vn -0.541183 0.144118 -0.828463
vn -0.479680 -0.222700 -0.848712
vn 0.430339 0.868507 -0.245976
vn 0.777182 0.601621 0.184502
vn -0.980467 0.016287 -0.196007
vn -0.559483 -0.444699 0.699444
vn -0.655129 -0.227265 -0.720526
vn -0.522822 0.118043 -0.844229
vn -0.675216 -0.064039 -0.734835
vn -0.625791 -0.390017 -0.675479
vn -0.629532 -0.450396 -0.633114
vn -0.741546 -0.112721 -0.661364
vn 0.409719 0.883780 0.225971
vn 0.687096 0.405104 0.603150
vn 0.693604 -0.699429 0.172375
vn 0.813318 -0.480911 0.327473
vn -0.784205 0.502948 -0.363408
vn 0.974121 -0.111132 -0.196820
vn -0.944735 0.192662 -0.265251
vn -0.750878 0.178586 -0.635837
vn -0.898171 0.420218 -0.129248
vn -0.832905 0.288267 -0.472411
vn -0.925186 0.363659 -0.108551
vn 0.915902 -0.318460 0.244350
vn 0.260863 -0.108035 0.959312
vn 0.363093 -0.006234 0.931732
vn 0.768006 -0.140314 0.624883
vn 0.634887 -0.157801 0.756318
vn 0.981760 0.046649 0.184314
vn -0.580989 0.498215 -0.643610
vn -0.714198 0.270647 -0.645501
vn -0.572860 0.238039 -0.784327
vn -0.850956 0.230886 -0.471768
vn 0.701301 -0.183591 0.688819
vn 0.822109 -0.238400 0.517012
vn 0.797882 -0.176199 0.576488
vn 0.876621 -0.463280 0.130032
vn -0.936716 0.266343 -0.227210
vn -0.802236 0.594125 0.058593
vn 0.784781 -0.618524 -0.039322
vn 0.623393 0.346892 0.700747
vn 0.365951 0.850449 0.377911
s 1
g Depressor_Anguli_Oris_Muscle_Left1_Mesh group1
usemtl Depressor_Anguli_Oris_Muscle_Left1_phong1SG
f 2/1/1 1/4/2 19/3/3 26/2/4
f 32/5/5 5/8/6 21/7/7 43/6/8
f 19/9/3 1/12/2 36/11/9 44/10/10
f 31/13/11 2/1/1 26/2/4 45/14/12
f 38/15/13 8/18/14 52/17/15 57/16/16
f 21/7/7 5/8/6 6/20/17 28/19/18
f 54/21/19 3/24/20 4/23/21 51/22/22
f 55/25/23 7/28/24 33/27/25 58/26/26
f 56/29/27 11/32/28 37/31/29 59/30/30
f 51/22/22 4/23/21 34/34/31 60/33/32
f 28/19/18 6/20/17 35/36/33 50/35/34
f 52/17/15 8/18/14 7/28/24 55/25/23
f 19/3/3 13/38/35 14/37/36 26/2/4
f 21/7/7 15/40/37 39/39/38 43/6/8
f 24/41/39 18/43/40 40/42/41 44/10/10
f 26/2/4 14/37/36 41/44/42 45/14/12
f 22/45/43 16/48/44 42/47/45 46/46/46
f 28/19/18 16/48/44 15/40/37 21/7/7
f 20/49/47 14/37/36 13/38/35 25/50/48
f 30/51/49 18/43/40 39/39/38 47/52/50
f 25/53/48 13/55/35 40/42/41 48/54/51
f 23/56/52 17/58/53 41/44/42 49/57/54
f 29/59/55 17/58/53 42/47/45 50/35/34
f 27/60/56 15/40/37 16/48/44 22/45/43
f 43/6/8 24/41/39 10/61/57 32/5/5
f 36/11/9 10/61/57 24/41/39 44/10/10
f 45/14/12 29/59/55 9/62/58 31/13/11
f 46/46/46 23/56/52 53/63/59 57/16/16
f 33/27/25 11/32/28 56/29/27 58/26/26
f 37/31/29 3/65/20 54/64/19 59/30/30
f 34/34/31 12/66/60 53/63/59 60/33/32
f 35/36/33 9/62/58 29/59/55 50/35/34
f 39/39/38 18/43/40 24/41/39 43/6/8
f 40/42/41 13/55/35 19/9/3 44/10/10
f 41/44/42 17/58/53 29/59/55 45/14/12
f 42/47/45 17/58/53 23/56/52 46/46/46
f 39/39/38 15/40/37 27/60/56 47/52/50
f 40/42/41 18/43/40 30/51/49 48/54/51
f 41/44/42 14/37/36 20/49/47 49/57/54
f 42/47/45 16/48/44 28/19/18 50/35/34
f 52/17/15 22/45/43 46/46/46 57/16/16
f 51/22/22 20/49/47 25/50/48 54/21/19
f 58/26/26 47/52/50 27/60/56 55/25/23
f 59/30/30 48/54/51 30/51/49 56/29/27
f 60/33/32 49/57/54 20/49/47 51/22/22
f 55/25/23 27/60/56 22/45/43 52/17/15
f 53/63/59 12/66/60 38/15/13 57/16/16
f 56/29/27 30/51/49 47/52/50 58/26/26
f 54/64/19 25/53/48 48/54/51 59/30/30
f 53/63/59 23/56/52 49/57/54 60/33/32
