# This file uses centimeters as units for non-parametric coordinates.

mtllib Depressor_Supercilii_Muscle_Right.mtl
g default
v -0.022703 1.828039 1.140139
v -0.047301 1.818275 1.115988
v -0.062503 2.047131 1.154293
v -0.322731 2.106867 1.088734
v -0.029678 1.826736 1.142860
v -0.054380 1.816946 1.118433
v -0.058959 2.051552 1.160781
v -0.349318 2.110786 1.094686
v -0.079271 1.927193 1.168609
v -0.154646 1.927351 1.156345
v -0.081780 1.925268 1.172438
v -0.159736 1.925774 1.162792
v -0.166090 2.116346 1.126324
v -0.034823 1.823139 1.128300
v -0.041865 1.821812 1.131062
v -0.169233 2.125179 1.126844
v -0.114901 1.923180 1.160576
v -0.118679 1.921236 1.165472
v -0.107291 2.100245 1.144026
v -0.041041 1.820679 1.122382
v -0.048105 1.819345 1.125021
v -0.102661 2.105232 1.153135
v -0.096404 1.923555 1.165204
v -0.139122 1.922905 1.163523
v -0.264225 2.114109 1.097634
v -0.028696 1.825609 1.134099
v -0.035707 1.824291 1.136887
v -0.275679 2.119083 1.099847
v -0.134567 1.924816 1.157750
v -0.099437 1.921520 1.169503
v -0.035603 1.869349 1.142267
v -0.057421 1.902958 1.154964
v -0.247639 2.057791 1.133839
v -0.199602 1.990498 1.166151
v -0.041150 1.868000 1.145041
v -0.061558 1.901201 1.158604
v -0.252866 2.055977 1.141960
v -0.203470 1.989389 1.172226
v -0.082030 1.956354 1.181563
v -0.076273 2.000666 1.180809
v -0.116317 1.900431 1.131175
v -0.076275 1.862083 1.117685
v -0.083227 1.955086 1.185443
v -0.076199 1.999636 1.186913
v -0.122402 1.897984 1.136999
v -0.082963 1.860466 1.121395
v -0.086039 1.901060 1.143004
v -0.055484 1.866001 1.129110
v -0.061567 1.864384 1.132505
v -0.091048 1.899412 1.146910
v -0.153537 2.053755 1.159743
v -0.137671 1.975098 1.181807
v -0.155017 2.051014 1.166817
v -0.138263 1.974888 1.189539
v -0.071404 1.901424 1.149663
v -0.045381 1.867798 1.135328
v -0.051154 1.866316 1.138421
v -0.075919 1.899818 1.153346
v -0.105722 2.029917 1.169022
v -0.107571 1.963282 1.184221
v -0.200888 2.061312 1.154671
v -0.173242 1.986349 1.180903
v -0.065807 1.864069 1.123283
v -0.101039 1.901100 1.136192
v -0.106585 1.899120 1.140831
v -0.072156 1.862370 1.126895
v -0.170767 1.987083 1.174432
v -0.198653 2.063541 1.147648
v -0.108620 1.962454 1.189882
v -0.106328 2.027748 1.175130
vt 0.001195 0.898407
vt 0.100797 0.898407
vt 0.100797 0.998008
vt 0.001195 0.998008
vt 0.200398 0.798805
vt 0.200398 0.699203
vt 0.300000 0.699203
vt 0.300000 0.798805
vt 0.100797 0.001992
vt 0.100797 0.101594
vt 0.001195 0.101594
vt 0.001195 0.001992
vt 0.001195 0.500000
vt 0.100797 0.500000
vt 0.100797 0.599602
vt 0.001195 0.599602
vt 0.399602 0.300797
vt 0.399602 0.201195
vt 0.499203 0.201195
vt 0.499203 0.300797
vt 0.100797 0.201195
vt 0.001195 0.201195
vt 0.499203 0.998008
vt 0.499203 0.898407
vt 0.598805 0.898407
vt 0.598805 0.998008
vt 0.499203 0.101594
vt 0.499203 0.001992
vt 0.598805 0.001992
vt 0.598805 0.101594
vt 0.499203 0.599602
vt 0.499203 0.500000
vt 0.598805 0.500000
vt 0.598805 0.599602
vt 0.499203 0.400398
vt 0.598805 0.400398
vt 0.200398 0.599602
vt 0.300000 0.599602
vt 0.200398 0.300797
vt 0.200398 0.400398
vt 0.100797 0.400398
vt 0.100797 0.300797
vt 0.598805 0.201195
vt 0.598805 0.300797
vt 0.001195 0.400398
vt 0.598805 0.699203
vt 0.499203 0.699203
vt 0.300000 0.898407
vt 0.200398 0.898407
vt 0.001195 0.300797
vt 0.399602 0.798805
vt 0.399602 0.699203
vt 0.499203 0.798805
vt 0.598805 0.798805
vt 0.001195 0.699203
vt 0.100797 0.699203
vt 0.100797 0.798805
vt 0.001195 0.798805
vt 0.300000 0.400398
vt 0.300000 0.300797
vt 0.300000 0.201195
vt 0.200398 0.998008
vt 0.300000 0.998008
vt 0.200398 0.001992
vt 0.200398 0.101594
vt 0.300000 0.001992
vt 0.300000 0.101594
vt 0.200398 0.500000
vt 0.300000 0.500000
vt 0.200398 0.201195
vt 0.399602 0.898407
vt 0.399602 0.998008
vt 0.399602 0.001992
vt 0.399602 0.101594
vt 0.399602 0.599602
vt 0.399602 0.500000
vt 0.399602 0.400398
vn 0.555864 0.245388 -0.794229
vn 0.438589 0.428558 -0.789922
vn 0.775185 0.487028 -0.402358
vn 0.903459 0.310383 -0.295676
vn 0.272170 0.666603 -0.693948
vn 0.241443 0.673033 -0.699094
vn 0.235650 0.532409 -0.813025
vn 0.240438 0.566257 -0.788380
vn -0.116214 -0.268426 0.956264
vn -0.219307 -0.122132 0.967981
vn -0.843464 -0.534542 0.053230
vn -0.682240 -0.683783 0.258821
vn 0.082115 0.269080 -0.959611
vn 0.235345 0.175710 -0.955897
vn -0.126541 0.022945 0.991696
vn -0.068083 -0.041149 0.996831
vn 0.003766 0.306807 0.951764
vn -0.151171 0.358570 0.921181
vn -0.421393 -0.421853 0.802788
vn -0.540983 -0.231888 0.808434
vn 0.142503 -0.299065 -0.943532
vn -0.023288 -0.326474 -0.944919
vn 0.035699 -0.393502 -0.918630
vn -0.047460 -0.418980 -0.906754
vn 0.140109 0.195857 0.970572
vn 0.194341 0.302062 0.933269
vn 0.115728 -0.538074 -0.834916
vn -0.333578 0.306517 0.891500
vn -0.342161 0.281273 0.896555
vn -0.054329 -0.738397 -0.672174
vn -0.210226 0.408801 0.888080
vn -0.183582 0.494817 0.849384
vn -0.085113 0.470558 -0.878254
vn -0.037707 0.230293 -0.972390
vn -0.243666 -0.660845 0.709866
vn -0.200869 -0.663646 0.720573
vn -0.368612 -0.458227 0.808797
vn -0.398334 -0.445493 0.801790
vn -0.087516 0.360817 0.928522
vn -0.186331 0.442741 0.877075
vn -0.489363 -0.311606 0.814510
vn 0.231407 -0.475876 -0.848524
vn 0.228441 -0.395481 -0.889612
vn 0.166229 0.551033 -0.817759
vn 0.247098 0.615289 -0.748573
vn -0.505065 -0.264128 0.821673
vn 0.147823 -0.025170 -0.988693
vn 0.221476 -0.061462 -0.973227
vn 0.132573 -0.360004 -0.923483
vn 0.176357 -0.452840 -0.873976
vn 0.498755 0.303965 -0.811695
vn 0.395087 0.459715 -0.795342
vn 0.420033 0.451663 -0.787130
vn 0.518366 0.267428 -0.812268
vn -0.217574 -0.517492 0.827565
vn -0.213462 -0.559982 0.800534
vn -0.133807 -0.550925 0.823758
vn 0.517188 0.663709 -0.540377
vn 0.274462 0.564245 -0.778652
vn 0.001308 -0.442887 0.896576
vn 0.086937 -0.462940 0.882116
vn -0.486419 -0.827923 0.279178
vn -0.440089 -0.519167 0.732658
vn -0.228977 -0.613574 0.755710
vn 0.102567 0.028936 -0.994305
vn 0.241326 0.064546 -0.968295
vn 0.088840 -0.117797 0.989056
vn 0.079809 -0.260546 -0.962157
vn -0.412251 0.030202 0.910570
vn -0.217971 0.057072 0.974285
s 1
g Depressor_Supercilii_Muscle_Right_Mesh group1
usemtl Depressor_Supercilii_Muscle_Right_phong1SG
f 26/1/1 56/2/2 31/3/3 1/4/4
f 47/5/5 64/6/6 29/7/7 17/8/8
f 31/9/3 35/10/9 5/11/10 1/12/4
f 6/13/11 46/14/12 42/15/13 2/16/14
f 54/17/15 69/18/16 70/19/17 53/20/18
f 35/10/9 57/21/19 27/22/20 5/11/10
f 40/23/21 59/24/22 19/25/23 3/26/24
f 44/27/25 40/28/21 3/29/24 7/30/26
f 33/31/27 37/32/28 8/33/29 4/34/30
f 37/32/28 61/35/31 28/36/32 8/33/29
f 29/7/7 64/6/6 41/37/33 10/38/34
f 50/39/35 65/40/36 66/41/37 49/42/38
f 53/20/18 70/19/17 22/43/39 16/44/40
f 21/45/41 66/41/37 46/14/12 6/13/11
f 25/46/42 68/47/43 33/31/27 4/34/30
f 22/43/39 70/19/17 44/27/25 7/30/26
f 23/48/44 55/49/45 47/5/5 17/8/8
f 49/42/38 66/41/37 21/45/41 15/50/46
f 52/51/47 67/52/48 68/47/43 51/53/49
f 27/22/20 57/21/19 49/42/38 15/50/46
f 19/25/23 59/24/22 51/53/49 13/54/50
f 28/36/32 61/35/31 53/20/18 16/44/40
f 20/55/51 63/56/52 48/57/53 14/58/54
f 48/57/53 63/56/52 64/6/6 47/5/5
f 51/53/49 68/47/43 25/46/42 13/54/50
f 24/59/55 65/40/36 50/39/35 18/60/56
f 29/7/7 67/52/48 52/51/47 17/8/8
f 30/61/57 69/18/16 54/17/15 18/60/56
f 31/3/3 56/2/2 55/49/45 32/62/58
f 32/62/58 55/49/45 23/48/44 9/63/59
f 35/10/9 31/9/3 32/64/58 36/65/60
f 36/65/60 32/64/58 9/66/59 11/67/61
f 41/37/33 45/68/62 12/69/63 10/38/34
f 42/15/13 46/14/12 45/68/62 41/37/33
f 57/21/19 35/10/9 36/65/60 58/70/64
f 58/70/64 36/65/60 11/67/61 30/61/57
f 60/71/65 39/72/66 9/63/59 23/48/44
f 59/24/22 40/23/21 39/72/66 60/71/65
f 39/73/66 43/74/67 11/67/61 9/66/59
f 40/28/21 44/27/25 43/74/67 39/73/66
f 37/32/28 33/31/27 34/75/68 38/76/69
f 38/76/69 34/75/68 10/38/34 12/69/63
f 61/35/31 37/32/28 38/76/69 62/77/70
f 62/77/70 38/76/69 12/69/63 24/59/55
f 41/37/33 64/6/6 63/56/52 42/15/13
f 42/15/13 63/56/52 20/55/51 2/16/14
f 45/68/62 65/40/36 24/59/55 12/69/63
f 46/14/12 66/41/37 65/40/36 45/68/62
f 33/31/27 68/47/43 67/52/48 34/75/68
f 34/75/68 67/52/48 29/7/7 10/38/34
f 43/74/67 69/18/16 30/61/57 11/67/61
f 44/27/25 70/19/17 69/18/16 43/74/67
f 47/5/5 55/49/45 56/2/2 48/57/53
f 48/57/53 56/2/2 26/1/1 14/58/54
f 49/42/38 57/21/19 58/70/64 50/39/35
f 50/39/35 58/70/64 30/61/57 18/60/56
f 51/53/49 59/24/22 60/71/65 52/51/47
f 52/51/47 60/71/65 23/48/44 17/8/8
f 53/20/18 61/35/31 62/77/70 54/17/15
f 54/17/15 62/77/70 24/59/55 18/60/56
