# This file uses centimeters as units for non-parametric coordinates.

mtllib Diagastric_Muscle_Right.mtl
g default
v -0.043182 0.427990 0.928534
v -0.567561 1.317616 -0.363820
v -0.048276 0.458797 0.917850
v -0.560999 1.317312 -0.323603
v -0.097536 0.486881 0.907577
v -0.569979 1.298447 -0.299315
v -0.163094 0.495615 0.903910
v -0.589150 1.277176 -0.314129
v -0.202116 0.479296 0.909786
v -0.606441 1.269711 -0.363605
v -0.190762 0.447548 0.921724
v -0.612490 1.269321 -0.398419
v -0.140101 0.419588 0.931902
v -0.602082 1.285322 -0.417017
v -0.080803 0.411791 0.934314
v -0.583158 1.305584 -0.404167
v -0.166769 0.856365 0.246018
v -0.161638 0.840437 0.238659
v -0.183849 0.863674 0.253900
v -0.200703 0.857573 0.257605
v -0.207140 0.842264 0.255120
v -0.199583 0.826687 0.247832
v -0.183197 0.819708 0.240029
v -0.166364 0.825394 0.236272
v -0.082506 0.622789 0.540713
v -0.375204 1.114599 -0.036590
v -0.095245 0.636303 0.543851
v -0.118064 0.642786 0.548320
v -0.137882 0.638216 0.551636
v -0.142969 0.625170 0.551708
v -0.130084 0.611464 0.548376
v -0.106788 0.605227 0.543772
v -0.401469 1.125759 -0.015474
v -0.087121 0.609997 0.540646
v -0.429976 1.108328 -0.013210
v -0.444938 1.072277 -0.031635
v -0.442271 1.038637 -0.059155
v -0.412221 1.028305 -0.082430
v -0.377987 1.046356 -0.085014
v -0.365896 1.080902 -0.063975
v -0.083448 0.485859 0.765621
v -0.488989 1.226671 -0.213578
v -0.108705 0.518564 0.760013
v -0.149639 0.544802 0.750718
v -0.185410 0.542208 0.746485
v -0.195376 0.513767 0.748140
v -0.165526 0.483177 0.751051
v -0.121798 0.462513 0.757546
v -0.275835 1.013670 0.124787
v -0.086890 0.718630 0.378997
v -0.312530 1.003529 0.132018
v -0.337871 0.973427 0.122421
v -0.337489 0.940819 0.101436
v -0.311178 0.925060 0.081494
v -0.273457 0.935543 0.074456
v -0.246996 0.965763 0.084227
v -0.086719 0.722620 0.379835
v -0.248483 0.998142 0.105045
v -0.090279 0.725691 0.381690
v -0.095404 0.726240 0.383521
v -0.099164 0.723852 0.384238
v -0.099422 0.719769 0.383384
v -0.095966 0.716454 0.381474
v -0.090752 0.716003 0.379660
v -0.502529 1.233751 -0.177005
v -0.088963 0.463703 0.764036
v -0.525484 1.214930 -0.160276
v -0.544384 1.178846 -0.176466
v -0.544743 1.148941 -0.209952
v -0.528515 1.145901 -0.240284
v -0.509649 1.165293 -0.257016
v -0.493980 1.197994 -0.247762
v -0.132018 0.778229 0.319785
v -0.083052 0.679394 0.460684
v -0.090425 0.687170 0.463461
v -0.103063 0.690397 0.466766
v -0.113697 0.687037 0.468715
v -0.116048 0.678940 0.468069
v -0.108620 0.670963 0.465156
v -0.095768 0.667898 0.461797
v -0.085191 0.671461 0.459980
v -0.133508 0.788187 0.323884
v -0.140155 0.793377 0.328752
v -0.148149 0.790600 0.331520
v -0.152821 0.781754 0.330636
v -0.151391 0.771923 0.326566
v -0.144688 0.766775 0.321709
v -0.136649 0.769392 0.318924
vt 0.300398 0.898407
vt 0.400000 0.898407
vt 0.400000 0.998008
vt 0.300398 0.998008
vt 0.499602 0.898407
vt 0.499602 0.998008
vt 0.599203 0.898407
vt 0.599203 0.998008
vt 0.698805 0.898407
vt 0.698805 0.998008
vt 0.798407 0.898407
vt 0.798407 0.998008
vt 0.001594 0.898407
vt 0.101195 0.898407
vt 0.101195 0.998008
vt 0.001594 0.998008
vt 0.200797 0.898407
vt 0.200797 0.998008
vt 0.400000 0.101593
vt 0.300398 0.101593
vt 0.300398 0.001992
vt 0.400000 0.001992
vt 0.499602 0.101593
vt 0.499602 0.001992
vt 0.599203 0.101593
vt 0.599203 0.001992
vt 0.698805 0.101593
vt 0.698805 0.001992
vt 0.798407 0.101593
vt 0.798407 0.001992
vt 0.101195 0.101593
vt 0.001594 0.101593
vt 0.001594 0.001992
vt 0.101195 0.001992
vt 0.200797 0.101593
vt 0.200797 0.001992
vt 0.400000 0.500000
vt 0.300398 0.500000
vt 0.300398 0.400398
vt 0.400000 0.400398
vt 0.499602 0.500000
vt 0.499602 0.400398
vt 0.599203 0.500000
vt 0.599203 0.400398
vt 0.698805 0.500000
vt 0.698805 0.400398
vt 0.798407 0.500000
vt 0.798407 0.400398
vt 0.101195 0.500000
vt 0.001594 0.500000
vt 0.001594 0.400398
vt 0.101195 0.400398
vt 0.200797 0.500000
vt 0.200797 0.400398
vt 0.300398 0.300797
vt 0.400000 0.300797
vt 0.499602 0.300797
vt 0.599203 0.300797
vt 0.698805 0.300797
vt 0.798407 0.300797
vt 0.001594 0.300797
vt 0.101195 0.300797
vt 0.200797 0.300797
vt 0.300398 0.798805
vt 0.400000 0.798805
vt 0.499602 0.798805
vt 0.599203 0.798805
vt 0.698805 0.798805
vt 0.798407 0.798805
vt 0.001594 0.798805
vt 0.101195 0.798805
vt 0.200797 0.798805
vt 0.400000 0.201195
vt 0.300398 0.201195
vt 0.499602 0.201195
vt 0.599203 0.201195
vt 0.698805 0.201195
vt 0.798407 0.201195
vt 0.101195 0.201195
vt 0.001594 0.201195
vt 0.200797 0.201195
vt 0.300398 0.699203
vt 0.400000 0.699203
vt 0.499602 0.699203
vt 0.599203 0.699203
vt 0.698805 0.699203
vt 0.798407 0.699203
vt 0.001594 0.699203
vt 0.101195 0.699203
vt 0.200797 0.699203
vt 0.400000 0.599602
vt 0.300398 0.599602
vt 0.499602 0.599602
vt 0.599203 0.599602
vt 0.698805 0.599602
vt 0.798407 0.599602
vt 0.101195 0.599602
vt 0.001594 0.599602
vt 0.200797 0.599602
vn 0.523704 -0.750859 -0.402424
vn 0.914874 0.403564 0.011919
vn 0.915756 0.381463 -0.126000
vn 0.526990 -0.782494 -0.331639
vn 0.498166 0.811962 0.304216
vn 0.467039 0.870816 0.153474
vn 0.120383 0.916724 0.380952
vn 0.039562 0.957300 0.286377
vn -0.631238 0.743833 0.219661
vn -0.861906 0.489030 0.134043
vn -0.827787 -0.472849 -0.301964
vn -0.677619 -0.700367 -0.224318
vn -0.430155 -0.814257 -0.389811
vn -0.352880 -0.899934 -0.256113
vn -0.099229 -0.907641 -0.407850
vn -0.029127 -0.959447 -0.280382
vn 0.275828 0.879012 0.388918
vn 0.842117 0.506998 -0.183825
vn 0.908691 0.270687 -0.317819
vn 0.670156 0.732997 0.116644
vn -0.631878 0.446083 0.633830
vn -0.590779 0.588662 0.551777
vn -0.898588 -0.059272 0.434772
vn -0.941135 0.020757 0.337394
vn -0.850933 -0.518931 0.081387
vn -0.883422 -0.468310 0.015847
vn -0.255183 -0.830084 -0.495825
vn -0.095726 -0.805805 -0.584393
vn 0.570841 -0.429905 -0.699516
vn 0.608938 -0.427914 -0.667895
vn 0.863434 0.083413 -0.497518
vn 0.831635 -0.100173 -0.546213
vn 0.841580 0.536429 0.063146
vn 0.897813 -0.014921 -0.440124
vn 0.933637 0.276270 -0.228027
vn 0.629612 0.687925 0.361037
vn 0.323036 0.762757 0.560223
vn -0.029622 0.639327 0.768364
vn -0.356169 0.514966 0.779714
vn -0.611451 0.182315 0.769993
vn -0.815427 -0.089319 0.571927
vn -0.808273 -0.464097 0.362366
vn -0.771490 -0.631564 0.077009
vn -0.448754 -0.859785 -0.243699
vn -0.308868 -0.858408 -0.409555
vn 0.162600 -0.766007 -0.621928
vn 0.386871 -0.642751 -0.661213
vn 0.704425 -0.340995 -0.622502
vn 0.824840 0.550542 -0.128613
vn 0.342129 0.808476 0.478867
vn -0.367991 0.513465 0.775201
vn -0.772918 -0.006561 0.634472
vn -0.785156 -0.581742 0.212382
vn -0.258913 -0.887374 -0.381486
vn 0.426433 -0.585800 -0.689197
vn 0.824537 0.005432 -0.565783
vn 0.588074 -0.673533 -0.447796
vn 0.897613 0.374233 0.232897
vn 0.533022 0.724921 0.436322
vn 0.192624 0.862849 0.467319
vn -0.449524 0.837903 0.309590
vn -0.901198 -0.221983 -0.372245
vn -0.458579 -0.703908 -0.542419
vn -0.101972 -0.817169 -0.567306
vn 0.198606 0.857607 0.474410
vn 0.766031 0.631671 -0.119117
vn -0.574169 0.413710 0.706523
vn -0.852315 -0.116922 0.509792
vn -0.771193 -0.629906 0.092082
vn -0.151348 -0.858986 -0.489118
vn 0.573274 -0.421029 -0.702917
vn 0.845807 0.170520 -0.505503
vn 0.603999 -0.657441 -0.450507
vn 0.923075 0.328798 0.199560
vn 0.516906 0.734944 0.438938
vn 0.117119 0.869661 0.479555
vn -0.546610 0.779973 0.304729
vn -0.912887 -0.188648 -0.362008
vn -0.502170 -0.663087 -0.555104
vn -0.092795 -0.805531 -0.585243
vn 0.917000 0.394456 -0.059296
vn 0.768685 -0.356467 -0.531088
vn 0.536732 0.746148 0.393932
vn -0.004504 0.769921 0.638124
vn -0.738568 0.388580 0.550929
vn -0.897091 -0.433102 -0.087468
vn -0.425214 -0.774413 -0.468484
vn 0.129984 -0.773306 -0.620566
s 1
g Digastric_Muscle_Right_Mesh group1
usemtl Digastric_Muscle_Right_phong1SG
f 66/1/1 41/2/2 3/3/3 1/4/4
f 41/2/2 43/5/5 5/6/6 3/3/3
f 43/5/5 44/7/7 7/8/8 5/6/6
f 44/7/7 45/9/9 9/10/10 7/8/8
f 45/9/9 46/11/11 11/12/12 9/10/10
f 46/13/11 47/14/13 13/15/14 11/16/12
f 47/14/13 48/17/15 15/18/16 13/15/14
f 48/17/15 66/1/1 1/4/4 15/18/16
f 65/19/17 42/20/18 2/21/19 4/22/20
f 67/23/21 65/19/17 4/22/20 6/24/22
f 68/25/23 67/23/21 6/24/22 8/26/24
f 69/27/25 68/25/23 8/26/24 10/28/26
f 70/29/27 69/27/25 10/28/26 12/30/28
f 71/31/29 70/32/27 12/33/28 14/34/30
f 72/35/31 71/31/29 14/34/30 16/36/32
f 42/20/18 72/35/31 16/36/32 2/21/19
f 82/37/33 73/38/34 18/39/35 17/40/36
f 83/41/37 82/37/33 17/40/36 19/42/38
f 84/43/39 83/41/37 19/42/38 20/44/40
f 85/45/41 84/43/39 20/44/40 21/46/42
f 86/47/43 85/45/41 21/46/42 22/48/44
f 87/49/45 86/50/43 22/51/44 23/52/46
f 88/53/47 87/49/45 23/52/46 24/54/48
f 73/38/34 88/53/47 24/54/48 18/39/35
f 58/55/49 49/56/50 17/40/36 18/39/35
f 49/56/50 51/57/51 19/42/38 17/40/36
f 51/57/51 52/58/52 20/44/40 19/42/38
f 52/58/52 53/59/53 21/46/42 20/44/40
f 53/59/53 54/60/54 22/48/44 21/46/42
f 54/61/54 55/62/55 23/52/46 22/51/44
f 55/62/55 56/63/56 24/54/48 23/52/46
f 56/63/56 58/55/49 18/39/35 24/54/48
f 41/2/2 66/1/1 34/64/57 25/65/58
f 43/5/5 41/2/2 25/65/58 27/66/59
f 44/7/7 43/5/5 27/66/59 28/67/60
f 45/9/9 44/7/7 28/67/60 29/68/61
f 46/11/11 45/9/9 29/68/61 30/69/62
f 47/14/13 46/13/11 30/70/62 31/71/63
f 48/17/15 47/14/13 31/71/63 32/72/64
f 66/1/1 48/17/15 32/72/64 34/64/57
f 42/20/18 65/19/17 33/73/65 26/74/66
f 65/19/17 67/23/21 35/75/67 33/73/65
f 67/23/21 68/25/23 36/76/68 35/75/67
f 68/25/23 69/27/25 37/77/69 36/76/68
f 69/27/25 70/29/27 38/78/70 37/77/69
f 70/32/27 71/31/29 39/79/71 38/80/70
f 71/31/29 72/35/31 40/81/72 39/79/71
f 72/35/31 42/20/18 26/74/66 40/81/72
f 81/82/73 74/83/74 25/65/58 34/64/57
f 74/83/74 75/84/75 27/66/59 25/65/58
f 75/84/75 76/85/76 28/67/60 27/66/59
f 76/85/76 77/86/77 29/68/61 28/67/60
f 77/86/77 78/87/78 30/69/62 29/68/61
f 78/88/78 79/89/79 31/71/63 30/70/62
f 79/89/79 80/90/80 32/72/64 31/71/63
f 80/90/80 81/82/73 34/64/57 32/72/64
f 49/56/50 58/55/49 26/74/66 33/73/65
f 51/57/51 49/56/50 33/73/65 35/75/67
f 52/58/52 51/57/51 35/75/67 36/76/68
f 53/59/53 52/58/52 36/76/68 37/77/69
f 54/60/54 53/59/53 37/77/69 38/78/70
f 55/62/55 54/61/54 38/80/70 39/79/71
f 56/63/56 55/62/55 39/79/71 40/81/72
f 58/55/49 56/63/56 40/81/72 26/74/66
f 73/38/34 82/37/33 57/91/81 50/92/82
f 82/37/33 83/41/37 59/93/83 57/91/81
f 83/41/37 84/43/39 60/94/84 59/93/83
f 84/43/39 85/45/41 61/95/85 60/94/84
f 85/45/41 86/47/43 62/96/86 61/95/85
f 86/50/43 87/49/45 63/97/87 62/98/86
f 87/49/45 88/53/47 64/99/88 63/97/87
f 88/53/47 73/38/34 50/92/82 64/99/88
f 74/83/74 81/82/73 50/92/82 57/91/81
f 75/84/75 74/83/74 57/91/81 59/93/83
f 76/85/76 75/84/75 59/93/83 60/94/84
f 77/86/77 76/85/76 60/94/84 61/95/85
f 78/87/78 77/86/77 61/95/85 62/96/86
f 79/89/79 78/88/78 62/98/86 63/97/87
f 80/90/80 79/89/79 63/97/87 64/99/88
f 81/82/73 80/90/80 64/99/88 50/92/82
