# This file uses centimeters as units for non-parametric coordinates.

mtllib Diagastric_Muscle_Left.mtl
g default
v 0.043182 0.427990 0.928534
v 0.567561 1.317616 -0.363820
v 0.048276 0.458797 0.917850
v 0.560999 1.317312 -0.323603
v 0.097536 0.486881 0.907577
v 0.569979 1.298447 -0.299315
v 0.163094 0.495615 0.903910
v 0.589150 1.277176 -0.314129
v 0.202116 0.479296 0.909786
v 0.606441 1.269711 -0.363605
v 0.190762 0.447548 0.921724
v 0.612490 1.269321 -0.398419
v 0.140101 0.419588 0.931902
v 0.602082 1.285322 -0.417017
v 0.080803 0.411791 0.934314
v 0.583158 1.305584 -0.404167
v 0.166769 0.856365 0.246018
v 0.161638 0.840437 0.238659
v 0.183849 0.863674 0.253900
v 0.200703 0.857573 0.257605
v 0.207140 0.842264 0.255120
v 0.199583 0.826687 0.247832
v 0.183197 0.819708 0.240029
v 0.166364 0.825394 0.236272
v 0.082506 0.622789 0.540713
v 0.375204 1.114599 -0.036590
v 0.095245 0.636303 0.543851
v 0.118064 0.642786 0.548320
v 0.137882 0.638216 0.551636
v 0.142969 0.625170 0.551708
v 0.130084 0.611464 0.548376
v 0.106788 0.605227 0.543772
v 0.401469 1.125759 -0.015474
v 0.087121 0.609997 0.540646
v 0.429976 1.108328 -0.013210
v 0.444938 1.072277 -0.031635
v 0.442271 1.038637 -0.059155
v 0.412221 1.028305 -0.082430
v 0.377987 1.046356 -0.085014
v 0.365896 1.080902 -0.063975
v 0.083448 0.485859 0.765621
v 0.488989 1.226671 -0.213578
v 0.108705 0.518564 0.760013
v 0.149639 0.544802 0.750718
v 0.185410 0.542208 0.746485
v 0.195376 0.513767 0.748140
v 0.165526 0.483177 0.751051
v 0.121798 0.462513 0.757546
v 0.275835 1.013670 0.124787
v 0.086890 0.718630 0.378997
v 0.312530 1.003529 0.132018
v 0.337871 0.973427 0.122421
v 0.337489 0.940819 0.101436
v 0.311178 0.925060 0.081494
v 0.273457 0.935543 0.074456
v 0.246996 0.965763 0.084227
v 0.086719 0.722620 0.379835
v 0.248483 0.998142 0.105045
v 0.090279 0.725691 0.381690
v 0.095404 0.726240 0.383521
v 0.099164 0.723852 0.384238
v 0.099422 0.719769 0.383384
v 0.095966 0.716454 0.381474
v 0.090752 0.716003 0.379660
v 0.502529 1.233751 -0.177005
v 0.088963 0.463703 0.764036
v 0.525484 1.214930 -0.160276
v 0.544384 1.178846 -0.176466
v 0.544743 1.148941 -0.209952
v 0.528515 1.145901 -0.240284
v 0.509649 1.165293 -0.257016
v 0.493980 1.197994 -0.247762
v 0.132018 0.778229 0.319785
v 0.083052 0.679394 0.460684
v 0.090425 0.687170 0.463461
v 0.103063 0.690397 0.466766
v 0.113697 0.687037 0.468715
v 0.116048 0.678940 0.468069
v 0.108620 0.670963 0.465156
v 0.095768 0.667898 0.461797
v 0.085191 0.671461 0.459980
v 0.133508 0.788187 0.323884
v 0.140155 0.793377 0.328752
v 0.148149 0.790600 0.331520
v 0.152821 0.781754 0.330636
v 0.151391 0.771923 0.326566
v 0.144688 0.766775 0.321709
v 0.136649 0.769392 0.318924
vt 0.300398 0.898407
vt 0.400000 0.898407
vt 0.400000 0.998008
vt 0.300398 0.998008
vt 0.499602 0.898407
vt 0.499602 0.998008
vt 0.599203 0.898407
vt 0.599203 0.998008
vt 0.698805 0.898407
vt 0.698805 0.998008
vt 0.798407 0.898407
vt 0.798407 0.998008
vt 0.001594 0.898407
vt 0.101195 0.898407
vt 0.101195 0.998008
vt 0.001594 0.998008
vt 0.200797 0.898407
vt 0.200797 0.998008
vt 0.400000 0.101593
vt 0.300398 0.101593
vt 0.300398 0.001992
vt 0.400000 0.001992
vt 0.499602 0.101593
vt 0.499602 0.001992
vt 0.599203 0.101593
vt 0.599203 0.001992
vt 0.698805 0.101593
vt 0.698805 0.001992
vt 0.798407 0.101593
vt 0.798407 0.001992
vt 0.101195 0.101593
vt 0.001594 0.101593
vt 0.001594 0.001992
vt 0.101195 0.001992
vt 0.200797 0.101593
vt 0.200797 0.001992
vt 0.400000 0.500000
vt 0.300398 0.500000
vt 0.300398 0.400398
vt 0.400000 0.400398
vt 0.499602 0.500000
vt 0.499602 0.400398
vt 0.599203 0.500000
vt 0.599203 0.400398
vt 0.698805 0.500000
vt 0.698805 0.400398
vt 0.798407 0.500000
vt 0.798407 0.400398
vt 0.101195 0.500000
vt 0.001594 0.500000
vt 0.001594 0.400398
vt 0.101195 0.400398
vt 0.200797 0.500000
vt 0.200797 0.400398
vt 0.300398 0.300797
vt 0.400000 0.300797
vt 0.499602 0.300797
vt 0.599203 0.300797
vt 0.698805 0.300797
vt 0.798407 0.300797
vt 0.001594 0.300797
vt 0.101195 0.300797
vt 0.200797 0.300797
vt 0.300398 0.798805
vt 0.400000 0.798805
vt 0.499602 0.798805
vt 0.599203 0.798805
vt 0.698805 0.798805
vt 0.798407 0.798805
vt 0.001594 0.798805
vt 0.101195 0.798805
vt 0.200797 0.798805
vt 0.400000 0.201195
vt 0.300398 0.201195
vt 0.499602 0.201195
vt 0.599203 0.201195
vt 0.698805 0.201195
vt 0.798407 0.201195
vt 0.101195 0.201195
vt 0.001594 0.201195
vt 0.200797 0.201195
vt 0.300398 0.699203
vt 0.400000 0.699203
vt 0.499602 0.699203
vt 0.599203 0.699203
vt 0.698805 0.699203
vt 0.798407 0.699203
vt 0.001594 0.699203
vt 0.101195 0.699203
vt 0.200797 0.699203
vt 0.400000 0.599602
vt 0.300398 0.599602
vt 0.499602 0.599602
vt 0.599203 0.599602
vt 0.698805 0.599602
vt 0.798407 0.599602
vt 0.101195 0.599602
vt 0.001594 0.599602
vt 0.200797 0.599602
vn -0.523703 -0.750857 -0.402429
vn -0.526988 -0.782492 -0.331648
vn -0.915756 0.381463 -0.126004
vn -0.914874 0.403564 0.011917
vn -0.467039 0.870816 0.153474
vn -0.498166 0.811962 0.304217
vn -0.039562 0.957300 0.286377
vn -0.120383 0.916723 0.380954
vn 0.861906 0.489030 0.134041
vn 0.631238 0.743833 0.219660
vn 0.677619 -0.700367 -0.224316
vn 0.827787 -0.472849 -0.301965
vn 0.352880 -0.899933 -0.256115
vn 0.430155 -0.814256 -0.389811
vn 0.029127 -0.959444 -0.280389
vn 0.099229 -0.907640 -0.407853
vn -0.275827 0.879008 0.388927
vn -0.670157 0.732998 0.116633
vn -0.908693 0.270687 -0.317814
vn -0.842118 0.506998 -0.183820
vn 0.631877 0.446081 0.633832
vn 0.590779 0.588662 0.551776
vn 0.898587 -0.059272 0.434773
vn 0.941135 0.020756 0.337393
vn 0.850934 -0.518930 0.081383
vn 0.883422 -0.468309 0.015843
vn 0.255184 -0.830079 -0.495832
vn 0.095726 -0.805802 -0.584397
vn -0.570840 -0.429903 -0.699518
vn -0.608941 -0.427914 -0.667893
vn -0.863436 0.083413 -0.497515
vn -0.831638 -0.100175 -0.546207
vn -0.841580 0.536429 0.063146
vn -0.629613 0.687927 0.361030
vn -0.933638 0.276270 -0.228025
vn -0.897812 -0.014915 -0.440126
vn -0.323038 0.762758 0.560221
vn 0.029620 0.639326 0.768365
vn 0.356171 0.514965 0.779714
vn 0.611445 0.182313 0.769998
vn 0.815443 -0.089322 0.571904
vn 0.808275 -0.464098 0.362358
vn 0.771493 -0.631562 0.076991
vn 0.448753 -0.859783 -0.243711
vn 0.308871 -0.858412 -0.409546
vn -0.162600 -0.766008 -0.621927
vn -0.386864 -0.642738 -0.661229
vn -0.704427 -0.340998 -0.622497
vn -0.824840 0.550542 -0.128618
vn -0.342130 0.808477 0.478866
vn 0.367987 0.513462 0.775205
vn 0.772915 -0.006562 0.634476
vn 0.785155 -0.581742 0.212387
vn 0.258914 -0.887374 -0.381486
vn -0.426435 -0.585802 -0.689195
vn -0.824539 0.005431 -0.565780
vn -0.897613 0.374233 0.232897
vn -0.588075 -0.673533 -0.447796
vn -0.533022 0.724920 0.436323
vn -0.192624 0.862847 0.467323
vn 0.449524 0.837902 0.309593
vn 0.901195 -0.221982 -0.372252
vn 0.458578 -0.703907 -0.542421
vn 0.101971 -0.817169 -0.567306
vn -0.766031 0.631671 -0.119114
vn -0.198605 0.857603 0.474419
vn 0.574166 0.413707 0.706527
vn 0.852314 -0.116922 0.509794
vn 0.771193 -0.629906 0.092084
vn 0.151350 -0.858984 -0.489121
vn -0.573273 -0.421027 -0.702918
vn -0.845808 0.170520 -0.505502
vn -0.603999 -0.657440 -0.450509
vn -0.923077 0.328799 0.199551
vn -0.516906 0.734942 0.438939
vn -0.117118 0.869655 0.479565
vn 0.546609 0.779972 0.304732
vn 0.912886 -0.188644 -0.362013
vn 0.502168 -0.663084 -0.555110
vn 0.092794 -0.805530 -0.585244
vn -0.768677 -0.356457 -0.531107
vn -0.917000 0.394456 -0.059293
vn -0.536734 0.746146 0.393933
vn 0.004504 0.769915 0.638130
vn 0.738568 0.388577 0.550932
vn 0.897096 -0.433104 -0.087408
vn 0.425225 -0.774408 -0.468482
vn -0.129971 -0.773286 -0.620594
s 1
g Digastric_Muscle_Left1_Mesh group1
usemtl Digastric_Muscle_Left1_phong1SG
f 66/1/1 1/4/2 3/3/3 41/2/4
f 41/2/4 3/3/3 5/6/5 43/5/6
f 43/5/6 5/6/5 7/8/7 44/7/8
f 44/7/8 7/8/7 9/10/9 45/9/10
f 45/9/10 9/10/9 11/12/11 46/11/12
f 46/13/12 11/16/11 13/15/13 47/14/14
f 47/14/14 13/15/13 15/18/15 48/17/16
f 48/17/16 15/18/15 1/4/2 66/1/1
f 65/19/17 4/22/18 2/21/19 42/20/20
f 67/23/21 6/24/22 4/22/18 65/19/17
f 68/25/23 8/26/24 6/24/22 67/23/21
f 69/27/25 10/28/26 8/26/24 68/25/23
f 70/29/27 12/30/28 10/28/26 69/27/25
f 71/31/29 14/34/30 12/33/28 70/32/27
f 72/35/31 16/36/32 14/34/30 71/31/29
f 42/20/20 2/21/19 16/36/32 72/35/31
f 82/37/33 17/40/34 18/39/35 73/38/36
f 83/41/37 19/42/38 17/40/34 82/37/33
f 84/43/39 20/44/40 19/42/38 83/41/37
f 85/45/41 21/46/42 20/44/40 84/43/39
f 86/47/43 22/48/44 21/46/42 85/45/41
f 87/49/45 23/52/46 22/51/44 86/50/43
f 88/53/47 24/54/48 23/52/46 87/49/45
f 73/38/36 18/39/35 24/54/48 88/53/47
f 58/55/49 18/39/35 17/40/34 49/56/50
f 49/56/50 17/40/34 19/42/38 51/57/51
f 51/57/51 19/42/38 20/44/40 52/58/52
f 52/58/52 20/44/40 21/46/42 53/59/53
f 53/59/53 21/46/42 22/48/44 54/60/54
f 54/61/54 22/51/44 23/52/46 55/62/55
f 55/62/55 23/52/46 24/54/48 56/63/56
f 56/63/56 24/54/48 18/39/35 58/55/49
f 41/2/4 25/65/57 34/64/58 66/1/1
f 43/5/6 27/66/59 25/65/57 41/2/4
f 44/7/8 28/67/60 27/66/59 43/5/6
f 45/9/10 29/68/61 28/67/60 44/7/8
f 46/11/12 30/69/62 29/68/61 45/9/10
f 47/14/14 31/71/63 30/70/62 46/13/12
f 48/17/16 32/72/64 31/71/63 47/14/14
f 66/1/1 34/64/58 32/72/64 48/17/16
f 42/20/20 26/74/65 33/73/66 65/19/17
f 65/19/17 33/73/66 35/75/67 67/23/21
f 67/23/21 35/75/67 36/76/68 68/25/23
f 68/25/23 36/76/68 37/77/69 69/27/25
f 69/27/25 37/77/69 38/78/70 70/29/27
f 70/32/27 38/80/70 39/79/71 71/31/29
f 71/31/29 39/79/71 40/81/72 72/35/31
f 72/35/31 40/81/72 26/74/65 42/20/20
f 81/82/73 34/64/58 25/65/57 74/83/74
f 74/83/74 25/65/57 27/66/59 75/84/75
f 75/84/75 27/66/59 28/67/60 76/85/76
f 76/85/76 28/67/60 29/68/61 77/86/77
f 77/86/77 29/68/61 30/69/62 78/87/78
f 78/88/78 30/70/62 31/71/63 79/89/79
f 79/89/79 31/71/63 32/72/64 80/90/80
f 80/90/80 32/72/64 34/64/58 81/82/73
f 49/56/50 33/73/66 26/74/65 58/55/49
f 51/57/51 35/75/67 33/73/66 49/56/50
f 52/58/52 36/76/68 35/75/67 51/57/51
f 53/59/53 37/77/69 36/76/68 52/58/52
f 54/60/54 38/78/70 37/77/69 53/59/53
f 55/62/55 39/79/71 38/80/70 54/61/54
f 56/63/56 40/81/72 39/79/71 55/62/55
f 58/55/49 26/74/65 40/81/72 56/63/56
f 73/38/36 50/92/81 57/91/82 82/37/33
f 82/37/33 57/91/82 59/93/83 83/41/37
f 83/41/37 59/93/83 60/94/84 84/43/39
f 84/43/39 60/94/84 61/95/85 85/45/41
f 85/45/41 61/95/85 62/96/86 86/47/43
f 86/50/43 62/98/86 63/97/87 87/49/45
f 87/49/45 63/97/87 64/99/88 88/53/47
f 88/53/47 64/99/88 50/92/81 73/38/36
f 74/83/74 57/91/82 50/92/81 81/82/73
f 75/84/75 59/93/83 57/91/82 74/83/74
f 76/85/76 60/94/84 59/93/83 75/84/75
f 77/86/77 61/95/85 60/94/84 76/85/76
f 78/87/78 62/96/86 61/95/85 77/86/77
f 79/89/79 63/97/87 62/98/86 78/88/78
f 80/90/80 64/99/88 63/97/87 79/89/79
f 81/82/73 50/92/81 64/99/88 80/90/80
