# This file uses centimeters as units for non-parametric coordinates.

mtllib Hyoglossus_Muscle_Left.mtl
g default
v 0.088553 0.730385 0.374562
v 0.101135 0.717926 0.386151
v 0.121768 0.930622 0.095634
v 0.130119 0.922810 0.095075
v 0.209696 0.845278 0.521788
v 0.225880 0.838459 0.533646
v 0.362865 1.043539 0.187904
v 0.379090 1.035635 0.187594
v 0.135089 0.804911 0.245359
v 0.143470 0.804552 0.254904
v 0.278927 0.896078 0.337526
v 0.291213 0.886822 0.341277
v 0.096104 0.737701 0.395602
v 0.186777 0.794842 0.488692
v 0.165425 0.803246 0.472116
v 0.084885 0.747335 0.382624
v 0.247902 1.010012 0.168531
v 0.142448 0.967260 0.127484
v 0.165358 0.950340 0.139149
v 0.305295 0.991953 0.175503
v 0.198625 0.887236 0.313784
v 0.140051 0.857029 0.274314
v 0.148837 0.844744 0.275867
v 0.247029 0.858656 0.320674
v 0.109714 0.738422 0.332397
v 0.126592 0.763063 0.287890
v 0.128762 0.887785 0.165594
v 0.151651 0.838787 0.216643
v 0.224503 0.835833 0.452296
v 0.248278 0.856983 0.388706
v 0.330498 0.986938 0.228388
v 0.300829 0.933752 0.282994
v 0.143259 0.850014 0.217173
v 0.119710 0.897453 0.165531
v 0.135447 0.763172 0.299495
v 0.118318 0.726223 0.342819
v 0.287381 0.942764 0.281161
v 0.319213 0.995977 0.228864
v 0.261957 0.848700 0.395442
v 0.237648 0.827316 0.460390
v 0.261140 0.947796 0.217384
v 0.258418 0.901672 0.271239
v 0.173538 0.911993 0.195810
v 0.181790 0.885967 0.261739
v 0.172253 0.809980 0.416257
v 0.175174 0.841734 0.354752
v 0.085252 0.774652 0.335880
v 0.116885 0.812326 0.307650
v 0.128866 0.794344 0.327505
v 0.097872 0.764425 0.370615
v 0.220182 0.819941 0.366737
v 0.205455 0.793732 0.429417
v 0.139183 0.935320 0.186651
v 0.150956 0.889904 0.238020
v 0.215399 0.970598 0.215298
v 0.209950 0.925545 0.266407
vt 0.000427 0.500000
vt 0.071571 0.500000
vt 0.071571 0.571144
vt 0.000427 0.571144
vt 0.071571 0.073136
vt 0.071571 0.144280
vt 0.000427 0.144280
vt 0.000427 0.073136
vt 0.213859 0.642288
vt 0.142715 0.642288
vt 0.142715 0.571144
vt 0.213859 0.571144
vt 0.142715 0.500000
vt 0.142715 0.428856
vt 0.213859 0.428856
vt 0.213859 0.500000
vt 0.142715 0.073136
vt 0.142715 0.144280
vt 0.000427 0.926864
vt 0.071571 0.926864
vt 0.071571 0.998008
vt 0.000427 0.998008
vt 0.213859 0.144280
vt 0.213859 0.073136
vt 0.142715 0.001992
vt 0.213859 0.001992
vt 0.142715 0.998008
vt 0.142715 0.926864
vt 0.213859 0.926864
vt 0.213859 0.998008
vt 0.071571 0.642288
vt 0.000427 0.642288
vt 0.142715 0.286568
vt 0.142715 0.357712
vt 0.071571 0.357712
vt 0.071571 0.286568
vt 0.000427 0.357712
vt 0.000427 0.286568
vt 0.000427 0.001992
vt 0.071571 0.001992
vt 0.071571 0.215424
vt 0.000427 0.215424
vt 0.213859 0.713432
vt 0.142715 0.713432
vt 0.213859 0.784576
vt 0.142715 0.784576
vt 0.213859 0.357712
vt 0.213859 0.286568
vt 0.142715 0.215424
vt 0.000427 0.428856
vt 0.071571 0.428856
vt 0.071571 0.855720
vt 0.000427 0.855720
vt 0.000427 0.784576
vt 0.071571 0.784576
vt 0.213859 0.215424
vt 0.071571 0.713432
vt 0.213859 0.855720
vt 0.142715 0.855720
vt 0.000427 0.713432
vn 0.322621 -0.807163 0.494372
vn -0.772306 0.504918 0.385489
vn -0.723390 0.620933 0.301908
vn 0.324956 -0.890332 0.318924
vn 0.428641 -0.587185 -0.686644
vn 0.413660 -0.477087 -0.775418
vn 0.522783 -0.768717 -0.368474
vn 0.424923 -0.766491 -0.481593
vn -0.812650 -0.227703 -0.536425
vn -0.894624 -0.401795 -0.195469
vn -0.809288 0.536403 0.239426
vn -0.823428 0.566390 0.034192
vn 0.303347 -0.879469 0.366763
vn 0.874548 0.127608 0.467849
vn 0.897753 0.021527 0.439972
vn 0.639089 -0.764654 -0.082882
vn 0.523548 -0.467785 -0.712092
vn 0.550785 -0.677089 -0.488044
vn -0.286598 0.778884 0.557854
vn -0.157071 0.861404 -0.483024
vn -0.270030 0.962730 -0.015315
vn -0.411100 0.752387 0.514695
vn 0.764416 -0.497601 -0.409953
vn 0.766616 -0.345670 -0.541122
vn -0.761247 0.621279 -0.185786
vn -0.591797 0.805726 -0.024108
vn -0.927031 0.250793 0.278776
vn -0.695403 0.587692 0.413561
vn -0.480635 0.873565 0.076639
vn -0.558531 0.803149 0.207351
vn 0.654013 -0.666600 -0.357647
vn 0.478605 -0.736632 -0.477820
vn 0.477389 -0.811801 -0.336273
vn 0.641985 -0.732870 -0.225293
vn 0.624717 -0.700970 -0.344049
vn 0.651250 -0.744387 -0.147516
vn 0.566174 -0.683648 -0.460513
vn 0.450563 -0.724711 -0.521332
vn -0.829147 0.547491 0.112999
vn -0.878604 -0.025390 -0.476876
vn -0.816221 0.531306 0.226928
vn -0.967047 0.121042 -0.223986
vn 0.944297 -0.072639 0.320979
vn 0.960248 -0.237905 0.146030
vn 0.489076 -0.685437 -0.539426
vn 0.641030 -0.761453 0.096281
vn 0.522981 -0.842552 -0.128830
vn -0.412197 0.714230 0.565658
vn -0.440189 0.744884 0.501380
vn -0.293448 0.776714 0.557319
vn -0.269724 0.754349 0.598504
vn 0.873988 -0.407605 -0.264581
vn -0.524038 0.759762 0.384897
vn -0.978059 0.145996 0.148614
vn -0.755732 0.490746 0.433633
vn -0.376985 0.827212 0.416657
s 1
g Hyoglossus_Muscle_Left1_Mesh group1
usemtl Hyoglossus_Muscle_Left1_phong1SG
f 6/1/1 5/4/2 15/3/3 14/2/4
f 20/5/5 8/8/6 31/7/7 41/6/8
f 25/9/9 1/12/10 16/11/11 47/10/12
f 13/13/13 2/16/14 36/15/15 50/14/16
f 19/17/17 20/5/5 41/6/8 43/18/18
f 14/2/4 15/3/3 16/11/11 13/13/13
f 1/12/10 2/16/14 13/13/13 16/11/11
f 38/19/19 7/22/20 17/21/21 55/20/22
f 27/23/23 4/24/24 19/17/17 43/18/18
f 4/24/24 3/26/25 18/25/26 19/17/17
f 18/27/26 3/30/25 34/29/27 53/28/28
f 17/21/21 18/27/26 53/28/28 55/20/22
f 15/3/3 5/4/2 29/32/29 45/31/30
f 16/11/11 15/3/3 45/31/30 47/10/12
f 23/33/31 24/36/32 51/35/33 49/34/34
f 24/36/32 12/38/35 39/37/36 51/35/33
f 20/5/5 17/40/21 7/39/20 8/8/6
f 17/40/21 20/5/5 19/17/17 18/25/26
f 31/7/7 32/42/37 42/41/38 41/6/8
f 32/42/37 12/38/35 24/36/32 42/41/38
f 47/10/12 48/44/39 26/43/40 25/9/9
f 48/44/39 22/46/41 9/45/42 26/43/40
f 35/47/43 10/48/44 23/33/31 49/34/34
f 36/15/15 35/47/43 49/34/34 50/14/16
f 41/6/8 42/41/38 44/49/45 43/18/18
f 42/41/38 24/36/32 23/33/31 44/49/45
f 40/50/46 6/1/1 14/2/4 52/51/47
f 39/37/36 40/50/46 52/51/47 51/35/33
f 52/51/47 14/2/4 13/13/13 50/14/16
f 51/35/33 52/51/47 50/14/16 49/34/34
f 56/52/48 21/55/49 11/54/50 37/53/51
f 55/20/22 56/52/48 37/53/51 38/19/19
f 43/18/18 44/49/45 28/56/52 27/23/23
f 44/49/45 23/33/31 10/48/44 28/56/52
f 46/57/53 21/55/49 22/46/41 48/44/39
f 45/31/30 46/57/53 48/44/39 47/10/12
f 33/58/54 9/45/42 22/46/41 54/59/55
f 34/29/27 33/58/54 54/59/55 53/28/28
f 53/28/28 54/59/55 56/52/48 55/20/22
f 54/59/55 22/46/41 21/55/49 56/52/48
f 29/32/29 30/60/56 46/57/53 45/31/30
f 30/60/56 11/54/50 21/55/49 46/57/53
