# This file uses centimeters as units for non-parametric coordinates.

mtllib Levator_Labii_Superioris_Muscle_Right_02.mtl
g default
v -0.177520 1.056559 1.075676
v -0.261997 1.516407 0.968966
v -0.218367 1.060118 1.045147
v -0.311138 1.484802 0.942108
v -0.237408 1.050409 1.031615
v -0.328554 1.467936 0.921723
v -0.220683 1.039310 1.038204
v -0.307268 1.460157 0.930218
v -0.185004 1.034044 1.071067
v -0.256175 1.468792 0.967819
v -0.140373 1.046299 1.087361
v -0.204967 1.481586 0.994853
v -0.129520 1.059917 1.094378
v -0.187713 1.496151 1.011550
v -0.144209 1.064306 1.091644
v -0.207016 1.506430 0.998656
v -0.264563 1.264219 0.972540
v -0.228481 1.265831 1.003701
v -0.286548 1.264019 0.949825
v -0.257002 1.261147 0.952797
v -0.215540 1.261847 0.977011
v -0.175489 1.261971 1.004689
v -0.155348 1.264929 1.029848
v -0.184700 1.263382 1.022389
v -0.243815 1.142363 1.009896
v -0.245873 1.381943 0.986172
v -0.257544 1.134237 0.991452
v -0.237977 1.128975 0.994375
v -0.195435 1.136183 1.020192
v -0.155777 1.146746 1.044886
v -0.144165 1.156242 1.060440
v -0.165627 1.158257 1.057390
v -0.286080 1.371281 0.949120
v -0.207832 1.154902 1.041222
v -0.302661 1.369108 0.932270
v -0.279798 1.372557 0.938940
v -0.236993 1.383614 0.972758
v -0.190499 1.390642 0.999802
v -0.175649 1.394335 1.017318
v -0.197792 1.388639 1.008846
v -0.231176 1.103058 1.023526
v -0.259644 1.439663 0.987269
v -0.244760 1.094143 1.005556
v -0.226616 1.087585 1.007167
v -0.186067 1.090488 1.033396
v -0.145790 1.099529 1.056985
v -0.133201 1.110600 1.068915
v -0.153401 1.114408 1.068860
v -0.302779 1.425016 0.947713
v -0.195231 1.113792 1.054116
v -0.318817 1.415443 0.928087
v -0.296468 1.413568 0.935462
v -0.249428 1.423717 0.971129
v -0.200685 1.433987 0.998512
v -0.185027 1.443527 1.016123
v -0.208576 1.443890 1.010033
v -0.222837 1.079969 1.031006
v -0.265577 1.483822 0.987993
v -0.242403 1.058722 1.012735
v -0.226862 1.059689 1.018548
v -0.174888 1.061161 1.046253
v -0.135744 1.069860 1.067513
v -0.109399 1.072641 1.084062
v -0.146279 1.085995 1.075704
v -0.310430 1.462132 0.951075
v -0.186891 1.084209 1.061660
v -0.343640 1.447916 0.912484
v -0.302684 1.436224 0.933708
v -0.253552 1.445593 0.970144
v -0.203975 1.457561 0.998209
v -0.170429 1.483547 1.031109
v -0.214419 1.478840 1.010062
vt 0.250996 0.126494
vt 0.126494 0.126494
vt 0.126494 0.001992
vt 0.250996 0.001992
vt 0.001992 0.126494
vt 0.001992 0.001992
vt 0.998008 0.126494
vt 0.873506 0.126494
vt 0.873506 0.001992
vt 0.998008 0.001992
vt 0.749004 0.126494
vt 0.749004 0.001992
vt 0.624502 0.126494
vt 0.624502 0.001992
vt 0.500000 0.126494
vt 0.500000 0.001992
vt 0.375498 0.126494
vt 0.375498 0.001992
vt 0.126494 0.873506
vt 0.250996 0.873506
vt 0.250996 0.998008
vt 0.126494 0.998008
vt 0.001992 0.873506
vt 0.001992 0.998008
vt 0.873506 0.873506
vt 0.998008 0.873506
vt 0.998008 0.998008
vt 0.873506 0.998008
vt 0.749004 0.873506
vt 0.749004 0.998008
vt 0.624502 0.873506
vt 0.624502 0.998008
vt 0.500000 0.873506
vt 0.500000 0.998008
vt 0.375498 0.873506
vt 0.375498 0.998008
vt 0.126494 0.375498
vt 0.250996 0.375498
vt 0.250996 0.500000
vt 0.126494 0.500000
vt 0.001992 0.375498
vt 0.001992 0.500000
vt 0.873506 0.375498
vt 0.998008 0.375498
vt 0.998008 0.500000
vt 0.873506 0.500000
vt 0.749004 0.375498
vt 0.749004 0.500000
vt 0.624502 0.375498
vt 0.624502 0.500000
vt 0.500000 0.375498
vt 0.500000 0.500000
vt 0.375498 0.375498
vt 0.375498 0.500000
vt 0.250996 0.624502
vt 0.126494 0.624502
vt 0.001992 0.624502
vt 0.998008 0.624502
vt 0.873506 0.624502
vt 0.749004 0.624502
vt 0.624502 0.624502
vt 0.500000 0.624502
vt 0.375498 0.624502
vt 0.126494 0.250996
vt 0.250996 0.250996
vt 0.001992 0.250996
vt 0.873506 0.250996
vt 0.998008 0.250996
vt 0.749004 0.250996
vt 0.624502 0.250996
vt 0.500000 0.250996
vt 0.375498 0.250996
vt 0.250996 0.749004
vt 0.126494 0.749004
vt 0.001992 0.749004
vt 0.998008 0.749004
vt 0.873506 0.749004
vt 0.749004 0.749004
vt 0.624502 0.749004
vt 0.500000 0.749004
vt 0.375498 0.749004
vn -0.504074 0.203698 0.839295
vn -0.689000 0.127151 0.713521
vn -0.645167 0.301544 0.702020
vn -0.469771 0.362595 0.804885
vn -0.980483 -0.190662 -0.047966
vn -0.963506 -0.118208 0.240175
vn 0.386358 -0.451314 -0.804390
vn 0.393566 -0.653583 -0.646479
vn 0.480386 -0.453044 -0.750987
vn 0.428786 -0.651628 -0.625719
vn 0.545648 -0.386358 -0.743637
vn 0.466944 -0.677649 -0.568115
vn 0.990057 0.128318 0.057641
vn 0.809802 -0.148851 0.567507
vn -0.232326 0.333756 0.913582
vn -0.206317 0.506522 0.837179
vn -0.688400 0.027979 0.724791
vn -0.524177 0.176483 0.833122
vn -0.498816 0.429465 0.752823
vn -0.690443 0.345836 0.635363
vn -0.954199 -0.232600 0.188151
vn -0.848676 0.487873 -0.204278
vn 0.528462 0.008146 -0.848918
vn 0.526940 0.001574 -0.849901
vn 0.542749 0.016539 -0.839732
vn 0.545542 -0.036967 -0.837268
vn 0.585280 -0.007267 -0.810799
vn 0.610057 -0.068139 -0.789422
vn 0.449296 0.043572 0.892320
vn 0.475693 0.817663 0.324258
vn -0.385564 0.151130 0.910220
vn -0.340486 0.480982 0.807915
vn -0.704316 0.075183 0.705894
vn -0.526040 0.158722 0.835518
vn -0.545486 0.102254 0.831859
vn -0.696683 0.052375 0.715465
vn -0.857794 -0.321581 -0.400968
vn -0.894987 -0.225711 -0.384777
vn 0.403210 -0.217183 -0.888962
vn 0.412737 -0.119142 -0.903025
vn 0.537031 -0.171999 -0.825841
vn 0.542077 -0.074538 -0.837017
vn 0.635496 -0.130460 -0.761003
vn 0.630937 -0.055764 -0.773827
vn 0.949337 0.201631 0.241048
vn 0.894169 0.215678 0.392358
vn -0.289698 0.228006 0.929564
vn -0.345388 0.151868 0.926090
vn -0.542866 -0.024222 0.839470
vn -0.678510 -0.051300 0.732798
vn -0.888802 -0.225587 -0.398926
vn 0.465349 0.030200 -0.884612
vn 0.541843 0.068669 -0.837670
vn 0.611306 0.067797 -0.788485
vn 0.837293 0.188682 0.513166
vn -0.373362 0.015545 0.927556
vn -0.699203 0.017622 0.714706
vn -0.505203 0.095415 0.857709
vn -0.957658 -0.284907 -0.041452
vn 0.442116 -0.198116 -0.874805
vn 0.522086 -0.161369 -0.837488
vn 0.572290 -0.088627 -0.815248
vn 0.923797 0.345361 0.165303
vn -0.233962 0.185997 0.954289
vn -0.527805 -0.127454 0.839748
vn -0.655674 -0.175079 0.734465
vn -0.890861 -0.407619 0.200534
vn 0.499222 0.083818 -0.862411
vn 0.535907 0.109699 -0.837120
vn 0.568983 0.089479 -0.817467
vn 0.487142 -0.096246 0.868003
vn -0.381082 -0.096521 0.919489
s 1
g Levator_Labii_Superioris_Muscle_Right1_Mesh group1
usemtl Levator_Labii_Superioris_Muscle_Right1_phong1SG
f 66/1/1 57/2/2 3/3/3 1/4/4
f 57/2/2 59/5/5 5/6/6 3/3/3
f 59/7/5 60/8/7 7/9/8 5/10/6
f 60/8/7 61/11/9 9/12/10 7/9/8
f 61/11/9 62/13/11 11/14/12 9/12/10
f 62/13/11 63/15/13 13/16/14 11/14/12
f 63/15/13 64/17/15 15/18/16 13/16/14
f 64/17/15 66/1/1 1/4/4 15/18/16
f 65/19/17 58/20/18 2/21/19 4/22/20
f 67/23/21 65/19/17 4/22/20 6/24/22
f 68/25/23 67/26/21 6/27/22 8/28/24
f 69/29/25 68/25/23 8/28/24 10/30/26
f 70/31/27 69/29/25 10/30/26 12/32/28
f 71/33/29 70/31/27 12/32/28 14/34/30
f 72/35/31 71/33/29 14/34/30 16/36/32
f 58/20/18 72/35/31 16/36/32 2/21/19
f 25/37/33 34/38/34 18/39/35 17/40/36
f 27/41/37 25/37/33 17/40/36 19/42/38
f 28/43/39 27/44/37 19/45/38 20/46/40
f 29/47/41 28/43/39 20/46/40 21/48/42
f 30/49/43 29/47/41 21/48/42 22/50/44
f 31/51/45 30/49/43 22/50/44 23/52/46
f 32/53/47 31/51/45 23/52/46 24/54/48
f 34/38/34 32/53/47 24/54/48 18/39/35
f 26/55/49 33/56/50 17/40/36 18/39/35
f 33/56/50 35/57/51 19/42/38 17/40/36
f 35/58/51 36/59/52 20/46/40 19/45/38
f 36/59/52 37/60/53 21/48/42 20/46/40
f 37/60/53 38/61/54 22/50/44 21/48/42
f 38/61/54 39/62/55 23/52/46 22/50/44
f 39/62/55 40/63/56 24/54/48 23/52/46
f 40/63/56 26/55/49 18/39/35 24/54/48
f 41/64/57 50/65/58 34/38/34 25/37/33
f 43/66/59 41/64/57 25/37/33 27/41/37
f 44/67/60 43/68/59 27/44/37 28/43/39
f 45/69/61 44/67/60 28/43/39 29/47/41
f 46/70/62 45/69/61 29/47/41 30/49/43
f 47/71/63 46/70/62 30/49/43 31/51/45
f 48/72/64 47/71/63 31/51/45 32/53/47
f 50/65/58 48/72/64 32/53/47 34/38/34
f 42/73/65 49/74/66 33/56/50 26/55/49
f 49/74/66 51/75/67 35/57/51 33/56/50
f 51/76/67 52/77/68 36/59/52 35/58/51
f 52/77/68 53/78/69 37/60/53 36/59/52
f 53/78/69 54/79/70 38/61/54 37/60/53
f 54/79/70 55/80/71 39/62/55 38/61/54
f 55/80/71 56/81/72 40/63/56 39/62/55
f 56/81/72 42/73/65 26/55/49 40/63/56
f 57/2/2 66/1/1 50/65/58 41/64/57
f 59/5/5 57/2/2 41/64/57 43/66/59
f 60/8/7 59/7/5 43/68/59 44/67/60
f 61/11/9 60/8/7 44/67/60 45/69/61
f 62/13/11 61/11/9 45/69/61 46/70/62
f 63/15/13 62/13/11 46/70/62 47/71/63
f 64/17/15 63/15/13 47/71/63 48/72/64
f 66/1/1 64/17/15 48/72/64 50/65/58
f 58/20/18 65/19/17 49/74/66 42/73/65
f 65/19/17 67/23/21 51/75/67 49/74/66
f 67/26/21 68/25/23 52/77/68 51/76/67
f 68/25/23 69/29/25 53/78/69 52/77/68
f 69/29/25 70/31/27 54/79/70 53/78/69
f 70/31/27 71/33/29 55/80/71 54/79/70
f 71/33/29 72/35/31 56/81/72 55/80/71
f 72/35/31 58/20/18 42/73/65 56/81/72
