# This file uses centimeters as units for non-parametric coordinates.

mtllib Levator_Labii_Superioris_Muscle_Right.mtl
g default
v -0.180731 1.079283 1.068220
v -0.318220 1.064468 0.969185
v -0.027091 1.811148 1.126098
v -0.060172 1.803703 1.062169
v -0.183754 1.082777 1.069591
v -0.319597 1.065346 0.977335
v -0.035503 1.808908 1.130676
v -0.068437 1.801598 1.066554
v -0.134567 1.454117 1.079750
v -0.168221 1.461405 1.038016
v -0.141237 1.456104 1.086025
v -0.174802 1.463345 1.044259
v -0.179081 1.265394 1.051898
v -0.091837 1.650568 1.070458
v -0.188911 1.263283 1.061513
v -0.095577 1.650854 1.073896
v -0.066485 1.644836 1.121017
v -0.240033 1.262087 0.997196
v -0.071467 1.645153 1.124708
v -0.251225 1.260258 1.006149
v -0.035592 1.808884 1.099875
v -0.046634 1.806412 1.078548
v -0.271371 1.063768 1.007044
v -0.228678 1.070551 1.038370
v -0.276933 1.064827 1.011630
v -0.234192 1.071630 1.042959
v -0.052670 1.810913 1.119966
v -0.065579 1.808838 1.098899
v -0.144988 1.457142 1.063320
v -0.155709 1.459627 1.049629
v -0.168136 1.463909 1.064939
v -0.157443 1.461384 1.078509
v -0.198410 1.265808 1.031710
v -0.218390 1.264837 1.013497
v -0.235629 1.262972 1.030207
v -0.215482 1.263779 1.048570
v -0.074509 1.649349 1.081506
v -0.066892 1.647413 1.098831
v -0.076436 1.650297 1.110950
v -0.080188 1.652315 1.092336
v -0.177285 1.175247 1.055223
v -0.069001 1.734270 1.080653
v -0.187979 1.170280 1.066298
v -0.072471 1.733814 1.083340
v -0.102661 1.542313 1.113628
v -0.201502 1.360207 1.004324
v -0.108384 1.543392 1.119006
v -0.211403 1.361427 1.014824
v -0.165123 1.354959 1.051955
v -0.134932 1.550997 1.064397
v -0.174300 1.355934 1.061849
v -0.140603 1.552158 1.069797
v -0.047048 1.732716 1.127606
v -0.268414 1.166281 0.983810
v -0.051333 1.732250 1.130647
v -0.282671 1.161381 0.994297
v -0.234413 1.170372 1.005767
v -0.204832 1.172962 1.029349
v -0.123212 1.549408 1.108908
v -0.133759 1.552467 1.091950
v -0.122724 1.548761 1.077216
v -0.112068 1.545795 1.094168
v -0.255345 1.163992 1.024342
v -0.225295 1.166519 1.048140
v -0.046601 1.733551 1.107367
v -0.053642 1.734158 1.091438
v -0.055912 1.735523 1.119149
v -0.062953 1.736717 1.102160
v -0.179579 1.357685 1.032506
v -0.188110 1.359497 1.018402
v -0.204575 1.362278 1.036392
v -0.195509 1.360287 1.050258
vt 0.873506 0.998008
vt 0.873506 0.873506
vt 0.998008 0.873506
vt 0.998008 0.998008
vt 0.250996 0.500000
vt 0.250996 0.375498
vt 0.375498 0.375498
vt 0.375498 0.500000
vt 0.001992 0.873506
vt 0.126494 0.873506
vt 0.126494 0.998008
vt 0.001992 0.998008
vt 0.500000 0.998008
vt 0.500000 0.873506
vt 0.624502 0.873506
vt 0.624502 0.998008
vt 0.873506 0.500000
vt 0.873506 0.375498
vt 0.998008 0.375498
vt 0.998008 0.500000
vt 0.250996 0.873506
vt 0.250996 0.998008
vt 0.998008 0.126494
vt 0.873506 0.126494
vt 0.873506 0.001992
vt 0.998008 0.001992
vt 0.126494 0.126494
vt 0.001992 0.126494
vt 0.001992 0.001992
vt 0.126494 0.001992
vt 0.624502 0.126494
vt 0.500000 0.126494
vt 0.500000 0.001992
vt 0.624502 0.001992
vt 0.375498 0.126494
vt 0.375498 0.001992
vt 0.998008 0.624502
vt 0.873506 0.624502
vt 0.126494 0.624502
vt 0.001992 0.624502
vt 0.001992 0.500000
vt 0.126494 0.500000
vt 0.624502 0.624502
vt 0.500000 0.624502
vt 0.500000 0.500000
vt 0.624502 0.500000
vt 0.375498 0.624502
vt 0.624502 0.375498
vt 0.749004 0.375498
vt 0.749004 0.500000
vt 0.001992 0.375498
vt 0.126494 0.375498
vt 0.500000 0.375498
vt 0.749004 0.749004
vt 0.749004 0.873506
vt 0.624502 0.749004
vt 0.873506 0.749004
vt 0.250996 0.624502
vt 0.375498 0.998008
vt 0.375498 0.873506
vt 0.749004 0.126494
vt 0.749004 0.001992
vt 0.250996 0.001992
vt 0.250996 0.126494
vt 0.749004 0.624502
vt 0.998008 0.749004
vt 0.250996 0.250996
vt 0.375498 0.250996
vt 0.001992 0.749004
vt 0.126494 0.749004
vt 0.500000 0.749004
vt 0.873506 0.250996
vt 0.998008 0.250996
vt 0.250996 0.749004
vt 0.126494 0.250996
vt 0.001992 0.250996
vt 0.624502 0.250996
vt 0.500000 0.250996
vt 0.375498 0.749004
vt 0.749004 0.250996
vt 0.749004 0.998008
vn 0.605591 -0.196235 -0.771201
vn 0.633171 -0.127351 -0.763464
vn 0.832810 -0.096623 -0.545061
vn 0.671136 -0.165304 -0.722669
vn -0.651977 0.015131 0.758087
vn -0.738857 0.188186 0.647052
vn -0.844298 0.310920 0.436451
vn -0.879819 0.203486 0.429548
vn -0.241782 0.030392 0.969855
vn -0.245893 0.018552 0.969119
vn -0.863148 0.229114 0.449980
vn -0.865037 0.209296 0.455967
vn 0.360457 -0.056153 -0.931084
vn 0.359114 -0.069882 -0.930674
vn 0.819785 -0.105899 -0.562794
vn 0.857869 -0.249719 -0.449112
vn 0.936667 -0.347727 -0.041719
vn 0.949338 -0.264657 -0.169452
vn -0.535944 0.030901 0.843688
vn -0.544354 0.013688 0.838744
vn 0.966366 -0.217749 0.136831
vn 0.952521 -0.197257 -0.231936
vn 0.941441 -0.189592 -0.278825
vn 0.977831 -0.206962 0.031838
vn -0.534477 0.064971 0.842682
vn -0.296288 0.011304 0.955032
vn 0.424530 -0.115894 -0.897966
vn -0.968306 0.102877 0.227595
vn -0.999459 -0.010116 -0.031291
vn 0.520886 -0.247247 -0.817035
vn -0.922818 0.090060 0.374561
vn -0.937957 0.027420 0.345665
vn 0.947619 -0.196056 -0.252153
vn 0.776681 -0.124673 -0.617433
vn -0.113797 -0.091371 0.989293
vn -0.163057 -0.231218 0.959141
vn 0.215746 0.094143 -0.971901
vn -0.932383 0.358004 -0.049947
vn -0.934099 0.355345 -0.034479
vn 0.271969 0.203308 -0.940584
vn -0.853144 0.217784 0.474041
vn 0.348199 0.026605 -0.937043
vn 0.737561 -0.200033 -0.644974
vn 0.759045 -0.062628 -0.648018
vn -0.310536 -0.070258 0.947962
vn -0.915304 0.385459 0.116792
vn 0.645922 -0.099958 -0.756831
vn 0.602695 -0.141877 -0.785258
vn 0.187745 0.071043 -0.979645
vn 0.706798 -0.082811 -0.702552
vn -0.620569 0.079426 0.780119
vn -0.649590 0.064655 0.757531
vn -0.677571 0.079465 0.731152
vn 0.791980 -0.160060 -0.589194
vn 0.801453 -0.200443 -0.563468
vn -0.814489 0.044030 0.578507
vn -0.872989 0.110997 0.474941
vn 0.723762 -0.111196 -0.681031
vn 0.943817 -0.082052 -0.320121
vn -0.849988 0.274645 0.449544
vn -0.857186 0.286454 0.427991
vn -0.134451 0.038937 0.990155
vn -0.945502 0.282211 0.162428
vn 0.912027 -0.284917 -0.295006
vn 0.950264 -0.306956 0.052689
vn -0.565497 0.083299 0.820533
vn -0.475911 0.119452 0.871344
vn 0.385139 -0.078727 -0.919494
vn -0.900237 0.355459 0.251440
vn -0.766723 0.164485 0.620549
vn 0.737241 -0.215821 -0.640232
vn 0.596044 -0.202193 -0.777077
s 1
g Levator_Labii_Superioris_Muscle_Right_Mesh group1
usemtl Levator_Labii_Superioris_Muscle_Right_phong1SG
f 24/1/1 58/2/2 41/3/3 1/4/4
f 32/5/5 59/6/6 60/7/7 31/8/8
f 41/9/3 43/10/9 5/11/10 1/12/4
f 6/13/11 56/14/12 54/15/13 2/16/14
f 29/17/15 62/18/16 45/19/17 9/20/18
f 43/10/9 64/21/19 26/22/20 5/11/10
f 53/23/21 65/24/22 21/25/23 3/26/24
f 55/27/25 53/28/21 3/29/24 7/30/26
f 42/31/27 44/32/28 8/33/29 4/34/30
f 44/32/28 68/35/31 28/36/32 8/33/29
f 49/37/33 69/38/34 29/17/15 9/20/18
f 51/39/35 49/40/33 9/41/18 11/42/36
f 46/43/37 48/44/38 12/45/39 10/46/40
f 48/44/38 71/47/41 31/8/8 12/45/39
f 50/48/42 61/49/43 30/50/44 10/46/40
f 45/51/17 47/52/45 11/42/36 9/41/18
f 52/53/46 50/48/42 10/46/40 12/45/39
f 47/52/45 59/6/6 32/5/5 11/42/36
f 34/54/47 57/55/48 54/15/13 18/56/49
f 33/57/50 58/2/2 57/55/48 34/54/47
f 31/8/8 60/7/7 52/53/46 12/45/39
f 30/50/44 61/49/43 62/18/16 29/17/15
f 32/5/5 72/58/51 51/39/35 11/42/36
f 31/8/8 71/47/41 72/58/51 32/5/5
f 25/59/52 63/60/53 56/14/12 6/13/11
f 26/22/20 64/21/19 63/60/53 25/59/52
f 21/25/23 65/24/22 66/61/54 22/62/55
f 22/62/55 66/61/54 42/31/27 4/34/30
f 27/63/56 67/64/57 55/27/25 7/30/26
f 28/36/32 68/35/31 67/64/57 27/63/56
f 29/17/15 69/38/34 70/65/58 30/50/44
f 30/50/44 70/65/58 46/43/37 10/46/40
f 41/3/3 58/2/2 33/57/50 13/66/59
f 60/7/7 59/6/6 39/67/60 40/68/61
f 43/10/9 41/9/3 13/69/59 15/70/62
f 54/15/13 56/14/12 20/71/63 18/56/49
f 45/19/17 62/18/16 38/72/64 17/73/65
f 64/21/19 43/10/9 15/70/62 36/74/66
f 65/24/22 53/23/21 17/73/65 38/72/64
f 53/28/21 55/27/25 19/75/67 17/76/65
f 44/32/28 42/31/27 14/77/68 16/78/69
f 68/35/31 44/32/28 16/78/69 40/68/61
f 69/38/34 49/37/33 13/66/59 33/57/50
f 49/40/33 51/39/35 15/70/62 13/69/59
f 48/44/38 46/43/37 18/56/49 20/71/63
f 71/47/41 48/44/38 20/71/63 35/79/70
f 61/49/43 50/48/42 14/77/68 37/80/71
f 47/52/45 45/51/17 17/76/65 19/75/67
f 50/48/42 52/53/46 16/78/69 14/77/68
f 59/6/6 47/52/45 19/75/67 39/67/60
f 54/15/13 57/55/48 23/81/72 2/16/14
f 57/55/48 58/2/2 24/1/1 23/81/72
f 52/53/46 60/7/7 40/68/61 16/78/69
f 62/18/16 61/49/43 37/80/71 38/72/64
f 51/39/35 72/58/51 36/74/66 15/70/62
f 72/58/51 71/47/41 35/79/70 36/74/66
f 56/14/12 63/60/53 35/79/70 20/71/63
f 63/60/53 64/21/19 36/74/66 35/79/70
f 66/61/54 65/24/22 38/72/64 37/80/71
f 42/31/27 66/61/54 37/80/71 14/77/68
f 55/27/25 67/64/57 39/67/60 19/75/67
f 67/64/57 68/35/31 40/68/61 39/67/60
f 70/65/58 69/38/34 33/57/50 34/54/47
f 46/43/37 70/65/58 34/54/47 18/56/49
