# This file uses centimeters as units for non-parametric coordinates.

mtllib Levator_Anguli_Oris_Muscle_Right.mtl
g default
v -0.232213 1.049601 1.039121
v -0.327089 1.038622 0.959546
v -0.232216 1.407726 0.930612
v -0.339972 1.369127 0.851115
v -0.227173 1.057541 1.038752
v -0.328918 1.045387 0.957163
v -0.233533 1.416086 0.931300
v -0.342409 1.377205 0.851866
v -0.282988 1.390741 0.888754
v -0.274567 1.030561 0.995340
v -0.276174 1.062542 1.002652
v -0.288545 1.413048 0.899043
v -0.249509 1.390947 0.907480
v -0.299641 1.032444 0.976176
v -0.307591 1.055046 0.978729
v -0.260772 1.420519 0.917394
v -0.310858 1.376934 0.867783
v -0.250284 1.037813 1.019033
v -0.251421 1.062712 1.022307
v -0.320619 1.401449 0.878109
v -0.213498 1.242743 0.965237
v -0.318383 1.211861 0.887753
v -0.220405 1.248461 0.970703
v -0.329106 1.216133 0.894539
v -0.257375 1.223309 0.921941
v -0.281844 1.240320 0.948115
v -0.230991 1.231762 0.943301
v -0.252683 1.247276 0.965467
v -0.284866 1.217005 0.902794
v -0.313124 1.225445 0.921908
v -0.197682 1.159678 1.000579
v -0.327638 1.306293 0.848937
v -0.207456 1.165291 1.005377
v -0.336563 1.310448 0.856449
v -0.265299 1.311403 0.885068
v -0.273092 1.151323 0.988141
v -0.236982 1.316797 0.907038
v -0.237573 1.160122 1.001979
v -0.277427 1.122461 0.939225
v -0.318399 1.315731 0.882804
v -0.220063 1.323812 0.933471
v -0.315324 1.112236 0.923957
v -0.226322 1.328688 0.939693
v -0.326697 1.116369 0.931204
v -0.247451 1.133703 0.958134
v -0.284301 1.324562 0.907122
v -0.216812 1.145523 0.979354
v -0.257513 1.329889 0.928173
v -0.294513 1.308392 0.864129
v -0.309701 1.132311 0.962437
v -0.192261 1.085793 1.036005
v -0.341278 1.350796 0.841346
v -0.200335 1.090128 1.043200
v -0.345405 1.346628 0.844766
v -0.273262 1.355976 0.882366
v -0.268900 1.096344 1.005588
v -0.244779 1.361963 0.904591
v -0.231033 1.099493 1.021478
v -0.279783 1.072104 0.954692
v -0.319588 1.353155 0.879198
v -0.223646 1.389484 0.938626
v -0.323518 1.058149 0.942111
v -0.228621 1.392349 0.943423
v -0.331026 1.061615 0.948214
v -0.248934 1.085323 0.975652
v -0.294890 1.367777 0.909263
v -0.215278 1.092539 0.999978
v -0.266950 1.374062 0.928892
v -0.301348 1.346384 0.859739
v -0.303184 1.082893 0.978453
vt 0.001195 0.898407
vt 0.100797 0.898407
vt 0.100797 0.998008
vt 0.001195 0.998008
vt 0.100797 0.101594
vt 0.100797 0.201195
vt 0.001195 0.201195
vt 0.001195 0.101594
vt 0.100797 0.001992
vt 0.001195 0.001992
vt 0.001195 0.500000
vt 0.100797 0.500000
vt 0.100797 0.599602
vt 0.001195 0.599602
vt 0.598805 0.699203
vt 0.499203 0.699203
vt 0.499203 0.599602
vt 0.598805 0.599602
vt 0.001195 0.400398
vt 0.100797 0.400398
vt 0.598805 0.898407
vt 0.499203 0.898407
vt 0.499203 0.798805
vt 0.598805 0.798805
vt 0.100797 0.300797
vt 0.001195 0.300797
vt 0.001195 0.699203
vt 0.100797 0.699203
vt 0.100797 0.798805
vt 0.001195 0.798805
vt 0.598805 0.400398
vt 0.499203 0.400398
vt 0.499203 0.300797
vt 0.598805 0.300797
vt 0.499203 0.998008
vt 0.598805 0.998008
vt 0.499203 0.201195
vt 0.499203 0.101594
vt 0.598805 0.101594
vt 0.598805 0.201195
vt 0.499203 0.001992
vt 0.598805 0.001992
vt 0.499203 0.500000
vt 0.598805 0.500000
vt 0.200398 0.998008
vt 0.200398 0.898407
vt 0.300000 0.898407
vt 0.300000 0.998008
vt 0.200398 0.201195
vt 0.200398 0.101594
vt 0.300000 0.101594
vt 0.300000 0.201195
vt 0.200398 0.001992
vt 0.300000 0.001992
vt 0.200398 0.599602
vt 0.200398 0.500000
vt 0.300000 0.500000
vt 0.300000 0.599602
vt 0.399602 0.599602
vt 0.399602 0.699203
vt 0.300000 0.699203
vt 0.200398 0.400398
vt 0.300000 0.400398
vt 0.399602 0.798805
vt 0.399602 0.898407
vt 0.300000 0.798805
vt 0.200398 0.300797
vt 0.300000 0.300797
vt 0.200398 0.798805
vt 0.200398 0.699203
vt 0.399602 0.300797
vt 0.399602 0.400398
vt 0.399602 0.998008
vt 0.399602 0.101594
vt 0.399602 0.201195
vt 0.399602 0.001992
vt 0.399602 0.500000
vn 0.626502 -0.575607 -0.525520
vn 0.703939 -0.392117 -0.592211
vn 0.907714 -0.347403 -0.235302
vn 0.653418 -0.641556 -0.401810
vn -0.068133 0.325734 0.943003
vn -0.405169 0.283994 0.869014
vn -0.493889 0.221284 0.840897
vn -0.318646 0.145814 0.936591
vn -0.907770 0.044418 0.417110
vn -0.952837 0.079802 0.292802
vn 0.204874 -0.448687 -0.869889
vn 0.333225 -0.611931 -0.717287
vn 0.459550 0.343270 -0.819133
vn 0.492159 0.126901 -0.861206
vn 0.300377 0.116263 -0.946708
vn 0.333499 0.378736 -0.863329
vn -0.702363 0.130148 0.699820
vn -0.724102 0.147479 0.673740
vn 0.648534 0.195402 -0.735677
vn 0.703319 0.123983 -0.699979
vn 0.563187 0.157754 -0.811131
vn 0.507112 0.279728 -0.815224
vn -0.530775 0.189616 0.826029
vn -0.574827 0.120028 0.809424
vn 0.476986 -0.573902 -0.665673
vn 0.492526 -0.419047 -0.762770
vn 0.607769 -0.411463 -0.679202
vn 0.586191 -0.543019 -0.601257
vn -0.722985 0.079012 0.686331
vn -0.735123 -0.001775 0.677932
vn -0.642488 0.043721 0.765048
vn -0.638125 0.200739 0.743304
vn 0.933530 0.119345 -0.338051
vn 0.837425 0.202932 -0.507482
vn -0.483021 0.051275 0.874106
vn -0.246754 0.114978 0.962233
vn -0.410349 0.304974 0.859422
vn -0.517014 0.278047 0.809560
vn -0.909005 -0.071179 0.410662
vn -0.785742 -0.024672 0.618063
vn 0.944539 -0.018192 -0.327894
vn 0.714354 -0.202298 -0.669906
vn 0.719484 -0.192434 -0.667317
vn 0.940675 -0.021051 -0.338657
vn -0.347860 0.313164 0.883698
vn 0.005006 0.394751 0.918774
vn 0.011212 0.385448 0.922661
vn -0.384660 0.337255 0.859241
vn 0.194084 -0.324629 -0.925715
vn -0.983383 0.048101 0.175055
vn -0.985755 0.023482 0.166539
vn 0.177344 -0.343947 -0.922090
vn 0.182229 -0.271747 -0.944958
vn 0.503362 -0.203160 -0.839853
vn 0.502986 -0.282883 -0.816690
vn -0.766343 0.194507 0.612280
vn -0.764578 0.223926 0.604382
vn 0.613773 -0.164571 -0.772139
vn 0.733542 -0.108725 -0.670892
vn 0.611148 -0.246894 -0.752025
vn -0.563044 0.256205 0.785710
vn -0.604203 0.293264 0.740901
vn 0.608438 -0.249796 -0.753264
vn 0.500781 -0.284012 -0.817652
vn -0.633752 0.177159 0.752977
vn -0.757526 0.152654 0.634706
vn 0.928822 0.006725 -0.370466
vn -0.077226 0.209563 0.974741
vn -0.452672 0.169188 0.875479
vn -0.967131 -0.020670 0.253438
s 1
g Levator_Anguli_Oris_Muscle_Right_Mesh group1
usemtl Levator_Anguli_Oris_Muscle_Right_phong1SG
f 18/1/1 67/2/2 51/3/3 1/4/4
f 53/5/5 58/6/6 19/7/7 5/8/8
f 51/9/3 53/5/5 5/8/8 1/10/4
f 6/11/9 64/12/10 62/13/11 2/14/12
f 17/15/13 69/16/14 52/17/15 4/18/16
f 15/19/17 70/20/18 64/12/10 6/11/9
f 13/21/19 57/22/20 55/23/21 9/24/22
f 19/7/7 58/6/6 56/25/23 11/26/24
f 14/27/25 59/28/26 65/29/27 10/30/28
f 20/31/29 60/32/30 66/33/31 12/34/32
f 61/35/33 57/22/20 13/21/19 3/36/34
f 68/37/35 63/38/36 7/39/37 16/40/38
f 63/38/36 61/41/33 3/42/34 7/39/37
f 52/17/15 54/43/39 8/44/40 4/18/16
f 62/13/11 59/28/26 14/27/25 2/14/12
f 54/43/39 60/32/30 20/31/29 8/44/40
f 65/29/27 67/2/2 18/1/1 10/30/28
f 66/33/31 68/37/35 16/40/38 12/34/32
f 55/23/21 69/16/14 17/15/13 9/24/22
f 56/25/23 70/20/18 15/19/17 11/26/24
f 31/45/41 47/46/42 27/47/43 21/48/44
f 38/49/45 33/50/46 23/51/47 28/52/48
f 33/50/46 31/53/41 21/54/44 23/51/47
f 42/55/49 44/56/50 24/57/51 22/58/52
f 32/59/53 49/60/54 29/61/55 22/58/52
f 44/56/50 50/62/56 30/63/57 24/57/51
f 35/64/58 37/65/59 27/47/43 25/66/60
f 36/67/61 38/49/45 28/52/48 26/68/62
f 45/69/63 39/70/64 29/61/55 25/66/60
f 46/71/65 40/72/66 30/63/57 26/68/62
f 37/65/59 41/73/67 21/48/44 27/47/43
f 43/74/68 48/75/69 28/52/48 23/51/47
f 41/76/67 43/74/68 23/51/47 21/54/44
f 34/77/70 32/59/53 22/58/52 24/57/51
f 39/70/64 42/55/49 22/58/52 29/61/55
f 40/72/66 34/77/70 24/57/51 30/63/57
f 47/46/42 45/69/63 25/66/60 27/47/43
f 48/75/69 46/71/65 26/68/62 28/52/48
f 49/60/54 35/64/58 25/66/60 29/61/55
f 50/62/56 36/67/61 26/68/62 30/63/57
f 51/3/3 67/2/2 47/46/42 31/45/41
f 58/6/6 53/5/5 33/50/46 38/49/45
f 53/5/5 51/9/3 31/53/41 33/50/46
f 62/13/11 64/12/10 44/56/50 42/55/49
f 52/17/15 69/16/14 49/60/54 32/59/53
f 64/12/10 70/20/18 50/62/56 44/56/50
f 55/23/21 57/22/20 37/65/59 35/64/58
f 56/25/23 58/6/6 38/49/45 36/67/61
f 65/29/27 59/28/26 39/70/64 45/69/63
f 66/33/31 60/32/30 40/72/66 46/71/65
f 57/22/20 61/35/33 41/73/67 37/65/59
f 63/38/36 68/37/35 48/75/69 43/74/68
f 61/41/33 63/38/36 43/74/68 41/76/67
f 54/43/39 52/17/15 32/59/53 34/77/70
f 59/28/26 62/13/11 42/55/49 39/70/64
f 60/32/30 54/43/39 34/77/70 40/72/66
f 67/2/2 65/29/27 45/69/63 47/46/42
f 68/37/35 66/33/31 46/71/65 48/75/69
f 69/16/14 55/23/21 35/64/58 49/60/54
f 70/20/18 56/25/23 36/67/61 50/62/56
