# This file uses centimeters as units for non-parametric coordinates.

mtllib Levator_Labii_Superioris_Muscle_Left_01.mtl
g default
v 0.180731 1.079283 1.068220
v 0.318220 1.064468 0.969185
v 0.027091 1.811148 1.126098
v 0.060172 1.803703 1.062169
v 0.183754 1.082777 1.069591
v 0.319597 1.065346 0.977335
v 0.035503 1.808908 1.130676
v 0.068437 1.801598 1.066554
v 0.134567 1.454117 1.079750
v 0.168221 1.461405 1.038016
v 0.141237 1.456104 1.086025
v 0.174802 1.463345 1.044259
v 0.179081 1.265394 1.051898
v 0.091837 1.650568 1.070458
v 0.188911 1.263283 1.061513
v 0.095577 1.650854 1.073896
v 0.066485 1.644836 1.121017
v 0.240033 1.262087 0.997196
v 0.071467 1.645153 1.124708
v 0.251225 1.260258 1.006149
v 0.035592 1.808884 1.099875
v 0.046634 1.806412 1.078548
v 0.271371 1.063768 1.007044
v 0.228678 1.070551 1.038370
v 0.276933 1.064827 1.011630
v 0.234192 1.071630 1.042959
v 0.052670 1.810913 1.119966
v 0.065579 1.808838 1.098899
v 0.144988 1.457142 1.063320
v 0.155709 1.459627 1.049629
v 0.168136 1.463909 1.064939
v 0.157443 1.461384 1.078509
v 0.198410 1.265808 1.031710
v 0.218390 1.264837 1.013497
v 0.235629 1.262972 1.030207
v 0.215482 1.263779 1.048570
v 0.074509 1.649349 1.081506
v 0.066892 1.647413 1.098831
v 0.076436 1.650297 1.110950
v 0.080188 1.652315 1.092336
v 0.177285 1.175247 1.055223
v 0.069001 1.734270 1.080653
v 0.187979 1.170280 1.066298
v 0.072471 1.733814 1.083340
v 0.102661 1.542313 1.113628
v 0.201502 1.360207 1.004324
v 0.108384 1.543392 1.119006
v 0.211403 1.361427 1.014824
v 0.165123 1.354959 1.051955
v 0.134932 1.550997 1.064397
v 0.174300 1.355934 1.061849
v 0.140603 1.552158 1.069797
v 0.047048 1.732716 1.127606
v 0.268414 1.166281 0.983810
v 0.051333 1.732250 1.130647
v 0.282671 1.161381 0.994297
v 0.234413 1.170372 1.005767
v 0.204832 1.172962 1.029349
v 0.123212 1.549408 1.108908
v 0.133759 1.552467 1.091950
v 0.122724 1.548761 1.077216
v 0.112068 1.545795 1.094168
v 0.255345 1.163992 1.024342
v 0.225295 1.166519 1.048140
v 0.046601 1.733551 1.107367
v 0.053642 1.734158 1.091438
v 0.055912 1.735523 1.119149
v 0.062953 1.736717 1.102160
v 0.179579 1.357685 1.032506
v 0.188110 1.359497 1.018402
v 0.204575 1.362278 1.036392
v 0.195509 1.360287 1.050258
vt 0.873506 0.998008
vt 0.873506 0.873506
vt 0.998008 0.873506
vt 0.998008 0.998008
vt 0.250996 0.500000
vt 0.250996 0.375498
vt 0.375498 0.375498
vt 0.375498 0.500000
vt 0.001992 0.873506
vt 0.126494 0.873506
vt 0.126494 0.998008
vt 0.001992 0.998008
vt 0.500000 0.998008
vt 0.500000 0.873506
vt 0.624502 0.873506
vt 0.624502 0.998008
vt 0.873506 0.500000
vt 0.873506 0.375498
vt 0.998008 0.375498
vt 0.998008 0.500000
vt 0.250996 0.873506
vt 0.250996 0.998008
vt 0.998008 0.126494
vt 0.873506 0.126494
vt 0.873506 0.001992
vt 0.998008 0.001992
vt 0.126494 0.126494
vt 0.001992 0.126494
vt 0.001992 0.001992
vt 0.126494 0.001992
vt 0.624502 0.126494
vt 0.500000 0.126494
vt 0.500000 0.001992
vt 0.624502 0.001992
vt 0.375498 0.126494
vt 0.375498 0.001992
vt 0.998008 0.624502
vt 0.873506 0.624502
vt 0.126494 0.624502
vt 0.001992 0.624502
vt 0.001992 0.500000
vt 0.126494 0.500000
vt 0.624502 0.624502
vt 0.500000 0.624502
vt 0.500000 0.500000
vt 0.624502 0.500000
vt 0.375498 0.624502
vt 0.624502 0.375498
vt 0.749004 0.375498
vt 0.749004 0.500000
vt 0.001992 0.375498
vt 0.126494 0.375498
vt 0.500000 0.375498
vt 0.749004 0.749004
vt 0.749004 0.873506
vt 0.624502 0.749004
vt 0.873506 0.749004
vt 0.250996 0.624502
vt 0.375498 0.998008
vt 0.375498 0.873506
vt 0.749004 0.126494
vt 0.749004 0.001992
vt 0.250996 0.001992
vt 0.250996 0.126494
vt 0.749004 0.624502
vt 0.998008 0.749004
vt 0.250996 0.250996
vt 0.375498 0.250996
vt 0.001992 0.749004
vt 0.126494 0.749004
vt 0.500000 0.749004
vt 0.873506 0.250996
vt 0.998008 0.250996
vt 0.250996 0.749004
vt 0.126494 0.250996
vt 0.001992 0.250996
vt 0.624502 0.250996
vt 0.500000 0.250996
vt 0.375498 0.749004
vt 0.749004 0.250996
vt 0.749004 0.998008
vn -0.605588 -0.196234 -0.771204
vn -0.671138 -0.165305 -0.722667
vn -0.832810 -0.096623 -0.545060
vn -0.633170 -0.127351 -0.763464
vn 0.651975 0.015131 0.758090
vn 0.879822 0.203486 0.429543
vn 0.844299 0.310921 0.436447
vn 0.738855 0.188185 0.647055
vn 0.245895 0.018552 0.969119
vn 0.241782 0.030392 0.969855
vn 0.863150 0.229114 0.449978
vn -0.359114 -0.069882 -0.930674
vn -0.360454 -0.056152 -0.931085
vn 0.865038 0.209296 0.455964
vn -0.819785 -0.105899 -0.562796
vn -0.949338 -0.264656 -0.169453
vn -0.936667 -0.347726 -0.041729
vn -0.857867 -0.249718 -0.449115
vn 0.544354 0.013688 0.838744
vn 0.535945 0.030901 0.843687
vn -0.966366 -0.217749 0.136830
vn -0.977831 -0.206962 0.031830
vn -0.941439 -0.189592 -0.278833
vn -0.952520 -0.197257 -0.231938
vn 0.534475 0.064971 0.842683
vn 0.296285 0.011302 0.955033
vn -0.424528 -0.115893 -0.897967
vn -0.520882 -0.247245 -0.817038
vn 0.999459 -0.010116 -0.031291
vn 0.968308 0.102877 0.227587
vn 0.937956 0.027420 0.345669
vn 0.922818 0.090060 0.374562
vn -0.947619 -0.196057 -0.252150
vn -0.776681 -0.124674 -0.617433
vn 0.113796 -0.091370 0.989294
vn 0.163056 -0.231216 0.959141
vn -0.215737 0.094144 -0.971903
vn -0.271955 0.203306 -0.940589
vn 0.934099 0.355345 -0.034483
vn 0.932383 0.358004 -0.049956
vn 0.853146 0.217784 0.474038
vn -0.348198 0.026605 -0.937043
vn -0.759040 -0.062628 -0.648025
vn -0.737562 -0.200033 -0.644972
vn 0.310538 -0.070256 0.947961
vn 0.915305 0.385459 0.116779
vn -0.645921 -0.099958 -0.756832
vn -0.187738 0.071045 -0.979647
vn -0.602691 -0.141876 -0.785261
vn -0.706799 -0.082811 -0.702550
vn 0.620565 0.079425 0.780122
vn 0.649589 0.064655 0.757531
vn 0.677571 0.079465 0.731151
vn -0.801448 -0.200442 -0.563476
vn -0.791977 -0.160060 -0.589197
vn 0.814487 0.044029 0.578508
vn 0.872987 0.110997 0.474946
vn -0.723758 -0.111197 -0.681035
vn -0.943816 -0.082052 -0.320123
vn 0.857187 0.286454 0.427988
vn 0.849985 0.274645 0.449550
vn 0.134451 0.038936 0.990155
vn 0.945503 0.282211 0.162421
vn -0.950264 -0.306956 0.052686
vn -0.912027 -0.284917 -0.295007
vn 0.565495 0.083298 0.820535
vn 0.475909 0.119452 0.871345
vn 0.900240 0.355461 0.251426
vn -0.385141 -0.078727 -0.919493
vn 0.766728 0.164486 0.620543
vn -0.737243 -0.215822 -0.640229
vn -0.596042 -0.202192 -0.777080
s 1
g Levator_Labii_Superioris_Muscle_Left2_Mesh group1
usemtl Levator_Labii_Superioris_Muscle_Left2_phong1SG
f 24/1/1 1/4/2 41/3/3 58/2/4
f 32/5/5 31/8/6 60/7/7 59/6/8
f 41/9/3 1/12/2 5/11/9 43/10/10
f 6/13/11 2/16/12 54/15/13 56/14/14
f 29/17/15 9/20/16 45/19/17 62/18/18
f 43/10/10 5/11/9 26/22/19 64/21/20
f 53/23/21 3/26/22 21/25/23 65/24/24
f 55/27/25 7/30/26 3/29/22 53/28/21
f 42/31/27 4/34/28 8/33/29 44/32/30
f 44/32/30 8/33/29 28/36/31 68/35/32
f 49/37/33 9/20/16 29/17/15 69/38/34
f 51/39/35 11/42/36 9/41/16 49/40/33
f 46/43/37 10/46/38 12/45/39 48/44/40
f 48/44/40 12/45/39 31/8/6 71/47/41
f 50/48/42 10/46/38 30/50/43 61/49/44
f 45/51/17 9/41/16 11/42/36 47/52/45
f 52/53/46 12/45/39 10/46/38 50/48/42
f 47/52/45 11/42/36 32/5/5 59/6/8
f 34/54/47 18/56/48 54/15/13 57/55/49
f 33/57/50 34/54/47 57/55/49 58/2/4
f 31/8/6 12/45/39 52/53/46 60/7/7
f 30/50/43 29/17/15 62/18/18 61/49/44
f 32/5/5 11/42/36 51/39/35 72/58/51
f 31/8/6 32/5/5 72/58/51 71/47/41
f 25/59/52 6/13/11 56/14/14 63/60/53
f 26/22/19 25/59/52 63/60/53 64/21/20
f 21/25/23 22/62/54 66/61/55 65/24/24
f 22/62/54 4/34/28 42/31/27 66/61/55
f 27/63/56 7/30/26 55/27/25 67/64/57
f 28/36/31 27/63/56 67/64/57 68/35/32
f 29/17/15 30/50/43 70/65/58 69/38/34
f 30/50/43 10/46/38 46/43/37 70/65/58
f 41/3/3 13/66/59 33/57/50 58/2/4
f 60/7/7 40/68/60 39/67/61 59/6/8
f 43/10/10 15/70/62 13/69/59 41/9/3
f 54/15/13 18/56/48 20/71/63 56/14/14
f 45/19/17 17/73/64 38/72/65 62/18/18
f 64/21/20 36/74/66 15/70/62 43/10/10
f 65/24/24 38/72/65 17/73/64 53/23/21
f 53/28/21 17/76/64 19/75/67 55/27/25
f 44/32/30 16/78/68 14/77/69 42/31/27
f 68/35/32 40/68/60 16/78/68 44/32/30
f 69/38/34 33/57/50 13/66/59 49/37/33
f 49/40/33 13/69/59 15/70/62 51/39/35
f 48/44/40 20/71/63 18/56/48 46/43/37
f 71/47/41 35/79/70 20/71/63 48/44/40
f 61/49/44 37/80/71 14/77/69 50/48/42
f 47/52/45 19/75/67 17/76/64 45/51/17
f 50/48/42 14/77/69 16/78/68 52/53/46
f 59/6/8 39/67/61 19/75/67 47/52/45
f 54/15/13 2/16/12 23/81/72 57/55/49
f 57/55/49 23/81/72 24/1/1 58/2/4
f 52/53/46 16/78/68 40/68/60 60/7/7
f 62/18/18 38/72/65 37/80/71 61/49/44
f 51/39/35 15/70/62 36/74/66 72/58/51
f 72/58/51 36/74/66 35/79/70 71/47/41
f 56/14/14 20/71/63 35/79/70 63/60/53
f 63/60/53 35/79/70 36/74/66 64/21/20
f 66/61/55 37/80/71 38/72/65 65/24/24
f 42/31/27 14/77/69 37/80/71 66/61/55
f 55/27/25 19/75/67 39/67/61 67/64/57
f 67/64/57 39/67/61 40/68/60 68/35/32
f 70/65/58 34/54/47 33/57/50 69/38/34
f 46/43/37 18/56/48 34/54/47 70/65/58
