# This file uses centimeters as units for non-parametric coordinates.

mtllib Lower_Premolar_Left_01.mtl
g default
v -0.177870 0.718298 0.789179
v -0.169228 0.911457 0.868244
v -0.209233 0.984335 0.831639
v -0.158410 0.961956 0.887527
v -0.208741 0.924335 0.814740
v -0.191967 0.905071 0.875711
v -0.222005 0.998770 0.824985
v -0.190513 0.967966 0.911779
v -0.183843 0.924263 0.810652
v -0.166987 0.905930 0.872201
v -0.215647 0.928553 0.810316
v -0.190837 0.911121 0.881802
v -0.185830 0.984608 0.832087
v -0.171048 0.979591 0.873036
v -0.163985 0.910311 0.860125
v -0.178179 0.925226 0.818354
v -0.201308 0.909012 0.872096
v -0.211139 0.912230 0.822982
v -0.231086 0.986694 0.839476
v -0.196742 0.975067 0.904527
v -0.173302 0.917940 0.816234
v -0.160863 0.907068 0.862958
v -0.202350 0.908041 0.874255
v -0.217568 0.913805 0.817736
v -0.185238 0.920700 0.813618
v -0.171897 0.841183 0.846371
v -0.205444 0.860619 0.807218
v -0.195743 0.844696 0.846122
v -0.165584 0.847164 0.832386
v -0.174662 0.860399 0.810481
v -0.207105 0.850737 0.840248
v -0.213129 0.857752 0.819227
v -0.186000 0.871048 0.803917
v -0.177284 0.715189 0.804432
v -0.189177 0.716902 0.796121
v -0.187208 0.715187 0.808602
v -0.174400 0.714741 0.795101
v -0.175179 0.714111 0.793871
v -0.194804 0.710188 0.804278
v -0.193694 0.708241 0.802529
v -0.179974 0.905960 0.881605
v -0.196780 0.921879 0.804537
v -0.210255 0.997200 0.822630
v -0.173473 0.985020 0.906969
v -0.197485 0.939415 0.804625
v -0.175864 0.912640 0.883601
v -0.184158 0.711613 0.804880
v -0.184178 0.712650 0.794463
v -0.201797 0.988632 0.839645
v -0.174730 0.979826 0.882147
v -0.183529 0.841410 0.846919
v -0.194765 0.861689 0.803193
v -0.183778 0.713833 0.807862
v -0.184053 0.716152 0.791911
v -0.177123 0.983759 0.851765
v -0.169472 0.923256 0.838348
v -0.213077 0.903160 0.854281
v -0.229915 0.983074 0.889739
v -0.162924 0.912258 0.836518
v -0.219017 0.907419 0.854915
v -0.167637 0.852890 0.821681
v -0.213739 0.856560 0.830113
v -0.174268 0.715393 0.794700
v -0.194702 0.709316 0.803191
v -0.185757 0.709627 0.799291
v -0.207906 0.997778 0.873125
v -0.199538 0.984213 0.820881
v -0.179322 0.970503 0.892272
v -0.211616 0.983906 0.832295
v -0.185627 0.976988 0.890507
v -0.200293 0.974846 0.840597
v -0.178647 0.972586 0.869340
v -0.220411 0.976583 0.856675
v -0.203873 0.983269 0.888855
v -0.220692 0.979891 0.842482
v -0.184169 0.974110 0.883214
v -0.173114 0.965599 0.847538
v -0.222795 0.989746 0.879661
v -0.153358 0.968418 0.883769
v -0.148359 0.932676 0.880628
v -0.186933 0.963541 0.917128
v -0.195662 0.921148 0.904507
v -0.182041 0.948193 0.805364
v -0.186602 0.977013 0.812059
v -0.216727 0.942278 0.811118
v -0.214611 0.975807 0.816946
v -0.167457 0.986668 0.824373
v -0.186454 0.976486 0.812894
v -0.154698 0.982784 0.866393
v -0.153583 0.933960 0.875932
v -0.236844 0.971310 0.839208
v -0.234517 0.940613 0.830352
v -0.200368 0.963923 0.915601
v -0.206046 0.929329 0.900935
v -0.192023 0.977268 0.814066
v -0.194836 0.948408 0.806996
v -0.164135 0.964682 0.906950
v -0.173298 0.929041 0.897013
v -0.153248 0.967112 0.839215
v -0.154281 0.989422 0.849766
v -0.228201 0.927864 0.862122
v -0.228399 0.956366 0.876670
v -0.171947 0.792042 0.800738
v -0.179068 0.794868 0.792797
v -0.167756 0.789051 0.812329
v -0.173241 0.789038 0.826737
v -0.191242 0.788391 0.830171
v -0.198098 0.785545 0.820389
v -0.202318 0.785000 0.809051
v -0.196690 0.791769 0.799297
v -0.182842 0.788061 0.829320
v -0.188276 0.792221 0.794810
v -0.168126 0.790989 0.806852
v -0.203241 0.786650 0.815081
v -0.171490 0.825262 0.805768
v -0.165576 0.820536 0.822031
v -0.172185 0.819656 0.831901
v -0.192999 0.819290 0.834935
v -0.200621 0.819368 0.829909
v -0.205844 0.819792 0.814992
v -0.199719 0.825434 0.800981
v -0.183569 0.819229 0.832530
v -0.190144 0.826771 0.795086
v -0.166424 0.823105 0.814776
v -0.206470 0.820946 0.823218
v -0.179663 0.828375 0.794498
vt 0.849904 0.930674
vt 0.850277 0.931268
vt 0.853101 0.930213
vt 0.851795 0.931428
vt 0.851877 0.896913
vt 0.852598 0.896214
vt 0.850188 0.895971
vt 0.850221 0.896555
vt 0.846812 0.930870
vt 0.846624 0.933795
vt 0.854192 0.929132
vt 0.854792 0.928210
vt 0.852415 0.929329
vt 0.851314 0.928215
vt 0.843477 0.941288
vt 0.840408 0.940547
vt 0.845469 0.942005
vt 0.845871 0.939705
vt 0.843609 0.931280
vt 0.842966 0.929261
vt 0.841244 0.929524
vt 0.841759 0.931984
vt 0.846074 0.941268
vt 0.849745 0.941334
vt 0.854666 0.941677
vt 0.849538 0.940067
vt 0.840056 0.943696
vt 0.843203 0.943434
vt 0.848086 0.940109
vt 0.842036 0.939865
vt 0.857090 0.937555
vt 0.853055 0.941402
vt 0.855556 0.938010
vt 0.858443 0.938633
vt 0.848491 0.938558
vt 0.846823 0.939742
vt 0.845851 0.937883
vt 0.849450 0.937819
vt 0.855596 0.928941
vt 0.856433 0.928400
vt 0.854127 0.931100
vt 0.855881 0.929265
vt 0.852034 0.896394
vt 0.850295 0.896168
vt 0.850193 0.895798
vt 0.852807 0.896320
vt 0.849765 0.895466
vt 0.852842 0.896428
vt 0.844912 0.941110
vt 0.852718 0.940536
vt 0.843832 0.943530
vt 0.839844 0.942190
vt 0.849800 0.940063
vt 0.850190 0.939583
vt 0.848101 0.928067
vt 0.848404 0.929076
vt 0.845320 0.928562
vt 0.845599 0.928724
vt 0.840856 0.928458
vt 0.842447 0.927748
vt 0.853705 0.940497
vt 0.858084 0.941029
vt 0.858196 0.942137
vt 0.852077 0.941192
vt 0.836081 0.939115
vt 0.837623 0.941681
vt 0.838343 0.936623
vt 0.837937 0.941078
vt 0.852737 0.920615
vt 0.849700 0.922392
vt 0.854618 0.919363
vt 0.853477 0.917410
vt 0.855168 0.918408
vt 0.850362 0.917448
vt 0.844047 0.919004
vt 0.847090 0.917996
vt 0.842270 0.919975
vt 0.844492 0.920652
vt 0.842433 0.920174
vt 0.847352 0.920831
vt 0.853586 0.914755
vt 0.851397 0.915274
vt 0.854943 0.914395
vt 0.853400 0.913819
vt 0.855170 0.913966
vt 0.850351 0.913748
vt 0.845783 0.913771
vt 0.847825 0.913758
vt 0.844217 0.914035
vt 0.846025 0.914783
vt 0.844385 0.913842
vt 0.848590 0.915006
vt 0.847639 0.895235
vt 0.848849 0.896680
vt 0.842838 0.941216
vt 0.840483 0.939995
vt 0.849376 0.896394
vt 0.847342 0.895560
vt 0.847369 0.895415
vt 0.851669 0.939328
vt 0.853151 0.938163
vt 0.851488 0.938981
vt 0.849578 0.939979
vt 0.858472 0.938415
vt 0.844330 0.932113
vt 0.838396 0.931868
vt 0.850760 0.935259
vt 0.841470 0.934273
vt 0.847333 0.935295
vt 0.853102 0.932065
vt 0.859782 0.932671
vt 0.847112 0.930748
vt 0.858383 0.932885
vt 0.836704 0.933995
vt 0.851556 0.909685
vt 0.853464 0.909214
vt 0.854487 0.909038
vt 0.854586 0.908714
vt 0.853117 0.908712
vt 0.850546 0.908549
vt 0.848296 0.908604
vt 0.846459 0.908130
vt 0.845082 0.908314
vt 0.845329 0.908039
vt 0.846836 0.909168
vt 0.849090 0.909243
vn 0.489168 0.082154 -0.868312
vn 0.690326 -0.049957 -0.721771
vn 0.716554 -0.053108 -0.695507
vn 0.822746 0.024509 -0.567881
vn 0.359563 0.015719 -0.932988
vn 0.777713 -0.085016 -0.622844
vn -0.228468 -0.675997 -0.700593
vn -0.417769 -0.037906 -0.907762
vn -0.155938 0.008148 -0.987733
vn -0.109620 -0.041282 -0.993116
vn 0.699412 -0.348082 0.624229
vn 0.576471 -0.677736 0.456460
vn 0.386267 -0.669770 0.634197
vn 0.182717 -0.447810 0.875261
vn 0.355882 0.801313 0.480879
vn 0.155342 0.941212 0.299983
vn 0.259806 0.863791 -0.431702
vn 0.437902 0.898231 -0.037716
vn -0.546512 -0.096708 -0.831849
vn -0.943552 -0.126590 -0.306079
vn -0.795117 -0.516305 -0.318149
vn -0.597052 -0.148854 -0.788271
vn 0.177416 0.974176 0.139662
vn -0.214658 0.962797 0.164149
vn 0.512598 0.639083 -0.573425
vn -0.058598 0.689797 -0.721628
vn -0.525356 0.586700 -0.616266
vn 0.011308 0.546055 -0.837673
vn -0.133675 0.278966 -0.950952
vn -0.494026 0.196212 -0.847018
vn 0.345846 0.900434 0.263837
vn 0.122069 0.952521 0.278933
vn 0.607768 -0.117856 0.785321
vn 0.861605 0.156198 0.482948
vn 0.022309 0.688062 0.725309
vn -0.353353 0.487742 0.798279
vn -0.639247 -0.122232 0.759225
vn 0.201961 -0.182396 0.962259
vn 0.982788 -0.167297 0.078351
vn 0.950473 -0.273144 -0.148300
vn 0.941249 -0.017671 -0.337251
vn 0.869270 -0.169604 -0.464332
vn 0.771950 -0.247539 0.585506
vn 0.279300 -0.326327 0.903051
vn 0.297373 -0.875492 0.380898
vn 0.937111 -0.210513 0.278401
vn 0.249099 -0.967799 0.036256
vn 0.928153 -0.060522 -0.367244
vn 0.105302 0.809991 0.576911
vn 0.603526 0.797102 0.019588
vn -0.007142 0.998641 -0.051618
vn -0.154492 0.980663 0.120138
vn -0.168848 0.936402 0.307639
vn 0.456393 0.889246 0.030786
vn -0.389475 -0.413272 0.823113
vn -0.098283 -0.805466 0.584436
vn -0.602478 -0.649377 0.464036
vn -0.621283 -0.392486 0.678205
vn -0.782254 -0.606390 0.142726
vn -0.930746 -0.246865 0.269758
vn -0.229475 0.864520 0.447154
vn 0.881076 0.433072 0.190144
vn 0.838473 0.537275 -0.091099
vn -0.449152 0.840740 0.302356
vn -0.986949 0.038069 -0.156469
vn -0.882097 0.469648 -0.036532
vn -0.913340 -0.092007 0.396667
vn -0.777135 0.338941 0.530264
vn 0.828747 0.145161 -0.540470
vn 0.461859 0.141771 -0.875550
vn 0.950088 0.091262 -0.298336
vn 0.691222 -0.319148 0.648349
vn 0.994073 -0.054538 0.094050
vn 0.147838 -0.446714 0.882378
vn -0.700771 -0.308701 0.643136
vn -0.384141 -0.406720 0.828863
vn -0.975008 -0.110073 0.192986
vn -0.737124 0.019808 -0.675468
vn -0.971222 -0.018184 -0.237482
vn -0.285054 0.112958 -0.951832
vn 0.816231 0.127988 -0.563370
vn 0.427942 0.159732 -0.889580
vn 0.941878 0.074947 -0.327489
vn 0.642148 -0.284053 0.712011
vn 0.970717 -0.102747 0.217144
vn 0.100249 -0.318498 0.942608
vn -0.709397 -0.278134 0.647608
vn -0.323233 -0.328110 0.887617
vn -0.936016 -0.226418 0.269459
vn -0.731145 -0.011431 -0.682126
vn -0.937169 -0.087093 -0.337829
vn -0.296695 0.090787 -0.950647
vn -0.844832 -0.107371 -0.524147
vn -0.726271 -0.048229 -0.685715
vn 0.218497 0.804178 0.552773
vn -0.299885 0.937073 -0.178781
vn -0.370927 -0.274794 0.887075
vn -0.682358 -0.238539 0.691004
vn -0.977253 -0.211824 0.010364
vn 0.337668 0.928382 -0.155202
vn 0.223111 0.974509 -0.023549
vn 0.374480 0.883065 -0.282775
vn 0.746451 0.019868 -0.665144
vn 0.907810 -0.013649 -0.419161
vn -0.693486 -0.338438 0.636033
vn -0.899522 -0.336815 0.278236
vn 0.551548 0.076341 -0.830642
vn -0.568085 0.119090 -0.814308
vn -0.149361 0.155567 -0.976468
vn 0.520420 -0.398962 0.754979
vn 0.846726 -0.260660 0.463801
vn 0.063553 -0.564130 0.823236
vn 0.983568 -0.130903 -0.124332
vn -0.962705 -0.145322 -0.228214
vn 0.367985 0.044224 -0.928779
vn 0.814413 0.042690 -0.578713
vn 0.934624 0.005066 -0.355602
vn 0.959060 -0.131404 0.250874
vn 0.708678 -0.204111 0.675362
vn 0.228256 -0.227618 0.946620
vn -0.338183 -0.231632 0.912129
vn -0.678730 -0.211317 0.703328
vn -0.943291 -0.157299 0.292335
vn -0.889542 -0.055697 -0.453446
vn -0.731184 -0.028449 -0.681587
vn -0.392532 0.009896 -0.919685
s 1
g Lower_Premolar_Left_01 Lower_Teeth Teeth group1
usemtl Lower_Premolar2_Carpals_RightSG
f 25/1/1 9/2/2 21/3/3 16/4/4
f 1/5/5 38/6/6 48/7/7 54/8/8
f 25/1/1 42/9/9 45/10/10 9/2/2
f 2/11/11 10/12/12 46/13/13 41/14/14
f 3/15/15 75/16/16 49/17/17 71/18/18
f 5/19/19 18/20/20 24/21/21 11/22/22
f 67/23/23 13/24/24 87/25/25 84/26/26
f 7/27/27 43/28/28 95/29/29 86/30/30
f 4/31/31 44/32/32 97/33/33 79/34/34
f 8/35/35 20/36/36 93/37/37 81/38/38
f 10/12/12 2/11/11 15/39/39 22/40/40
f 22/40/40 15/39/39 56/41/41 59/42/42
f 34/43/43 53/44/44 47/45/45 37/46/46
f 37/46/46 47/45/45 65/47/47 63/48/48
f 74/49/49 50/50/50 66/51/51 78/52/52
f 70/53/53 76/54/54 50/50/50 74/49/49
f 6/55/55 12/56/56 23/57/57 17/58/58
f 17/58/58 23/57/57 60/59/59 57/60/60
f 14/61/61 89/62/62 100/63/63 55/64/64
f 4/31/31 79/34/34 89/62/62 14/61/61
f 7/27/27 86/30/30 91/65/65 19/66/66
f 19/66/66 91/65/65 102/67/67 58/68/68
f 25/1/1 16/4/4 30/69/69 33/70/70
f 16/4/4 56/41/41 61/71/71 30/69/69
f 15/39/39 2/11/11 26/72/72 29/73/73
f 2/11/11 41/14/14 51/74/74 26/72/72
f 6/55/55 17/58/58 31/75/75 28/76/76
f 17/58/58 57/60/60 62/77/77 31/75/75
f 18/20/20 5/19/19 27/78/78 32/79/79
f 5/19/19 42/9/9 52/80/80 27/78/78
f 33/70/70 30/69/69 115/81/81 126/82/82
f 30/69/69 61/71/71 124/83/83 115/81/81
f 29/73/73 26/72/72 117/84/84 116/85/85
f 26/72/72 51/74/74 122/86/86 117/84/84
f 28/76/76 31/75/75 119/87/87 118/88/88
f 31/75/75 62/77/77 125/89/89 119/87/87
f 32/79/79 27/78/78 121/90/90 120/91/91
f 27/78/78 52/80/80 123/92/92 121/90/90
f 40/93/93 35/94/94 54/8/8 48/7/7
f 5/19/19 11/22/22 45/10/10 42/9/9
f 12/56/56 6/55/55 41/14/14 46/13/13
f 69/95/95 73/96/96 49/17/17 75/16/16
f 67/23/23 84/26/26 95/29/29 43/28/28
f 8/35/35 81/38/38 97/33/33 44/32/32
f 36/97/97 39/98/98 47/45/45 53/44/44
f 39/98/98 64/99/99 65/47/47 47/45/45
f 72/100/100 77/101/101 66/51/51 50/50/50
f 68/102/102 72/100/100 50/50/50 76/54/54
f 6/55/55 28/76/76 51/74/74 41/14/14
f 25/1/1 33/70/70 52/80/80 42/9/9
f 28/76/76 118/88/88 122/86/86 51/74/74
f 33/70/70 126/82/82 123/92/92 52/80/80
f 16/4/4 21/3/3 59/42/42 56/41/41
f 48/7/7 38/6/6 63/48/48 65/47/47
f 49/17/17 73/96/96 78/52/52 66/51/51
f 24/21/21 18/20/20 57/60/60 60/59/59
f 21/3/3 88/103/103 99/104/104 59/42/42
f 23/57/57 94/105/105 101/106/106 60/59/59
f 15/39/39 29/73/73 61/71/71 56/41/41
f 18/20/20 32/79/79 62/77/77 57/60/60
f 29/73/73 116/85/85 124/83/83 61/71/71
f 32/79/79 120/91/91 125/89/89 62/77/77
f 40/93/93 48/7/7 65/47/47 64/99/99
f 71/18/18 49/17/17 66/51/51 77/101/101
f 67/23/23 43/28/28 75/16/16 3/15/15
f 43/28/28 7/27/27 69/95/95 75/16/16
f 7/27/27 19/66/66 73/96/96 69/95/95
f 19/66/66 58/68/68 78/52/52 73/96/96
f 58/68/68 20/36/36 74/49/49 78/52/52
f 20/36/36 8/35/35 70/53/53 74/49/49
f 8/35/35 44/32/32 76/54/54 70/53/53
f 44/32/32 4/31/31 68/102/102 76/54/54
f 4/31/31 14/61/61 72/100/100 68/102/102
f 14/61/61 55/64/64 77/101/101 72/100/100
f 55/64/64 13/24/24 71/18/18 77/101/101
f 13/24/24 67/23/23 3/15/15 71/18/18
f 21/3/3 9/2/2 83/107/107 88/103/103
f 88/103/103 83/107/107 84/26/26 87/25/25
f 45/10/10 11/22/22 85/108/108 96/109/109
f 96/109/109 85/108/108 86/30/30 95/29/29
f 98/110/110 80/111/111 79/34/34 97/33/33
f 46/13/13 10/12/12 80/111/111 98/110/110
f 94/105/105 82/112/112 81/38/38 93/37/37
f 23/57/57 12/56/56 82/112/112 94/105/105
f 90/113/113 99/104/104 100/63/63 89/62/62
f 22/40/40 59/42/42 99/104/104 90/113/113
f 80/111/111 90/113/113 89/62/62 79/34/34
f 10/12/12 22/40/40 90/113/113 80/111/111
f 11/22/22 24/21/21 92/114/114 85/108/108
f 85/108/108 92/114/114 91/65/65 86/30/30
f 92/114/114 101/106/106 102/67/67 91/65/65
f 24/21/21 60/59/59 101/106/106 92/114/114
f 9/2/2 45/10/10 96/109/109 83/107/107
f 83/107/107 96/109/109 95/29/29 84/26/26
f 82/112/112 98/110/110 97/33/33 81/38/38
f 12/56/56 46/13/13 98/110/110 82/112/112
f 13/24/24 55/64/64 100/63/63 87/25/25
f 87/25/25 100/63/63 99/104/104 88/103/103
f 20/36/36 58/68/68 102/67/67 93/37/37
f 93/37/37 102/67/67 101/106/106 94/105/105
f 38/6/6 1/5/5 104/115/115 103/116/116
f 63/48/48 38/6/6 103/116/116 113/117/117
f 34/43/43 37/46/46 105/118/118 106/119/119
f 53/44/44 34/43/43 106/119/119 111/120/120
f 39/98/98 36/97/97 107/121/121 108/122/122
f 64/99/99 39/98/98 108/122/122 114/123/123
f 35/94/94 40/93/93 109/124/124 110/125/125
f 54/8/8 35/94/94 110/125/125 112/126/126
f 36/97/97 53/44/44 111/120/120 107/121/121
f 1/5/5 54/8/8 112/126/126 104/115/115
f 37/46/46 63/48/48 113/117/117 105/118/118
f 40/93/93 64/99/99 114/123/123 109/124/124
f 103/116/116 104/115/115 126/82/82 115/81/81
f 113/117/117 103/116/116 115/81/81 124/83/83
f 106/119/119 105/118/118 116/85/85 117/84/84
f 111/120/120 106/119/119 117/84/84 122/86/86
f 108/122/122 107/121/121 118/88/88 119/87/87
f 114/123/123 108/122/122 119/87/87 125/89/89
f 110/125/125 109/124/124 120/91/91 121/90/90
f 112/126/126 110/125/125 121/90/90 123/92/92
f 107/121/121 111/120/120 122/86/86 118/88/88
f 104/115/115 112/126/126 123/92/92 126/82/82
f 105/118/118 113/117/117 124/83/83 116/85/85
f 109/124/124 114/123/123 125/89/89 120/91/91
