# This file uses centimeters as units for non-parametric coordinates.

mtllib Lower_Incisor_Left_02.mtl
g default
v -0.110799 0.729248 0.934717
v -0.071632 0.883888 0.983166
v -0.119842 0.962757 0.988927
v -0.066998 0.958504 1.015421
v -0.111175 0.874222 0.977236
v -0.072542 0.876190 0.999312
v -0.131760 0.959856 0.993672
v -0.068449 0.958302 1.028003
v -0.104851 0.877743 0.961663
v -0.067095 0.877094 0.982118
v -0.117802 0.881123 0.980245
v -0.073596 0.883669 1.001734
v -0.114828 0.960524 0.988248
v -0.070472 0.960781 1.009484
v -0.065570 0.883686 0.973382
v -0.099869 0.880585 0.954232
v -0.077326 0.878048 1.003968
v -0.106995 0.867680 0.981585
v -0.129279 0.961685 1.005216
v -0.077366 0.961246 1.033074
v -0.099288 0.877617 0.951040
v -0.063491 0.881571 0.971212
v -0.077922 0.878595 1.005962
v -0.113398 0.875116 0.988570
v -0.104148 0.874100 0.963596
v -0.070298 0.813795 0.976119
v -0.114026 0.820591 0.966863
v -0.080283 0.808027 0.987281
v -0.072427 0.823740 0.961321
v -0.094808 0.832087 0.950674
v -0.092265 0.809454 0.988000
v -0.107884 0.815580 0.976872
v -0.108353 0.834433 0.955360
v -0.098900 0.726643 0.946089
v -0.114383 0.728300 0.940355
v -0.103788 0.726377 0.950347
v -0.102184 0.726969 0.939362
v -0.104233 0.726475 0.937777
v -0.109821 0.722172 0.947823
v -0.112208 0.720947 0.944371
v -0.071548 0.883263 0.992433
v -0.109735 0.874363 0.969540
v -0.124814 0.958645 0.990565
v -0.069163 0.960241 1.019020
v -0.113651 0.888750 0.970242
v -0.068410 0.886406 0.994243
v -0.102455 0.724220 0.948549
v -0.111197 0.725538 0.939434
v -0.119068 0.963869 0.995228
v -0.072939 0.963257 1.018496
v -0.074034 0.809408 0.982854
v -0.111182 0.823568 0.960247
v -0.100852 0.726192 0.949793
v -0.112925 0.728052 0.938159
v -0.097369 0.959532 1.001778
v -0.079273 0.877369 0.959517
v -0.097495 0.863798 0.997586
v -0.113713 0.962643 1.024885
v -0.075634 0.881029 0.956167
v -0.102761 0.862070 1.006245
v -0.080002 0.830795 0.952168
v -0.102787 0.813042 0.984730
v -0.102584 0.727768 0.938687
v -0.112378 0.721498 0.946908
v -0.107223 0.723255 0.943693
v -0.103122 0.965931 1.007381
v -0.120326 0.960756 0.988993
v -0.067906 0.959846 1.015601
v -0.131446 0.962448 0.994420
v -0.066878 0.959999 1.028901
v -0.113831 0.963156 0.988098
v -0.070896 0.963610 1.009677
v -0.127922 0.965652 1.005585
v -0.075389 0.964340 1.033537
v -0.122816 0.962135 0.991317
v -0.068358 0.961065 1.020178
v -0.096179 0.961838 1.001497
v -0.112491 0.966297 1.024954
v -0.060946 0.922602 1.006065
v -0.063477 0.898590 0.988439
v -0.070086 0.918316 1.024146
v -0.069491 0.887598 1.011581
v -0.109352 0.898094 0.960567
v -0.120203 0.926619 0.976796
v -0.123147 0.890980 0.978523
v -0.132789 0.917572 0.988706
v -0.113179 0.930725 0.977726
v -0.099800 0.903307 0.951073
v -0.066324 0.926329 0.997829
v -0.057779 0.903521 0.975978
v -0.129243 0.914890 1.000271
v -0.122506 0.888338 0.989508
v -0.081961 0.917326 1.026733
v -0.080618 0.888695 1.016711
v -0.127565 0.921652 0.979580
v -0.117995 0.893538 0.968496
v -0.062860 0.919945 1.014218
v -0.064934 0.894575 1.000304
v -0.074385 0.913214 0.948262
v -0.086324 0.907932 0.987228
v -0.113528 0.882759 1.011394
v -0.116679 0.909321 1.021819
v -0.101542 0.784513 0.941012
v -0.114076 0.783319 0.941465
v -0.090732 0.782587 0.949396
v -0.087950 0.779102 0.963042
v -0.096947 0.775671 0.970365
v -0.107950 0.772411 0.965832
v -0.117975 0.773062 0.956871
v -0.121202 0.778736 0.951024
v -0.091815 0.776716 0.968694
v -0.118151 0.780386 0.946140
v -0.093746 0.784832 0.945616
v -0.115066 0.773037 0.963316
v -0.097955 0.805838 0.946883
v -0.082561 0.802822 0.957003
v -0.079563 0.797075 0.970578
v -0.088870 0.792658 0.979541
v -0.099937 0.791759 0.976655
v -0.113114 0.792931 0.965795
v -0.116424 0.797472 0.958461
v -0.083279 0.794098 0.976326
v -0.113070 0.799793 0.952996
v -0.088096 0.805508 0.951317
v -0.108938 0.792589 0.973067
v -0.109072 0.803425 0.947577
vt 0.871624 0.922901
vt 0.871435 0.923508
vt 0.872925 0.923487
vt 0.872770 0.923982
vt 0.869842 0.898739
vt 0.871601 0.898277
vt 0.869736 0.898120
vt 0.869273 0.898540
vt 0.870127 0.922945
vt 0.869078 0.925344
vt 0.880333 0.924533
vt 0.881548 0.923400
vt 0.881196 0.924954
vt 0.880356 0.924429
vt 0.867420 0.937689
vt 0.866624 0.937585
vt 0.867627 0.937874
vt 0.869030 0.937755
vt 0.869742 0.922921
vt 0.870861 0.921830
vt 0.869146 0.923070
vt 0.867967 0.924072
vt 0.867290 0.937355
vt 0.868763 0.937316
vt 0.869205 0.932346
vt 0.867323 0.931661
vt 0.864228 0.937205
vt 0.866088 0.937003
vt 0.865351 0.930833
vt 0.863952 0.930152
vt 0.881574 0.936979
vt 0.880995 0.937269
vt 0.882683 0.930548
vt 0.883195 0.930991
vt 0.881186 0.936946
vt 0.878797 0.937437
vt 0.877567 0.930111
vt 0.880747 0.930276
vt 0.881957 0.924499
vt 0.882514 0.924147
vt 0.878287 0.923446
vt 0.879261 0.924056
vt 0.873029 0.898305
vt 0.872506 0.898230
vt 0.872077 0.897901
vt 0.872150 0.898359
vt 0.870800 0.897740
vt 0.872043 0.898493
vt 0.879327 0.937953
vt 0.879983 0.937772
vt 0.871899 0.938218
vt 0.869389 0.938279
vt 0.881606 0.937229
vt 0.881210 0.937406
vt 0.880089 0.923249
vt 0.879807 0.924497
vt 0.878648 0.923650
vt 0.878808 0.923559
vt 0.871995 0.920894
vt 0.873406 0.921182
vt 0.880644 0.937359
vt 0.881755 0.931613
vt 0.876398 0.928544
vt 0.873440 0.937151
vt 0.864902 0.929704
vt 0.864892 0.937510
vt 0.868267 0.928776
vt 0.869062 0.937670
vt 0.874125 0.915893
vt 0.870497 0.916284
vt 0.878091 0.915677
vt 0.880691 0.912842
vt 0.880120 0.914501
vt 0.879690 0.912110
vt 0.874807 0.912118
vt 0.878016 0.911880
vt 0.871988 0.912716
vt 0.868978 0.913976
vt 0.870623 0.913139
vt 0.869740 0.914472
vt 0.873283 0.911515
vt 0.870305 0.911112
vt 0.875923 0.911460
vt 0.878209 0.910053
vt 0.877406 0.911012
vt 0.877214 0.909556
vt 0.872752 0.909166
vt 0.875716 0.909316
vt 0.870341 0.909304
vt 0.868336 0.910119
vt 0.869222 0.909362
vt 0.869234 0.910506
vt 0.869465 0.897354
vt 0.868882 0.898581
vt 0.864312 0.937637
vt 0.865256 0.938172
vt 0.871720 0.898261
vt 0.870104 0.897559
vt 0.869419 0.897447
vt 0.880530 0.937831
vt 0.873758 0.937536
vt 0.881331 0.937203
vt 0.872788 0.927773
vt 0.879596 0.929425
vt 0.877926 0.925335
vt 0.869111 0.924345
vt 0.870230 0.926903
vt 0.866535 0.925716
vt 0.867915 0.926143
vt 0.882127 0.926316
vt 0.882518 0.926986
vt 0.880907 0.925152
vt 0.884044 0.927808
vt 0.866707 0.925276
vt 0.868965 0.907759
vt 0.872322 0.907958
vt 0.874410 0.908011
vt 0.875217 0.907637
vt 0.875962 0.907055
vt 0.874927 0.906657
vt 0.873553 0.906483
vt 0.870605 0.905939
vt 0.868699 0.906044
vt 0.867920 0.906048
vt 0.867056 0.906994
vt 0.867873 0.907269
vn -0.727156 0.081183 -0.681655
vn -0.762737 -0.197470 -0.615823
vn -0.190775 -0.229789 -0.954360
vn -0.073499 0.027632 -0.996912
vn -0.184539 0.050821 -0.981510
vn 0.248618 -0.004923 -0.968589
vn -0.180073 -0.803981 -0.566734
vn -0.798871 -0.060619 -0.598439
vn -0.913393 0.024686 -0.406331
vn -0.722273 -0.384524 -0.574859
vn 0.980382 -0.096469 0.171888
vn 0.857748 -0.468186 0.212297
vn 0.883480 -0.433277 0.178142
vn 0.938134 -0.136072 0.318418
vn -0.243049 0.838774 -0.487223
vn -0.176782 0.903889 -0.389529
vn 0.018537 0.988367 -0.150952
vn 0.282146 0.830060 -0.481035
vn -0.988722 -0.149369 -0.010858
vn -0.866077 -0.172142 0.469337
vn -0.790805 -0.607153 0.077412
vn -0.825556 -0.518157 -0.223541
vn -0.295158 0.309315 -0.903994
vn 0.474748 0.310637 -0.823480
vn 0.333811 0.550379 -0.765280
vn -0.511976 0.274431 -0.813983
vn -0.994090 0.066859 -0.085522
vn -0.608708 0.230533 -0.759163
vn -0.713053 0.105302 -0.693158
vn -0.988181 -0.080379 -0.130531
vn 0.979671 0.190107 -0.064068
vn 0.945834 0.027533 0.323483
vn 0.944794 -0.087028 0.315897
vn 0.998520 0.052371 0.014677
vn 0.666769 -0.101915 0.738263
vn -0.084381 -0.089601 0.992397
vn -0.048011 -0.179194 0.982642
vn 0.652268 -0.179900 0.736331
vn 0.968485 -0.097696 -0.229111
vn 0.886713 -0.274092 -0.372309
vn 0.521588 0.009273 -0.853147
vn 0.490950 -0.234947 -0.838909
vn 0.972150 -0.212399 -0.099053
vn 0.657252 -0.400117 0.638691
vn 0.364490 -0.919786 0.145397
vn 0.912314 -0.171302 -0.371939
vn 0.301340 -0.908496 -0.289534
vn 0.606270 -0.043663 -0.794059
vn 0.090317 0.982456 0.163166
vn 0.126220 0.990575 -0.053196
vn 0.063969 0.994209 -0.086357
vn -0.074341 0.976039 0.204504
vn 0.655430 0.707468 0.264387
vn 0.622604 0.782536 -0.001297
vn 0.620210 -0.204705 0.757256
vn 0.741199 -0.606604 0.287499
vn 0.243732 -0.572464 0.782866
vn 0.159937 -0.343254 0.925525
vn -0.264200 -0.707765 0.655185
vn -0.482179 -0.328114 0.812308
vn 0.384524 0.309000 -0.869862
vn 0.442535 0.481271 -0.756664
vn 0.286924 0.767207 -0.573645
vn 0.408924 0.302172 -0.861088
vn -0.899908 -0.129339 0.416457
vn -0.871823 -0.004767 0.489798
vn -0.483254 -0.191074 0.854375
vn -0.472442 -0.048221 0.880042
vn -0.036113 0.126310 -0.991333
vn -0.670476 0.150721 -0.726461
vn 0.508439 0.063449 -0.858757
vn 0.987021 -0.145023 0.068977
vn 0.950867 -0.082839 -0.298310
vn 0.911825 -0.199340 0.358943
vn -0.082736 -0.267520 0.959994
vn 0.490925 -0.296547 0.819178
vn -0.557680 -0.158985 0.814688
vn -0.974369 0.023301 0.223746
vn -0.855413 -0.042509 0.516199
vn -0.926207 0.133933 -0.352425
vn 0.061259 0.171537 -0.983271
vn -0.470529 0.264688 -0.841750
vn 0.494679 -0.020279 -0.868839
vn 0.901742 -0.402669 -0.157223
vn 0.837773 -0.257018 -0.481746
vn 0.692606 -0.569215 0.443047
vn -0.282547 -0.389225 0.876739
vn 0.088989 -0.515620 0.852184
vn -0.650024 -0.205148 0.731699
vn -0.983483 0.108843 0.144620
vn -0.882633 -0.010638 0.469943
vn -0.879770 0.260386 -0.397749
vn -0.934702 -0.257169 0.245348
vn -0.989734 -0.142687 -0.008209
vn -0.485459 0.824387 -0.291060
vn -0.238300 0.969887 0.050333
vn -0.102399 -0.359602 0.927470
vn -0.256229 -0.383603 0.887240
vn -0.749696 -0.295776 0.592007
vn 0.206546 0.892610 -0.400732
vn 0.203311 0.879427 -0.430433
vn 0.738924 0.673270 -0.026433
vn 0.001463 0.540208 -0.841530
vn 0.416941 0.594380 -0.687658
vn 0.064190 -0.386634 0.919997
vn -0.487362 -0.455739 0.744836
vn -0.677617 0.098263 -0.728821
vn -0.915927 -0.299345 -0.267339
vn -0.737812 -0.084182 -0.669737
vn 0.933973 -0.261271 0.243786
vn 0.980084 -0.132944 0.147518
vn 0.675097 -0.404073 0.617227
vn 0.764870 0.508793 -0.395099
vn -0.895760 -0.384374 0.223318
vn -0.271791 0.174229 -0.946453
vn 0.229971 0.130183 -0.964451
vn 0.590286 0.040586 -0.806173
vn 0.902541 -0.136421 -0.408423
vn 0.960140 -0.266677 -0.083756
vn 0.672060 -0.433954 0.600016
vn -0.032971 -0.402337 0.914898
vn -0.278191 -0.330337 0.901935
vn -0.683131 -0.209712 0.699538
vn -0.934550 -0.119051 0.335325
vn -0.999810 0.016931 -0.009700
vn -0.838018 0.125237 -0.531075
s 1
g Lower_Incisor_Left_02 Lower_Teeth Teeth group1
usemtl Lower_Incisor3_Carpals_RightSG
f 25/1/1 9/2/2 21/3/3 16/4/4
f 1/5/5 38/6/6 48/7/7 54/8/8
f 25/1/1 42/9/9 45/10/10 9/2/2
f 2/11/11 10/12/12 46/13/13 41/14/14
f 3/15/15 75/16/16 49/17/17 71/18/18
f 5/19/19 18/20/20 24/21/21 11/22/22
f 67/23/23 13/24/24 87/25/25 84/26/26
f 7/27/27 43/28/28 95/29/29 86/30/30
f 4/31/31 44/32/32 97/33/33 79/34/34
f 8/35/35 20/36/36 93/37/37 81/38/38
f 10/12/12 2/11/11 15/39/39 22/40/40
f 22/40/40 15/39/39 56/41/41 59/42/42
f 34/43/43 53/44/44 47/45/45 37/46/46
f 37/46/46 47/45/45 65/47/47 63/48/48
f 74/49/49 50/50/50 66/51/51 78/52/52
f 70/53/53 76/54/54 50/50/50 74/49/49
f 6/55/55 12/56/56 23/57/57 17/58/58
f 17/58/58 23/57/57 60/59/59 57/60/60
f 14/61/61 89/62/62 100/63/63 55/64/64
f 4/31/31 79/34/34 89/62/62 14/61/61
f 7/27/27 86/30/30 91/65/65 19/66/66
f 19/66/66 91/65/65 102/67/67 58/68/68
f 25/1/1 16/4/4 30/69/69 33/70/70
f 16/4/4 56/41/41 61/71/71 30/69/69
f 15/39/39 2/11/11 26/72/72 29/73/73
f 2/11/11 41/14/14 51/74/74 26/72/72
f 6/55/55 17/58/58 31/75/75 28/76/76
f 17/58/58 57/60/60 62/77/77 31/75/75
f 18/20/20 5/19/19 27/78/78 32/79/79
f 5/19/19 42/9/9 52/80/80 27/78/78
f 33/70/70 30/69/69 115/81/81 126/82/82
f 30/69/69 61/71/71 124/83/83 115/81/81
f 29/73/73 26/72/72 117/84/84 116/85/85
f 26/72/72 51/74/74 122/86/86 117/84/84
f 28/76/76 31/75/75 119/87/87 118/88/88
f 31/75/75 62/77/77 125/89/89 119/87/87
f 32/79/79 27/78/78 121/90/90 120/91/91
f 27/78/78 52/80/80 123/92/92 121/90/90
f 40/93/93 35/94/94 54/8/8 48/7/7
f 5/19/19 11/22/22 45/10/10 42/9/9
f 12/56/56 6/55/55 41/14/14 46/13/13
f 69/95/95 73/96/96 49/17/17 75/16/16
f 67/23/23 84/26/26 95/29/29 43/28/28
f 8/35/35 81/38/38 97/33/33 44/32/32
f 36/97/97 39/98/98 47/45/45 53/44/44
f 39/98/98 64/99/99 65/47/47 47/45/45
f 72/100/100 77/101/101 66/51/51 50/50/50
f 68/102/102 72/100/100 50/50/50 76/54/54
f 6/55/55 28/76/76 51/74/74 41/14/14
f 25/1/1 33/70/70 52/80/80 42/9/9
f 28/76/76 118/88/88 122/86/86 51/74/74
f 33/70/70 126/82/82 123/92/92 52/80/80
f 16/4/4 21/3/3 59/42/42 56/41/41
f 48/7/7 38/6/6 63/48/48 65/47/47
f 49/17/17 73/96/96 78/52/52 66/51/51
f 24/21/21 18/20/20 57/60/60 60/59/59
f 21/3/3 88/103/103 99/104/104 59/42/42
f 23/57/57 94/105/105 101/106/106 60/59/59
f 15/39/39 29/73/73 61/71/71 56/41/41
f 18/20/20 32/79/79 62/77/77 57/60/60
f 29/73/73 116/85/85 124/83/83 61/71/71
f 32/79/79 120/91/91 125/89/89 62/77/77
f 40/93/93 48/7/7 65/47/47 64/99/99
f 71/18/18 49/17/17 66/51/51 77/101/101
f 67/23/23 43/28/28 75/16/16 3/15/15
f 43/28/28 7/27/27 69/95/95 75/16/16
f 7/27/27 19/66/66 73/96/96 69/95/95
f 19/66/66 58/68/68 78/52/52 73/96/96
f 58/68/68 20/36/36 74/49/49 78/52/52
f 20/36/36 8/35/35 70/53/53 74/49/49
f 8/35/35 44/32/32 76/54/54 70/53/53
f 44/32/32 4/31/31 68/102/102 76/54/54
f 4/31/31 14/61/61 72/100/100 68/102/102
f 14/61/61 55/64/64 77/101/101 72/100/100
f 55/64/64 13/24/24 71/18/18 77/101/101
f 13/24/24 67/23/23 3/15/15 71/18/18
f 21/3/3 9/2/2 83/107/107 88/103/103
f 88/103/103 83/107/107 84/26/26 87/25/25
f 45/10/10 11/22/22 85/108/108 96/109/109
f 96/109/109 85/108/108 86/30/30 95/29/29
f 98/110/110 80/111/111 79/34/34 97/33/33
f 46/13/13 10/12/12 80/111/111 98/110/110
f 94/105/105 82/112/112 81/38/38 93/37/37
f 23/57/57 12/56/56 82/112/112 94/105/105
f 90/113/113 99/104/104 100/63/63 89/62/62
f 22/40/40 59/42/42 99/104/104 90/113/113
f 80/111/111 90/113/113 89/62/62 79/34/34
f 10/12/12 22/40/40 90/113/113 80/111/111
f 11/22/22 24/21/21 92/114/114 85/108/108
f 85/108/108 92/114/114 91/65/65 86/30/30
f 92/114/114 101/106/106 102/67/67 91/65/65
f 24/21/21 60/59/59 101/106/106 92/114/114
f 9/2/2 45/10/10 96/109/109 83/107/107
f 83/107/107 96/109/109 95/29/29 84/26/26
f 82/112/112 98/110/110 97/33/33 81/38/38
f 12/56/56 46/13/13 98/110/110 82/112/112
f 13/24/24 55/64/64 100/63/63 87/25/25
f 87/25/25 100/63/63 99/104/104 88/103/103
f 20/36/36 58/68/68 102/67/67 93/37/37
f 93/37/37 102/67/67 101/106/106 94/105/105
f 38/6/6 1/5/5 104/115/115 103/116/116
f 63/48/48 38/6/6 103/116/116 113/117/117
f 34/43/43 37/46/46 105/118/118 106/119/119
f 53/44/44 34/43/43 106/119/119 111/120/120
f 39/98/98 36/97/97 107/121/121 108/122/122
f 64/99/99 39/98/98 108/122/122 114/123/123
f 35/94/94 40/93/93 109/124/124 110/125/125
f 54/8/8 35/94/94 110/125/125 112/126/126
f 36/97/97 53/44/44 111/120/120 107/121/121
f 1/5/5 54/8/8 112/126/126 104/115/115
f 37/46/46 63/48/48 113/117/117 105/118/118
f 40/93/93 64/99/99 114/123/123 109/124/124
f 103/116/116 104/115/115 126/82/82 115/81/81
f 113/117/117 103/116/116 115/81/81 124/83/83
f 106/119/119 105/118/118 116/85/85 117/84/84
f 111/120/120 106/119/119 117/84/84 122/86/86
f 108/122/122 107/121/121 118/88/88 119/87/87
f 114/123/123 108/122/122 119/87/87 125/89/89
f 110/125/125 109/124/124 120/91/91 121/90/90
f 112/126/126 110/125/125 121/90/90 123/92/92
f 107/121/121 111/120/120 122/86/86 118/88/88
f 104/115/115 112/126/126 123/92/92 126/82/82
f 105/118/118 113/117/117 124/83/83 116/85/85
f 109/124/124 114/123/123 125/89/89 120/91/91
