# This file uses centimeters as units for non-parametric coordinates.

mtllib Lower_Incisor_Right_02.mtl
g default
v 0.110840 0.729248 0.934717
v 0.071673 0.883888 0.983166
v 0.119882 0.962757 0.988927
v 0.067039 0.958504 1.015421
v 0.111216 0.874222 0.977236
v 0.072583 0.876190 0.999312
v 0.131801 0.959856 0.993672
v 0.068489 0.958302 1.028003
v 0.104892 0.877743 0.961663
v 0.067136 0.877094 0.982118
v 0.117843 0.881123 0.980245
v 0.073636 0.883669 1.001734
v 0.114868 0.960524 0.988248
v 0.070513 0.960781 1.009484
v 0.065611 0.883686 0.973382
v 0.099910 0.880585 0.954232
v 0.077367 0.878048 1.003968
v 0.107035 0.867680 0.981585
v 0.129320 0.961685 1.005216
v 0.077406 0.961246 1.033074
v 0.099329 0.877617 0.951040
v 0.063532 0.881571 0.971212
v 0.077963 0.878595 1.005962
v 0.113439 0.875116 0.988570
v 0.104189 0.874100 0.963596
v 0.070338 0.813795 0.976119
v 0.114067 0.820591 0.966863
v 0.080324 0.808027 0.987281
v 0.072468 0.823740 0.961321
v 0.094849 0.832087 0.950674
v 0.092306 0.809454 0.988000
v 0.107925 0.815580 0.976872
v 0.108394 0.834433 0.955360
v 0.098941 0.726643 0.946089
v 0.114424 0.728300 0.940355
v 0.103829 0.726377 0.950347
v 0.102225 0.726969 0.939362
v 0.104274 0.726475 0.937777
v 0.109862 0.722172 0.947823
v 0.112249 0.720947 0.944371
v 0.071589 0.883263 0.992433
v 0.109776 0.874363 0.969540
v 0.124855 0.958645 0.990565
v 0.069203 0.960241 1.019020
v 0.113691 0.888750 0.970242
v 0.068451 0.886406 0.994243
v 0.102496 0.724220 0.948549
v 0.111238 0.725538 0.939434
v 0.119109 0.963869 0.995228
v 0.072980 0.963257 1.018496
v 0.074074 0.809408 0.982854
v 0.111223 0.823568 0.960247
v 0.100893 0.726192 0.949793
v 0.112966 0.728052 0.938159
v 0.097410 0.959532 1.001778
v 0.079313 0.877369 0.959517
v 0.097535 0.863798 0.997586
v 0.113754 0.962643 1.024885
v 0.075675 0.881029 0.956167
v 0.102802 0.862070 1.006245
v 0.080043 0.830795 0.952168
v 0.102827 0.813042 0.984730
v 0.102625 0.727768 0.938687
v 0.112418 0.721498 0.946908
v 0.107263 0.723255 0.943693
v 0.103163 0.965931 1.007381
v 0.120367 0.960756 0.988993
v 0.067947 0.959846 1.015601
v 0.131487 0.962448 0.994420
v 0.066919 0.959999 1.028901
v 0.113872 0.963156 0.988098
v 0.070937 0.963610 1.009677
v 0.127963 0.965652 1.005585
v 0.075430 0.964340 1.033537
v 0.122856 0.962135 0.991317
v 0.068399 0.961065 1.020178
v 0.096220 0.961838 1.001497
v 0.112531 0.966297 1.024954
v 0.060987 0.922602 1.006065
v 0.063517 0.898590 0.988439
v 0.070127 0.918316 1.024146
v 0.069532 0.887598 1.011581
v 0.109393 0.898094 0.960567
v 0.120244 0.926619 0.976796
v 0.123188 0.890980 0.978523
v 0.132830 0.917572 0.988706
v 0.113220 0.930725 0.977726
v 0.099841 0.903307 0.951073
v 0.066365 0.926329 0.997829
v 0.057820 0.903521 0.975978
v 0.129284 0.914890 1.000271
v 0.122546 0.888338 0.989508
v 0.082001 0.917326 1.026733
v 0.080659 0.888695 1.016711
v 0.127606 0.921652 0.979580
v 0.118036 0.893538 0.968496
v 0.062900 0.919945 1.014218
v 0.064975 0.894575 1.000304
v 0.074426 0.913214 0.948262
v 0.086365 0.907932 0.987228
v 0.113568 0.882759 1.011394
v 0.116720 0.909321 1.021819
v 0.101583 0.784513 0.941012
v 0.114117 0.783319 0.941465
v 0.090772 0.782587 0.949396
v 0.087991 0.779102 0.963042
v 0.096988 0.775671 0.970365
v 0.107990 0.772411 0.965832
v 0.118016 0.773062 0.956871
v 0.121243 0.778736 0.951024
v 0.091856 0.776716 0.968694
v 0.118192 0.780386 0.946140
v 0.093787 0.784832 0.945616
v 0.115107 0.773037 0.963316
v 0.097996 0.805838 0.946883
v 0.082602 0.802822 0.957003
v 0.079604 0.797075 0.970578
v 0.088911 0.792658 0.979541
v 0.099978 0.791759 0.976655
v 0.113154 0.792931 0.965795
v 0.116465 0.797472 0.958461
v 0.083319 0.794098 0.976326
v 0.113111 0.799793 0.952996
v 0.088137 0.805508 0.951317
v 0.108979 0.792589 0.973067
v 0.109113 0.803425 0.947577
vt 0.926281 0.923982
vt 0.926125 0.923487
vt 0.927615 0.923508
vt 0.927427 0.922901
vt 0.929778 0.898540
vt 0.929315 0.898120
vt 0.927449 0.898277
vt 0.929208 0.898739
vt 0.929972 0.925344
vt 0.928923 0.922945
vt 0.918695 0.924429
vt 0.917854 0.924954
vt 0.917502 0.923400
vt 0.918717 0.924533
vt 0.930020 0.937755
vt 0.931423 0.937874
vt 0.932427 0.937585
vt 0.931630 0.937689
vt 0.931084 0.924072
vt 0.929904 0.923070
vt 0.928189 0.921830
vt 0.929309 0.922921
vt 0.931727 0.931661
vt 0.929846 0.932346
vt 0.930287 0.937316
vt 0.931760 0.937355
vt 0.935098 0.930152
vt 0.933699 0.930833
vt 0.932962 0.937003
vt 0.934823 0.937205
vt 0.915855 0.930991
vt 0.916368 0.930548
vt 0.918056 0.937269
vt 0.917476 0.936979
vt 0.918303 0.930276
vt 0.921484 0.930111
vt 0.920253 0.937437
vt 0.917865 0.936946
vt 0.916537 0.924147
vt 0.917094 0.924499
vt 0.919789 0.924056
vt 0.920764 0.923446
vt 0.926901 0.898359
vt 0.926973 0.897901
vt 0.926544 0.898230
vt 0.926021 0.898305
vt 0.927008 0.898493
vt 0.928250 0.897740
vt 0.929661 0.938279
vt 0.927152 0.938218
vt 0.919067 0.937772
vt 0.919724 0.937953
vt 0.917840 0.937406
vt 0.917444 0.937229
vt 0.920242 0.923559
vt 0.920402 0.923650
vt 0.919243 0.924497
vt 0.918961 0.923249
vt 0.925645 0.921182
vt 0.927055 0.920894
vt 0.925611 0.937151
vt 0.922652 0.928544
vt 0.917295 0.931613
vt 0.918407 0.937359
vt 0.934158 0.937510
vt 0.934148 0.929704
vt 0.929989 0.937670
vt 0.930783 0.928776
vt 0.928553 0.916284
vt 0.924925 0.915893
vt 0.920959 0.915677
vt 0.918930 0.914501
vt 0.918360 0.912842
vt 0.919361 0.912110
vt 0.921034 0.911880
vt 0.924244 0.912118
vt 0.927062 0.912716
vt 0.928427 0.913139
vt 0.930072 0.913976
vt 0.929311 0.914472
vt 0.928746 0.911112
vt 0.925768 0.911515
vt 0.923127 0.911460
vt 0.921645 0.911012
vt 0.920842 0.910053
vt 0.921837 0.909556
vt 0.923335 0.909316
vt 0.926299 0.909166
vt 0.928710 0.909304
vt 0.929828 0.909362
vt 0.930715 0.910119
vt 0.929817 0.910506
vt 0.930168 0.898581
vt 0.929586 0.897354
vt 0.933795 0.938172
vt 0.934738 0.937637
vt 0.928946 0.897559
vt 0.927330 0.898261
vt 0.929631 0.897447
vt 0.925292 0.937536
vt 0.918520 0.937831
vt 0.917719 0.937203
vt 0.919455 0.929425
vt 0.926262 0.927773
vt 0.929939 0.924345
vt 0.921124 0.925335
vt 0.928821 0.926903
vt 0.931136 0.926143
vt 0.932516 0.925716
vt 0.916533 0.926986
vt 0.916923 0.926316
vt 0.918144 0.925152
vt 0.915007 0.927808
vt 0.932344 0.925276
vt 0.926729 0.907958
vt 0.930086 0.907759
vt 0.924641 0.908011
vt 0.923088 0.907055
vt 0.923833 0.907637
vt 0.924123 0.906657
vt 0.928445 0.905939
vt 0.925498 0.906483
vt 0.930351 0.906044
vt 0.931995 0.906994
vt 0.931130 0.906048
vt 0.931177 0.907269
vn 0.073498 0.027633 -0.996912
vn 0.190774 -0.229790 -0.954359
vn 0.762748 -0.197461 -0.615812
vn 0.727153 0.081188 -0.681657
vn 0.798875 -0.060626 -0.598434
vn 0.180073 -0.803946 -0.566785
vn -0.248617 -0.004914 -0.968589
vn 0.184539 0.050817 -0.981511
vn 0.722272 -0.384531 -0.574857
vn 0.913393 0.024697 -0.406330
vn -0.938129 -0.136067 0.318433
vn -0.883465 -0.433290 0.178182
vn -0.857747 -0.468209 0.212251
vn -0.980386 -0.096456 0.171868
vn -0.282087 0.829965 -0.481233
vn -0.018535 0.988344 -0.151104
vn 0.176787 0.903875 -0.389560
vn 0.243063 0.838760 -0.487239
vn 0.825561 -0.518151 -0.223535
vn 0.790812 -0.607145 0.077403
vn 0.866066 -0.172153 0.469353
vn 0.988722 -0.149369 -0.010844
vn 0.511962 0.274426 -0.813994
vn -0.333810 0.550378 -0.765281
vn -0.474756 0.310632 -0.823477
vn 0.295129 0.309319 -0.904002
vn 0.988184 -0.080388 -0.130500
vn 0.713062 0.105300 -0.693149
vn 0.608695 0.230535 -0.759173
vn 0.994091 0.066863 -0.085513
vn -0.998520 0.052387 0.014630
vn -0.944796 -0.087037 0.315888
vn -0.945841 0.027546 0.323460
vn -0.979662 0.190121 -0.064159
vn -0.652267 -0.179908 0.736329
vn 0.048010 -0.179196 0.982641
vn 0.084375 -0.089603 0.992397
vn -0.666776 -0.101905 0.738258
vn -0.886716 -0.274089 -0.372303
vn -0.968486 -0.097688 -0.229111
vn -0.490956 -0.234946 -0.838905
vn -0.521599 0.009269 -0.853141
vn -0.912319 -0.171303 -0.371927
vn -0.364464 -0.919769 0.145574
vn -0.657248 -0.400123 0.638691
vn -0.972150 -0.212415 -0.099016
vn -0.606253 -0.043645 -0.794073
vn -0.301359 -0.908514 -0.289456
vn 0.074334 0.976043 0.204488
vn -0.063968 0.994205 -0.086397
vn -0.126222 0.990577 -0.053161
vn -0.090314 0.982455 0.163176
vn -0.622563 0.782569 -0.001442
vn -0.655431 0.707516 0.264257
vn -0.159938 -0.343247 0.925528
vn -0.243722 -0.572452 0.782878
vn -0.741205 -0.606598 0.287495
vn -0.620186 -0.204702 0.757276
vn 0.482187 -0.328115 0.812303
vn 0.264208 -0.707765 0.655181
vn -0.408924 0.302169 -0.861090
vn -0.286923 0.767201 -0.573653
vn -0.442526 0.481266 -0.756673
vn -0.384519 0.308995 -0.869866
vn 0.871824 -0.004763 0.489796
vn 0.899908 -0.129350 0.416455
vn 0.472437 -0.048219 0.880045
vn 0.483254 -0.191082 0.854373
vn 0.670477 0.150720 -0.726460
vn 0.036109 0.126309 -0.991334
vn -0.508436 0.063444 -0.858759
vn -0.950862 -0.082840 -0.298326
vn -0.987023 -0.145015 0.068967
vn -0.911811 -0.199338 0.358978
vn -0.490905 -0.296544 0.819191
vn 0.082742 -0.267520 0.959993
vn 0.557692 -0.158981 0.814681
vn 0.855400 -0.042512 0.516221
vn 0.974361 0.023294 0.223779
vn 0.926208 0.133934 -0.352420
vn 0.470531 0.264686 -0.841750
vn -0.061265 0.171533 -0.983272
vn -0.494669 -0.020272 -0.868845
vn -0.837773 -0.257016 -0.481746
vn -0.901740 -0.402669 -0.157236
vn -0.692605 -0.569237 0.443020
vn -0.088988 -0.515616 0.852186
vn 0.282558 -0.389223 0.876736
vn 0.650033 -0.205152 0.731690
vn 0.882635 -0.010638 0.469938
vn 0.983480 0.108827 0.144650
vn 0.879773 0.260388 -0.397740
vn 0.989734 -0.142685 -0.008206
vn 0.934689 -0.257192 0.245373
vn 0.238307 0.969890 0.050240
vn 0.485456 0.824360 -0.291142
vn 0.256228 -0.383580 0.887251
vn 0.102416 -0.359612 0.927464
vn 0.749660 -0.295798 0.592043
vn -0.203315 0.879446 -0.430393
vn -0.206562 0.892681 -0.400566
vn -0.738901 0.673292 -0.026520
vn -0.416939 0.594372 -0.687666
vn -0.001462 0.540208 -0.841530
vn 0.487353 -0.455749 0.744835
vn -0.064188 -0.386643 0.919993
vn 0.677623 0.098261 -0.728815
vn 0.737827 -0.084194 -0.669718
vn 0.915938 -0.299361 -0.267283
vn -0.980087 -0.132941 0.147499
vn -0.933964 -0.261281 0.243810
vn -0.675088 -0.404077 0.617234
vn -0.764862 0.508779 -0.395132
vn 0.895756 -0.384381 0.223320
vn -0.229973 0.130182 -0.964451
vn 0.271792 0.174229 -0.946453
vn -0.590269 0.040595 -0.806185
vn -0.960139 -0.266683 -0.083746
vn -0.902539 -0.136422 -0.408426
vn -0.672059 -0.433965 0.600010
vn 0.278202 -0.330341 0.901930
vn 0.032977 -0.402336 0.914898
vn 0.683126 -0.209713 0.699542
vn 0.999810 0.016931 -0.009690
vn 0.934546 -0.119054 0.335336
vn 0.838021 0.125240 -0.531071
s 1
g Lower_Incisor_Right_02 Lower_Teeth Teeth group1
usemtl Lower_Incisor_Carpals_RightSG
f 16/1/1 21/2/2 9/3/3 25/4/4
f 54/5/5 48/6/6 38/7/7 1/8/8
f 9/3/3 45/9/9 42/10/10 25/4/4
f 41/11/11 46/12/12 10/13/13 2/14/14
f 71/15/15 49/16/16 75/17/17 3/18/18
f 11/19/19 24/20/20 18/21/21 5/22/22
f 84/23/23 87/24/24 13/25/25 67/26/26
f 86/27/27 95/28/28 43/29/29 7/30/30
f 79/31/31 97/32/32 44/33/33 4/34/34
f 81/35/35 93/36/36 20/37/37 8/38/38
f 22/39/39 15/40/40 2/14/14 10/13/13
f 59/41/41 56/42/42 15/40/40 22/39/39
f 37/43/43 47/44/44 53/45/45 34/46/46
f 63/47/47 65/48/48 47/44/44 37/43/43
f 78/49/49 66/50/50 50/51/51 74/52/52
f 74/52/52 50/51/51 76/53/53 70/54/54
f 17/55/55 23/56/56 12/57/57 6/58/58
f 57/59/59 60/60/60 23/56/56 17/55/55
f 55/61/61 100/62/62 89/63/63 14/64/64
f 14/64/64 89/63/63 79/31/31 4/34/34
f 19/65/65 91/66/66 86/27/27 7/30/30
f 58/67/67 102/68/68 91/66/66 19/65/65
f 33/69/69 30/70/70 16/1/1 25/4/4
f 30/70/70 61/71/71 56/42/42 16/1/1
f 29/72/72 26/73/73 2/14/14 15/40/40
f 26/73/73 51/74/74 41/11/11 2/14/14
f 28/75/75 31/76/76 17/55/55 6/58/58
f 31/76/76 62/77/77 57/59/59 17/55/55
f 32/78/78 27/79/79 5/22/22 18/21/21
f 27/79/79 52/80/80 42/10/10 5/22/22
f 126/81/81 115/82/82 30/70/70 33/69/69
f 115/82/82 124/83/83 61/71/71 30/70/70
f 116/84/84 117/85/85 26/73/73 29/72/72
f 117/85/85 122/86/86 51/74/74 26/73/73
f 118/87/87 119/88/88 31/76/76 28/75/75
f 119/88/88 125/89/89 62/77/77 31/76/76
f 120/90/90 121/91/91 27/79/79 32/78/78
f 121/91/91 123/92/92 52/80/80 27/79/79
f 48/6/6 54/5/5 35/93/93 40/94/94
f 42/10/10 45/9/9 11/19/19 5/22/22
f 46/12/12 41/11/11 6/58/58 12/57/57
f 75/17/17 49/16/16 73/95/95 69/96/96
f 43/29/29 95/28/28 84/23/23 67/26/26
f 44/33/33 97/32/32 81/35/35 8/38/38
f 53/45/45 47/44/44 39/97/97 36/98/98
f 47/44/44 65/48/48 64/99/99 39/97/97
f 50/51/51 66/50/50 77/100/100 72/101/101
f 76/53/53 50/51/51 72/101/101 68/102/102
f 41/11/11 51/74/74 28/75/75 6/58/58
f 42/10/10 52/80/80 33/69/69 25/4/4
f 51/74/74 122/86/86 118/87/87 28/75/75
f 52/80/80 123/92/92 126/81/81 33/69/69
f 56/42/42 59/41/41 21/2/2 16/1/1
f 65/48/48 63/47/47 38/7/7 48/6/6
f 66/50/50 78/49/49 73/95/95 49/16/16
f 60/60/60 57/59/59 18/21/21 24/20/20
f 59/41/41 99/103/103 88/104/104 21/2/2
f 60/60/60 101/105/105 94/106/106 23/56/56
f 56/42/42 61/71/71 29/72/72 15/40/40
f 57/59/59 62/77/77 32/78/78 18/21/21
f 61/71/71 124/83/83 116/84/84 29/72/72
f 62/77/77 125/89/89 120/90/90 32/78/78
f 64/99/99 65/48/48 48/6/6 40/94/94
f 77/100/100 66/50/50 49/16/16 71/15/15
f 3/18/18 75/17/17 43/29/29 67/26/26
f 75/17/17 69/96/96 7/30/30 43/29/29
f 69/96/96 73/95/95 19/65/65 7/30/30
f 73/95/95 78/49/49 58/67/67 19/65/65
f 78/49/49 74/52/52 20/37/37 58/67/67
f 74/52/52 70/54/54 8/38/38 20/37/37
f 70/54/54 76/53/53 44/33/33 8/38/38
f 76/53/53 68/102/102 4/34/34 44/33/33
f 68/102/102 72/101/101 14/64/64 4/34/34
f 72/101/101 77/100/100 55/61/61 14/64/64
f 77/100/100 71/15/15 13/25/25 55/61/61
f 71/15/15 3/18/18 67/26/26 13/25/25
f 88/104/104 83/107/107 9/3/3 21/2/2
f 87/24/24 84/23/23 83/107/107 88/104/104
f 96/108/108 85/109/109 11/19/19 45/9/9
f 95/28/28 86/27/27 85/109/109 96/108/108
f 97/32/32 79/31/31 80/110/110 98/111/111
f 98/111/111 80/110/110 10/13/13 46/12/12
f 93/36/36 81/35/35 82/112/112 94/106/106
f 94/106/106 82/112/112 12/57/57 23/56/56
f 89/63/63 100/62/62 99/103/103 90/113/113
f 90/113/113 99/103/103 59/41/41 22/39/39
f 79/31/31 89/63/63 90/113/113 80/110/110
f 80/110/110 90/113/113 22/39/39 10/13/13
f 85/109/109 92/114/114 24/20/20 11/19/19
f 86/27/27 91/66/66 92/114/114 85/109/109
f 91/66/66 102/68/68 101/105/105 92/114/114
f 92/114/114 101/105/105 60/60/60 24/20/20
f 83/107/107 96/108/108 45/9/9 9/3/3
f 84/23/23 95/28/28 96/108/108 83/107/107
f 81/35/35 97/32/32 98/111/111 82/112/112
f 82/112/112 98/111/111 46/12/12 12/57/57
f 87/24/24 100/62/62 55/61/61 13/25/25
f 88/104/104 99/103/103 100/62/62 87/24/24
f 93/36/36 102/68/68 58/67/67 20/37/37
f 94/106/106 101/105/105 102/68/68 93/36/36
f 103/115/115 104/116/116 1/8/8 38/7/7
f 113/117/117 103/115/115 38/7/7 63/47/47
f 106/118/118 105/119/119 37/43/43 34/46/46
f 111/120/120 106/118/118 34/46/46 53/45/45
f 108/121/121 107/122/122 36/98/98 39/97/97
f 114/123/123 108/121/121 39/97/97 64/99/99
f 110/124/124 109/125/125 40/94/94 35/93/93
f 112/126/126 110/124/124 35/93/93 54/5/5
f 107/122/122 111/120/120 53/45/45 36/98/98
f 104/116/116 112/126/126 54/5/5 1/8/8
f 105/119/119 113/117/117 63/47/47 37/43/43
f 109/125/125 114/123/123 64/99/99 40/94/94
f 115/82/82 126/81/81 104/116/116 103/115/115
f 124/83/83 115/82/82 103/115/115 113/117/117
f 117/85/85 116/84/84 105/119/119 106/118/118
f 122/86/86 117/85/85 106/118/118 111/120/120
f 119/88/88 118/87/87 107/122/122 108/121/121
f 125/89/89 119/88/88 108/121/121 114/123/123
f 121/91/91 120/90/90 109/125/125 110/124/124
f 123/92/92 121/91/91 110/124/124 112/126/126
f 118/87/87 122/86/86 111/120/120 107/122/122
f 126/81/81 123/92/92 112/126/126 104/116/116
f 116/84/84 124/83/83 113/117/117 105/119/119
f 120/90/90 125/89/89 114/123/123 109/125/125
