# This file uses centimeters as units for non-parametric coordinates.

mtllib Lower_Incisor_Right_01.mtl
g default
v 0.043667 0.734194 0.954184
v 0.015060 0.883175 1.005299
v 0.064438 0.958141 1.020356
v 0.005110 0.952400 1.029488
v 0.050391 0.879789 1.016179
v 0.013407 0.871813 1.019655
v 0.067471 0.955183 1.034406
v 0.002395 0.952730 1.046940
v 0.052367 0.886208 0.998766
v 0.011607 0.880156 1.002979
v 0.055836 0.885662 1.022346
v 0.011516 0.878353 1.022033
v 0.062436 0.950457 1.017666
v 0.010386 0.954296 1.026070
v 0.011377 0.886593 0.994756
v 0.051360 0.889143 0.990519
v 0.017660 0.871231 1.025756
v 0.049142 0.871588 1.018199
v 0.065989 0.958691 1.042155
v 0.007879 0.955839 1.053675
v 0.052828 0.886562 0.986144
v 0.009336 0.885479 0.991691
v 0.016991 0.872055 1.027708
v 0.052333 0.877737 1.028175
v 0.049847 0.882677 1.000297
v 0.012875 0.826464 0.987691
v 0.052254 0.829966 0.998538
v 0.017429 0.821436 1.003388
v 0.020058 0.833241 0.975643
v 0.042512 0.839434 0.973711
v 0.026567 0.823481 1.009309
v 0.044686 0.827162 1.007044
v 0.052652 0.841194 0.985367
v 0.028821 0.733643 0.957190
v 0.044420 0.732447 0.960765
v 0.031017 0.732323 0.963626
v 0.035159 0.733793 0.952283
v 0.037412 0.732924 0.952605
v 0.037029 0.727619 0.963794
v 0.039683 0.725950 0.963409
v 0.013436 0.880451 1.013957
v 0.051336 0.882084 1.008566
v 0.065662 0.959244 1.027063
v 0.002855 0.952368 1.038254
v 0.055887 0.895216 1.010988
v 0.008621 0.885418 1.013706
v 0.031364 0.730982 0.960154
v 0.042599 0.730795 0.958035
v 0.063391 0.960358 1.028415
v 0.012075 0.960796 1.036829
v 0.013643 0.822756 0.995885
v 0.052511 0.832594 0.990537
v 0.029337 0.732891 0.961050
v 0.044472 0.732727 0.957699
v 0.040032 0.951147 1.020495
v 0.029200 0.878969 0.984317
v 0.035332 0.864927 1.028031
v 0.040542 0.960863 1.050182
v 0.027871 0.884344 0.978705
v 0.034436 0.863758 1.037380
v 0.030058 0.837658 0.970182
v 0.036803 0.826992 1.011025
v 0.035880 0.734467 0.952007
v 0.039128 0.726797 0.964180
v 0.037419 0.729456 0.958200
v 0.041974 0.960167 1.028159
v 0.064324 0.955780 1.023580
v 0.008448 0.958048 1.028168
v 0.063867 0.959192 1.032815
v 0.005841 0.960163 1.042351
v 0.061929 0.962418 1.020121
v 0.011690 0.963934 1.027006
v 0.064557 0.963211 1.042455
v 0.008262 0.964907 1.050719
v 0.067122 0.958212 1.025104
v 0.008360 0.958214 1.035408
v 0.039365 0.958744 1.018529
v 0.040574 0.966700 1.047220
v 0.001890 0.934448 1.015814
v 0.006484 0.901989 1.003200
v 0.001659 0.925371 1.041942
v 0.002807 0.887566 1.028640
v 0.057618 0.905523 0.998367
v 0.066794 0.936171 1.010892
v 0.062444 0.899010 1.023540
v 0.067295 0.932594 1.033265
v 0.059873 0.942923 1.010485
v 0.052983 0.909359 0.985370
v 0.006831 0.933855 1.016454
v -0.002150 0.907660 0.991872
v 0.065462 0.929867 1.046279
v 0.059083 0.896000 1.033691
v 0.008611 0.923599 1.051998
v 0.011052 0.892467 1.040404
v 0.069860 0.937529 1.020675
v 0.061736 0.902449 1.010675
v 0.003599 0.929836 1.028717
v 0.002819 0.898447 1.015838
v 0.029521 0.914751 0.973722
v 0.028544 0.899153 1.007570
v 0.037157 0.883936 1.051642
v 0.038747 0.919239 1.055282
v 0.039472 0.789396 0.964200
v 0.048654 0.787392 0.970920
v 0.027515 0.788603 0.966689
v 0.018586 0.787384 0.978836
v 0.023064 0.783777 0.990588
v 0.031718 0.779825 0.990931
v 0.042306 0.778563 0.988153
v 0.048892 0.782887 0.983054
v 0.019977 0.785429 0.985465
v 0.049400 0.784435 0.976931
v 0.032879 0.789265 0.964915
v 0.037952 0.780203 0.991307
v 0.038314 0.813177 0.970751
v 0.023004 0.811928 0.973064
v 0.014825 0.808523 0.984527
v 0.019283 0.804182 0.997733
v 0.027302 0.802858 1.000688
v 0.040052 0.801777 0.998012
v 0.046597 0.804691 0.991135
v 0.015949 0.805901 0.991813
v 0.046759 0.806654 0.984390
v 0.029478 0.813307 0.969756
v 0.034719 0.803606 1.001085
v 0.046236 0.810078 0.977479
vt 0.913277 0.925410
vt 0.913670 0.924979
vt 0.913546 0.924920
vt 0.912871 0.924331
vt 0.911431 0.899319
vt 0.910930 0.898997
vt 0.909541 0.899353
vt 0.911216 0.899565
vt 0.914489 0.926423
vt 0.913270 0.924233
vt 0.903119 0.923960
vt 0.901829 0.924789
vt 0.902629 0.923911
vt 0.903553 0.924414
vt 0.916107 0.937632
vt 0.916499 0.937289
vt 0.917498 0.936931
vt 0.916779 0.936919
vt 0.914475 0.924829
vt 0.913537 0.923507
vt 0.912683 0.922482
vt 0.913017 0.923849
vt 0.917411 0.933254
vt 0.915557 0.934380
vt 0.916243 0.935637
vt 0.916749 0.936525
vt 0.917545 0.932657
vt 0.918232 0.933481
vt 0.917107 0.937103
vt 0.917592 0.936425
vt 0.900026 0.932967
vt 0.900484 0.932197
vt 0.900284 0.935956
vt 0.900889 0.935961
vt 0.899964 0.931453
vt 0.901826 0.931157
vt 0.901630 0.936535
vt 0.900161 0.936016
vt 0.902020 0.924799
vt 0.902567 0.924985
vt 0.906985 0.924609
vt 0.907341 0.923713
vt 0.908937 0.899497
vt 0.907921 0.899029
vt 0.907378 0.899347
vt 0.907240 0.899472
vt 0.909130 0.899610
vt 0.909543 0.898774
vt 0.910387 0.938346
vt 0.910762 0.937257
vt 0.902754 0.937361
vt 0.901733 0.938047
vt 0.901759 0.936931
vt 0.901084 0.937256
vt 0.904250 0.922422
vt 0.904071 0.922559
vt 0.902604 0.923610
vt 0.903111 0.922519
vt 0.908983 0.921370
vt 0.908743 0.921176
vt 0.910242 0.935752
vt 0.907165 0.927080
vt 0.901349 0.932868
vt 0.902302 0.936277
vt 0.917195 0.937011
vt 0.917054 0.932203
vt 0.910379 0.937373
vt 0.909898 0.930430
vt 0.913622 0.917412
vt 0.910907 0.917118
vt 0.907571 0.916822
vt 0.904892 0.916085
vt 0.902968 0.914955
vt 0.903174 0.914337
vt 0.904188 0.914117
vt 0.906636 0.914458
vt 0.909377 0.915043
vt 0.911489 0.915071
vt 0.913516 0.915539
vt 0.913585 0.915978
vt 0.911904 0.912222
vt 0.909782 0.912739
vt 0.907415 0.912760
vt 0.905681 0.912530
vt 0.903491 0.911962
vt 0.903792 0.911525
vt 0.904685 0.911238
vt 0.906833 0.911017
vt 0.908819 0.911142
vt 0.910248 0.910837
vt 0.912001 0.911323
vt 0.912044 0.911651
vt 0.911418 0.899273
vt 0.910149 0.898189
vt 0.916811 0.937765
vt 0.916627 0.937094
vt 0.909438 0.898467
vt 0.907828 0.899252
vt 0.910000 0.898330
vt 0.910064 0.937019
vt 0.902651 0.937885
vt 0.901783 0.936903
vt 0.907427 0.929681
vt 0.913711 0.928782
vt 0.909472 0.924542
vt 0.902480 0.925965
vt 0.914953 0.928142
vt 0.916056 0.927629
vt 0.916245 0.927056
vt 0.901257 0.927553
vt 0.900275 0.926962
vt 0.900271 0.925147
vt 0.898944 0.928499
vt 0.915345 0.926554
vt 0.910092 0.908772
vt 0.912552 0.908438
vt 0.908327 0.908750
vt 0.904498 0.908436
vt 0.906890 0.908640
vt 0.904871 0.908111
vt 0.908015 0.907175
vt 0.905697 0.907835
vt 0.909685 0.907239
vt 0.912616 0.907686
vt 0.910851 0.906965
vt 0.912752 0.907944
vn 0.635270 0.052278 -0.770519
vn 0.585136 -0.248142 -0.772037
vn 0.939268 -0.296082 -0.173527
vn 0.973400 0.016699 -0.228504
vn 0.986898 -0.116786 -0.111326
vn 0.424595 -0.800218 -0.423520
vn 0.361596 0.126851 -0.923665
vn 0.709188 0.101752 -0.697638
vn 0.880407 -0.422507 -0.215341
vn 0.997233 -0.072375 -0.016970
vn -0.995171 -0.097820 0.008101
vn -0.882670 -0.399424 -0.247699
vn -0.865648 -0.500575 -0.008866
vn -0.992527 -0.040720 -0.115031
vn -0.001229 0.774117 -0.633042
vn 0.080100 0.981904 -0.171606
vn 0.894895 0.441365 -0.066022
vn 0.868867 0.330501 -0.368565
vn 0.905128 -0.418360 -0.075618
vn 0.740753 -0.523709 0.420731
vn 0.772404 -0.334021 0.540206
vn 0.984181 -0.165181 0.064057
vn 0.884970 0.039674 -0.463955
vn -0.165012 0.536661 -0.827506
vn -0.096934 0.340745 -0.935145
vn 0.854522 0.276088 -0.439963
vn 0.987413 -0.125442 0.096330
vn 0.991624 -0.046949 -0.120326
vn 0.988129 0.152542 -0.018214
vn 0.992350 0.067494 0.103376
vn -0.994987 0.046437 -0.088564
vn -0.997552 0.015906 -0.068097
vn -0.987704 0.123470 -0.095896
vn -0.925976 0.276660 -0.256959
vn -0.958876 -0.083656 0.271218
vn -0.306324 -0.097558 0.946915
vn -0.154280 0.094173 0.983529
vn -0.946682 0.037782 0.319948
vn -0.690520 -0.327550 -0.644898
vn -0.851625 -0.020189 -0.523763
vn -0.134527 -0.274930 -0.952006
vn -0.151797 0.182513 -0.971415
vn -0.679559 0.052692 -0.731726
vn -0.459458 -0.862253 -0.213118
vn -0.920266 -0.318096 0.227872
vn -0.870635 -0.016834 -0.491642
vn -0.146797 0.165244 -0.975267
vn -0.170269 -0.865115 -0.471789
vn 0.018901 0.996511 0.081293
vn -0.000073 0.987580 -0.157119
vn -0.083110 0.972104 -0.219333
vn -0.162220 0.952292 0.258505
vn -0.749977 0.644943 -0.146909
vn -0.789549 0.603707 -0.110226
vn -0.442183 -0.473562 0.761717
vn -0.557691 -0.588857 0.585003
vn -0.800993 -0.581138 0.143836
vn -0.872596 -0.227486 0.432235
vn 0.240985 -0.542831 0.804525
vn 0.026494 -0.709040 0.704671
vn -0.149921 0.268159 -0.951638
vn -0.094455 0.842031 -0.531095
vn -0.041738 0.506740 -0.861088
vn -0.108849 0.263265 -0.958563
vn 0.483586 0.139200 0.864158
vn 0.593802 -0.059185 0.802431
vn 0.142710 0.127215 0.981555
vn 0.155965 -0.108674 0.981766
vn 0.949135 0.038723 -0.312481
vn 0.474930 0.183043 -0.860777
vn -0.154265 0.236515 -0.959303
vn -0.785392 0.102434 -0.610465
vn -0.982837 -0.006831 -0.184348
vn -0.991550 -0.067873 0.110551
vn -0.803454 -0.245767 0.542274
vn -0.333446 -0.367937 0.868007
vn 0.190231 -0.367305 0.910439
vn 0.670462 -0.287705 0.683890
vn 0.940645 -0.161405 0.298557
vn 0.996749 -0.068282 -0.042773
vn 0.845739 0.054133 -0.530844
vn 0.471878 0.112920 -0.874403
vn -0.155588 0.104454 -0.982284
vn -0.710067 0.024707 -0.703701
vn -0.927507 -0.066616 -0.367822
vn -0.942839 -0.221910 0.248617
vn -0.617240 -0.343929 0.707622
vn -0.197956 -0.386027 0.900998
vn 0.173957 -0.386052 0.905926
vn 0.620326 -0.306206 0.722104
vn 0.889067 -0.217008 0.403073
vn 0.997189 -0.053118 -0.052836
vn 0.857391 -0.279415 0.432213
vn 0.686335 -0.403924 0.604806
vn 0.200543 0.976023 0.084628
vn 0.866872 0.496212 -0.048034
vn -0.223605 -0.533168 0.815924
vn -0.513032 -0.465031 0.721487
vn 0.201960 -0.504933 0.839199
vn -0.086989 0.663006 -0.743543
vn -0.126498 0.836274 -0.533521
vn -0.803113 0.498332 -0.326610
vn -0.150268 0.548958 -0.822231
vn 0.110960 0.577863 -0.808556
vn 0.114406 -0.399237 0.909682
vn -0.509853 -0.323591 0.797081
vn 0.925847 -0.073479 -0.370685
vn 0.956472 -0.238138 -0.168678
vn 0.963466 -0.265257 0.037040
vn -0.980962 -0.184400 0.060911
vn -0.990145 -0.079116 -0.115557
vn -0.936880 -0.290855 0.194061
vn -0.327570 0.643292 -0.692006
vn 0.730632 -0.311562 0.607541
vn 0.368860 0.225937 -0.901607
vn 0.783585 0.158265 -0.600789
vn -0.158831 0.205220 -0.965742
vn -0.918240 -0.047034 -0.393221
vn -0.681636 0.098708 -0.725003
vn -0.923398 -0.279066 0.263550
vn -0.214256 -0.449798 0.867050
vn -0.563971 -0.417371 0.712557
vn 0.142682 -0.408010 0.901760
vn 0.880004 -0.189045 0.435724
vn 0.651048 -0.317309 0.689530
vn 0.998993 -0.009056 -0.043943
s 1
g Lower_Incisor_Right_01 Lower_Teeth Teeth group1
usemtl Lower_Incisor1_Carpals_RightSG
f 16/1/1 21/2/2 9/3/3 25/4/4
f 54/5/5 48/6/6 38/7/7 1/8/8
f 9/3/3 45/9/9 42/10/10 25/4/4
f 41/11/11 46/12/12 10/13/13 2/14/14
f 71/15/15 49/16/16 75/17/17 3/18/18
f 11/19/19 24/20/20 18/21/21 5/22/22
f 84/23/23 87/24/24 13/25/25 67/26/26
f 86/27/27 95/28/28 43/29/29 7/30/30
f 79/31/31 97/32/32 44/33/33 4/34/34
f 81/35/35 93/36/36 20/37/37 8/38/38
f 22/39/39 15/40/40 2/14/14 10/13/13
f 59/41/41 56/42/42 15/40/40 22/39/39
f 37/43/43 47/44/44 53/45/45 34/46/46
f 63/47/47 65/48/48 47/44/44 37/43/43
f 78/49/49 66/50/50 50/51/51 74/52/52
f 74/52/52 50/51/51 76/53/53 70/54/54
f 17/55/55 23/56/56 12/57/57 6/58/58
f 57/59/59 60/60/60 23/56/56 17/55/55
f 55/61/61 100/62/62 89/63/63 14/64/64
f 14/64/64 89/63/63 79/31/31 4/34/34
f 19/65/65 91/66/66 86/27/27 7/30/30
f 58/67/67 102/68/68 91/66/66 19/65/65
f 33/69/69 30/70/70 16/1/1 25/4/4
f 30/70/70 61/71/71 56/42/42 16/1/1
f 29/72/72 26/73/73 2/14/14 15/40/40
f 26/73/73 51/74/74 41/11/11 2/14/14
f 28/75/75 31/76/76 17/55/55 6/58/58
f 31/76/76 62/77/77 57/59/59 17/55/55
f 32/78/78 27/79/79 5/22/22 18/21/21
f 27/79/79 52/80/80 42/10/10 5/22/22
f 126/81/81 115/82/82 30/70/70 33/69/69
f 115/82/82 124/83/83 61/71/71 30/70/70
f 116/84/84 117/85/85 26/73/73 29/72/72
f 117/85/85 122/86/86 51/74/74 26/73/73
f 118/87/87 119/88/88 31/76/76 28/75/75
f 119/88/88 125/89/89 62/77/77 31/76/76
f 120/90/90 121/91/91 27/79/79 32/78/78
f 121/91/91 123/92/92 52/80/80 27/79/79
f 48/6/6 54/5/5 35/93/93 40/94/94
f 42/10/10 45/9/9 11/19/19 5/22/22
f 46/12/12 41/11/11 6/58/58 12/57/57
f 75/17/17 49/16/16 73/95/95 69/96/96
f 43/29/29 95/28/28 84/23/23 67/26/26
f 44/33/33 97/32/32 81/35/35 8/38/38
f 53/45/45 47/44/44 39/97/97 36/98/98
f 47/44/44 65/48/48 64/99/99 39/97/97
f 50/51/51 66/50/50 77/100/100 72/101/101
f 76/53/53 50/51/51 72/101/101 68/102/102
f 41/11/11 51/74/74 28/75/75 6/58/58
f 42/10/10 52/80/80 33/69/69 25/4/4
f 51/74/74 122/86/86 118/87/87 28/75/75
f 52/80/80 123/92/92 126/81/81 33/69/69
f 56/42/42 59/41/41 21/2/2 16/1/1
f 65/48/48 63/47/47 38/7/7 48/6/6
f 66/50/50 78/49/49 73/95/95 49/16/16
f 60/60/60 57/59/59 18/21/21 24/20/20
f 59/41/41 99/103/103 88/104/104 21/2/2
f 60/60/60 101/105/105 94/106/106 23/56/56
f 56/42/42 61/71/71 29/72/72 15/40/40
f 57/59/59 62/77/77 32/78/78 18/21/21
f 61/71/71 124/83/83 116/84/84 29/72/72
f 62/77/77 125/89/89 120/90/90 32/78/78
f 64/99/99 65/48/48 48/6/6 40/94/94
f 77/100/100 66/50/50 49/16/16 71/15/15
f 3/18/18 75/17/17 43/29/29 67/26/26
f 75/17/17 69/96/96 7/30/30 43/29/29
f 69/96/96 73/95/95 19/65/65 7/30/30
f 73/95/95 78/49/49 58/67/67 19/65/65
f 78/49/49 74/52/52 20/37/37 58/67/67
f 74/52/52 70/54/54 8/38/38 20/37/37
f 70/54/54 76/53/53 44/33/33 8/38/38
f 76/53/53 68/102/102 4/34/34 44/33/33
f 68/102/102 72/101/101 14/64/64 4/34/34
f 72/101/101 77/100/100 55/61/61 14/64/64
f 77/100/100 71/15/15 13/25/25 55/61/61
f 71/15/15 3/18/18 67/26/26 13/25/25
f 88/104/104 83/107/107 9/3/3 21/2/2
f 87/24/24 84/23/23 83/107/107 88/104/104
f 96/108/108 85/109/109 11/19/19 45/9/9
f 95/28/28 86/27/27 85/109/109 96/108/108
f 97/32/32 79/31/31 80/110/110 98/111/111
f 98/111/111 80/110/110 10/13/13 46/12/12
f 93/36/36 81/35/35 82/112/112 94/106/106
f 94/106/106 82/112/112 12/57/57 23/56/56
f 89/63/63 100/62/62 99/103/103 90/113/113
f 90/113/113 99/103/103 59/41/41 22/39/39
f 79/31/31 89/63/63 90/113/113 80/110/110
f 80/110/110 90/113/113 22/39/39 10/13/13
f 85/109/109 92/114/114 24/20/20 11/19/19
f 86/27/27 91/66/66 92/114/114 85/109/109
f 91/66/66 102/68/68 101/105/105 92/114/114
f 92/114/114 101/105/105 60/60/60 24/20/20
f 83/107/107 96/108/108 45/9/9 9/3/3
f 84/23/23 95/28/28 96/108/108 83/107/107
f 81/35/35 97/32/32 98/111/111 82/112/112
f 82/112/112 98/111/111 46/12/12 12/57/57
f 87/24/24 100/62/62 55/61/61 13/25/25
f 88/104/104 99/103/103 100/62/62 87/24/24
f 93/36/36 102/68/68 58/67/67 20/37/37
f 94/106/106 101/105/105 102/68/68 93/36/36
f 103/115/115 104/116/116 1/8/8 38/7/7
f 113/117/117 103/115/115 38/7/7 63/47/47
f 106/118/118 105/119/119 37/43/43 34/46/46
f 111/120/120 106/118/118 34/46/46 53/45/45
f 108/121/121 107/122/122 36/98/98 39/97/97
f 114/123/123 108/121/121 39/97/97 64/99/99
f 110/124/124 109/125/125 40/94/94 35/93/93
f 112/126/126 110/124/124 35/93/93 54/5/5
f 107/122/122 111/120/120 53/45/45 36/98/98
f 104/116/116 112/126/126 54/5/5 1/8/8
f 105/119/119 113/117/117 63/47/47 37/43/43
f 109/125/125 114/123/123 64/99/99 40/94/94
f 115/82/82 126/81/81 104/116/116 103/115/115
f 124/83/83 115/82/82 103/115/115 113/117/117
f 117/85/85 116/84/84 105/119/119 106/118/118
f 122/86/86 117/85/85 106/118/118 111/120/120
f 119/88/88 118/87/87 107/122/122 108/121/121
f 125/89/89 119/88/88 108/121/121 114/123/123
f 121/91/91 120/90/90 109/125/125 110/124/124
f 123/92/92 121/91/91 110/124/124 112/126/126
f 118/87/87 122/86/86 111/120/120 107/122/122
f 126/81/81 123/92/92 112/126/126 104/116/116
f 116/84/84 124/83/83 113/117/117 105/119/119
f 120/90/90 125/89/89 114/123/123 109/125/125
