# This file uses centimeters as units for non-parametric coordinates.

mtllib Lower_Premolar_Right_01.mtl
g default
v 0.177911 0.718298 0.789179
v 0.169269 0.911457 0.868244
v 0.209274 0.984335 0.831639
v 0.158451 0.961956 0.887527
v 0.208782 0.924335 0.814740
v 0.192008 0.905071 0.875711
v 0.222046 0.998770 0.824985
v 0.190553 0.967966 0.911779
v 0.183884 0.924263 0.810652
v 0.167028 0.905930 0.872201
v 0.215688 0.928553 0.810316
v 0.190878 0.911121 0.881802
v 0.185870 0.984608 0.832087
v 0.171089 0.979591 0.873036
v 0.164026 0.910311 0.860125
v 0.178219 0.925226 0.818354
v 0.201349 0.909012 0.872096
v 0.211180 0.912230 0.822982
v 0.231127 0.986694 0.839476
v 0.196783 0.975067 0.904527
v 0.173343 0.917940 0.816234
v 0.160904 0.907068 0.862958
v 0.202391 0.908041 0.874255
v 0.217609 0.913805 0.817736
v 0.185278 0.920700 0.813618
v 0.171937 0.841183 0.846371
v 0.205485 0.860619 0.807218
v 0.195784 0.844696 0.846122
v 0.165625 0.847164 0.832386
v 0.174703 0.860399 0.810481
v 0.207146 0.850737 0.840248
v 0.213169 0.857752 0.819227
v 0.186040 0.871048 0.803917
v 0.177325 0.715189 0.804432
v 0.189217 0.716902 0.796121
v 0.187249 0.715187 0.808602
v 0.174441 0.714741 0.795101
v 0.175220 0.714111 0.793871
v 0.194844 0.710188 0.804278
v 0.193735 0.708241 0.802529
v 0.180015 0.905960 0.881605
v 0.196821 0.921879 0.804537
v 0.210296 0.997200 0.822630
v 0.173514 0.985020 0.906969
v 0.197525 0.939415 0.804625
v 0.175905 0.912640 0.883601
v 0.184199 0.711613 0.804880
v 0.184218 0.712650 0.794463
v 0.201838 0.988632 0.839645
v 0.174771 0.979826 0.882147
v 0.183569 0.841410 0.846919
v 0.194806 0.861689 0.803193
v 0.183819 0.713833 0.807862
v 0.184094 0.716152 0.791911
v 0.177163 0.983759 0.851765
v 0.169513 0.923256 0.838348
v 0.213117 0.903160 0.854281
v 0.229956 0.983074 0.889739
v 0.162965 0.912258 0.836518
v 0.219058 0.907419 0.854915
v 0.167678 0.852890 0.821681
v 0.213780 0.856560 0.830113
v 0.174308 0.715393 0.794700
v 0.194743 0.709316 0.803191
v 0.185798 0.709627 0.799291
v 0.207947 0.997778 0.873125
v 0.199579 0.984213 0.820881
v 0.179363 0.970503 0.892272
v 0.211657 0.983906 0.832295
v 0.185667 0.976988 0.890507
v 0.200334 0.974846 0.840597
v 0.178688 0.972586 0.869340
v 0.220452 0.976583 0.856675
v 0.203914 0.983269 0.888855
v 0.220732 0.979891 0.842482
v 0.184210 0.974110 0.883214
v 0.173154 0.965599 0.847538
v 0.222836 0.989746 0.879661
v 0.153399 0.968418 0.883769
v 0.148400 0.932676 0.880628
v 0.186973 0.963541 0.917128
v 0.195702 0.921148 0.904507
v 0.182082 0.948193 0.805364
v 0.186643 0.977013 0.812059
v 0.216768 0.942278 0.811118
v 0.214652 0.975807 0.816946
v 0.167498 0.986668 0.824373
v 0.186495 0.976486 0.812894
v 0.154739 0.982784 0.866393
v 0.153624 0.933960 0.875932
v 0.236884 0.971310 0.839208
v 0.234558 0.940613 0.830352
v 0.200408 0.963923 0.915601
v 0.206087 0.929329 0.900935
v 0.192064 0.977268 0.814066
v 0.194877 0.948408 0.806996
v 0.164176 0.964682 0.906950
v 0.173339 0.929041 0.897013
v 0.153289 0.967112 0.839215
v 0.154322 0.989422 0.849766
v 0.228242 0.927864 0.862122
v 0.228440 0.956366 0.876670
v 0.171988 0.792042 0.800738
v 0.179109 0.794868 0.792797
v 0.167797 0.789051 0.812329
v 0.173282 0.789038 0.826737
v 0.191283 0.788391 0.830171
v 0.198139 0.785545 0.820389
v 0.202359 0.785000 0.809051
v 0.196731 0.791769 0.799297
v 0.182883 0.788061 0.829320
v 0.188317 0.792221 0.794810
v 0.168166 0.790989 0.806852
v 0.203282 0.786650 0.815081
v 0.171531 0.825262 0.805768
v 0.165617 0.820536 0.822031
v 0.172226 0.819656 0.831901
v 0.193040 0.819290 0.834935
v 0.200662 0.819368 0.829909
v 0.205884 0.819792 0.814992
v 0.199760 0.825434 0.800981
v 0.183610 0.819229 0.832530
v 0.190185 0.826771 0.795086
v 0.166465 0.823105 0.814776
v 0.206511 0.820946 0.823218
v 0.179703 0.828375 0.794498
vt 0.947256 0.931428
vt 0.945950 0.930213
vt 0.948773 0.931268
vt 0.949147 0.930674
vt 0.948829 0.896555
vt 0.948863 0.895971
vt 0.946452 0.896214
vt 0.947173 0.896913
vt 0.952427 0.933795
vt 0.952238 0.930870
vt 0.947737 0.928215
vt 0.946636 0.929329
vt 0.944258 0.928210
vt 0.944858 0.929132
vt 0.953179 0.939705
vt 0.953582 0.942005
vt 0.958643 0.940547
vt 0.955574 0.941288
vt 0.957292 0.931984
vt 0.957806 0.929524
vt 0.956084 0.929261
vt 0.955442 0.931280
vt 0.949512 0.940067
vt 0.944384 0.941677
vt 0.949305 0.941334
vt 0.952977 0.941268
vt 0.957014 0.939865
vt 0.950964 0.940109
vt 0.955847 0.943434
vt 0.958995 0.943696
vt 0.940608 0.938633
vt 0.943494 0.938010
vt 0.945995 0.941402
vt 0.941961 0.937555
vt 0.949600 0.937819
vt 0.953199 0.937883
vt 0.952228 0.939742
vt 0.950559 0.938558
vt 0.942618 0.928400
vt 0.943454 0.928941
vt 0.943170 0.929265
vt 0.944924 0.931100
vt 0.946244 0.896320
vt 0.948857 0.895798
vt 0.948756 0.896168
vt 0.947016 0.896394
vt 0.946208 0.896428
vt 0.949286 0.895466
vt 0.959206 0.942190
vt 0.955218 0.943530
vt 0.946332 0.940536
vt 0.954138 0.941110
vt 0.948860 0.939583
vt 0.949251 0.940063
vt 0.953451 0.928724
vt 0.953730 0.928562
vt 0.950646 0.929076
vt 0.950949 0.928067
vt 0.956603 0.927748
vt 0.958194 0.928458
vt 0.946973 0.941192
vt 0.940855 0.942137
vt 0.940966 0.941029
vt 0.945346 0.940497
vt 0.961427 0.941681
vt 0.962969 0.939115
vt 0.961113 0.941078
vt 0.960707 0.936623
vt 0.949351 0.922392
vt 0.946314 0.920615
vt 0.944432 0.919363
vt 0.943882 0.918408
vt 0.945573 0.917410
vt 0.948689 0.917448
vt 0.951960 0.917996
vt 0.955004 0.919004
vt 0.956781 0.919975
vt 0.956617 0.920174
vt 0.954559 0.920652
vt 0.951698 0.920831
vt 0.947653 0.915274
vt 0.945464 0.914755
vt 0.944107 0.914395
vt 0.943880 0.913966
vt 0.945650 0.913819
vt 0.948700 0.913748
vt 0.951225 0.913758
vt 0.953267 0.913771
vt 0.954834 0.914035
vt 0.954666 0.913842
vt 0.953025 0.914783
vt 0.950461 0.915006
vt 0.950202 0.896680
vt 0.951412 0.895235
vt 0.958568 0.939995
vt 0.956212 0.941216
vt 0.951709 0.895560
vt 0.949674 0.896394
vt 0.951682 0.895415
vt 0.945899 0.938163
vt 0.947381 0.939328
vt 0.947562 0.938981
vt 0.940578 0.938415
vt 0.949472 0.939979
vt 0.960654 0.931868
vt 0.954720 0.932113
vt 0.948290 0.935259
vt 0.951717 0.935295
vt 0.957581 0.934273
vt 0.939269 0.932671
vt 0.945948 0.932065
vt 0.951939 0.930748
vt 0.940668 0.932885
vt 0.962346 0.933995
vt 0.945587 0.909214
vt 0.947494 0.909685
vt 0.944563 0.909038
vt 0.945933 0.908712
vt 0.944464 0.908714
vt 0.948505 0.908549
vt 0.952591 0.908130
vt 0.950755 0.908604
vt 0.953969 0.908314
vt 0.952214 0.909168
vt 0.953722 0.908039
vt 0.949960 0.909243
vn -0.822766 0.024508 -0.567852
vn -0.716559 -0.053099 -0.695502
vn -0.690335 -0.049945 -0.721764
vn -0.489172 0.082156 -0.868309
vn 0.417778 -0.037898 -0.907758
vn 0.228358 -0.675948 -0.700676
vn -0.777682 -0.084999 -0.622885
vn -0.359562 0.015723 -0.932989
vn 0.109616 -0.041281 -0.993116
vn 0.155934 0.008150 -0.987734
vn -0.182703 -0.447800 0.875269
vn -0.386266 -0.669763 0.634205
vn -0.576470 -0.677724 0.456478
vn -0.699417 -0.348068 0.624230
vn -0.437889 0.898237 -0.037738
vn -0.259800 0.863772 -0.431743
vn -0.155347 0.941215 0.299970
vn -0.355885 0.801296 0.480906
vn 0.597028 -0.148852 -0.788290
vn 0.795101 -0.516317 -0.318168
vn 0.943555 -0.126610 -0.306063
vn 0.546499 -0.096719 -0.831856
vn 0.058597 0.689836 -0.721591
vn -0.512578 0.639071 -0.573456
vn 0.214660 0.962795 0.164154
vn -0.177414 0.974174 0.139675
vn 0.494030 0.196216 -0.847015
vn 0.133677 0.278975 -0.950949
vn -0.011299 0.546042 -0.837681
vn 0.525342 0.586684 -0.616294
vn -0.861597 0.156217 0.482956
vn -0.607784 -0.117858 0.785308
vn -0.122075 0.952543 0.278855
vn -0.345839 0.900443 0.263814
vn -0.201974 -0.182400 0.962256
vn 0.639233 -0.122229 0.759238
vn 0.353343 0.487724 0.798295
vn -0.022313 0.688073 0.725298
vn -0.950475 -0.273142 -0.148297
vn -0.982793 -0.167286 0.078317
vn -0.869274 -0.169600 -0.464327
vn -0.941249 -0.017671 -0.337250
vn -0.937095 -0.210534 0.278440
vn -0.297342 -0.875424 0.381079
vn -0.279291 -0.326319 0.903057
vn -0.771947 -0.247535 0.585512
vn -0.928146 -0.060496 -0.367267
vn -0.249107 -0.967800 0.036178
vn 0.154490 0.980663 0.120140
vn 0.007142 0.998639 -0.051655
vn -0.603526 0.797102 0.019601
vn -0.105299 0.810002 0.576897
vn -0.456455 0.889214 0.030785
vn 0.168874 0.936362 0.307748
vn 0.621294 -0.392499 0.678188
vn 0.602479 -0.649388 0.464021
vn 0.098303 -0.805471 0.584425
vn 0.389466 -0.413280 0.823114
vn 0.930754 -0.246864 0.269730
vn 0.782253 -0.606397 0.142700
vn 0.449165 0.840745 0.302322
vn -0.838474 0.537267 -0.091137
vn -0.881073 0.433078 0.190140
vn 0.229479 0.864544 0.447106
vn 0.882105 0.469634 -0.036537
vn 0.986949 0.038069 -0.156467
vn 0.777132 0.338932 0.530274
vn 0.913339 -0.092005 0.396669
vn -0.461847 0.141770 -0.875556
vn -0.828768 0.145154 -0.540439
vn -0.950090 0.091259 -0.298330
vn -0.994075 -0.054532 0.094027
vn -0.691235 -0.319141 0.648339
vn -0.147836 -0.446712 0.882379
vn 0.384138 -0.406729 0.828860
vn 0.700783 -0.308698 0.643125
vn 0.975014 -0.110064 0.192962
vn 0.971224 -0.018187 -0.237472
vn 0.737139 0.019804 -0.675451
vn 0.285038 0.112961 -0.951837
vn -0.427945 0.159732 -0.889578
vn -0.816250 0.127987 -0.563343
vn -0.941882 0.074952 -0.327475
vn -0.970717 -0.102747 0.217143
vn -0.642158 -0.284059 0.711999
vn -0.100246 -0.318498 0.942608
vn 0.323238 -0.328118 0.887613
vn 0.709409 -0.278141 0.647593
vn 0.936032 -0.226413 0.269410
vn 0.937168 -0.087084 -0.337836
vn 0.731160 -0.011432 -0.682110
vn 0.296689 0.090792 -0.950649
vn 0.726256 -0.048228 -0.685731
vn 0.844804 -0.107360 -0.524194
vn 0.299885 0.937074 -0.178775
vn -0.218499 0.804199 0.552741
vn 0.682356 -0.238565 0.690997
vn 0.370943 -0.274793 0.887068
vn 0.977258 -0.211801 0.010351
vn -0.223086 0.974515 -0.023525
vn -0.337663 0.928381 -0.155217
vn -0.374466 0.883045 -0.282854
vn -0.907812 -0.013650 -0.419156
vn -0.746452 0.019868 -0.665142
vn 0.899526 -0.336809 0.278230
vn 0.693482 -0.338436 0.636037
vn -0.551549 0.076343 -0.830642
vn 0.149373 0.155575 -0.976465
vn 0.568089 0.119095 -0.814304
vn -0.846731 -0.260660 0.463792
vn -0.520429 -0.398958 0.754974
vn -0.063557 -0.564129 0.823237
vn -0.983569 -0.130903 -0.124326
vn 0.962705 -0.145313 -0.228215
vn -0.814388 0.042695 -0.578749
vn -0.367980 0.044220 -0.928782
vn -0.934618 0.005068 -0.355617
vn -0.708683 -0.204111 0.675357
vn -0.959047 -0.131411 0.250917
vn -0.228255 -0.227616 0.946621
vn 0.678742 -0.211321 0.703316
vn 0.338186 -0.231630 0.912128
vn 0.943293 -0.157299 0.292327
vn 0.731190 -0.028449 -0.681581
vn 0.889525 -0.055692 -0.453480
vn 0.392541 0.009895 -0.919681
s 1
g Lower_Premolar_Right_01 Lower_Teeth Teeth group1
usemtl Lower_Premolar_Carpals_RightSG
f 16/1/1 21/2/2 9/3/3 25/4/4
f 54/5/5 48/6/6 38/7/7 1/8/8
f 9/3/3 45/9/9 42/10/10 25/4/4
f 41/11/11 46/12/12 10/13/13 2/14/14
f 71/15/15 49/16/16 75/17/17 3/18/18
f 11/19/19 24/20/20 18/21/21 5/22/22
f 84/23/23 87/24/24 13/25/25 67/26/26
f 86/27/27 95/28/28 43/29/29 7/30/30
f 79/31/31 97/32/32 44/33/33 4/34/34
f 81/35/35 93/36/36 20/37/37 8/38/38
f 22/39/39 15/40/40 2/14/14 10/13/13
f 59/41/41 56/42/42 15/40/40 22/39/39
f 37/43/43 47/44/44 53/45/45 34/46/46
f 63/47/47 65/48/48 47/44/44 37/43/43
f 78/49/49 66/50/50 50/51/51 74/52/52
f 74/52/52 50/51/51 76/53/53 70/54/54
f 17/55/55 23/56/56 12/57/57 6/58/58
f 57/59/59 60/60/60 23/56/56 17/55/55
f 55/61/61 100/62/62 89/63/63 14/64/64
f 14/64/64 89/63/63 79/31/31 4/34/34
f 19/65/65 91/66/66 86/27/27 7/30/30
f 58/67/67 102/68/68 91/66/66 19/65/65
f 33/69/69 30/70/70 16/1/1 25/4/4
f 30/70/70 61/71/71 56/42/42 16/1/1
f 29/72/72 26/73/73 2/14/14 15/40/40
f 26/73/73 51/74/74 41/11/11 2/14/14
f 28/75/75 31/76/76 17/55/55 6/58/58
f 31/76/76 62/77/77 57/59/59 17/55/55
f 32/78/78 27/79/79 5/22/22 18/21/21
f 27/79/79 52/80/80 42/10/10 5/22/22
f 126/81/81 115/82/82 30/70/70 33/69/69
f 115/82/82 124/83/83 61/71/71 30/70/70
f 116/84/84 117/85/85 26/73/73 29/72/72
f 117/85/85 122/86/86 51/74/74 26/73/73
f 118/87/87 119/88/88 31/76/76 28/75/75
f 119/88/88 125/89/89 62/77/77 31/76/76
f 120/90/90 121/91/91 27/79/79 32/78/78
f 121/91/91 123/92/92 52/80/80 27/79/79
f 48/6/6 54/5/5 35/93/93 40/94/94
f 42/10/10 45/9/9 11/19/19 5/22/22
f 46/12/12 41/11/11 6/58/58 12/57/57
f 75/17/17 49/16/16 73/95/95 69/96/96
f 43/29/29 95/28/28 84/23/23 67/26/26
f 44/33/33 97/32/32 81/35/35 8/38/38
f 53/45/45 47/44/44 39/97/97 36/98/98
f 47/44/44 65/48/48 64/99/99 39/97/97
f 50/51/51 66/50/50 77/100/100 72/101/101
f 76/53/53 50/51/51 72/101/101 68/102/102
f 41/11/11 51/74/74 28/75/75 6/58/58
f 42/10/10 52/80/80 33/69/69 25/4/4
f 51/74/74 122/86/86 118/87/87 28/75/75
f 52/80/80 123/92/92 126/81/81 33/69/69
f 56/42/42 59/41/41 21/2/2 16/1/1
f 65/48/48 63/47/47 38/7/7 48/6/6
f 66/50/50 78/49/49 73/95/95 49/16/16
f 60/60/60 57/59/59 18/21/21 24/20/20
f 59/41/41 99/103/103 88/104/104 21/2/2
f 60/60/60 101/105/105 94/106/106 23/56/56
f 56/42/42 61/71/71 29/72/72 15/40/40
f 57/59/59 62/77/77 32/78/78 18/21/21
f 61/71/71 124/83/83 116/84/84 29/72/72
f 62/77/77 125/89/89 120/90/90 32/78/78
f 64/99/99 65/48/48 48/6/6 40/94/94
f 77/100/100 66/50/50 49/16/16 71/15/15
f 3/18/18 75/17/17 43/29/29 67/26/26
f 75/17/17 69/96/96 7/30/30 43/29/29
f 69/96/96 73/95/95 19/65/65 7/30/30
f 73/95/95 78/49/49 58/67/67 19/65/65
f 78/49/49 74/52/52 20/37/37 58/67/67
f 74/52/52 70/54/54 8/38/38 20/37/37
f 70/54/54 76/53/53 44/33/33 8/38/38
f 76/53/53 68/102/102 4/34/34 44/33/33
f 68/102/102 72/101/101 14/64/64 4/34/34
f 72/101/101 77/100/100 55/61/61 14/64/64
f 77/100/100 71/15/15 13/25/25 55/61/61
f 71/15/15 3/18/18 67/26/26 13/25/25
f 88/104/104 83/107/107 9/3/3 21/2/2
f 87/24/24 84/23/23 83/107/107 88/104/104
f 96/108/108 85/109/109 11/19/19 45/9/9
f 95/28/28 86/27/27 85/109/109 96/108/108
f 97/32/32 79/31/31 80/110/110 98/111/111
f 98/111/111 80/110/110 10/13/13 46/12/12
f 93/36/36 81/35/35 82/112/112 94/106/106
f 94/106/106 82/112/112 12/57/57 23/56/56
f 89/63/63 100/62/62 99/103/103 90/113/113
f 90/113/113 99/103/103 59/41/41 22/39/39
f 79/31/31 89/63/63 90/113/113 80/110/110
f 80/110/110 90/113/113 22/39/39 10/13/13
f 85/109/109 92/114/114 24/20/20 11/19/19
f 86/27/27 91/66/66 92/114/114 85/109/109
f 91/66/66 102/68/68 101/105/105 92/114/114
f 92/114/114 101/105/105 60/60/60 24/20/20
f 83/107/107 96/108/108 45/9/9 9/3/3
f 84/23/23 95/28/28 96/108/108 83/107/107
f 81/35/35 97/32/32 98/111/111 82/112/112
f 82/112/112 98/111/111 46/12/12 12/57/57
f 87/24/24 100/62/62 55/61/61 13/25/25
f 88/104/104 99/103/103 100/62/62 87/24/24
f 93/36/36 102/68/68 58/67/67 20/37/37
f 94/106/106 101/105/105 102/68/68 93/36/36
f 103/115/115 104/116/116 1/8/8 38/7/7
f 113/117/117 103/115/115 38/7/7 63/47/47
f 106/118/118 105/119/119 37/43/43 34/46/46
f 111/120/120 106/118/118 34/46/46 53/45/45
f 108/121/121 107/122/122 36/98/98 39/97/97
f 114/123/123 108/121/121 39/97/97 64/99/99
f 110/124/124 109/125/125 40/94/94 35/93/93
f 112/126/126 110/124/124 35/93/93 54/5/5
f 107/122/122 111/120/120 53/45/45 36/98/98
f 104/116/116 112/126/126 54/5/5 1/8/8
f 105/119/119 113/117/117 63/47/47 37/43/43
f 109/125/125 114/123/123 64/99/99 40/94/94
f 115/82/82 126/81/81 104/116/116 103/115/115
f 124/83/83 115/82/82 103/115/115 113/117/117
f 117/85/85 116/84/84 105/119/119 106/118/118
f 122/86/86 117/85/85 106/118/118 111/120/120
f 119/88/88 118/87/87 107/122/122 108/121/121
f 125/89/89 119/88/88 108/121/121 114/123/123
f 121/91/91 120/90/90 109/125/125 110/124/124
f 123/92/92 121/91/91 110/124/124 112/126/126
f 118/87/87 122/86/86 111/120/120 107/122/122
f 126/81/81 123/92/92 112/126/126 104/116/116
f 116/84/84 124/83/83 113/117/117 105/119/119
f 120/90/90 125/89/89 114/123/123 109/125/125
