# This file uses centimeters as units for non-parametric coordinates.

mtllib Lower_Canine_Right.mtl
g default
v 0.149151 0.722210 0.893018
v 0.173444 0.908033 0.902622
v 0.169361 0.805729 0.920903
v 0.178038 0.958941 0.906549
v 0.141867 0.887980 0.955428
v 0.188277 0.895512 0.915873
v 0.123571 0.945980 0.975795
v 0.183889 0.969303 0.922954
v 0.127184 0.895678 0.937732
v 0.176894 0.905758 0.898229
v 0.137354 0.888435 0.964640
v 0.189972 0.903446 0.916084
v 0.128689 0.949808 0.956572
v 0.169154 0.958735 0.922321
v 0.166432 0.906841 0.899909
v 0.131579 0.901106 0.929299
v 0.187841 0.892250 0.926242
v 0.148736 0.877028 0.952401
v 0.129962 0.950985 0.979623
v 0.174890 0.974110 0.935807
v 0.127310 0.895708 0.925554
v 0.168264 0.906851 0.896332
v 0.188101 0.892761 0.926030
v 0.144555 0.874447 0.961507
v 0.131045 0.893076 0.936294
v 0.178931 0.843830 0.887753
v 0.147817 0.831825 0.935895
v 0.187395 0.837551 0.902754
v 0.163192 0.845375 0.891625
v 0.141628 0.844261 0.911552
v 0.181606 0.836048 0.915742
v 0.161234 0.831671 0.934218
v 0.135200 0.846487 0.925941
v 0.169710 0.732042 0.875792
v 0.153498 0.721415 0.898404
v 0.167575 0.729870 0.885617
v 0.153010 0.725231 0.884705
v 0.152311 0.723141 0.886686
v 0.159531 0.721508 0.892761
v 0.159903 0.717224 0.895114
v 0.188084 0.902195 0.907854
v 0.128112 0.885599 0.950313
v 0.123847 0.946497 0.967920
v 0.182302 0.966549 0.916764
v 0.127663 0.901205 0.954068
v 0.186269 0.909557 0.906835
v 0.161700 0.725775 0.886767
v 0.153304 0.718882 0.894182
v 0.132179 0.953787 0.965319
v 0.160123 0.968945 0.940395
v 0.184839 0.838959 0.894416
v 0.140639 0.834753 0.930235
v 0.169198 0.730303 0.881005
v 0.151250 0.720375 0.895877
v 0.155909 0.948338 0.934998
v 0.147216 0.909689 0.913251
v 0.178512 0.875008 0.940594
v 0.165555 0.970982 0.973265
v 0.144300 0.902786 0.906176
v 0.177886 0.861027 0.945998
v 0.152136 0.845493 0.899653
v 0.172385 0.834009 0.928074
v 0.152189 0.725355 0.885140
v 0.160176 0.718651 0.895238
v 0.156674 0.720242 0.889939
v 0.158178 0.983858 0.951033
v 0.123790 0.946514 0.962244
v 0.141322 0.808371 0.915396
v 0.124734 0.947458 0.973372
v 0.175420 0.969677 0.928088
v 0.153568 0.816698 0.896921
v 0.145876 0.804270 0.921096
v 0.134529 0.958843 0.975855
v 0.164698 0.978371 0.945721
v 0.126566 0.950706 0.967096
v 0.179419 0.966928 0.920146
v 0.180428 0.816826 0.894874
v 0.160387 0.979145 0.968072
v 0.175524 0.958033 0.906323
v 0.177142 0.934420 0.899113
v 0.187282 0.963900 0.914109
v 0.197178 0.919939 0.916492
v 0.118731 0.913477 0.945996
v 0.118926 0.940872 0.954734
v 0.127850 0.900335 0.971051
v 0.121212 0.930849 0.974119
v 0.122741 0.943825 0.947622
v 0.119356 0.919502 0.932310
v 0.169440 0.955273 0.906901
v 0.166657 0.935038 0.896693
v 0.142093 0.930754 0.981406
v 0.153821 0.897747 0.976877
v 0.192949 0.956432 0.944249
v 0.199290 0.914648 0.938471
v 0.115429 0.936117 0.966038
v 0.121405 0.906305 0.960109
v 0.182601 0.961020 0.908836
v 0.189886 0.926500 0.908428
v 0.137070 0.947750 0.909561
v 0.148953 0.938778 0.928785
v 0.179786 0.895090 0.969392
v 0.170774 0.935940 0.977801
v 0.145795 0.782881 0.901877
v 0.140315 0.779436 0.911737
v 0.156209 0.786844 0.892341
v 0.170145 0.791542 0.889467
v 0.175871 0.787552 0.900771
v 0.168522 0.778683 0.909482
v 0.158769 0.772411 0.918395
v 0.148820 0.775248 0.921043
v 0.174594 0.789202 0.894589
v 0.144069 0.775728 0.916872
v 0.153252 0.785282 0.896665
v 0.164276 0.775545 0.916337
v 0.146884 0.813251 0.904994
v 0.161105 0.817818 0.892095
v 0.175454 0.819859 0.889042
v 0.181938 0.814959 0.902105
v 0.175619 0.809292 0.912552
v 0.162230 0.802134 0.924385
v 0.151117 0.803179 0.925895
vt 0.934620 0.926066
vt 0.933586 0.926500
vt 0.933620 0.926505
vt 0.934763 0.927405
vt 0.939470 0.897565
vt 0.940316 0.897721
vt 0.940582 0.897010
vt 0.940032 0.897259
vt 0.933834 0.924819
vt 0.933714 0.927422
vt 0.945977 0.928561
vt 0.946901 0.928181
vt 0.949412 0.928815
vt 0.949898 0.927587
vt 0.933989 0.935529
vt 0.934924 0.936193
vt 0.941888 0.941208
vt 0.941280 0.935284
vt 0.937519 0.925216
vt 0.939358 0.923389
vt 0.938239 0.922959
vt 0.936310 0.925292
vt 0.932677 0.934979
vt 0.932396 0.934531
vt 0.931374 0.934038
vt 0.932618 0.934890
vt 0.932692 0.934977
vt 0.930437 0.933245
vt 0.931986 0.932366
vt 0.947207 0.937052
vt 0.948349 0.938321
vt 0.948429 0.937399
vt 0.946534 0.936901
vt 0.948774 0.938780
vt 0.946364 0.939583
vt 0.951201 0.936634
vt 0.949683 0.937879
vt 0.944099 0.928362
vt 0.944589 0.928364
vt 0.938952 0.928837
vt 0.938170 0.927685
vt 0.944976 0.899205
vt 0.944839 0.898915
vt 0.942831 0.898160
vt 0.940504 0.898069
vt 0.941485 0.897237
vt 0.940283 0.898090
vt 0.943634 0.940293
vt 0.942409 0.938721
vt 0.942479 0.940422
vt 0.946506 0.938843
vt 0.947577 0.938385
vt 0.949950 0.926472
vt 0.950404 0.927795
vt 0.949903 0.926013
vt 0.949833 0.925928
vt 0.947167 0.920720
vt 0.947334 0.923052
vt 0.944828 0.937018
vt 0.944904 0.936440
vt 0.939417 0.933689
vt 0.937579 0.932351
vt 0.934330 0.935725
vt 0.945262 0.933216
vt 0.943864 0.939061
vt 0.937455 0.917923
vt 0.935733 0.918295
vt 0.940269 0.918129
vt 0.947446 0.917852
vt 0.943231 0.918110
vt 0.949029 0.917039
vt 0.948163 0.916553
vt 0.949713 0.916804
vt 0.945693 0.916213
vt 0.939112 0.915849
vt 0.942706 0.915824
vt 0.937190 0.916338
vt 0.938863 0.912751
vt 0.937373 0.911937
vt 0.940653 0.913326
vt 0.946515 0.913853
vt 0.942672 0.913513
vt 0.947847 0.913348
vt 0.946559 0.912091
vt 0.948252 0.913036
vt 0.944883 0.911497
vt 0.939996 0.911071
vt 0.942973 0.910897
vt 0.938593 0.911253
vt 0.942350 0.896734
vt 0.940634 0.897433
vt 0.932930 0.935137
vt 0.935553 0.937036
vt 0.933420 0.935679
vt 0.944405 0.898843
vt 0.942250 0.897448
vt 0.942423 0.896972
vt 0.931489 0.930474
vt 0.936234 0.935186
vt 0.952899 0.929664
vt 0.947675 0.926402
vt 0.941360 0.908346
vt 0.940568 0.908086
vt 0.942046 0.905939
vt 0.943521 0.906462
vt 0.937103 0.907111
vt 0.938109 0.906492
vt 0.946627 0.908465
vt 0.946285 0.908740
vt 0.939381 0.906412
vt 0.931322 0.929469
vt 0.933764 0.927277
vt 0.932038 0.928272
vt 0.950381 0.931641
vt 0.946967 0.932962
vt 0.952334 0.930547
vt 0.944159 0.933065
vt 0.940721 0.926845
vt 0.938571 0.907685
vt 0.945093 0.909130
vt 0.944658 0.906985
vn -0.968589 -0.120996 -0.217245
vn -0.916514 -0.389218 -0.092256
vn -0.761680 -0.252158 -0.596874
vn -0.779878 -0.087971 -0.619718
vn -0.979808 -0.126309 -0.154992
vn -0.837368 -0.010218 -0.546544
vn -0.326578 -0.942675 -0.068629
vn -0.767754 -0.372281 0.521498
vn -0.822146 -0.346397 0.451758
vn -0.813381 -0.576933 0.074558
vn 0.271370 0.136274 -0.952779
vn 0.437293 -0.104822 -0.893190
vn 0.684364 -0.126301 -0.718118
vn 0.759371 0.114957 -0.640423
vn -0.580515 0.595512 -0.555309
vn -0.702941 0.615335 -0.356703
vn -0.614879 0.697553 -0.367890
vn -0.636735 0.592233 -0.493790
vn -0.551126 -0.476290 0.685134
vn -0.032722 -0.642588 0.765513
vn -0.066600 -0.723214 0.687405
vn -0.522137 -0.592430 0.613514
vn -0.739622 0.671597 -0.043782
vn -0.650359 0.701681 -0.290993
vn -0.980753 0.167973 -0.099539
vn -0.552191 0.059929 0.831561
vn -0.846265 0.499776 0.184554
vn -0.988423 -0.015823 0.150896
vn -0.563502 -0.175204 0.807322
vn -0.447819 0.818059 -0.360883
vn -0.346529 0.827423 -0.441914
vn 0.646862 0.213890 -0.731998
vn 0.293928 0.435906 -0.850642
vn 0.663050 0.747820 0.033616
vn 0.718749 0.613016 0.328041
vn 0.901269 0.263477 0.343940
vn 0.931374 0.294579 -0.213931
vn -0.367732 0.045758 -0.928805
vn -0.261467 -0.068412 -0.962785
vn -0.646807 -0.022949 -0.762309
vn -0.555686 -0.165339 -0.814786
vn -0.096601 0.138532 -0.985635
vn 0.947986 -0.217726 -0.232202
vn 0.322444 -0.873762 -0.364103
vn -0.455460 0.089815 -0.885714
vn 0.217137 -0.768797 -0.601500
vn -0.722773 0.086162 -0.685694
vn 0.492378 0.868916 -0.050494
vn -0.672931 0.450083 -0.587017
vn -0.208670 0.910962 0.355815
vn -0.405114 0.725821 -0.555937
vn -0.517065 0.724674 -0.455513
vn 0.998126 -0.057592 0.020691
vn 0.909484 -0.308209 -0.279010
vn 0.929395 -0.346787 0.126348
vn 0.947048 -0.203116 0.248684
vn 0.605251 -0.692379 0.392788
vn 0.670342 -0.432087 0.603277
vn -0.707959 0.606512 -0.361852
vn -0.325586 0.832743 -0.447808
vn -0.463668 0.843846 -0.270067
vn -0.002296 -0.038710 0.999248
vn -0.048285 0.159700 0.985984
vn 0.575899 0.110588 0.810006
vn 0.504993 0.437920 0.743780
vn -0.820700 0.028360 -0.570655
vn -0.978188 -0.107925 -0.177484
vn -0.659241 0.091321 -0.746366
vn 0.276639 0.138852 -0.950889
vn -0.373118 0.118948 -0.920127
vn 0.827318 0.034780 -0.560657
vn 0.901748 -0.189811 0.388358
vn 0.991421 -0.108195 0.073344
vn 0.649888 -0.263443 0.712912
vn -0.238792 -0.362953 0.900690
vn 0.297979 -0.300609 0.906004
vn -0.717276 -0.331720 0.612762
vn -0.825769 0.018299 -0.563712
vn -0.990965 -0.069575 -0.114663
vn -0.685503 0.036990 -0.727130
vn 0.113328 -0.052928 -0.992147
vn -0.376146 0.024952 -0.926224
vn 0.845614 -0.177625 -0.503375
vn 0.849295 -0.233130 0.473654
vn 0.956347 -0.235232 0.173399
vn 0.702172 -0.245458 0.668360
vn -0.190098 -0.269089 0.944168
vn 0.302467 -0.254096 0.918667
vn -0.765149 -0.181582 0.617718
vn 0.217516 -0.437746 0.872391
vn -0.120762 -0.408643 0.904670
vn -0.743284 0.662745 0.091093
vn -0.495111 0.714779 0.493920
vn -0.689488 0.719512 -0.083116
vn 0.891459 -0.260265 0.370894
vn 0.899576 -0.256881 0.353235
vn 0.742957 -0.328546 0.583158
vn -0.864365 0.128924 -0.486057
vn -0.612144 0.405161 -0.679062
vn 0.955682 -0.038963 0.291812
vn 0.665702 -0.273821 0.694164
vn -0.456032 0.131867 -0.880140
vn -0.717258 0.087784 -0.691257
vn 0.274278 -0.313923 0.908969
vn 0.780388 -0.240653 0.577131
vn -0.993436 -0.037450 -0.108086
vn -0.767967 -0.225807 0.599365
vn 0.928070 -0.222211 0.298846
vn 0.952831 -0.090458 -0.289706
vn -0.174414 -0.287633 0.941725
vn -0.981726 -0.172452 -0.080461
vn -0.498418 -0.352849 0.791882
vn -0.927758 -0.341646 0.150146
vn 0.690280 0.061906 -0.720889
vn 0.409726 0.140541 -0.901317
vn 0.971806 0.053402 -0.229657
vn -0.291997 0.235962 -0.926855
vn 0.065028 -0.333782 0.940405
vn -0.827442 0.064151 -0.557875
vn 0.009610 0.084546 -0.996373
vn 0.856209 -0.243244 0.455784
s 1
g Lower_Canine_Right Lower_Teeth Teeth group1
usemtl Lower_Canine1_Carpals_RightSG
f 25/1/1 9/2/2 21/3/3 16/4/4
f 1/5/5 38/6/6 48/7/7 54/8/8
f 25/1/1 42/9/9 45/10/10 9/2/2
f 2/11/11 10/12/12 46/13/13 41/14/14
f 13/15/15 49/16/16 66/17/17 55/18/18
f 5/19/19 18/20/20 24/21/21 11/22/22
f 67/23/23 13/15/15 87/24/24 84/25/25
f 7/26/26 43/27/27 95/28/28 86/29/29
f 4/30/30 44/31/31 97/32/32 79/33/33
f 8/34/34 20/35/35 93/36/36 81/37/37
f 10/12/12 2/11/11 15/38/38 22/39/39
f 22/39/39 15/38/38 56/40/40 59/41/41
f 34/42/42 53/43/43 47/44/44 37/45/45
f 37/45/45 47/44/44 65/46/46 63/47/47
f 74/48/48 50/49/49 66/17/17 78/50/50
f 70/51/51 76/52/52 50/49/49 74/48/48
f 6/53/53 12/54/54 23/55/55 17/56/56
f 17/56/56 23/55/55 60/57/57 57/58/58
f 14/59/59 89/60/60 100/61/61 55/18/18
f 4/30/30 79/33/33 89/60/60 14/59/59
f 7/26/26 86/29/29 91/62/62 19/63/63
f 19/63/63 91/62/62 102/64/64 58/65/65
f 25/1/1 16/4/4 30/66/66 33/67/67
f 16/4/4 56/40/40 61/68/68 30/66/66
f 15/38/38 2/11/11 26/69/69 29/70/70
f 2/11/11 41/14/14 51/71/71 26/69/69
f 6/53/53 17/56/56 31/72/72 28/73/73
f 17/56/56 57/58/58 62/74/74 31/72/72
f 18/20/20 5/19/19 27/75/75 32/76/76
f 5/19/19 42/9/9 52/77/77 27/75/75
f 33/67/67 30/66/66 115/78/78 68/79/79
f 30/66/66 61/68/68 71/80/80 115/78/78
f 29/70/70 26/69/69 117/81/81 116/82/82
f 26/69/69 51/71/71 77/83/83 117/81/81
f 28/73/73 31/72/72 119/84/84 118/85/85
f 31/72/72 62/74/74 3/86/86 119/84/84
f 32/76/76 27/75/75 121/87/87 120/88/88
f 27/75/75 52/77/77 72/89/89 121/87/87
f 40/90/90 35/91/91 54/8/8 48/7/7
f 5/19/19 11/22/22 45/10/10 42/9/9
f 12/54/54 6/53/53 41/14/14 46/13/13
f 69/92/92 73/93/93 49/16/16 75/94/94
f 67/23/23 84/25/25 95/28/28 43/27/27
f 8/34/34 81/37/37 97/32/32 44/31/31
f 36/95/95 39/96/96 47/44/44 53/43/43
f 39/96/96 64/97/97 65/46/46 47/44/44
f 14/59/59 55/18/18 66/17/17 50/49/49
f 4/30/30 14/59/59 76/52/52 44/31/31
f 6/53/53 28/73/73 51/71/71 41/14/14
f 25/1/1 33/67/67 52/77/77 42/9/9
f 28/73/73 118/85/85 77/83/83 51/71/71
f 33/67/67 68/79/79 72/89/89 52/77/77
f 16/4/4 21/3/3 59/41/41 56/40/40
f 48/7/7 38/6/6 63/47/47 65/46/46
f 49/16/16 73/93/93 78/50/50 66/17/17
f 24/21/21 18/20/20 57/58/58 60/57/57
f 21/3/3 88/98/98 99/99/99 59/41/41
f 23/55/55 94/100/100 101/101/101 60/57/57
f 15/38/38 29/70/70 61/68/68 56/40/40
f 18/20/20 32/76/76 62/74/74 57/58/58
f 29/70/70 116/82/82 71/80/80 61/68/68
f 32/76/76 120/88/88 3/86/86 62/74/74
f 40/90/90 48/7/7 65/46/46 64/97/97
f 67/23/23 43/27/27 75/94/94 13/15/15
f 105/102/102 113/103/103 71/80/80 116/82/82
f 43/27/27 7/26/26 69/92/92 75/94/94
f 7/26/26 19/63/63 73/93/93 69/92/92
f 19/63/63 58/65/65 78/50/50 73/93/93
f 58/65/65 20/35/35 74/48/48 78/50/50
f 20/35/35 8/34/34 70/51/51 74/48/48
f 8/34/34 44/31/31 76/52/52 70/51/51
f 109/104/104 114/105/105 3/86/86 120/88/88
f 104/106/106 112/107/107 72/89/89 68/79/79
f 107/108/108 111/109/109 77/83/83 118/85/85
f 112/107/107 110/110/110 121/87/87 72/89/89
f 110/110/110 109/104/104 120/88/88 121/87/87
f 21/3/3 9/2/2 83/111/111 88/98/98
f 88/98/98 83/111/111 84/25/25 87/24/24
f 45/10/10 11/22/22 85/112/112 96/113/113
f 96/113/113 85/112/112 86/29/29 95/28/28
f 98/114/114 80/115/115 79/33/33 97/32/32
f 46/13/13 10/12/12 80/115/115 98/114/114
f 94/100/100 82/116/116 81/37/37 93/36/36
f 23/55/55 12/54/54 82/116/116 94/100/100
f 90/117/117 99/99/99 100/61/61 89/60/60
f 22/39/39 59/41/41 99/99/99 90/117/117
f 80/115/115 90/117/117 89/60/60 79/33/33
f 10/12/12 22/39/39 90/117/117 80/115/115
f 11/22/22 24/21/21 92/118/118 85/112/112
f 85/112/112 92/118/118 91/62/62 86/29/29
f 92/118/118 101/101/101 102/64/64 91/62/62
f 24/21/21 60/57/57 101/101/101 92/118/118
f 9/2/2 45/10/10 96/113/113 83/111/111
f 83/111/111 96/113/113 95/28/28 84/25/25
f 82/116/116 98/114/114 97/32/32 81/37/37
f 12/54/54 46/13/13 98/114/114 82/116/116
f 13/15/15 55/18/18 100/61/61 87/24/24
f 87/24/24 100/61/61 99/99/99 88/98/98
f 20/35/35 58/65/65 102/64/64 93/36/36
f 93/36/36 102/64/64 101/101/101 94/100/100
f 38/6/6 1/5/5 104/106/106 103/119/119
f 63/47/47 38/6/6 103/119/119 113/103/103
f 34/42/42 37/45/45 105/102/102 106/120/120
f 53/43/43 34/42/42 106/120/120 111/109/109
f 39/96/96 36/95/95 107/108/108 108/121/121
f 64/97/97 39/96/96 108/121/121 114/105/105
f 35/91/91 40/90/90 109/104/104 110/110/110
f 54/8/8 35/91/91 110/110/110 112/107/107
f 36/95/95 53/43/43 111/109/109 107/108/108
f 1/5/5 54/8/8 112/107/107 104/106/106
f 37/45/45 63/47/47 113/103/103 105/102/102
f 40/90/90 64/97/97 114/105/105 109/104/104
f 103/119/119 104/106/106 68/79/79 115/78/78
f 113/103/103 103/119/119 115/78/78 71/80/80
f 106/120/120 105/102/102 116/82/82 117/81/81
f 111/109/109 106/120/120 117/81/81 77/83/83
f 108/121/121 107/108/108 118/85/85 119/84/84
f 114/105/105 108/121/121 119/84/84 3/86/86
f 50/49/49 76/52/52 14/59/59
f 49/16/16 13/15/15 75/94/94
