# This file uses centimeters as units for non-parametric coordinates.

mtllib Lower_Incisor_Left_01.mtl
g default
v -0.043626 0.734194 0.954184
v -0.015019 0.883175 1.005299
v -0.064397 0.958141 1.020356
v -0.005070 0.952400 1.029488
v -0.050350 0.879789 1.016179
v -0.013366 0.871813 1.019655
v -0.067430 0.955183 1.034406
v -0.002354 0.952730 1.046940
v -0.052326 0.886208 0.998766
v -0.011566 0.880156 1.002979
v -0.055795 0.885662 1.022346
v -0.011475 0.878353 1.022033
v -0.062395 0.950457 1.017666
v -0.010346 0.954296 1.026070
v -0.011336 0.886593 0.994756
v -0.051319 0.889143 0.990519
v -0.017619 0.871231 1.025756
v -0.049102 0.871588 1.018199
v -0.065948 0.958691 1.042155
v -0.007838 0.955839 1.053675
v -0.052787 0.886562 0.986144
v -0.009296 0.885479 0.991691
v -0.016950 0.872055 1.027708
v -0.052292 0.877737 1.028175
v -0.049806 0.882677 1.000297
v -0.012834 0.826464 0.987691
v -0.052214 0.829966 0.998538
v -0.017389 0.821436 1.003388
v -0.020018 0.833241 0.975643
v -0.042471 0.839434 0.973711
v -0.026526 0.823481 1.009309
v -0.044645 0.827162 1.007044
v -0.052611 0.841194 0.985367
v -0.028781 0.733643 0.957190
v -0.044379 0.732447 0.960765
v -0.030977 0.732323 0.963626
v -0.035118 0.733793 0.952283
v -0.037371 0.732924 0.952605
v -0.036989 0.727619 0.963794
v -0.039642 0.725950 0.963409
v -0.013395 0.880451 1.013957
v -0.051295 0.882084 1.008566
v -0.065621 0.959244 1.027063
v -0.002814 0.952368 1.038254
v -0.055846 0.895216 1.010988
v -0.008580 0.885418 1.013706
v -0.031323 0.730982 0.960154
v -0.042559 0.730795 0.958035
v -0.063351 0.960358 1.028415
v -0.012035 0.960796 1.036829
v -0.013603 0.822756 0.995885
v -0.052470 0.832594 0.990537
v -0.029296 0.732891 0.961050
v -0.044431 0.732727 0.957699
v -0.039991 0.951147 1.020495
v -0.029160 0.878969 0.984317
v -0.035291 0.864927 1.028031
v -0.040502 0.960863 1.050182
v -0.027830 0.884344 0.978705
v -0.034395 0.863758 1.037380
v -0.030017 0.837658 0.970182
v -0.036762 0.826992 1.011025
v -0.035840 0.734467 0.952007
v -0.039087 0.726797 0.964180
v -0.037379 0.729456 0.958200
v -0.041933 0.960167 1.028159
v -0.064283 0.955780 1.023580
v -0.008408 0.958048 1.028168
v -0.063826 0.959192 1.032815
v -0.005800 0.960163 1.042351
v -0.061888 0.962418 1.020121
v -0.011649 0.963934 1.027006
v -0.064517 0.963211 1.042455
v -0.008222 0.964907 1.050719
v -0.067081 0.958212 1.025104
v -0.008319 0.958214 1.035408
v -0.039324 0.958744 1.018529
v -0.040533 0.966700 1.047220
v -0.001849 0.934448 1.015814
v -0.006444 0.901989 1.003200
v -0.001619 0.925371 1.041942
v -0.002766 0.887566 1.028640
v -0.057577 0.905523 0.998367
v -0.066753 0.936171 1.010892
v -0.062404 0.899010 1.023540
v -0.067255 0.932594 1.033265
v -0.059832 0.942923 1.010485
v -0.052943 0.909359 0.985370
v -0.006791 0.933855 1.016454
v 0.002190 0.907660 0.991872
v -0.065422 0.929867 1.046279
v -0.059042 0.896000 1.033691
v -0.008570 0.923599 1.051998
v -0.011011 0.892467 1.040404
v -0.069820 0.937529 1.020675
v -0.061695 0.902449 1.010675
v -0.003559 0.929836 1.028717
v -0.002778 0.898447 1.015838
v -0.029481 0.914751 0.973722
v -0.028503 0.899153 1.007570
v -0.037116 0.883936 1.051642
v -0.038706 0.919239 1.055282
v -0.039431 0.789396 0.964200
v -0.048614 0.787392 0.970920
v -0.027474 0.788603 0.966689
v -0.018546 0.787384 0.978836
v -0.023023 0.783777 0.990588
v -0.031677 0.779825 0.990931
v -0.042265 0.778563 0.988153
v -0.048852 0.782887 0.983054
v -0.019937 0.785429 0.985465
v -0.049360 0.784435 0.976931
v -0.032839 0.789265 0.964915
v -0.037911 0.780203 0.991307
v -0.038273 0.813177 0.970751
v -0.022963 0.811928 0.973064
v -0.014784 0.808523 0.984527
v -0.019242 0.804182 0.997733
v -0.027261 0.802858 1.000688
v -0.040012 0.801777 0.998012
v -0.046556 0.804691 0.991135
v -0.015908 0.805901 0.991813
v -0.046718 0.806654 0.984390
v -0.029437 0.813307 0.969756
v -0.034678 0.803606 1.001085
v -0.046195 0.810078 0.977479
vt 0.886179 0.924331
vt 0.885504 0.924920
vt 0.885381 0.924979
vt 0.885774 0.925410
vt 0.887834 0.899565
vt 0.889510 0.899353
vt 0.888120 0.898997
vt 0.887619 0.899319
vt 0.885780 0.924233
vt 0.884561 0.926423
vt 0.895497 0.924414
vt 0.896422 0.923911
vt 0.897222 0.924789
vt 0.895932 0.923960
vt 0.882271 0.936919
vt 0.881552 0.936931
vt 0.882551 0.937289
vt 0.882943 0.937632
vt 0.886033 0.923849
vt 0.886368 0.922482
vt 0.885513 0.923507
vt 0.884575 0.924829
vt 0.882302 0.936525
vt 0.882807 0.935637
vt 0.883494 0.934380
vt 0.881640 0.933254
vt 0.881459 0.936425
vt 0.881943 0.937103
vt 0.880819 0.933481
vt 0.881506 0.932657
vt 0.898162 0.935961
vt 0.898766 0.935956
vt 0.898567 0.932197
vt 0.899025 0.932967
vt 0.898889 0.936016
vt 0.897420 0.936535
vt 0.897224 0.931157
vt 0.899086 0.931453
vt 0.896483 0.924985
vt 0.897030 0.924799
vt 0.891709 0.923713
vt 0.892066 0.924609
vt 0.891811 0.899472
vt 0.891673 0.899347
vt 0.891130 0.899029
vt 0.890113 0.899497
vt 0.889508 0.898774
vt 0.889920 0.899610
vt 0.897318 0.938047
vt 0.896296 0.937361
vt 0.888288 0.937257
vt 0.888663 0.938346
vt 0.897966 0.937256
vt 0.897292 0.936931
vt 0.895940 0.922519
vt 0.896446 0.923610
vt 0.894980 0.922559
vt 0.894800 0.922422
vt 0.890307 0.921176
vt 0.890067 0.921370
vt 0.896749 0.936277
vt 0.897701 0.932868
vt 0.891885 0.927080
vt 0.888808 0.935752
vt 0.881997 0.932203
vt 0.881855 0.937011
vt 0.889152 0.930430
vt 0.888671 0.937373
vt 0.888144 0.917118
vt 0.885428 0.917412
vt 0.891480 0.916822
vt 0.896082 0.914955
vt 0.894158 0.916085
vt 0.895876 0.914337
vt 0.892415 0.914458
vt 0.894862 0.914117
vt 0.889673 0.915043
vt 0.885534 0.915539
vt 0.887562 0.915071
vt 0.885466 0.915978
vt 0.889268 0.912739
vt 0.887146 0.912222
vt 0.891635 0.912760
vt 0.895560 0.911962
vt 0.893369 0.912530
vt 0.895259 0.911525
vt 0.892218 0.911017
vt 0.894366 0.911238
vt 0.890231 0.911142
vt 0.887050 0.911323
vt 0.888803 0.910837
vt 0.887006 0.911651
vt 0.888902 0.898189
vt 0.887633 0.899273
vt 0.882424 0.937094
vt 0.882239 0.937765
vt 0.891223 0.899252
vt 0.889612 0.898467
vt 0.889050 0.898330
vt 0.896400 0.937885
vt 0.888987 0.937019
vt 0.897268 0.936903
vt 0.885339 0.928782
vt 0.891623 0.929681
vt 0.896571 0.925965
vt 0.889578 0.924542
vt 0.884098 0.928142
vt 0.882805 0.927056
vt 0.882995 0.927629
vt 0.898776 0.926962
vt 0.897794 0.927553
vt 0.898779 0.925147
vt 0.900106 0.928499
vt 0.883705 0.926554
vt 0.886499 0.908438
vt 0.888958 0.908772
vt 0.890724 0.908750
vt 0.892161 0.908640
vt 0.894552 0.908436
vt 0.894180 0.908111
vt 0.893353 0.907835
vt 0.891035 0.907175
vt 0.889365 0.907239
vt 0.888199 0.906965
vt 0.886435 0.907686
vt 0.886299 0.907944
vn -0.973401 0.016699 -0.228498
vn -0.939265 -0.296098 -0.173516
vn -0.585116 -0.248140 -0.772053
vn -0.635279 0.052277 -0.770511
vn -0.709162 0.101758 -0.697663
vn -0.361618 0.126847 -0.923657
vn -0.424683 -0.800220 -0.423429
vn -0.986898 -0.116788 -0.111321
vn -0.997234 -0.072361 -0.016985
vn -0.880395 -0.422516 -0.215371
vn 0.992527 -0.040726 -0.115029
vn 0.865666 -0.500544 -0.008904
vn 0.882666 -0.399409 -0.247737
vn 0.995169 -0.097839 0.008128
vn -0.868894 0.330449 -0.368546
vn -0.894947 0.441260 -0.066027
vn -0.080105 0.981896 -0.171651
vn 0.001234 0.774087 -0.633079
vn -0.984187 -0.165157 0.064030
vn -0.772397 -0.334019 0.540217
vn -0.740743 -0.523703 0.420755
vn -0.905124 -0.418374 -0.075587
vn -0.854462 0.276114 -0.440063
vn 0.096932 0.340741 -0.935147
vn 0.165011 0.536670 -0.827501
vn -0.884972 0.039671 -0.463951
vn -0.992346 0.067525 0.103395
vn -0.988122 0.152589 -0.018215
vn -0.991620 -0.046933 -0.120362
vn -0.987415 -0.125437 0.096318
vn 0.925957 0.276684 -0.257002
vn 0.987705 0.123445 -0.095916
vn 0.997552 0.015908 -0.068093
vn 0.994983 0.046456 -0.088604
vn 0.946687 0.037771 0.319932
vn 0.154277 0.094172 0.983530
vn 0.306322 -0.097551 0.946916
vn 0.958878 -0.083649 0.271213
vn 0.851617 -0.020173 -0.523776
vn 0.690532 -0.327551 -0.644884
vn 0.151782 0.182508 -0.971418
vn 0.134524 -0.274921 -0.952009
vn 0.870650 -0.016836 -0.491615
vn 0.920288 -0.318067 0.227823
vn 0.459446 -0.862238 -0.213204
vn 0.679539 0.052687 -0.731745
vn 0.170253 -0.865151 -0.471728
vn 0.146764 0.165232 -0.975274
vn 0.162211 0.952276 0.258571
vn 0.083102 0.972085 -0.219421
vn 0.000073 0.987574 -0.157157
vn -0.018899 0.996512 0.081281
vn 0.789506 0.603758 -0.110258
vn 0.749949 0.644957 -0.146992
vn 0.872602 -0.227487 0.432222
vn 0.800989 -0.581134 0.143873
vn 0.557686 -0.588852 0.585012
vn 0.442176 -0.473547 0.761731
vn -0.026487 -0.709033 0.704678
vn -0.240984 -0.542820 0.804533
vn 0.108850 0.263260 -0.958565
vn 0.041744 0.506714 -0.861103
vn 0.094454 0.842032 -0.531094
vn 0.149918 0.268150 -0.951641
vn -0.593793 -0.059187 0.802438
vn -0.483574 0.139202 0.864164
vn -0.155973 -0.108670 0.981765
vn -0.142708 0.127210 0.981556
vn -0.474951 0.183042 -0.860766
vn -0.949137 0.038724 -0.312474
vn 0.154260 0.236507 -0.959306
vn 0.982838 -0.006832 -0.184343
vn 0.785366 0.102434 -0.610497
vn 0.991546 -0.067881 0.110579
vn 0.333460 -0.367940 0.868001
vn 0.803469 -0.245763 0.542253
vn -0.190239 -0.367312 0.910435
vn -0.940652 -0.161395 0.298538
vn -0.670453 -0.287712 0.683897
vn -0.996749 -0.068271 -0.042794
vn -0.471892 0.112925 -0.874395
vn -0.845741 0.054148 -0.530838
vn 0.155577 0.104452 -0.982286
vn 0.927508 -0.066623 -0.367819
vn 0.710052 0.024706 -0.703716
vn 0.942839 -0.221906 0.248622
vn 0.197958 -0.386028 0.900997
vn 0.617265 -0.343918 0.707604
vn -0.173950 -0.386048 0.905930
vn -0.889066 -0.217002 0.403078
vn -0.620305 -0.306207 0.722121
vn -0.997190 -0.053099 -0.052846
vn -0.686303 -0.403924 0.604842
vn -0.857371 -0.279431 0.432242
vn -0.866974 0.496033 -0.048035
vn -0.200529 0.976028 0.084599
vn 0.513044 -0.465046 0.721470
vn 0.223612 -0.533170 0.815921
vn -0.201978 -0.504922 0.839201
vn 0.126511 0.836436 -0.533264
vn 0.086991 0.663095 -0.743463
vn 0.803126 0.498323 -0.326593
vn -0.110967 0.577842 -0.808570
vn 0.150262 0.548958 -0.822233
vn 0.509863 -0.323591 0.797075
vn -0.114416 -0.399240 0.909680
vn -0.925850 -0.073489 -0.370676
vn -0.963462 -0.265274 0.037024
vn -0.956464 -0.238143 -0.168716
vn 0.990146 -0.079101 -0.115563
vn 0.980969 -0.184384 0.060857
vn 0.936884 -0.290837 0.194069
vn 0.327574 0.643310 -0.691988
vn -0.730609 -0.311567 0.607566
vn -0.783569 0.158274 -0.600807
vn -0.368869 0.225941 -0.901602
vn 0.158820 0.205224 -0.965743
vn 0.681631 0.098699 -0.725009
vn 0.918241 -0.047047 -0.393217
vn 0.923408 -0.279064 0.263516
vn 0.563984 -0.417375 0.712545
vn 0.214263 -0.449802 0.867047
vn -0.142673 -0.408005 0.901763
vn -0.651022 -0.317317 0.689551
vn -0.879997 -0.189050 0.435735
vn -0.998993 -0.009053 -0.043953
s 1
g Lower_Incisor_Left_01 Lower_Teeth Teeth group1
usemtl Lower_Incisor2_Carpals_RightSG
f 25/1/1 9/2/2 21/3/3 16/4/4
f 1/5/5 38/6/6 48/7/7 54/8/8
f 25/1/1 42/9/9 45/10/10 9/2/2
f 2/11/11 10/12/12 46/13/13 41/14/14
f 3/15/15 75/16/16 49/17/17 71/18/18
f 5/19/19 18/20/20 24/21/21 11/22/22
f 67/23/23 13/24/24 87/25/25 84/26/26
f 7/27/27 43/28/28 95/29/29 86/30/30
f 4/31/31 44/32/32 97/33/33 79/34/34
f 8/35/35 20/36/36 93/37/37 81/38/38
f 10/12/12 2/11/11 15/39/39 22/40/40
f 22/40/40 15/39/39 56/41/41 59/42/42
f 34/43/43 53/44/44 47/45/45 37/46/46
f 37/46/46 47/45/45 65/47/47 63/48/48
f 74/49/49 50/50/50 66/51/51 78/52/52
f 70/53/53 76/54/54 50/50/50 74/49/49
f 6/55/55 12/56/56 23/57/57 17/58/58
f 17/58/58 23/57/57 60/59/59 57/60/60
f 14/61/61 89/62/62 100/63/63 55/64/64
f 4/31/31 79/34/34 89/62/62 14/61/61
f 7/27/27 86/30/30 91/65/65 19/66/66
f 19/66/66 91/65/65 102/67/67 58/68/68
f 25/1/1 16/4/4 30/69/69 33/70/70
f 16/4/4 56/41/41 61/71/71 30/69/69
f 15/39/39 2/11/11 26/72/72 29/73/73
f 2/11/11 41/14/14 51/74/74 26/72/72
f 6/55/55 17/58/58 31/75/75 28/76/76
f 17/58/58 57/60/60 62/77/77 31/75/75
f 18/20/20 5/19/19 27/78/78 32/79/79
f 5/19/19 42/9/9 52/80/80 27/78/78
f 33/70/70 30/69/69 115/81/81 126/82/82
f 30/69/69 61/71/71 124/83/83 115/81/81
f 29/73/73 26/72/72 117/84/84 116/85/85
f 26/72/72 51/74/74 122/86/86 117/84/84
f 28/76/76 31/75/75 119/87/87 118/88/88
f 31/75/75 62/77/77 125/89/89 119/87/87
f 32/79/79 27/78/78 121/90/90 120/91/91
f 27/78/78 52/80/80 123/92/92 121/90/90
f 40/93/93 35/94/94 54/8/8 48/7/7
f 5/19/19 11/22/22 45/10/10 42/9/9
f 12/56/56 6/55/55 41/14/14 46/13/13
f 69/95/95 73/96/96 49/17/17 75/16/16
f 67/23/23 84/26/26 95/29/29 43/28/28
f 8/35/35 81/38/38 97/33/33 44/32/32
f 36/97/97 39/98/98 47/45/45 53/44/44
f 39/98/98 64/99/99 65/47/47 47/45/45
f 72/100/100 77/101/101 66/51/51 50/50/50
f 68/102/102 72/100/100 50/50/50 76/54/54
f 6/55/55 28/76/76 51/74/74 41/14/14
f 25/1/1 33/70/70 52/80/80 42/9/9
f 28/76/76 118/88/88 122/86/86 51/74/74
f 33/70/70 126/82/82 123/92/92 52/80/80
f 16/4/4 21/3/3 59/42/42 56/41/41
f 48/7/7 38/6/6 63/48/48 65/47/47
f 49/17/17 73/96/96 78/52/52 66/51/51
f 24/21/21 18/20/20 57/60/60 60/59/59
f 21/3/3 88/103/103 99/104/104 59/42/42
f 23/57/57 94/105/105 101/106/106 60/59/59
f 15/39/39 29/73/73 61/71/71 56/41/41
f 18/20/20 32/79/79 62/77/77 57/60/60
f 29/73/73 116/85/85 124/83/83 61/71/71
f 32/79/79 120/91/91 125/89/89 62/77/77
f 40/93/93 48/7/7 65/47/47 64/99/99
f 71/18/18 49/17/17 66/51/51 77/101/101
f 67/23/23 43/28/28 75/16/16 3/15/15
f 43/28/28 7/27/27 69/95/95 75/16/16
f 7/27/27 19/66/66 73/96/96 69/95/95
f 19/66/66 58/68/68 78/52/52 73/96/96
f 58/68/68 20/36/36 74/49/49 78/52/52
f 20/36/36 8/35/35 70/53/53 74/49/49
f 8/35/35 44/32/32 76/54/54 70/53/53
f 44/32/32 4/31/31 68/102/102 76/54/54
f 4/31/31 14/61/61 72/100/100 68/102/102
f 14/61/61 55/64/64 77/101/101 72/100/100
f 55/64/64 13/24/24 71/18/18 77/101/101
f 13/24/24 67/23/23 3/15/15 71/18/18
f 21/3/3 9/2/2 83/107/107 88/103/103
f 88/103/103 83/107/107 84/26/26 87/25/25
f 45/10/10 11/22/22 85/108/108 96/109/109
f 96/109/109 85/108/108 86/30/30 95/29/29
f 98/110/110 80/111/111 79/34/34 97/33/33
f 46/13/13 10/12/12 80/111/111 98/110/110
f 94/105/105 82/112/112 81/38/38 93/37/37
f 23/57/57 12/56/56 82/112/112 94/105/105
f 90/113/113 99/104/104 100/63/63 89/62/62
f 22/40/40 59/42/42 99/104/104 90/113/113
f 80/111/111 90/113/113 89/62/62 79/34/34
f 10/12/12 22/40/40 90/113/113 80/111/111
f 11/22/22 24/21/21 92/114/114 85/108/108
f 85/108/108 92/114/114 91/65/65 86/30/30
f 92/114/114 101/106/106 102/67/67 91/65/65
f 24/21/21 60/59/59 101/106/106 92/114/114
f 9/2/2 45/10/10 96/109/109 83/107/107
f 83/107/107 96/109/109 95/29/29 84/26/26
f 82/112/112 98/110/110 97/33/33 81/38/38
f 12/56/56 46/13/13 98/110/110 82/112/112
f 13/24/24 55/64/64 100/63/63 87/25/25
f 87/25/25 100/63/63 99/104/104 88/103/103
f 20/36/36 58/68/68 102/67/67 93/37/37
f 93/37/37 102/67/67 101/106/106 94/105/105
f 38/6/6 1/5/5 104/115/115 103/116/116
f 63/48/48 38/6/6 103/116/116 113/117/117
f 34/43/43 37/46/46 105/118/118 106/119/119
f 53/44/44 34/43/43 106/119/119 111/120/120
f 39/98/98 36/97/97 107/121/121 108/122/122
f 64/99/99 39/98/98 108/122/122 114/123/123
f 35/94/94 40/93/93 109/124/124 110/125/125
f 54/8/8 35/94/94 110/125/125 112/126/126
f 36/97/97 53/44/44 111/120/120 107/121/121
f 1/5/5 54/8/8 112/126/126 104/115/115
f 37/46/46 63/48/48 113/117/117 105/118/118
f 40/93/93 64/99/99 114/123/123 109/124/124
f 103/116/116 104/115/115 126/82/82 115/81/81
f 113/117/117 103/116/116 115/81/81 124/83/83
f 106/119/119 105/118/118 116/85/85 117/84/84
f 111/120/120 106/119/119 117/84/84 122/86/86
f 108/122/122 107/121/121 118/88/88 119/87/87
f 114/123/123 108/122/122 119/87/87 125/89/89
f 110/125/125 109/124/124 120/91/91 121/90/90
f 112/126/126 110/125/125 121/90/90 123/92/92
f 107/121/121 111/120/120 122/86/86 118/88/88
f 104/115/115 112/126/126 123/92/92 126/82/82
f 105/118/118 113/117/117 124/83/83 116/85/85
f 109/124/124 114/123/123 125/89/89 120/91/91
