# This file uses centimeters as units for non-parametric coordinates.

mtllib Masseter_Deep_Muscle_Left.mtl
g default
v 0.631666 1.218943 0.109908
v 0.503369 1.218176 0.297086
v 0.768239 1.518793 0.202103
v 0.755610 1.422981 0.465555
v 0.631269 1.281351 0.118762
v 0.541929 1.294334 0.297712
v 0.758658 1.507738 0.189818
v 0.749688 1.460785 0.464511
v 0.766346 1.484991 0.329914
v 0.567210 1.106209 0.203907
v 0.570135 1.276392 0.197174
v 0.756690 1.484617 0.323259
v 0.699465 1.305357 0.153843
v 0.601263 1.269451 0.368748
v 0.712454 1.354765 0.158588
v 0.578665 1.349876 0.355001
v 0.677883 1.218212 0.278924
v 0.659987 1.360167 0.250572
v 0.771554 1.510412 0.261368
v 0.538110 1.146872 0.262197
v 0.546919 1.301567 0.244409
v 0.763395 1.528898 0.255912
v 0.752672 1.459827 0.396444
v 0.602480 1.132883 0.131115
v 0.604895 1.268137 0.159969
v 0.744510 1.458500 0.400983
v 0.713024 1.240631 0.210011
v 0.694634 1.350513 0.216778
v 0.649938 1.228973 0.328093
v 0.635562 1.352413 0.301259
v 0.634927 1.335480 0.409495
v 0.617011 1.362732 0.388074
v 0.741152 1.323254 0.307531
v 0.749098 1.396790 0.198165
v 0.735701 1.427759 0.181515
v 0.698883 1.401369 0.279794
v 0.723319 1.324156 0.386178
v 0.757353 1.345913 0.245004
v 0.737726 1.427475 0.230288
v 0.665599 1.384439 0.338504
v 0.674196 1.248884 0.107297
v 0.670668 1.319090 0.140744
v 0.624202 1.327093 0.227472
v 0.547306 1.235939 0.342966
v 0.550859 1.319798 0.318916
v 0.608122 1.130684 0.230021
v 0.633702 1.162506 0.148432
v 0.648281 1.317358 0.182589
v 0.592018 1.333086 0.273714
v 0.577217 1.168913 0.297194
vt 0.000797 0.898407
vt 0.100398 0.898407
vt 0.100398 0.998008
vt 0.000797 0.998008
vt 0.100398 0.798805
vt 0.100398 0.699203
vt 0.200000 0.699203
vt 0.200000 0.798805
vt 0.100398 0.001992
vt 0.100398 0.101593
vt 0.000797 0.101593
vt 0.000797 0.001992
vt 0.000797 0.500000
vt 0.100398 0.500000
vt 0.100398 0.599602
vt 0.000797 0.599602
vt 0.200000 0.599602
vt 0.100398 0.201195
vt 0.000797 0.201195
vt 0.399203 0.699203
vt 0.299602 0.699203
vt 0.299602 0.599602
vt 0.399203 0.599602
vt 0.100398 0.300797
vt 0.100398 0.400398
vt 0.000797 0.400398
vt 0.000797 0.300797
vt 0.200000 0.400398
vt 0.200000 0.500000
vt 0.299602 0.998008
vt 0.299602 0.898407
vt 0.399203 0.898407
vt 0.399203 0.998008
vt 0.299602 0.101593
vt 0.299602 0.001992
vt 0.399203 0.001992
vt 0.399203 0.101593
vt 0.299602 0.500000
vt 0.399203 0.500000
vt 0.299602 0.300797
vt 0.299602 0.201195
vt 0.399203 0.201195
vt 0.399203 0.300797
vt 0.000797 0.699203
vt 0.299602 0.400398
vt 0.399203 0.400398
vt 0.200000 0.898407
vt 0.200000 0.201195
vt 0.200000 0.300797
vt 0.200000 0.101593
vt 0.299602 0.798805
vt 0.000797 0.798805
vt 0.399203 0.798805
vt 0.200000 0.998008
vt 0.200000 0.001992
vn 0.627701 -0.747199 -0.218368
vn 0.410733 -0.283290 -0.866629
vn 0.737012 -0.250922 -0.627576
vn 0.744582 -0.634311 -0.207960
vn 0.554257 -0.793593 0.251016
vn 0.707947 -0.658461 0.255421
vn 0.409601 -0.671015 0.618034
vn 0.090616 -0.721712 0.686237
vn -0.349188 0.576723 -0.738552
vn -0.277219 0.732933 -0.621256
vn -0.826970 0.500747 0.255681
vn -0.581503 -0.390695 0.713591
vn -0.401891 -0.345725 0.847914
vn -0.752252 0.546951 0.367373
vn -0.134131 -0.442690 0.886586
vn -0.544248 0.736242 -0.402172
vn -0.513601 0.783775 -0.349158
vn 0.903505 -0.329669 0.273856
vn 0.111014 -0.347089 0.931238
vn -0.074141 -0.395669 0.915396
vn 0.742331 -0.505810 0.439432
vn -0.404799 0.806613 -0.430712
vn -0.425435 0.759324 -0.492373
vn -0.461138 0.796348 -0.391384
vn -0.440855 0.845587 -0.301048
vn -0.711529 0.605947 0.355745
vn -0.479764 0.852795 -0.206317
vn 0.929964 -0.144807 -0.337933
vn 0.966994 -0.105775 -0.231808
vn 0.992686 -0.119573 -0.016661
vn 0.965172 -0.250379 -0.075847
vn -0.795633 0.397586 -0.457049
vn -0.854103 0.283417 -0.436100
vn -0.688297 0.622947 0.371731
vn -0.713720 0.580388 0.392115
vn -0.763466 0.626821 -0.155612
vn -0.822126 0.566133 -0.060011
vn -0.926556 0.372712 -0.050791
vn -0.902689 0.415285 -0.112649
vn -0.144553 -0.754589 0.640078
vn -0.651385 0.755496 -0.070163
vn -0.624719 0.774695 -0.097845
vn 0.859818 -0.498054 -0.112496
vn -0.541078 0.770132 -0.337834
vn -0.673525 0.671055 -0.309919
vn -0.262074 0.668935 -0.695589
vn 0.909931 -0.365442 0.196159
vn 0.413666 -0.881044 0.229439
vn 0.977216 -0.159689 0.139817
vn 0.837121 -0.219894 -0.500874
s 1
g Masseter_Deep_Muscle_Left1_Mesh group1
usemtl Masseter_Deep_Muscle_Left1_phong1SG
f 24/1/1 1/4/2 41/3/3 47/2/4
f 46/5/5 17/8/6 29/7/7 50/6/8
f 41/9/3 1/12/2 5/11/9 42/10/10
f 6/13/11 2/16/12 44/15/13 45/14/14
f 50/6/8 29/7/7 14/17/15 44/15/13
f 42/10/10 5/11/9 25/19/16 48/18/17
f 23/20/18 4/23/19 31/22/20 37/21/21
f 43/24/22 11/27/23 21/26/24 49/25/25
f 45/14/14 16/29/26 30/28/27 49/25/25
f 21/26/24 6/13/11 45/14/14 49/25/25
f 34/30/28 3/33/29 19/32/30 38/31/31
f 35/34/32 7/37/33 3/36/29 34/35/28
f 31/22/20 4/23/19 8/39/34 32/38/35
f 36/40/36 12/43/37 22/42/38 39/41/39
f 44/15/13 2/16/12 20/44/40 50/6/8
f 32/38/35 8/39/34 26/46/41 40/45/42
f 27/47/43 17/8/6 46/5/5 47/2/4
f 43/24/22 18/49/44 28/48/45 48/18/17
f 48/18/17 28/48/45 15/50/46 42/10/10
f 25/19/16 11/27/23 43/24/22 48/18/17
f 29/7/7 17/8/6 33/51/47 37/21/21
f 46/5/5 10/52/48 24/1/1 47/2/4
f 44/15/13 14/17/15 16/29/26 45/14/14
f 30/28/27 18/49/44 43/24/22 49/25/25
f 19/32/30 9/53/49 33/51/47 38/31/31
f 22/42/38 7/37/33 35/34/32 39/41/39
f 20/44/40 10/52/48 46/5/5 50/6/8
f 26/46/41 12/43/37 36/40/36 40/45/42
f 31/22/20 14/17/15 29/7/7 37/21/21
f 38/31/31 27/47/43 13/54/50 34/30/28
f 34/35/28 13/55/50 15/50/46 35/34/32
f 32/38/35 16/29/26 14/17/15 31/22/20
f 39/41/39 28/48/45 18/49/44 36/40/36
f 40/45/42 30/28/27 16/29/26 32/38/35
f 33/51/47 9/53/49 23/20/18 37/21/21
f 33/51/47 17/8/6 27/47/43 38/31/31
f 35/34/32 15/50/46 28/48/45 39/41/39
f 36/40/36 18/49/44 30/28/27 40/45/42
f 41/3/3 13/54/50 27/47/43 47/2/4
f 42/10/10 15/50/46 13/55/50 41/9/3
