# This file uses centimeters as units for non-parametric coordinates.

mtllib Mentalis_Muscle_Right.mtl
g default
v -0.018919 0.466320 0.989761
v -0.244772 0.447350 0.917194
v -0.148146 0.713877 1.037799
v -0.322813 0.750696 0.931862
v -0.003024 0.461309 1.003062
v -0.248045 0.432449 0.917782
v -0.124763 0.704523 1.046621
v -0.328724 0.748102 0.939701
v -0.193871 0.713884 1.025907
v -0.279132 0.728107 0.974781
v -0.172391 0.446756 0.961456
v -0.098532 0.453056 0.987346
v -0.161195 0.413080 0.956623
v -0.076504 0.422039 0.985982
v -0.189164 0.706011 1.024860
v -0.283740 0.726273 0.970521
v -0.084428 0.579847 1.015190
v -0.302593 0.572350 0.945716
v -0.074292 0.582767 1.032804
v -0.313593 0.577175 0.953890
v -0.170152 0.571075 1.002161
v -0.242198 0.572403 0.979386
v -0.273060 0.591913 1.019677
v -0.193966 0.601908 1.045242
v -0.036007 0.507215 1.010336
v -0.315802 0.679850 0.924189
v -0.033518 0.506094 1.022811
v -0.331068 0.687027 0.934367
v -0.187998 0.655170 1.002334
v -0.262950 0.663553 0.973592
v -0.265642 0.472252 1.016583
v -0.124014 0.470383 1.047032
v -0.109285 0.646040 1.018786
v -0.279566 0.496328 0.938539
v -0.107975 0.661757 1.039281
v -0.289040 0.491467 0.944696
v -0.143250 0.483124 1.000641
v -0.217525 0.480478 0.976950
v -0.274594 0.678646 0.998342
v -0.198211 0.665054 1.028846
vt 0.624502 0.000996
vt 0.624502 0.125498
vt 0.500000 0.125498
vt 0.500000 0.000996
vt 0.250996 0.374502
vt 0.126494 0.374502
vt 0.126494 0.250000
vt 0.250996 0.250000
vt 0.375498 0.125498
vt 0.375498 0.000996
vt 0.998008 0.000996
vt 0.998008 0.125498
vt 0.873506 0.125498
vt 0.873506 0.000996
vt 0.001992 0.374502
vt 0.001992 0.250000
vt 0.250996 0.125498
vt 0.250996 0.000996
vt 0.624502 0.499004
vt 0.624502 0.374502
vt 0.749004 0.374502
vt 0.749004 0.499004
vt 0.873506 0.374502
vt 0.873506 0.499004
vt 0.749004 0.125498
vt 0.873506 0.250000
vt 0.749004 0.250000
vt 0.624502 0.250000
vt 0.375498 0.374502
vt 0.375498 0.250000
vt 0.998008 0.374502
vt 0.998008 0.250000
vt 0.126494 0.000996
vt 0.126494 0.125498
vt 0.001992 0.125498
vt 0.001992 0.000996
vt 0.500000 0.374502
vt 0.500000 0.499004
vt 0.375498 0.499004
vt 0.998008 0.499004
vt 0.250996 0.499004
vt 0.749004 0.000996
vt 0.126494 0.499004
vt 0.001992 0.499004
vt 0.500000 0.250000
vn 0.031221 0.470287 -0.881961
vn 0.172329 0.261904 -0.949584
vn 0.199515 0.307605 -0.930362
vn 0.138141 0.482552 -0.864905
vn -0.217269 0.158682 0.963127
vn -0.593834 0.166477 0.787177
vn -0.548024 -0.018739 0.836253
vn -0.132397 0.023737 0.990913
vn 0.318978 -0.123610 0.939667
vn 0.351339 -0.454157 0.818720
vn -0.545494 -0.814780 0.196393
vn -0.825594 -0.498090 0.265145
vn 0.366593 0.310350 -0.877093
vn 0.293904 0.632406 -0.716717
vn -0.889186 0.045027 0.455325
vn -0.926499 -0.090995 0.365129
vn -0.024416 -0.380608 0.924414
vn 0.035715 -0.712244 0.701022
vn 0.365351 0.311532 -0.877192
vn 0.313732 0.170167 -0.934139
vn 0.523796 0.102665 -0.845634
vn 0.614304 0.206445 -0.761585
vn 0.448730 0.031330 -0.893118
vn 0.538388 0.172008 -0.824956
vn 0.401445 0.368412 -0.838520
vn 0.395234 0.034131 -0.917946
vn 0.435356 0.085430 -0.896196
vn 0.226296 0.081271 -0.970662
vn 0.150804 0.166012 0.974525
vn 0.259016 0.121432 0.958209
vn -0.222100 -0.835331 0.502885
vn -0.480568 -0.445420 0.755417
vn 0.337309 0.216990 -0.916045
vn 0.279101 0.396576 -0.874545
vn 0.090912 0.197843 0.976009
vn -0.872915 0.129172 0.470461
vn -0.303571 0.149805 0.940958
vn 0.296904 0.658095 -0.691924
vn -0.572320 0.182801 0.799396
vn 0.245998 0.144845 -0.958387
s 1
g Mentalis_Muscle_Right_Mesh group1
usemtl Mentalis_Muscle_Right_phong1SG
f 12/1/1 37/2/2 25/3/3 1/4/4
f 40/5/5 39/6/6 23/7/7 24/8/8
f 25/3/3 27/9/9 5/10/10 1/4/4
f 6/11/11 36/12/12 34/13/13 2/14/14
f 39/6/6 28/15/15 20/16/16 23/7/7
f 27/9/9 32/17/17 14/18/18 5/10/10
f 9/19/19 29/20/20 30/21/21 10/22/22
f 10/22/22 30/21/21 26/23/23 4/24/24
f 38/25/25 34/13/13 18/26/26 22/27/27
f 37/2/2 38/25/25 22/27/27 21/28/28
f 35/29/29 40/5/5 24/8/8 19/30/30
f 28/31/15 26/23/23 18/26/26 20/32/16
f 13/33/31 31/34/32 36/35/12 6/36/11
f 14/18/18 32/17/17 31/34/32 13/33/31
f 33/37/33 29/20/20 9/19/19 3/38/34
f 35/29/29 33/37/33 3/38/34 7/39/35
f 26/23/23 28/31/15 8/40/36 4/24/24
f 40/5/5 35/29/29 7/39/35 15/41/37
f 38/25/25 37/2/2 12/1/1 11/42/38
f 34/13/13 38/25/25 11/42/38 2/14/14
f 28/15/15 39/6/6 16/43/39 8/44/36
f 39/6/6 40/5/5 15/41/37 16/43/39
f 25/3/3 37/2/2 21/28/28 17/45/40
f 27/9/9 25/3/3 17/45/40 19/30/30
f 34/13/13 36/12/12 20/32/16 18/26/26
f 32/17/17 27/9/9 19/30/30 24/8/8
f 30/21/21 29/20/20 21/28/28 22/27/27
f 26/23/23 30/21/21 22/27/27 18/26/26
f 36/35/12 31/34/32 23/7/7 20/16/16
f 31/34/32 32/17/17 24/8/8 23/7/7
f 29/20/20 33/37/33 17/45/40 21/28/28
f 33/37/33 35/29/29 19/30/30 17/45/40
