# This file uses centimeters as units for non-parametric coordinates.

mtllib Mylohyoid_Muscle.mtl
g default
v 0.000000 0.642893 0.381931
v -0.221766 0.860323 0.558060
v 0.075703 0.686018 0.452913
v -0.204511 0.878527 0.557856
v 0.030353 0.656136 0.454519
v -0.215039 0.701880 0.838746
v 0.000000 0.738636 0.945937
v -0.204454 0.751202 0.847123
v -0.076470 0.673830 0.391831
v -0.083728 0.660139 0.387710
v -0.105527 0.682329 0.915642
v -0.100406 0.731674 0.931442
v -0.239461 0.788664 0.690601
v 0.000000 0.654478 0.659612
v 0.057738 0.692930 0.474637
v -0.224546 0.823448 0.691305
v -0.122417 0.702183 0.668658
v -0.115611 0.724525 0.670774
v -0.236852 0.829630 0.635811
v 0.000000 0.671225 0.798888
v 0.000000 0.685259 0.452338
v -0.224492 0.853291 0.637548
v -0.089768 0.692904 0.547522
v -0.120896 0.731712 0.795182
v -0.248392 0.744604 0.752333
v 0.000000 0.650742 0.518163
v 0.000000 0.652931 0.448734
v -0.233430 0.785872 0.756525
v -0.133375 0.691889 0.786924
v -0.077703 0.716347 0.549886
v -0.143904 0.762407 0.537545
v -0.161536 0.692286 0.878771
v -0.133062 0.780127 0.539788
v -0.153667 0.741657 0.891264
v -0.186180 0.736094 0.681382
v -0.176193 0.769739 0.685208
v -0.163705 0.747877 0.601100
v -0.177573 0.758614 0.772195
v -0.191105 0.717314 0.766766
v -0.151469 0.780191 0.605041
v -0.026584 0.676563 0.389609
v -0.054351 0.735178 0.939373
v -0.032265 0.648247 0.381497
v -0.057014 0.685684 0.922421
v -0.059507 0.672012 0.659710
v -0.051295 0.699512 0.661278
v -0.038519 0.658064 0.524045
v -0.027629 0.694523 0.530042
v -0.069920 0.673111 0.792353
v -0.065031 0.721624 0.802282
v -0.033660 0.684797 0.460819
v -0.067318 0.700800 0.456599
v -0.064814 0.654934 0.479673
v 0.027629 0.694523 0.530042
v 0.064814 0.654934 0.479673
v -0.057738 0.692930 0.474637
v -0.030353 0.656136 0.454519
v -0.075703 0.686018 0.452913
v 0.038519 0.658064 0.524045
v 0.221766 0.860323 0.558060
v 0.000000 0.681929 0.389475
v 0.204511 0.878527 0.557856
v 0.000000 0.689013 0.928558
v 0.215039 0.701880 0.838746
v 0.067318 0.700800 0.456599
v 0.204454 0.751202 0.847123
v 0.076470 0.673830 0.391831
v 0.083728 0.660139 0.387710
v 0.105527 0.682329 0.915642
v 0.100406 0.731674 0.931442
v 0.239461 0.788664 0.690601
v 0.033660 0.684797 0.460819
v 0.000000 0.700226 0.665474
v 0.224546 0.823448 0.691305
v 0.122417 0.702183 0.668658
v 0.115611 0.724525 0.670774
v 0.236852 0.829630 0.635811
v 0.065031 0.721624 0.802282
v 0.000000 0.720432 0.810239
v 0.224492 0.853291 0.637548
v 0.089768 0.692904 0.547522
v 0.120896 0.731712 0.795182
v 0.248392 0.744604 0.752333
v 0.069920 0.673111 0.792353
v 0.000000 0.691919 0.525706
v 0.233430 0.785872 0.756525
v 0.133375 0.691889 0.786924
v 0.077703 0.716347 0.549886
v 0.143904 0.762407 0.537545
v 0.161536 0.692286 0.878771
v 0.133062 0.780127 0.539788
v 0.153667 0.741657 0.891264
v 0.186180 0.736094 0.681382
v 0.176193 0.769739 0.685208
v 0.163705 0.747877 0.601100
v 0.177573 0.758614 0.772195
v 0.191105 0.717314 0.766766
v 0.151469 0.780191 0.605041
v 0.026584 0.676563 0.389609
v 0.054351 0.735178 0.939373
v 0.032265 0.648247 0.381497
v 0.057014 0.685684 0.922421
v 0.059507 0.672012 0.659710
v 0.051295 0.699512 0.661278
vt 0.291023 0.709215
vt 0.291023 0.613669
vt 0.386569 0.613669
vt 0.386569 0.709215
vt 0.436159 0.375738
vt 0.436159 0.469174
vt 0.342723 0.469174
vt 0.342723 0.375738
vt 0.529596 0.188865
vt 0.529596 0.095429
vt 0.623032 0.095429
vt 0.623032 0.188865
vt 0.752109 0.377959
vt 0.845487 0.351627
vt 0.870581 0.441631
vt 0.780577 0.466725
vt 0.291023 0.995852
vt 0.291023 0.900306
vt 0.386569 0.900306
vt 0.386569 0.995852
vt 0.529596 0.469174
vt 0.529596 0.375738
vt 0.629715 0.376134
vt 0.607180 0.461536
vt 0.291023 0.804761
vt 0.196034 0.806535
vt 0.195477 0.709215
vt 0.726058 0.286296
vt 0.820393 0.261623
vt 0.099932 0.518123
vt 0.099932 0.613669
vt 0.004386 0.613669
vt 0.004386 0.518123
vt 0.098555 0.706673
vt 0.195477 0.613669
vt 0.529596 0.001992
vt 0.623032 0.001992
vt 0.529596 0.282301
vt 0.436159 0.282301
vt 0.436159 0.188865
vt 0.690573 0.491818
vt 0.678984 0.403815
vt 0.291023 0.518123
vt 0.386569 0.518123
vt 0.809905 0.095429
vt 0.716469 0.095429
vt 0.716469 0.001992
vt 0.809905 0.001992
vt 0.005445 0.800735
vt 0.100964 0.802933
vt 0.106340 0.877797
vt 0.011801 0.896070
vt 0.625964 0.287839
vt 0.195477 0.518123
vt 0.001738 0.707308
vt 0.386569 0.804761
vt 0.713675 0.190827
vt 0.802602 0.180242
vt 0.436159 0.095429
vt 0.436159 0.001992
vt 0.198533 0.903116
vt 0.106169 0.910482
vt 0.198679 0.998008
vt 0.342723 0.282301
vt 0.600569 0.516912
vt 0.482115 0.613669
vt 0.482115 0.709215
vt 0.249286 0.188865
vt 0.249286 0.095429
vt 0.342723 0.095429
vt 0.342723 0.188865
vt 0.091742 0.466725
vt 0.001738 0.441631
vt 0.026832 0.351627
vt 0.120209 0.377959
vt 0.482115 0.900306
vt 0.482115 0.995852
vt 0.265138 0.461536
vt 0.242604 0.376134
vt 0.577660 0.709215
vt 0.577104 0.806535
vt 0.482115 0.804761
vt 0.051925 0.261623
vt 0.146260 0.286296
vt 0.768752 0.518123
vt 0.768752 0.613669
vt 0.673206 0.613669
vt 0.673206 0.518123
vt 0.577660 0.613669
vt 0.674583 0.706673
vt 0.249286 0.001992
vt 0.342723 0.001992
vt 0.193335 0.403815
vt 0.181745 0.491818
vt 0.482115 0.518123
vt 0.062413 0.001992
vt 0.155850 0.001992
vt 0.155850 0.095429
vt 0.062413 0.095429
vt 0.761337 0.896070
vt 0.666798 0.877797
vt 0.672174 0.802933
vt 0.767693 0.800735
vt 0.246354 0.287839
vt 0.577660 0.518123
vt 0.771400 0.707308
vt 0.069716 0.180242
vt 0.158643 0.190827
vt 0.574605 0.903116
vt 0.574459 0.998008
vt 0.666968 0.910482
vt 0.271749 0.516912
vn 0.195545 0.979015 -0.057383
vn 0.095320 0.990158 -0.102472
vn 0.000000 0.991559 -0.129654
vn 0.000000 0.993946 -0.109871
vn 0.000000 -0.997872 0.065197
vn 0.000000 -0.991668 0.128821
vn 0.116930 -0.990789 0.068294
vn 0.142010 -0.988048 0.059961
vn -0.322972 -0.946404 0.002841
vn -0.171444 -0.984616 0.033739
vn -0.302694 -0.950646 -0.068178
vn -0.476235 -0.872375 -0.110284
vn -0.787520 -0.453047 -0.417806
vn -0.685015 -0.422762 -0.593319
vn 0.780970 0.624066 0.025059
vn 0.698443 0.706035 -0.117016
vn -0.029487 0.989766 -0.139618
vn 0.056274 0.986828 -0.151672
vn 0.000000 0.994796 -0.101893
vn 0.000000 0.995791 -0.091650
vn -0.116930 -0.990789 0.068296
vn -0.142010 -0.988047 0.059961
vn -0.614556 -0.787973 -0.037675
vn -0.358124 -0.932930 0.037266
vn 0.184765 0.981154 -0.056552
vn 0.593208 0.802290 0.066597
vn 0.493529 0.867341 0.064414
vn -0.718000 -0.641232 -0.270737
vn -0.752910 -0.550787 -0.360223
vn 0.300368 0.953099 0.037169
vn 0.422669 0.899040 0.114359
vn 0.471943 0.843869 0.255256
vn 0.230670 0.956728 0.177379
vn 0.635504 0.744103 0.206023
vn 0.302157 0.952845 -0.028076
vn -0.055479 -0.994930 0.083880
vn -0.171985 -0.985087 0.005079
vn -0.308636 -0.949824 0.050784
vn -0.000000 -0.999602 0.028196
vn -0.000000 -0.998590 0.053092
vn 0.506763 0.819402 -0.267901
vn -0.903508 -0.361424 -0.230318
vn 0.025099 0.995326 -0.093255
vn 0.000000 0.993315 -0.115435
vn -0.437389 -0.829034 -0.348417
vn -0.356976 -0.907599 -0.220981
vn -0.248566 -0.962399 -0.109562
vn -0.185090 -0.946466 -0.264470
vn 0.753328 0.580647 0.308783
vn 0.733054 0.635038 0.243637
vn -0.659902 -0.743225 -0.110207
vn 0.142855 0.988983 -0.038804
vn 0.676178 0.669776 0.306893
vn 0.000000 0.997561 -0.069807
vn -0.586775 -0.763336 -0.270209
vn -0.668022 -0.646251 -0.368927
vn 0.000000 -0.996069 0.088579
vn 0.000000 -0.993234 0.116129
vn 0.572933 0.818675 -0.038981
vn -0.295850 0.939439 -0.172995
vn 0.308635 -0.949824 0.050784
vn -0.095320 0.990158 -0.102472
vn -0.195545 0.979014 -0.057388
vn 0.476235 -0.872374 -0.110285
vn 0.302694 -0.950646 -0.068179
vn 0.171444 -0.984616 0.033739
vn 0.322972 -0.946404 0.002841
vn -0.698443 0.706035 -0.117018
vn -0.780970 0.624066 0.025059
vn 0.685015 -0.422762 -0.593319
vn 0.787520 -0.453046 -0.417806
vn -0.056274 0.986828 -0.151668
vn 0.029487 0.989767 -0.139612
vn 0.358124 -0.932930 0.037263
vn 0.614556 -0.787973 -0.037675
vn -0.493529 0.867341 0.064411
vn -0.593208 0.802291 0.066589
vn -0.184765 0.981154 -0.056556
vn 0.752910 -0.550787 -0.360223
vn 0.718000 -0.641232 -0.270737
vn -0.230670 0.956726 0.177390
vn -0.471943 0.843868 0.255259
vn -0.422669 0.899040 0.114363
vn -0.300368 0.953099 0.037171
vn -0.302157 0.952845 -0.028076
vn -0.635503 0.744103 0.206023
vn 0.171985 -0.985087 0.005079
vn 0.055479 -0.994930 0.083880
vn 0.903507 -0.361424 -0.230320
vn -0.506763 0.819401 -0.267905
vn -0.025099 0.995326 -0.093255
vn 0.185089 -0.946463 -0.264482
vn 0.248566 -0.962398 -0.109564
vn 0.356975 -0.907597 -0.220989
vn 0.437388 -0.829030 -0.348426
vn -0.733054 0.635038 0.243637
vn -0.753328 0.580647 0.308783
vn 0.659902 -0.743225 -0.110207
vn -0.142855 0.988983 -0.038804
vn -0.676178 0.669776 0.306893
vn 0.668021 -0.646250 -0.368930
vn 0.586775 -0.763335 -0.270213
vn -0.572933 0.818675 -0.038982
vn 0.295849 0.939440 -0.172993
s 1
g Mylohyoid_Muscle_Mesh group1
usemtl Mylohyoid_Muscle_phong1SG
f 46/1/1 50/2/2 79/3/3 73/4/4
f 27/5/5 1/6/6 101/7/7 5/8/8
f 45/9/9 49/10/10 29/11/11 17/12/12
f 31/13/13 2/14/14 4/15/15 33/16/16
f 41/17/17 51/18/18 21/19/19 61/20/20
f 43/21/21 57/22/22 53/23/23 10/24/24
f 46/1/1 48/25/25 30/26/26 18/27/27
f 31/13/13 37/28/28 19/29/29 2/14/14
f 34/30/30 38/31/31 28/32/32 8/33/33
f 36/34/34 38/31/31 24/35/35 18/27/27
f 29/11/11 49/10/10 44/36/36 11/37/37
f 45/9/9 47/38/38 26/39/39 14/40/40
f 33/16/16 52/41/41 58/42/42 31/13/13
f 79/3/3 50/2/2 42/43/43 7/44/44
f 25/45/45 39/46/46 32/47/47 6/48/48
f 22/49/49 40/50/50 33/51/16 4/52/15
f 23/53/51 47/38/38 45/9/9 17/12/12
f 42/43/43 50/2/2 24/35/35 12/54/52
f 36/34/34 40/50/50 22/49/49 16/55/53
f 85/56/54 48/25/25 46/1/1 73/4/4
f 19/29/29 37/28/28 35/57/55 13/58/56
f 28/32/32 38/31/31 36/34/34 16/55/53
f 20/59/57 49/10/10 45/9/9 14/40/40
f 44/36/36 49/10/10 20/59/57 63/60/58
f 35/57/55 39/46/46 25/45/45 13/58/56
f 24/35/35 50/2/2 46/1/1 18/27/27
f 29/11/11 39/46/46 35/57/55 17/12/12
f 30/26/26 40/50/50 36/34/34 18/27/27
f 48/25/25 51/18/18 56/61/59 30/26/26
f 37/28/28 31/13/13 58/42/42 53/23/23 23/53/51
f 38/31/31 34/30/30 12/54/52 24/35/35
f 35/57/55 37/28/28 23/53/51 17/12/12
f 32/47/47 39/46/46 29/11/11 11/37/37
f 52/62/41 56/61/59 9/63/60
f 5/8/8 59/64/61 26/39/39 27/5/5
f 21/19/19 51/18/18 48/25/25 85/56/54
f 53/23/23 57/22/22 47/38/38 23/53/51
f 58/42/42 52/41/41 9/65/60 10/24/24
f 56/61/59 51/18/18 41/17/17 9/63/60
f 53/23/23 58/42/42 10/24/24
f 56/61/59 52/62/41 33/51/16 40/50/50 30/26/26
f 73/4/4 79/3/3 78/66/62 104/67/63
f 43/21/21 1/6/6 27/5/5 57/22/22
f 75/68/64 87/69/65 84/70/66 103/71/67
f 91/72/68 62/73/69 60/74/70 89/75/71
f 61/20/20 21/19/19 72/76/72 99/77/73
f 68/78/74 55/79/75 5/8/8 101/7/7
f 76/80/76 88/81/77 54/82/78 104/67/63
f 60/74/70 77/83/79 95/84/80 89/75/71
f 66/85/81 86/86/82 96/87/83 92/88/84
f 76/80/76 82/89/85 96/87/83 94/90/86
f 69/91/87 102/92/88 84/70/66 87/69/65
f 14/40/40 26/39/39 59/64/61 103/71/67
f 89/75/71 3/93/89 65/94/90 91/72/68
f 7/44/44 100/95/91 78/66/62 79/3/3
f 64/96/92 90/97/93 97/98/94 83/99/95
f 62/100/69 91/101/68 98/102/96 80/103/97
f 75/68/64 103/71/67 59/64/61 81/104/98
f 70/105/99 82/89/85 78/66/62 100/95/91
f 74/106/100 80/103/97 98/102/96 94/90/86
f 73/4/4 104/67/63 54/82/78 85/56/54
f 71/107/101 93/108/102 95/84/80 77/83/79
f 74/106/100 94/90/86 96/87/83 86/86/82
f 14/40/40 103/71/67 84/70/66 20/59/57
f 63/60/58 20/59/57 84/70/66 102/92/88
f 71/107/101 83/99/95 97/98/94 93/108/102
f 76/80/76 104/67/63 78/66/62 82/89/85
f 75/68/64 93/108/102 97/98/94 87/69/65
f 76/80/76 94/90/86 98/102/96 88/81/77
f 88/81/77 15/109/103 72/76/72 54/82/78
f 81/104/98 55/79/75 3/93/89 89/75/71 95/84/80
f 82/89/85 70/105/99 92/88/84 96/87/83
f 75/68/64 81/104/98 95/84/80 93/108/102
f 69/91/87 87/69/65 97/98/94 90/97/93
f 67/110/104 15/109/103 65/111/90
f 47/38/38 57/22/22 27/5/5 26/39/39
f 85/56/54 54/82/78 72/76/72 21/19/19
f 81/104/98 59/64/61 5/8/8 55/79/75
f 68/78/74 67/112/104 65/94/90 3/93/89
f 67/110/104 99/77/73 72/76/72 15/109/103
f 68/78/74 3/93/89 55/79/75
f 88/81/77 98/102/96 91/101/68 65/111/90 15/109/103
