# This file uses centimeters as units for non-parametric coordinates.

mtllib Procerus_Muscle_02.mtl
g default
v -0.027504 1.657108 1.200412
v -0.180778 1.362413 0.954480
v -0.040328 1.661953 1.206903
v -0.184811 1.360485 0.945375
v -0.030065 1.481020 1.281039
v -0.150287 1.270073 0.996824
v -0.042515 1.485867 1.289220
v -0.160622 1.257124 0.986556
v -0.108396 1.541334 1.103125
v -0.096461 1.536547 1.095096
v -0.103334 1.433956 1.092817
v -0.115383 1.439619 1.101200
v -0.069027 1.609631 1.160704
v -0.153087 1.445139 1.020893
v -0.128809 1.383427 1.028497
v -0.080428 1.479017 1.191697
v -0.164208 1.449837 1.029632
v -0.055680 1.599714 1.149218
v -0.068386 1.474142 1.183618
v -0.140673 1.388098 1.035818
v -0.171929 1.328192 0.948202
v -0.162843 1.297216 0.963336
v -0.022872 1.539341 1.256825
v -0.027459 1.599636 1.243093
v -0.040723 1.545732 1.276914
v -0.040133 1.604570 1.249513
v -0.186769 1.313997 0.938229
v -0.174726 1.279963 0.960659
v -0.093287 1.507534 1.105326
v -0.093180 1.475916 1.108430
v -0.110885 1.482182 1.123146
v -0.108899 1.516064 1.117865
v -0.054092 1.566069 1.181169
v -0.054806 1.524956 1.193601
v -0.079218 1.534935 1.207002
v -0.074210 1.577494 1.194443
v -0.138081 1.404394 1.027526
v -0.146180 1.424969 1.025784
v -0.161862 1.431204 1.039858
v -0.154986 1.409403 1.040381
v 0.201102 1.336754 0.953119
v 0.195966 1.362816 0.959868
v 0.000000 1.604282 1.243341
v 0.157426 1.346786 0.985015
v 0.166019 1.369049 0.979402
v 0.193131 1.284769 0.970567
v 0.190211 1.389906 0.970758
v 0.155908 1.277571 0.992307
v -0.178535 1.386105 0.962742
v -0.149464 1.274437 0.999250
v -0.190211 1.389906 0.970758
v -0.181007 1.274311 0.985041
v -0.166019 1.369049 0.979402
v -0.157426 1.346786 0.985015
v -0.195966 1.362816 0.959868
v -0.201102 1.336754 0.953119
v 0.027504 1.657108 1.200412
v 0.180778 1.362413 0.954480
v 0.040328 1.661953 1.206903
v 0.184811 1.360485 0.945375
v 0.030065 1.481020 1.281039
v 0.150287 1.270073 0.996824
v 0.042515 1.485867 1.289220
v 0.166725 1.264450 0.979017
v 0.108396 1.541334 1.103125
v 0.096461 1.536547 1.095096
v 0.103334 1.433956 1.092817
v 0.115383 1.439619 1.101200
v 0.069027 1.609631 1.160704
v 0.153087 1.445139 1.020893
v 0.132104 1.390190 1.027043
v 0.080428 1.479017 1.191697
v 0.164208 1.449837 1.029632
v 0.055680 1.599714 1.149218
v 0.068386 1.474142 1.183618
v 0.143958 1.394861 1.034364
v 0.171929 1.328192 0.948202
v 0.162843 1.297216 0.963336
v 0.022872 1.539341 1.256825
v 0.027459 1.599636 1.243093
v 0.040723 1.545732 1.276914
v 0.040133 1.604570 1.249513
v 0.186769 1.313997 0.938229
v 0.174726 1.279963 0.960659
v 0.093287 1.507534 1.105326
v 0.093180 1.475916 1.108430
v 0.110885 1.482182 1.123146
v 0.108899 1.516064 1.117865
v 0.054092 1.566069 1.181169
v 0.054806 1.524956 1.193601
v 0.079218 1.534935 1.207002
v 0.074210 1.577494 1.194443
v 0.138081 1.404394 1.027526
v 0.146180 1.424969 1.025784
v 0.161862 1.431204 1.039858
v 0.154986 1.409403 1.040381
v 0.000000 1.663280 1.198683
v 0.000000 1.670755 1.210900
v 0.178535 1.386105 0.962742
v 0.000000 1.612307 1.256887
v 0.000000 1.540640 1.259291
v 0.000000 1.551891 1.287340
v 0.000000 1.479170 1.278388
v 0.000000 1.485096 1.290782
vt 0.416335 0.666003
vt 0.333333 0.666003
vt 0.333333 0.583001
vt 0.416335 0.583001
vt 0.499336 0.583001
vt 0.499336 0.666003
vt 0.250332 0.749004
vt 0.250332 0.832005
vt 0.167331 0.832005
vt 0.167331 0.749004
vt 0.084329 0.832005
vt 0.084329 0.749004
vt 0.250332 0.666003
vt 0.250332 0.583001
vt 0.084329 0.583001
vt 0.084329 0.666003
vt 0.001328 0.666003
vt 0.001328 0.583001
vt 0.333333 0.915007
vt 0.416335 0.915007
vt 0.416335 0.998008
vt 0.333333 0.998008
vt 0.499336 0.915007
vt 0.499336 0.998008
vt 0.084329 0.915007
vt 0.167331 0.915007
vt 0.167331 0.998008
vt 0.084329 0.998008
vt 0.001328 0.915007
vt 0.001328 0.998008
vt 0.416335 0.749004
vt 0.333333 0.749004
vt 0.499336 0.749004
vt 0.167331 0.666003
vt 0.001328 0.749004
vt 0.416335 0.832005
vt 0.333333 0.832005
vt 0.665339 0.832005
vt 0.582337 0.832005
vt 0.582337 0.749004
vt 0.665339 0.749004
vt 0.001328 0.832005
vt 0.582337 0.666003
vt 0.582337 0.583001
vt 0.665339 0.583001
vt 0.665339 0.666003
vt 0.499336 0.832005
vt 0.167331 0.583001
vt 0.582337 0.915007
vt 0.582337 0.998008
vt 0.665339 0.915007
vt 0.665339 0.998008
vt 0.250332 0.998008
vt 0.250332 0.915007
vt 0.333333 0.500000
vt 0.416335 0.500000
vt 0.499336 0.500000
vt 0.250332 0.500000
vt 0.582337 0.500000
vt 0.167331 0.500000
vt 0.665339 0.500000
vt 0.084329 0.500000
vt 0.001328 0.500000
vt 0.416335 0.416999
vt 0.333333 0.416999
vt 0.333333 0.333997
vt 0.416335 0.333997
vt 0.499336 0.333997
vt 0.499336 0.416999
vt 0.167331 0.250996
vt 0.167331 0.167995
vt 0.250332 0.167995
vt 0.250332 0.250996
vt 0.084329 0.250996
vt 0.084329 0.167995
vt 0.250332 0.416999
vt 0.250332 0.333997
vt 0.001328 0.416999
vt 0.001328 0.333997
vt 0.084329 0.333997
vt 0.084329 0.416999
vt 0.333333 0.001992
vt 0.416335 0.001992
vt 0.416335 0.084993
vt 0.333333 0.084993
vt 0.499336 0.001992
vt 0.499336 0.084993
vt 0.084329 0.001992
vt 0.167331 0.001992
vt 0.167331 0.084993
vt 0.084329 0.084993
vt 0.001328 0.001992
vt 0.001328 0.084993
vt 0.333333 0.250996
vt 0.416335 0.250996
vt 0.499336 0.250996
vt 0.167331 0.333997
vt 0.001328 0.250996
vt 0.333333 0.167995
vt 0.416335 0.167995
vt 0.665339 0.250996
vt 0.582337 0.250996
vt 0.582337 0.167995
vt 0.665339 0.167995
vt 0.001328 0.167995
vt 0.665339 0.333997
vt 0.665339 0.416999
vt 0.582337 0.416999
vt 0.582337 0.333997
vt 0.499336 0.167995
vt 0.167331 0.416999
vt 0.582337 0.001992
vt 0.582337 0.084993
vt 0.665339 0.001992
vt 0.665339 0.084993
vt 0.250332 0.084993
vt 0.250332 0.001992
vn 0.837483 0.035605 -0.545303
vn -0.866803 0.498242 0.020181
vn -0.656672 0.627845 0.417843
vn 0.641536 -0.121239 -0.757451
vn 0.758723 -0.274859 -0.590586
vn 0.923315 -0.147143 -0.354737
vn -0.923813 0.177960 0.338968
vn -0.885722 0.043942 0.462132
vn -0.793470 -0.156294 0.588199
vn -0.901696 -0.037287 0.430760
vn -0.612179 -0.272909 0.742131
vn -0.585550 -0.540403 0.604231
vn -0.910189 0.254210 0.327007
vn -0.669124 0.405573 0.622723
vn -0.717962 -0.144425 0.680934
vn -0.850165 -0.301592 0.431581
vn 0.843737 -0.490567 -0.217836
vn 0.586167 -0.684094 -0.434077
vn -0.917330 0.395029 -0.049572
vn 0.593335 0.408793 -0.693427
vn 0.719255 0.300188 -0.626546
vn -0.690036 0.274947 -0.669518
vn 0.825652 0.174092 -0.536647
vn 0.885032 0.149169 -0.440984
vn -0.744106 -0.315956 0.588624
vn -0.869335 -0.151771 0.470343
vn -0.792891 -0.503682 -0.342971
vn -0.786761 -0.595958 0.160752
vn 0.692433 -0.296868 0.657576
vn 0.976336 -0.187803 0.107229
vn 0.682590 0.198483 -0.703332
vn -0.856633 0.513743 -0.047425
vn 0.882677 -0.068905 -0.464902
vn -0.917547 0.089157 0.387503
vn 0.893214 -0.414451 -0.174354
vn 0.550920 0.356507 -0.754579
vn -0.869558 0.493557 -0.016458
vn 0.962622 -0.269568 0.026322
vn 0.820963 0.111196 -0.560049
vn 0.906509 -0.061026 -0.417754
vn 0.916477 -0.143388 -0.373510
vn 0.756379 -0.220086 -0.615997
vn 0.822807 0.083264 -0.562189
vn -0.700509 0.180293 0.690494
vn 0.844319 0.094406 -0.527459
vn 0.930166 0.070254 -0.360356
vn -0.848509 -0.167460 -0.501985
vn -0.975397 -0.011243 0.220169
vn -0.000002 0.706736 0.707477
vn -0.000000 -0.390517 -0.920596
vn -0.000000 -0.461145 -0.887325
vn -0.000002 0.532290 0.846562
vn -0.000000 -0.285746 -0.958306
vn -0.000000 0.293957 0.955819
vn 0.000000 -0.549158 -0.835718
vn 0.000001 -0.012620 0.999920
vn -0.641535 -0.121240 -0.757452
vn 0.656672 0.627845 0.417843
vn 0.866803 0.498242 0.020182
vn -0.837482 0.035604 -0.545304
vn -0.923315 -0.147143 -0.354737
vn -0.758723 -0.274859 -0.590586
vn 0.902382 -0.035953 0.429435
vn 0.797995 -0.161510 0.580620
vn 0.885720 0.043942 0.462135
vn 0.923813 0.177961 0.338968
vn 0.571166 -0.568331 0.592258
vn 0.590921 -0.310500 0.744582
vn 0.669123 0.405573 0.622723
vn 0.910189 0.254211 0.327007
vn -0.586167 -0.684094 -0.434078
vn -0.843736 -0.490568 -0.217836
vn 0.850165 -0.301594 0.431579
vn 0.717965 -0.144426 0.680931
vn 0.690039 0.274945 -0.669516
vn -0.719253 0.300187 -0.626549
vn -0.593335 0.408792 -0.693428
vn 0.917332 0.395027 -0.049556
vn -0.885036 0.149170 -0.440977
vn -0.825649 0.174092 -0.536652
vn 0.777941 -0.524029 0.346701
vn 0.564341 -0.463203 -0.683347
vn 0.886010 -0.156588 0.436425
vn 0.715397 -0.343211 0.608616
vn -0.410850 -0.351412 0.841256
vn -0.140605 -0.338692 0.930332
vn 0.856633 0.513742 -0.047424
vn -0.682591 0.198484 -0.703330
vn -0.882679 -0.068905 -0.464898
vn 0.917547 0.089157 0.387503
vn -0.861103 -0.487352 -0.144879
vn 0.869559 0.493556 -0.016452
vn -0.550927 0.356507 -0.754574
vn -0.906880 -0.063482 -0.416580
vn -0.827595 0.102432 -0.551900
vn -0.795109 -0.469371 0.384047
vn -0.756380 -0.220086 -0.615996
vn -0.916478 -0.143388 -0.373508
vn -0.822808 0.083264 -0.562187
vn 0.700509 0.180292 0.690494
vn -0.953839 0.091085 -0.286172
vn -0.861507 0.089127 -0.499862
vn 0.975396 -0.011243 0.220172
vn 0.848502 -0.167459 -0.501998
s 1
g Procerus_Muscle_02_Mesh group1
usemtl Procerus_Muscle1_phong1SG
f 18/1/1 13/2/2 3/3/3 1/4/4
f 24/5/5 33/6/6 18/1/1 1/4/4
f 32/7/7 39/8/8 40/9/9 31/10/10
f 31/10/10 40/9/9 20/11/11 12/12/12
f 13/2/2 36/13/13 26/14/14 3/3/3
f 7/15/15 16/16/16 19/17/17 5/18/18
f 51/19/19 49/20/20 2/21/21 4/22/22
f 49/20/20 53/23/23 21/24/24 2/21/21
f 52/25/25 56/26/26 28/27/27 8/28/28
f 50/29/29 52/25/25 8/28/28 6/30/30
f 13/2/2 18/1/1 10/31/31 9/32/32
f 18/1/1 33/6/6 29/33/33 10/31/31
f 16/16/16 35/34/34 31/10/10 12/12/12
f 19/17/17 16/16/16 12/12/12 11/35/35
f 14/36/36 17/37/37 9/32/32 10/31/31
f 15/38/38 37/39/39 30/40/40 11/41/35
f 17/37/37 39/8/8 32/7/7 9/32/32
f 20/11/11 15/42/38 11/35/35 12/12/12
f 34/43/41 23/44/42 5/45/18 19/46/17
f 33/6/6 24/5/5 23/44/42 34/43/41
f 30/40/40 37/39/39 38/47/43 29/33/33
f 29/33/33 38/47/43 14/36/36 10/31/31
f 32/7/7 36/13/13 13/2/2 9/32/32
f 31/10/10 35/34/34 36/13/13 32/7/7
f 25/48/44 35/34/34 16/16/16 7/15/15
f 26/14/14 36/13/13 35/34/34 25/48/44
f 21/24/24 53/23/23 54/49/45 22/50/46
f 22/50/46 54/49/45 50/51/29 6/52/30
f 27/53/47 55/54/48 51/19/19 4/22/22
f 28/27/27 56/26/26 55/54/48 27/53/47
f 29/33/33 33/6/6 34/43/41 30/40/40
f 30/40/40 34/43/41 19/46/17 11/41/35
f 98/55/49 97/56/50 1/4/4 3/3/3
f 97/56/50 43/57/51 24/5/5 1/4/4
f 100/58/52 98/55/49 3/3/3 26/14/14
f 43/57/51 101/59/53 23/44/42 24/5/5
f 102/60/54 100/58/52 26/14/14 25/48/44
f 101/59/53 103/61/55 5/45/18 23/44/42
f 104/62/56 102/60/54 25/48/44 7/15/15
f 103/63/55 104/62/56 7/15/15 5/18/18
f 49/20/20 51/19/19 17/37/37 14/36/36
f 53/23/23 49/20/20 14/36/36 38/47/43
f 56/26/26 52/25/25 20/11/11 40/9/9
f 52/25/25 50/29/29 15/42/38 20/11/11
f 54/49/45 53/23/23 38/47/43 37/39/39
f 50/51/29 54/49/45 37/39/39 15/38/38
f 51/19/19 55/54/48 39/8/8 17/37/37
f 55/54/48 56/26/26 40/9/9 39/8/8
f 57/64/57 59/65/58 69/66/59 74/67/60
f 57/64/57 74/67/60 89/68/61 80/69/62
f 87/70/63 96/71/64 95/72/65 88/73/66
f 68/74/67 76/75/68 96/71/64 87/70/63
f 59/65/58 82/76/69 92/77/70 69/66/59
f 61/78/71 75/79/72 72/80/73 63/81/74
f 60/82/75 58/83/76 99/84/77 47/85/78
f 58/83/76 77/86/79 45/87/80 99/84/77
f 64/88/81 84/89/82 41/90/83 46/91/84
f 62/92/85 64/88/81 46/91/84 48/93/86
f 65/94/87 66/95/88 74/67/60 69/66/59
f 66/95/88 85/96/89 89/68/61 74/67/60
f 68/74/67 87/70/63 91/97/90 72/80/73
f 67/98/91 68/74/67 72/80/73 75/79/72
f 66/95/88 65/94/87 73/99/92 70/100/93
f 67/101/91 86/102/94 93/103/95 71/104/96
f 65/94/87 88/73/66 95/72/65 73/99/92
f 68/74/67 67/98/91 71/105/96 76/75/68
f 75/106/72 61/107/71 79/108/97 90/109/98
f 90/109/98 79/108/97 80/69/62 89/68/61
f 85/96/89 94/110/99 93/103/95 86/102/94
f 66/95/88 70/100/93 94/110/99 85/96/89
f 65/94/87 69/66/59 92/77/70 88/73/66
f 88/73/66 92/77/70 91/97/90 87/70/63
f 63/81/74 72/80/73 91/97/90 81/111/100
f 81/111/100 91/97/90 92/77/70 82/76/69
f 78/112/101 44/113/102 45/87/80 77/86/79
f 62/114/85 48/115/86 44/113/102 78/112/101
f 60/82/75 47/85/78 42/116/103 83/117/104
f 83/117/104 42/116/103 41/90/83 84/89/82
f 86/102/94 90/109/98 89/68/61 85/96/89
f 67/101/91 75/106/72 90/109/98 86/102/94
f 59/65/58 57/64/57 97/56/50 98/55/49
f 57/64/57 80/69/62 43/57/51 97/56/50
f 82/76/69 59/65/58 98/55/49 100/58/52
f 80/69/62 79/108/97 101/59/53 43/57/51
f 81/111/100 82/76/69 100/58/52 102/60/54
f 79/108/97 61/107/71 103/61/55 101/59/53
f 63/81/74 81/111/100 102/60/54 104/62/56
f 61/78/71 63/81/74 104/62/56 103/63/55
f 70/100/93 73/99/92 47/85/78 99/84/77
f 94/110/99 70/100/93 99/84/77 45/87/80
f 96/71/64 76/75/68 46/91/84 41/90/83
f 76/75/68 71/105/96 48/93/86 46/91/84
f 93/103/95 94/110/99 45/87/80 44/113/102
f 71/104/96 93/103/95 44/113/102 48/115/86
f 73/99/92 95/72/65 42/116/103 47/85/78
f 95/72/65 96/71/64 41/90/83 42/116/103
