# This file uses centimeters as units for non-parametric coordinates.

mtllib Nasalis_Left.mtl
g default
v 0.175851 1.265739 0.964459
v 0.188740 1.253021 0.964757
v 0.089073 1.457558 1.069026
v 0.137089 1.384890 1.104893
v 0.056716 1.168919 1.047602
v 0.066031 1.136963 1.051445
v 0.033969 1.256798 1.080087
v 0.052338 1.250786 1.092723
v 0.171005 1.182442 0.991821
v 0.143941 1.204609 0.998136
v 0.113909 1.270353 1.020382
v 0.148991 1.252129 1.049033
v 0.145814 1.353500 1.002362
v 0.159324 1.306461 1.006582
v 0.055683 1.223278 1.037775
v 0.066572 1.229603 1.057092
v 0.150666 1.235159 1.015628
v 0.146519 1.242617 1.031427
v 0.188928 1.214798 0.972718
v 0.112772 1.198227 1.023156
v 0.075435 1.269911 1.048191
v 0.178420 1.296051 1.047262
v 0.129919 1.164520 1.025546
v 0.170252 1.236311 0.978374
v 0.128050 1.327114 0.987611
v 0.106394 1.256886 1.063879
v 0.139784 1.283047 1.000892
v 0.152348 1.263330 1.017130
v 0.099222 1.238070 1.029851
v 0.111091 1.235407 1.041548
v 0.106051 1.427866 1.119614
v 0.181729 1.262396 0.963261
v 0.153042 1.328928 1.000334
v 0.167933 1.342512 1.050221
v 0.063643 1.242395 1.078601
v 0.146753 1.243742 1.030725
v 0.117445 1.419775 1.040651
v 0.039010 1.244019 1.059313
v 0.122027 1.259388 1.016705
v 0.104832 1.247101 1.056455
v 0.132887 1.305674 1.000228
v 0.175246 1.297512 1.030784
v 0.073060 1.262815 1.032729
v 0.142598 1.408709 1.071556
v 0.152648 1.296926 0.980782
v 0.064249 1.179440 1.040853
v 0.144958 1.220022 1.003995
v 0.159634 1.278984 1.004445
v 0.070493 1.203873 1.050273
v 0.146165 1.227545 1.023182
v 0.167445 1.254938 0.986535
v 0.158419 1.245378 1.011333
v 0.108338 1.215158 1.028088
v 0.113902 1.221558 1.035298
v 0.153145 1.289248 0.994433
vt 0.092539 0.000724
vt 0.092539 0.091271
vt 0.001992 0.091271
vt 0.001992 0.000724
vt 0.635820 0.091271
vt 0.545273 0.091271
vt 0.545273 0.000724
vt 0.635820 0.000724
vt 0.998008 0.091271
vt 0.907461 0.091271
vt 0.907461 0.000724
vt 0.998008 0.000724
vt 0.273633 0.000724
vt 0.273633 0.091271
vt 0.183086 0.091271
vt 0.183086 0.000724
vt 0.726367 0.000724
vt 0.726367 0.091271
vt 0.454727 0.362912
vt 0.454727 0.272365
vt 0.545273 0.272365
vt 0.545273 0.362912
vt 0.001992 0.272365
vt 0.092539 0.272365
vt 0.092539 0.362912
vt 0.001992 0.362912
vt 0.635820 0.272365
vt 0.635820 0.362912
vt 0.816914 0.272365
vt 0.907461 0.272365
vt 0.907461 0.362912
vt 0.816914 0.362912
vt 0.183086 0.272365
vt 0.273633 0.272365
vt 0.273633 0.362912
vt 0.183086 0.362912
vt 0.726367 0.272365
vt 0.726367 0.362912
vt 0.454727 0.091271
vt 0.454727 0.000724
vt 0.816914 0.091271
vt 0.816914 0.000724
vt 0.273633 0.181818
vt 0.364180 0.091271
vt 0.364180 0.181818
vt 0.726367 0.181818
vt 0.816914 0.181818
vt 0.454727 0.181818
vt 0.364180 0.272365
vt 0.998008 0.272365
vt 0.998008 0.362912
vt 0.364180 0.362912
vt 0.364180 0.000724
vt 0.092539 0.181818
vt 0.183086 0.181818
vt 0.545273 0.181818
vt 0.001992 0.181818
vt 0.635820 0.181818
vt 0.907461 0.181818
vt 0.998008 0.181818
vn 0.769617 0.618922 0.156923
vn -0.639074 0.335288 -0.692219
vn -0.628458 0.024453 -0.777459
vn 0.912196 0.381112 -0.150507
vn -0.566588 -0.026065 -0.823589
vn -0.809119 0.189819 0.556143
vn 0.339517 -0.023579 0.940304
vn 0.194830 -0.085146 0.977134
vn -0.817071 0.065452 -0.572810
vn -0.842204 -0.102742 -0.529279
vn 0.790965 0.018211 0.611590
vn 0.839577 0.181217 0.512124
vn 0.885039 0.206646 0.417137
vn 0.805222 0.020753 0.592610
vn -0.481943 0.094362 -0.871107
vn -0.325235 0.064206 -0.943451
vn 0.321147 -0.705123 0.632192
vn -0.164480 -0.857801 0.486953
vn 0.100284 -0.790997 0.603545
vn 0.323129 -0.724813 0.608469
vn 0.680948 0.617478 -0.393739
vn 0.676377 0.734226 -0.058544
vn 0.768188 0.623371 0.145930
vn 0.849307 0.524700 0.058024
vn -0.974928 -0.213685 -0.062085
vn -0.873059 -0.037076 -0.486202
vn -0.337242 -0.215306 -0.916467
vn -0.353460 0.172178 -0.919468
vn 0.467213 0.436863 -0.768676
vn -0.297868 0.098190 -0.949544
vn 0.950166 0.303443 -0.071464
vn 0.875047 0.315611 0.366991
vn 0.984267 -0.033563 0.173469
vn 0.979717 -0.040187 -0.196313
vn -0.543326 0.676386 -0.497292
vn -0.474125 0.278092 -0.835386
vn 0.443294 -0.062790 0.894174
vn 0.428510 -0.114982 0.896191
vn -0.665772 0.204524 -0.717577
vn -0.658160 0.168992 -0.733667
vn 0.991288 -0.131217 -0.011414
vn 0.571675 -0.377490 0.728484
vn 0.626933 -0.118427 0.770019
vn -0.302296 -0.067132 -0.950847
vn -0.603898 -0.047962 -0.795617
vn 0.372377 -0.457489 0.807489
vn 0.734064 -0.666160 0.131841
vn 0.664687 -0.712332 0.225332
vn 0.654522 -0.083878 0.751376
vn 0.875303 0.343254 -0.340618
vn 0.873527 0.197505 -0.444906
vn -0.009846 -0.662498 0.748999
vn 0.408989 0.484177 -0.773499
vn -0.542524 -0.154693 -0.825674
vn -0.655863 -0.147278 -0.740373
s 1
g Nasalis_Left1_Mesh group1
usemtl Nasalis_Left1_phong1SG
f 32/1/1 1/4/2 45/3/3 55/2/4
f 46/5/5 5/8/6 6/7/7 49/6/8
f 45/9/3 1/12/2 24/11/9 51/10/10
f 19/13/11 2/16/12 48/15/13 52/14/14
f 20/17/15 5/8/6 46/5/5 53/18/16
f 26/19/17 8/22/18 35/21/19 40/20/20
f 37/23/21 3/26/22 31/25/23 44/24/24
f 35/21/19 8/22/18 7/28/25 38/27/26
f 39/29/27 11/32/28 25/31/29 41/30/30
f 34/33/31 4/36/32 22/35/33 42/34/34
f 38/27/26 7/28/25 21/38/35 43/37/36
f 49/6/8 6/7/7 23/40/37 54/39/38
f 24/11/9 10/42/39 47/41/40 51/10/10
f 28/43/41 18/45/42 50/44/43 52/14/14
f 29/46/44 17/47/45 47/41/40 53/18/16
f 30/48/46 18/45/42 36/49/47 40/20/20
f 25/31/29 3/51/22 37/50/21 41/30/30
f 22/35/33 12/52/48 36/49/47 42/34/34
f 21/38/35 11/32/28 39/29/27 43/37/36
f 23/40/37 9/53/49 50/44/43 54/39/38
f 33/54/50 14/55/51 48/15/13 55/2/4
f 31/25/23 4/36/32 34/33/31 44/24/24
f 35/21/19 16/56/52 30/48/46 40/20/20
f 44/24/24 33/54/50 13/57/53 37/23/21
f 38/27/26 15/58/54 16/56/52 35/21/19
f 41/30/30 27/59/55 17/47/45 39/29/27
f 42/34/34 28/43/41 14/55/51 34/33/31
f 43/37/36 29/46/44 15/58/54 38/27/26
f 36/49/47 12/52/48 26/19/17 40/20/20
f 37/50/21 13/60/53 27/59/55 41/30/30
f 36/49/47 18/45/42 28/43/41 42/34/34
f 39/29/27 17/47/45 29/46/44 43/37/36
f 34/33/31 14/55/51 33/54/50 44/24/24
f 45/3/3 13/57/53 33/54/50 55/2/4
f 49/6/8 16/56/52 15/58/54 46/5/5
f 51/10/10 27/59/55 13/60/53 45/9/3
f 48/15/13 14/55/51 28/43/41 52/14/14
f 46/5/5 15/58/54 29/46/44 53/18/16
f 54/39/38 30/48/46 16/56/52 49/6/8
f 47/41/40 17/47/45 27/59/55 51/10/10
f 50/44/43 9/53/49 19/13/11 52/14/14
f 47/41/40 10/42/39 20/17/15 53/18/16
f 50/44/43 18/45/42 30/48/46 54/39/38
f 48/15/13 2/16/12 32/1/1 55/2/4
