# This file uses centimeters as units for non-parametric coordinates.

mtllib Obliqus_Capitis_Inferior_Muscle_left.mtl
g Thyrohyoid_Muscle_Right:default1
v 0.061269 0.913382 -0.853389
v 0.063135 0.922048 -0.858600
v 0.411081 0.971045 -0.545640
v 0.413723 0.970917 -0.551853
v 0.058322 0.855420 -0.830626
v 0.050653 0.850482 -0.839688
v 0.410755 0.913322 -0.553614
v 0.417394 0.913885 -0.556204
v 0.192893 0.932386 -0.754973
v 0.199612 0.931623 -0.776084
v 0.183393 0.846321 -0.763528
v 0.188162 0.842377 -0.768740
v 0.049065 0.900278 -0.866836
v 0.059420 0.871704 -0.849728
v 0.060521 0.879692 -0.843319
v 0.057834 0.898572 -0.847575
v 0.415761 0.931968 -0.555318
v 0.418689 0.953946 -0.546969
v 0.419270 0.953428 -0.550248
v 0.416131 0.932172 -0.557100
v 0.188735 0.872139 -0.774972
v 0.185880 0.896853 -0.770859
v 0.198963 0.896759 -0.791725
v 0.193149 0.865807 -0.789047
v 0.082853 0.917532 -0.828796
v 0.277201 0.945064 -0.695421
v 0.065125 0.854134 -0.824166
v 0.288975 0.858563 -0.685524
v 0.269119 0.942432 -0.683730
v 0.086190 0.925084 -0.842843
v 0.281617 0.858563 -0.683352
v 0.062279 0.848403 -0.826754
v 0.291715 0.884897 -0.699772
v 0.287977 0.912391 -0.701749
v 0.072038 0.877537 -0.834834
v 0.072551 0.896641 -0.830703
v 0.069260 0.900147 -0.861049
v 0.073032 0.874052 -0.844927
v 0.277504 0.911574 -0.686712
v 0.279721 0.882885 -0.690956
vt 0.484910 0.464784
vt 0.484910 0.589286
vt 0.360408 0.589286
vt 0.360408 0.464784
vt 0.733914 0.962792
vt 0.733914 0.838290
vt 0.858416 0.838290
vt 0.858416 0.962792
vt 0.235906 0.589286
vt 0.235906 0.464784
vt 0.609412 0.464784
vt 0.609412 0.589286
vt 0.609412 0.962792
vt 0.609412 0.838290
vt 0.982918 0.589286
vt 0.858416 0.589286
vt 0.858416 0.464784
vt 0.982918 0.464784
vt 0.360408 0.838290
vt 0.484910 0.838290
vt 0.484910 0.962792
vt 0.360408 0.962792
vt -0.013098 0.838290
vt 0.111404 0.838290
vt 0.111404 0.962792
vt -0.013098 0.962792
vt 0.982918 0.838290
vt 0.982918 0.962792
vt 0.235906 0.962792
vt 0.235906 0.838290
vt 0.111404 0.464784
vt 0.111404 0.589286
vt -0.013098 0.589286
vt -0.013098 0.464784
vt 0.609412 0.713788
vt 0.733914 0.589286
vt 0.733914 0.713788
vt 0.858416 0.713788
vt 0.484910 0.713788
vt 0.360408 0.713788
vt 0.235906 0.713788
vt 0.982918 0.713788
vt -0.013098 0.713788
vt 0.111404 0.713788
vt 0.733914 0.464784
vn 0.348148 0.478487 -0.806128
vn -0.596001 0.324047 0.734695
vn -0.564063 0.382786 0.731647
vn 0.494819 0.546014 -0.676035
vn 0.873998 -0.099445 -0.475645
vn 0.756758 -0.298279 -0.581676
vn 0.592333 -0.413581 -0.691442
vn 0.729626 -0.143054 -0.668717
vn -0.564063 0.382786 0.731647
vn -0.596001 0.324047 0.734695
vn -0.665284 0.034650 0.745786
vn -0.643744 -0.076589 0.761398
vn 0.372013 0.073925 -0.925279
vn 0.348148 0.478487 -0.806128
vn 0.494819 0.546014 -0.676035
vn 0.466321 0.037271 -0.883830
vn 0.931810 -0.002709 -0.362937
vn 0.873998 -0.099445 -0.475645
vn 0.729626 -0.143054 -0.668717
vn 0.822906 0.043091 -0.566542
vn -0.576125 0.143064 0.804744
vn -0.504761 0.143697 0.851215
vn 0.351847 -0.431953 -0.830434
vn 0.327016 -0.528481 -0.783434
vn -0.772434 0.144596 0.618415
vn -0.834812 -0.002874 0.550527
vn 0.855160 0.394124 -0.336702
vn 0.810212 0.409857 -0.419015
vn -0.650065 -0.080267 0.755628
vn -0.688701 -0.124892 0.714208
vn -0.719794 -0.033638 0.693372
vn -0.675597 -0.005926 0.737248
vn 0.810212 0.409857 -0.419015
vn 0.855160 0.394124 -0.336702
vn 0.931810 -0.002709 -0.362937
vn 0.822906 0.043091 -0.566542
vn 0.592333 -0.413581 -0.691442
vn 0.756758 -0.298279 -0.581676
vn -0.688701 -0.124892 0.714208
vn -0.650065 -0.080267 0.755628
vn -0.791195 -0.139354 0.595475
vn -0.834812 -0.002874 0.550527
vn -0.772434 0.144596 0.618415
vn -0.724076 -0.124192 0.678447
vn -0.719794 -0.033638 0.693372
vn -0.791195 -0.139354 0.595475
vn -0.724076 -0.124192 0.678447
vn -0.675597 -0.005926 0.737248
vn -0.607390 -0.080056 0.790360
vn -0.504761 0.143697 0.851215
vn -0.576125 0.143064 0.804744
vn -0.586133 -0.002263 0.810212
vn -0.665284 0.034650 0.745786
vn -0.607390 -0.080056 0.790360
vn -0.586133 -0.002263 0.810212
vn -0.643744 -0.076589 0.761398
vn 0.645960 0.080037 -0.759164
vn 0.558826 -0.205371 -0.803453
vn 0.452661 -0.243437 -0.857809
vn 0.466321 0.037271 -0.883830
vn 0.558826 -0.205371 -0.803453
vn 0.428068 -0.494436 -0.756499
vn 0.327016 -0.528481 -0.783434
vn 0.452661 -0.243437 -0.857809
vn -0.564063 0.382786 0.731647
vn -0.643828 0.277586 0.713044
vn 0.614393 0.545178 -0.570352
vn 0.494819 0.546014 -0.676035
vn 0.592333 -0.413581 -0.691442
vn 0.428068 -0.494436 -0.756499
vn 0.558826 -0.205371 -0.803453
vn 0.729626 -0.143054 -0.668717
vn -0.643744 -0.076589 0.761398
vn -0.659745 -0.110860 0.743268
vn -0.643828 0.277586 0.713044
vn -0.564063 0.382786 0.731647
vn 0.494819 0.546014 -0.676035
vn 0.614393 0.545178 -0.570352
vn 0.645960 0.080037 -0.759164
vn 0.466321 0.037271 -0.883830
vn 0.729626 -0.143054 -0.668717
vn 0.558826 -0.205371 -0.803453
vn 0.645960 0.080037 -0.759164
vn 0.822906 0.043091 -0.566542
vn 0.327016 -0.528481 -0.783434
vn 0.428068 -0.494436 -0.756499
vn -0.611261 0.035235 0.790644
vn -0.576125 0.143064 0.804744
vn 0.810212 0.409857 -0.419015
vn 0.614393 0.545178 -0.570352
vn -0.643828 0.277586 0.713044
vn -0.772434 0.144596 0.618415
vn -0.675597 -0.005926 0.737248
vn -0.631452 0.008074 0.775373
vn -0.611261 0.035235 0.790644
vn -0.650065 -0.080267 0.755628
vn 0.822906 0.043091 -0.566542
vn 0.645960 0.080037 -0.759164
vn 0.614393 0.545178 -0.570352
vn 0.810212 0.409857 -0.419015
vn -0.650065 -0.080267 0.755628
vn -0.611261 0.035235 0.790644
vn 0.428068 -0.494436 -0.756499
vn 0.592333 -0.413581 -0.691442
vn -0.772434 0.144596 0.618415
vn -0.643828 0.277586 0.713044
vn -0.659745 -0.110860 0.743268
vn -0.724076 -0.124192 0.678447
vn -0.724076 -0.124192 0.678447
vn -0.659745 -0.110860 0.743268
vn -0.631452 0.008074 0.775373
vn -0.675597 -0.005926 0.737248
vn -0.576125 0.143064 0.804744
vn -0.611261 0.035235 0.790644
vn -0.631452 0.008074 0.775373
vn -0.586133 -0.002263 0.810212
vn -0.586133 -0.002263 0.810212
vn -0.631452 0.008074 0.775373
vn -0.659745 -0.110860 0.743268
vn -0.643744 -0.076589 0.761398
vn 0.452661 -0.243437 -0.857809
vn 0.272192 -0.307518 -0.911781
vn 0.372013 0.073925 -0.925279
vn 0.466321 0.037271 -0.883830
vn 0.327016 -0.528481 -0.783434
vn 0.351847 -0.431953 -0.830434
vn 0.272192 -0.307518 -0.911781
vn 0.452661 -0.243437 -0.857809
s off
g Thyrohyoid_Muscle_Right:Thyrohyoid_Muscle_Right_Mesh Thyrohyoid_Muscle_Right:group1 polySurface11
usemtl initialShadingGroup
f 2/1/1 1/4/2 25/3/3 30/2/4
f 20/5/5 8/8/6 28/7/7 33/6/8
f 25/3/9 1/4/10 16/10/11 36/9/12
f 13/11/13 2/1/14 30/2/15 37/12/16
f 19/13/17 20/5/18 33/6/19 34/14/20
f 27/15/21 5/18/22 6/17/23 32/16/24
f 29/19/25 3/22/26 4/21/27 26/20/28
f 31/23/29 7/26/30 17/25/31 40/24/32
f 26/20/33 4/21/34 19/13/35 34/14/36
f 28/7/37 8/8/38 7/28/39 31/27/40
f 18/29/41 3/22/42 29/19/43 39/30/44
f 17/25/45 18/29/46 39/30/47 40/24/48
f 15/31/49 5/34/50 27/33/51 35/32/52
f 16/10/53 15/31/54 35/32/55 36/9/56
f 23/35/57 24/37/58 38/36/59 37/12/60
f 24/37/61 12/38/62 32/16/63 38/36/64
f 25/3/65 9/40/66 10/39/67 30/2/68
f 28/7/69 12/38/70 24/37/71 33/6/72
f 36/9/73 22/41/74 9/40/75 25/3/76
f 30/2/77 10/39/78 23/35/79 37/12/80
f 33/6/81 24/37/82 23/35/83 34/14/84
f 32/16/85 12/38/86 11/42/87 27/15/88
f 26/20/89 10/39/90 9/40/91 29/19/92
f 40/24/93 21/44/94 11/43/95 31/23/96
f 34/14/97 23/35/98 10/39/99 26/20/100
f 31/27/101 11/42/102 12/38/103 28/7/104
f 29/19/105 9/40/106 22/41/107 39/30/108
f 39/30/109 22/41/110 21/44/111 40/24/112
f 27/33/113 11/43/114 21/44/115 35/32/116
f 35/32/117 21/44/118 22/41/119 36/9/120
f 38/36/121 14/45/122 13/11/123 37/12/124
f 32/16/125 6/17/126 14/45/127 38/36/128
