# This file uses centimeters as units for non-parametric coordinates.

mtllib Procerus_Muscle_01.mtl
g default
v 0.047250 1.965359 1.192435
v -0.039667 1.628056 1.186237
v 0.000000 2.118711 1.154604
v -0.160847 2.107586 1.135250
v 0.000000 1.629356 1.232259
v -0.044342 1.622187 1.189376
v 0.098385 1.924456 1.186260
v -0.159011 2.116930 1.136092
v -0.086390 2.129364 1.148409
v -0.024093 1.642828 1.207310
v -0.025634 1.638405 1.215446
v -0.082977 2.140841 1.153022
v 0.096397 1.924389 1.176849
v -0.077037 1.886793 1.129185
v 0.000000 1.896681 1.165127
v -0.079144 1.886150 1.137062
v -0.035081 1.891287 1.149793
v -0.034999 1.891310 1.163237
v 0.047277 1.965229 1.207051
v -0.115429 2.006477 1.184318
v 0.000000 1.705288 1.176382
v -0.117936 2.006287 1.192035
v -0.058864 2.021847 1.180672
v -0.025399 1.709948 1.161040
v 0.000000 2.033543 1.180248
v -0.039679 1.705446 1.137230
v 0.000000 1.973358 1.209086
v -0.041708 1.706104 1.143339
v -0.023876 1.709106 1.149683
v -0.059548 2.021860 1.192498
v -0.046643 1.791571 1.116126
v -0.049010 1.791653 1.123212
v -0.024008 1.801910 1.129942
v 0.025263 1.802153 1.141213
v 0.000000 1.804041 1.148138
v -0.025263 1.802153 1.141213
v 0.000000 1.973507 1.196390
v 0.000000 1.803938 1.136379
v -0.047277 1.965229 1.207051
v -0.096397 1.924389 1.176849
v -0.098385 1.924456 1.186260
v -0.047250 1.965359 1.192435
v 0.000000 1.638178 1.223744
v 0.039667 1.628056 1.186237
v 0.024008 1.801910 1.129942
v 0.160847 2.107586 1.135250
v 0.049010 1.791653 1.123212
v 0.044342 1.622187 1.189376
v 0.000000 2.128012 1.159413
v 0.159011 2.116930 1.136092
v 0.086390 2.129364 1.148409
v 0.024093 1.642828 1.207310
v 0.025634 1.638405 1.215446
v 0.082977 2.140841 1.153022
v 0.000000 1.896717 1.152829
v 0.077037 1.886793 1.129185
v 0.046643 1.791571 1.116126
v 0.079144 1.886150 1.137062
v 0.035081 1.891287 1.149793
v 0.034999 1.891310 1.163237
v 0.000000 1.704926 1.165502
v 0.115429 2.006477 1.184318
v 0.059548 2.021860 1.192498
v 0.117936 2.006287 1.192035
v 0.058864 2.021847 1.180672
v 0.025399 1.709948 1.161040
v 0.023876 1.709106 1.149683
v 0.039679 1.705446 1.137230
v 0.000000 2.033543 1.192738
v 0.041708 1.706104 1.143339
vt 0.300797 0.001195
vt 0.300797 0.100797
vt 0.201195 0.100797
vt 0.201195 0.001195
vt 0.500000 0.399602
vt 0.400398 0.399602
vt 0.400398 0.300000
vt 0.500000 0.300000
vt 0.699203 0.100797
vt 0.599602 0.100797
vt 0.599602 0.001195
vt 0.699203 0.001195
vt 0.500000 0.001195
vt 0.500000 0.100797
vt 0.400398 0.100797
vt 0.400398 0.001195
vt 0.599602 0.399602
vt 0.599602 0.300000
vt 0.300797 0.598805
vt 0.300797 0.499203
vt 0.400398 0.499203
vt 0.400398 0.598805
vt 0.699203 0.399602
vt 0.699203 0.300000
vt 0.300797 0.200398
vt 0.400398 0.200398
vt 0.300797 0.300000
vt 0.201195 0.499203
vt 0.201195 0.598805
vt 0.599602 0.499203
vt 0.699203 0.499203
vt 0.699203 0.598805
vt 0.599602 0.598805
vt 0.500000 0.499203
vt 0.500000 0.598805
vt 0.201195 0.200398
vt 0.201195 0.300000
vt 0.599602 0.200398
vt 0.699203 0.200398
vt 0.500000 0.200398
vt 0.300797 0.399602
vt 0.201195 0.399602
vt 0.101594 0.100797
vt 0.101594 0.001195
vt 0.898407 0.300000
vt 0.998008 0.300000
vt 0.998008 0.399602
vt 0.898407 0.399602
vt 0.798805 0.001195
vt 0.798805 0.100797
vt 0.998008 0.001195
vt 0.998008 0.100797
vt 0.898407 0.100797
vt 0.898407 0.001195
vt 0.798805 0.300000
vt 0.798805 0.399602
vt 0.001992 0.598805
vt 0.001992 0.499203
vt 0.101594 0.499203
vt 0.101594 0.598805
vt 0.101594 0.300000
vt 0.001992 0.300000
vt 0.001992 0.200398
vt 0.101594 0.200398
vt 0.798805 0.598805
vt 0.798805 0.499203
vt 0.998008 0.598805
vt 0.898407 0.598805
vt 0.898407 0.499203
vt 0.998008 0.499203
vt 0.001992 0.001195
vt 0.001992 0.100797
vt 0.798805 0.200398
vt 0.898407 0.200398
vt 0.998008 0.200398
vt 0.101594 0.399602
vt 0.001992 0.399602
vn 0.545369 -0.534985 -0.645263
vn 0.563222 -0.327872 -0.758473
vn -0.000000 -0.502383 -0.864645
vn -0.000000 -0.657162 -0.753749
vn -0.240544 -0.438738 0.865822
vn -0.121250 0.356716 -0.926311
vn 0.063067 0.423834 -0.903542
vn -0.440455 -0.491469 0.751304
vn 0.000000 0.465204 0.885204
vn -0.599642 0.306702 0.739164
vn -0.558218 0.486789 0.671885
vn 0.000000 0.599236 0.800573
vn -0.836656 0.309488 0.451912
vn -0.861710 0.163671 0.480279
vn 0.514750 -0.326652 -0.792673
vn 0.558297 -0.474155 -0.680795
vn -0.092453 -0.183200 0.978719
vn -0.156673 -0.448956 0.879711
vn 0.109156 -0.299786 -0.947741
vn 0.100045 -0.238644 -0.965940
vn 0.019400 -0.245337 -0.969244
vn 0.008443 -0.365141 -0.930914
vn -0.000001 -0.114360 0.993439
vn 0.000001 -0.394658 0.918828
vn 0.385360 0.068515 -0.920219
vn 0.310289 0.029990 -0.950169
vn 0.127519 0.428403 -0.894544
vn 0.000000 -0.268035 -0.963409
vn 0.000000 -0.282549 -0.959253
vn -0.137937 0.262616 0.954990
vn 0.000000 0.301853 0.953355
vn 0.000000 0.318717 0.947850
vn -0.143404 0.322268 0.935723
vn -0.293862 0.204368 0.933745
vn -0.250654 0.306830 0.918166
vn 0.000000 0.004810 -0.999988
vn 0.000000 0.388747 -0.921345
vn -0.433754 -0.082913 0.897208
vn 0.000002 -0.008216 0.999966
vn -0.744014 -0.133735 0.654644
vn 0.058718 0.185460 -0.980896
vn 0.000000 0.125270 -0.992123
vn -0.563222 -0.327872 -0.758473
vn -0.545368 -0.534985 -0.645263
vn 0.440455 -0.491474 0.751301
vn -0.063070 0.423836 -0.903540
vn 0.121252 0.356717 -0.926310
vn 0.240544 -0.438743 0.865819
vn 0.558217 0.486789 0.671886
vn 0.599642 0.306702 0.739164
vn -0.558297 -0.474157 -0.680793
vn -0.514753 -0.326652 -0.792672
vn 0.861709 0.163671 0.480281
vn 0.836655 0.309489 0.451914
vn 0.156672 -0.448957 0.879711
vn 0.092452 -0.183200 0.978719
vn -0.008445 -0.365140 -0.930914
vn -0.019400 -0.245338 -0.969243
vn -0.100046 -0.238646 -0.965939
vn -0.109156 -0.299788 -0.947741
vn -0.127520 0.428405 -0.894544
vn -0.310294 0.029993 -0.950167
vn -0.385362 0.068517 -0.920218
vn 0.143404 0.322269 0.935723
vn 0.137937 0.262616 0.954990
vn 0.250654 0.306830 0.918166
vn 0.293861 0.204368 0.933745
vn 0.433755 -0.082913 0.897208
vn 0.744014 -0.133734 0.654643
vn -0.058717 0.185463 -0.980896
s 1
g Procerus_Muscle_01_Mesh group1
usemtl Procerus_Muscle_phong1SG
f 10/1/1 29/2/2 61/3/3 43/4/4
f 41/5/5 40/6/6 14/7/7 16/8/8
f 21/9/9 24/10/10 11/11/11 5/12/12
f 6/13/13 28/14/14 26/15/15 2/16/16
f 39/17/17 41/5/5 16/8/8 18/18/18
f 9/19/19 23/20/20 20/21/21 4/22/22
f 27/23/23 39/17/17 18/18/18 15/24/24
f 11/11/11 24/10/10 28/14/14 6/13/13
f 33/25/25 31/26/26 14/7/7 17/27/27
f 25/28/28 23/20/20 9/19/19 3/29/29
f 30/30/30 69/31/31 49/32/32 12/33/33
f 20/21/21 22/34/34 8/35/35 4/22/22
f 26/15/15 29/2/2 10/1/1 2/16/16
f 22/34/34 30/30/30 12/33/33 8/35/35
f 38/36/36 33/25/25 17/27/27 55/37/37
f 36/38/38 35/39/39 15/24/24 18/18/18
f 31/26/26 32/40/40 16/8/8 14/7/7
f 40/6/6 42/41/41 17/27/27 14/7/7
f 32/40/40 36/38/38 18/18/18 16/8/8
f 42/41/41 37/42/42 55/37/37 17/27/27
f 31/26/26 33/25/25 29/2/2 26/15/15
f 33/25/25 38/36/36 61/3/3 29/2/2
f 35/39/39 36/38/38 24/10/10 21/9/9
f 32/40/40 31/26/26 26/15/15 28/14/14
f 36/38/38 32/40/40 28/14/14 24/10/10
f 40/6/6 41/5/5 22/34/34 20/21/21
f 41/5/5 39/17/17 30/30/30 22/34/34
f 39/17/17 27/23/23 69/31/31 30/30/30
f 42/41/41 40/6/6 20/21/21 23/20/20
f 37/42/42 42/41/41 23/20/20 25/28/28
f 43/4/4 61/3/3 67/43/43 52/44/44
f 58/45/45 56/46/46 13/47/47 7/48/48
f 5/12/12 53/49/49 66/50/50 21/9/9
f 44/51/51 68/52/52 70/53/53 48/54/54
f 60/55/55 58/45/45 7/48/48 19/56/56
f 46/57/57 62/58/58 65/59/59 51/60/60
f 15/24/24 60/55/55 19/56/56 27/23/23
f 48/54/54 70/53/53 66/50/50 53/49/49
f 59/61/61 56/62/46 57/63/62 45/64/63
f 3/29/29 51/60/60 65/59/59 25/28/28
f 54/65/64 49/32/32 69/31/31 63/66/65
f 46/67/57 50/68/66 64/69/67 62/70/58
f 44/71/51 52/44/44 67/43/43 68/72/52
f 50/68/66 54/65/64 63/66/65 64/69/67
f 55/37/37 59/61/61 45/64/63 38/36/36
f 60/55/55 15/24/24 35/39/39 34/73/68
f 56/46/46 58/45/45 47/74/69 57/75/62
f 56/62/46 59/61/61 1/76/70 13/77/47
f 58/45/45 60/55/55 34/73/68 47/74/69
f 59/61/61 55/37/37 37/42/42 1/76/70
f 68/72/52 67/43/43 45/64/63 57/63/62
f 67/43/43 61/3/3 38/36/36 45/64/63
f 21/9/9 66/50/50 34/73/68 35/39/39
f 70/53/53 68/52/52 57/75/62 47/74/69
f 66/50/50 70/53/53 47/74/69 34/73/68
f 62/70/58 64/69/67 7/48/48 13/47/47
f 64/69/67 63/66/65 19/56/56 7/48/48
f 63/66/65 69/31/31 27/23/23 19/56/56
f 65/59/59 62/58/58 13/77/47 1/76/70
f 25/28/28 65/59/59 1/76/70 37/42/42
