# This file uses centimeters as units for non-parametric coordinates.

mtllib Rectus_Capitis_Major_Muscle_Left.mtl
g Thyrohyoid_Muscle_Right:default1
v 0.027094 0.902403 -0.868082
v 0.019497 0.902128 -0.875006
v 0.106112 1.434009 -0.882036
v 0.107801 1.431514 -0.888234
v 0.080989 0.902460 -0.836748
v 0.083182 0.889801 -0.837224
v 0.200550 1.414758 -0.874755
v 0.203347 1.417663 -0.881084
v 0.074277 1.143566 -0.882961
v 0.078379 1.133463 -0.902479
v 0.185299 1.110975 -0.863814
v 0.192771 1.109734 -0.869822
v 0.035548 0.881696 -0.866964
v 0.065935 0.893880 -0.854943
v 0.058732 0.900922 -0.852790
v 0.039997 0.900575 -0.858330
v 0.172790 1.421393 -0.883403
v 0.138404 1.434305 -0.884149
v 0.139577 1.432325 -0.886790
v 0.172663 1.420468 -0.884982
v 0.153137 1.112816 -0.881341
v 0.118698 1.119483 -0.882001
v 0.124818 1.114073 -0.905637
v 0.163647 1.104669 -0.893015
v 0.030147 0.935121 -0.865233
v 0.095904 1.245400 -0.897525
v 0.084406 0.911275 -0.836209
v 0.217256 1.240009 -0.878759
v 0.095730 1.247285 -0.883194
v 0.024079 0.929510 -0.879275
v 0.213886 1.236455 -0.872390
v 0.088909 0.906197 -0.834956
v 0.183210 1.238255 -0.896741
v 0.144639 1.240775 -0.901860
v 0.064496 0.914162 -0.853660
v 0.046584 0.921839 -0.855252
v 0.042203 0.899509 -0.875896
v 0.068115 0.907078 -0.860852
v 0.140937 1.243750 -0.883950
v 0.180412 1.235623 -0.882084
vt 0.484910 0.464784
vt 0.484910 0.589286
vt 0.360408 0.589286
vt 0.360408 0.464784
vt 0.733914 0.962792
vt 0.733914 0.838290
vt 0.858416 0.838290
vt 0.858416 0.962792
vt 0.235906 0.589286
vt 0.235906 0.464784
vt 0.609412 0.464784
vt 0.609412 0.589286
vt 0.609412 0.962792
vt 0.609412 0.838290
vt 0.982918 0.589286
vt 0.858416 0.589286
vt 0.858416 0.464784
vt 0.982918 0.464784
vt 0.360408 0.838290
vt 0.484910 0.838290
vt 0.484910 0.962792
vt 0.360408 0.962792
vt -0.013098 0.838290
vt 0.111404 0.838290
vt 0.111404 0.962792
vt -0.013098 0.962792
vt 0.982918 0.838290
vt 0.982918 0.962792
vt 0.235906 0.962792
vt 0.235906 0.838290
vt 0.111404 0.464784
vt 0.111404 0.589286
vt -0.013098 0.589286
vt -0.013098 0.464784
vt 0.609412 0.713788
vt 0.733914 0.589286
vt 0.733914 0.713788
vt 0.858416 0.713788
vt 0.484910 0.713788
vt 0.360408 0.713788
vt 0.235906 0.713788
vt 0.982918 0.713788
vt -0.013098 0.713788
vt 0.111404 0.713788
vt 0.733914 0.464784
vn -0.340200 -0.203911 -0.917978
vn -0.499364 0.172840 0.848977
vn -0.544620 0.206434 0.812880
vn -0.356671 0.002150 -0.934228
vn 0.376725 0.248968 -0.892241
vn 0.526964 0.048879 -0.848481
vn 0.582902 -0.166575 -0.795285
vn 0.371305 0.006732 -0.928487
vn -0.544620 0.206434 0.812880
vn -0.499364 0.172840 0.848977
vn -0.247919 0.065065 0.966593
vn -0.135692 0.064510 0.988649
vn 0.050344 -0.364446 -0.929863
vn -0.340200 -0.203911 -0.917978
vn -0.356671 0.002150 -0.934228
vn 0.115525 -0.279784 -0.953087
vn 0.303880 0.388930 -0.869707
vn 0.376725 0.248968 -0.892241
vn 0.371305 0.006732 -0.928487
vn 0.225325 0.184748 -0.956607
vn -0.321677 0.192269 0.927123
vn -0.299200 0.273387 0.914187
vn 0.522521 -0.431616 -0.735309
vn 0.605834 -0.438932 -0.663554
vn -0.386608 -0.070381 0.919555
vn -0.267231 -0.194514 0.943796
vn -0.096418 0.447453 -0.889095
vn -0.125841 0.363623 -0.923007
vn -0.134255 0.055336 0.989401
vn -0.104522 -0.010161 0.994471
vn -0.200928 -0.024445 0.979301
vn -0.212858 0.042594 0.976154
vn -0.125841 0.363623 -0.923007
vn -0.096418 0.447453 -0.889095
vn 0.303880 0.388930 -0.869707
vn 0.225325 0.184748 -0.956607
vn 0.582902 -0.166575 -0.795285
vn 0.526964 0.048879 -0.848481
vn -0.104522 -0.010161 0.994471
vn -0.134255 0.055336 0.989401
vn -0.123979 -0.165640 0.978362
vn -0.267231 -0.194514 0.943796
vn -0.386608 -0.070381 0.919555
vn -0.116623 -0.058895 0.991429
vn -0.200928 -0.024445 0.979301
vn -0.123979 -0.165640 0.978362
vn -0.116623 -0.058895 0.991429
vn -0.212858 0.042594 0.976154
vn -0.120655 0.108585 0.986738
vn -0.299200 0.273387 0.914187
vn -0.321677 0.192269 0.927123
vn -0.187395 0.155085 0.969965
vn -0.247919 0.065065 0.966593
vn -0.120655 0.108585 0.986738
vn -0.187395 0.155085 0.969965
vn -0.135692 0.064510 0.988649
vn 0.133145 -0.060642 -0.989240
vn 0.375043 -0.217863 -0.901043
vn 0.376734 -0.337071 -0.862818
vn 0.115525 -0.279784 -0.953087
vn 0.375043 -0.217863 -0.901043
vn 0.606295 -0.343056 -0.717439
vn 0.605834 -0.438932 -0.663554
vn 0.376734 -0.337071 -0.862818
vn -0.544620 0.206434 0.812880
vn -0.470866 0.114216 0.874780
vn -0.317213 0.156777 -0.935306
vn -0.356671 0.002150 -0.934228
vn 0.582902 -0.166575 -0.795285
vn 0.606295 -0.343056 -0.717439
vn 0.375043 -0.217863 -0.901043
vn 0.371305 0.006732 -0.928487
vn -0.135692 0.064510 0.988649
vn -0.108436 0.033009 0.993555
vn -0.470866 0.114216 0.874780
vn -0.544620 0.206434 0.812880
vn -0.356671 0.002150 -0.934228
vn -0.317213 0.156777 -0.935306
vn 0.133145 -0.060642 -0.989240
vn 0.115525 -0.279784 -0.953087
vn 0.371305 0.006732 -0.928487
vn 0.375043 -0.217863 -0.901043
vn 0.133145 -0.060642 -0.989240
vn 0.225325 0.184748 -0.956607
vn 0.605834 -0.438932 -0.663554
vn 0.606295 -0.343056 -0.717439
vn -0.231004 0.133162 0.963797
vn -0.321677 0.192269 0.927123
vn -0.125841 0.363623 -0.923007
vn -0.317213 0.156777 -0.935306
vn -0.470866 0.114216 0.874780
vn -0.386608 -0.070381 0.919555
vn -0.212858 0.042594 0.976154
vn -0.211831 0.102422 0.971925
vn -0.231004 0.133162 0.963797
vn -0.134255 0.055336 0.989401
vn 0.225325 0.184748 -0.956607
vn 0.133145 -0.060642 -0.989240
vn -0.317213 0.156777 -0.935306
vn -0.125841 0.363623 -0.923007
vn -0.134255 0.055336 0.989401
vn -0.231004 0.133162 0.963797
vn 0.606295 -0.343056 -0.717439
vn 0.582902 -0.166575 -0.795285
vn -0.386608 -0.070381 0.919555
vn -0.470866 0.114216 0.874780
vn -0.108436 0.033009 0.993555
vn -0.116623 -0.058895 0.991429
vn -0.116623 -0.058895 0.991429
vn -0.108436 0.033009 0.993555
vn -0.211831 0.102422 0.971925
vn -0.212858 0.042594 0.976154
vn -0.321677 0.192269 0.927123
vn -0.231004 0.133162 0.963797
vn -0.211831 0.102422 0.971925
vn -0.187395 0.155085 0.969965
vn -0.187395 0.155085 0.969965
vn -0.211831 0.102422 0.971925
vn -0.108436 0.033009 0.993555
vn -0.135692 0.064510 0.988649
vn 0.376734 -0.337071 -0.862818
vn 0.379015 -0.513106 -0.770110
vn 0.050344 -0.364446 -0.929863
vn 0.115525 -0.279784 -0.953087
vn 0.605834 -0.438932 -0.663554
vn 0.522521 -0.431616 -0.735309
vn 0.379015 -0.513106 -0.770110
vn 0.376734 -0.337071 -0.862818
s off
g Thyrohyoid_Muscle_Right:Thyrohyoid_Muscle_Right_Mesh Thyrohyoid_Muscle_Right:group1 polySurface4
usemtl initialShadingGroup
f 2/1/1 1/4/2 25/3/3 30/2/4
f 20/5/5 8/8/6 28/7/7 33/6/8
f 25/3/9 1/4/10 16/10/11 36/9/12
f 13/11/13 2/1/14 30/2/15 37/12/16
f 19/13/17 20/5/18 33/6/19 34/14/20
f 27/15/21 5/18/22 6/17/23 32/16/24
f 29/19/25 3/22/26 4/21/27 26/20/28
f 31/23/29 7/26/30 17/25/31 40/24/32
f 26/20/33 4/21/34 19/13/35 34/14/36
f 28/7/37 8/8/38 7/28/39 31/27/40
f 18/29/41 3/22/42 29/19/43 39/30/44
f 17/25/45 18/29/46 39/30/47 40/24/48
f 15/31/49 5/34/50 27/33/51 35/32/52
f 16/10/53 15/31/54 35/32/55 36/9/56
f 23/35/57 24/37/58 38/36/59 37/12/60
f 24/37/61 12/38/62 32/16/63 38/36/64
f 25/3/65 9/40/66 10/39/67 30/2/68
f 28/7/69 12/38/70 24/37/71 33/6/72
f 36/9/73 22/41/74 9/40/75 25/3/76
f 30/2/77 10/39/78 23/35/79 37/12/80
f 33/6/81 24/37/82 23/35/83 34/14/84
f 32/16/85 12/38/86 11/42/87 27/15/88
f 26/20/89 10/39/90 9/40/91 29/19/92
f 40/24/93 21/44/94 11/43/95 31/23/96
f 34/14/97 23/35/98 10/39/99 26/20/100
f 31/27/101 11/42/102 12/38/103 28/7/104
f 29/19/105 9/40/106 22/41/107 39/30/108
f 39/30/109 22/41/110 21/44/111 40/24/112
f 27/33/113 11/43/114 21/44/115 35/32/116
f 35/32/117 21/44/118 22/41/119 36/9/120
f 38/36/121 14/45/122 13/11/123 37/12/124
f 32/16/125 6/17/126 14/45/127 38/36/128
