# This file uses centimeters as units for non-parametric coordinates.

mtllib Risorius_Muscle_Right.mtl
g default
v -0.496340 0.952709 0.808137
v -0.671863 1.095274 0.403381
v -0.486963 0.980488 0.824118
v -0.691814 1.159075 0.458484
v -0.482958 0.983006 0.836738
v -0.692175 1.188375 0.493367
v -0.478336 0.964029 0.842047
v -0.686956 1.167454 0.485784
v -0.491954 0.932640 0.835298
v -0.670372 1.102919 0.442314
v -0.501927 0.909433 0.817194
v -0.653887 1.053970 0.406213
v -0.508645 0.904137 0.802151
v -0.650481 1.040802 0.390154
v -0.506701 0.922741 0.799860
v -0.658856 1.046034 0.375956
v -0.606534 1.061190 0.591651
v -0.592720 1.018654 0.578374
v -0.613917 1.073292 0.602389
v -0.614603 1.061029 0.605522
v -0.612787 1.020426 0.602170
v -0.597532 0.984188 0.582755
v -0.588761 0.973412 0.567432
v -0.586846 0.982237 0.567407
v -0.561574 0.998535 0.750160
v -0.613355 1.053074 0.486248
v -0.560360 1.005737 0.760723
v -0.567835 0.992168 0.758166
v -0.589432 0.963190 0.745609
v -0.579212 0.938986 0.724234
v -0.568758 0.931055 0.712312
v -0.566651 0.944176 0.715846
v -0.632654 1.107878 0.514345
v -0.564629 0.974049 0.732000
v -0.644032 1.132971 0.526874
v -0.646796 1.125656 0.516612
v -0.646240 1.082771 0.485917
v -0.622390 1.036158 0.463770
v -0.609612 1.014328 0.457276
v -0.606803 1.017563 0.464214
v -0.513429 0.985279 0.798092
v -0.622568 1.071960 0.452434
v -0.514492 0.990965 0.803554
v -0.522465 0.979395 0.803222
v -0.542253 0.946558 0.793715
v -0.545437 0.919662 0.775461
v -0.540298 0.913017 0.766145
v -0.535846 0.925589 0.770000
v -0.645712 1.134933 0.490157
v -0.523154 0.957150 0.784393
v -0.659002 1.164364 0.508440
v -0.666488 1.158913 0.496190
v -0.663398 1.106928 0.460352
v -0.641153 1.047356 0.422261
v -0.629501 1.026058 0.418097
v -0.624021 1.030748 0.428760
v -0.496681 0.980829 0.814503
v -0.639433 1.084646 0.425271
v -0.492242 0.992237 0.827760
v -0.503341 0.974854 0.821943
v -0.521549 0.941685 0.816129
v -0.526626 0.913301 0.799597
v -0.523484 0.900078 0.787341
v -0.515539 0.920305 0.791143
v -0.650194 1.150105 0.473552
v -0.504241 0.952211 0.802562
v -0.672322 1.191841 0.508229
v -0.677530 1.170593 0.493011
v -0.672135 1.105425 0.448086
v -0.652371 1.047928 0.407756
v -0.643925 1.025625 0.381755
v -0.637341 1.035255 0.399641
vt 0.250996 0.126494
vt 0.126494 0.126494
vt 0.126494 0.001992
vt 0.250996 0.001992
vt 0.001992 0.126494
vt 0.001992 0.001992
vt 0.998008 0.126494
vt 0.873506 0.126494
vt 0.873506 0.001992
vt 0.998008 0.001992
vt 0.749004 0.126494
vt 0.749004 0.001992
vt 0.624502 0.126494
vt 0.624502 0.001992
vt 0.500000 0.126494
vt 0.500000 0.001992
vt 0.375498 0.126494
vt 0.375498 0.001992
vt 0.126494 0.873506
vt 0.250996 0.873506
vt 0.250996 0.998008
vt 0.126494 0.998008
vt 0.001992 0.873506
vt 0.001992 0.998008
vt 0.873506 0.873506
vt 0.998008 0.873506
vt 0.998008 0.998008
vt 0.873506 0.998008
vt 0.749004 0.873506
vt 0.749004 0.998008
vt 0.624502 0.873506
vt 0.624502 0.998008
vt 0.500000 0.873506
vt 0.500000 0.998008
vt 0.375498 0.873506
vt 0.375498 0.998008
vt 0.126494 0.375498
vt 0.250996 0.375498
vt 0.250996 0.500000
vt 0.126494 0.500000
vt 0.001992 0.375498
vt 0.001992 0.500000
vt 0.873506 0.375498
vt 0.998008 0.375498
vt 0.998008 0.500000
vt 0.873506 0.500000
vt 0.749004 0.375498
vt 0.749004 0.500000
vt 0.624502 0.375498
vt 0.624502 0.500000
vt 0.500000 0.375498
vt 0.500000 0.500000
vt 0.375498 0.375498
vt 0.375498 0.500000
vt 0.250996 0.624502
vt 0.126494 0.624502
vt 0.001992 0.624502
vt 0.998008 0.624502
vt 0.873506 0.624502
vt 0.749004 0.624502
vt 0.624502 0.624502
vt 0.500000 0.624502
vt 0.375498 0.624502
vt 0.126494 0.250996
vt 0.250996 0.250996
vt 0.001992 0.250996
vt 0.873506 0.250996
vt 0.998008 0.250996
vt 0.749004 0.250996
vt 0.624502 0.250996
vt 0.500000 0.250996
vt 0.375498 0.250996
vt 0.250996 0.749004
vt 0.126494 0.749004
vt 0.001992 0.749004
vt 0.998008 0.749004
vt 0.873506 0.749004
vt 0.749004 0.749004
vt 0.624502 0.749004
vt 0.500000 0.749004
vt 0.375498 0.749004
vn 0.692211 0.065425 -0.718723
vn 0.686508 0.252705 -0.681797
vn 0.703612 0.356856 -0.614479
vn 0.645603 0.123923 -0.753551
vn -0.437251 0.573247 0.692964
vn -0.566107 0.188631 0.802459
vn -0.618639 0.177020 0.765474
vn -0.563301 0.109504 0.818964
vn -0.659187 -0.040067 0.750911
vn -0.576481 -0.042555 0.816002
vn -0.682675 -0.405160 0.608112
vn -0.573368 -0.370848 0.730562
vn 0.107415 -0.927240 -0.358731
vn -0.022200 -0.984548 0.173705
vn 0.711190 -0.043380 -0.701660
vn 0.677941 -0.051007 -0.733345
vn 0.662047 0.586866 -0.466136
vn 0.719063 0.471174 -0.510826
vn 0.549257 0.555867 -0.623962
vn 0.438480 0.648024 -0.622736
vn 0.458891 0.781123 -0.423399
vn 0.324794 0.761310 -0.561174
vn -0.617771 -0.428160 0.659574
vn -0.579661 -0.478135 0.659834
vn -0.668158 -0.523480 0.528710
vn -0.943461 -0.326203 0.058924
vn -0.747621 -0.550741 0.371142
vn -0.960305 -0.261665 -0.096675
vn -0.663443 -0.713952 0.223864
vn -0.870605 -0.343483 -0.352230
vn 0.792891 0.312964 -0.522855
vn 0.676299 0.425380 -0.601391
vn 0.919380 0.295150 -0.260053
vn 0.952419 0.168418 -0.254035
vn 0.966485 0.224890 -0.123817
vn 0.937546 0.332808 -0.101225
vn -0.297018 0.837547 0.458580
vn 0.535474 0.801807 0.265279
vn -0.850147 0.222642 0.477158
vn -0.952397 0.059968 0.298906
vn -0.949493 -0.090620 0.300417
vn -0.971570 -0.191968 0.138563
vn -0.871568 -0.485635 0.067291
vn -0.880426 -0.473767 -0.019872
vn -0.174959 -0.938813 -0.296680
vn -0.445496 -0.869400 -0.213722
vn 0.968146 0.049173 -0.245512
vn 0.985548 0.090067 -0.143471
vn 0.947645 0.297233 -0.116712
vn 0.920590 0.386079 -0.058802
vn 0.646560 0.683982 0.337829
vn -0.940894 -0.160254 0.298393
vn -0.926958 -0.336605 0.165666
vn -0.879286 -0.472169 0.062545
vn -0.761056 -0.645947 -0.059550
vn 0.971008 0.141090 -0.192970
vn 0.729442 0.278219 -0.624907
vn 0.772228 0.112203 -0.625360
vn -0.269748 0.848612 0.455076
vn -0.658310 0.233081 0.715752
vn -0.749754 -0.062702 0.658739
vn -0.754009 -0.516295 0.406090
vn 0.137934 -0.894848 -0.424525
vn 0.812374 0.013834 -0.582972
vn 0.926180 0.313069 -0.210186
vn 0.916939 0.388248 -0.092118
vn 0.777693 0.427885 0.460551
vn -0.803208 -0.339442 0.489527
vn -0.823403 -0.424897 0.376126
vn -0.787948 -0.532939 0.308405
vn -0.670605 -0.708166 0.220884
vn 0.913968 0.198184 -0.354098
s 1
g Risorius_Muscle_Right_Mesh group1
usemtl Risorius_Muscle_Right_phong1SG
f 66/1/1 57/2/2 3/3/3 1/4/4
f 57/2/2 59/5/5 5/6/6 3/3/3
f 59/7/5 60/8/7 7/9/8 5/10/6
f 60/8/7 61/11/9 9/12/10 7/9/8
f 61/11/9 62/13/11 11/14/12 9/12/10
f 62/13/11 63/15/13 13/16/14 11/14/12
f 63/15/13 64/17/15 15/18/16 13/16/14
f 64/17/15 66/1/1 1/4/4 15/18/16
f 65/19/17 58/20/18 2/21/19 4/22/20
f 67/23/21 65/19/17 4/22/20 6/24/22
f 68/25/23 67/26/21 6/27/22 8/28/24
f 69/29/25 68/25/23 8/28/24 10/30/26
f 70/31/27 69/29/25 10/30/26 12/32/28
f 71/33/29 70/31/27 12/32/28 14/34/30
f 72/35/31 71/33/29 14/34/30 16/36/32
f 58/20/18 72/35/31 16/36/32 2/21/19
f 25/37/33 34/38/34 18/39/35 17/40/36
f 27/41/37 25/37/33 17/40/36 19/42/38
f 28/43/39 27/44/37 19/45/38 20/46/40
f 29/47/41 28/43/39 20/46/40 21/48/42
f 30/49/43 29/47/41 21/48/42 22/50/44
f 31/51/45 30/49/43 22/50/44 23/52/46
f 32/53/47 31/51/45 23/52/46 24/54/48
f 34/38/34 32/53/47 24/54/48 18/39/35
f 26/55/49 33/56/50 17/40/36 18/39/35
f 33/56/50 35/57/51 19/42/38 17/40/36
f 35/58/51 36/59/52 20/46/40 19/45/38
f 36/59/52 37/60/53 21/48/42 20/46/40
f 37/60/53 38/61/54 22/50/44 21/48/42
f 38/61/54 39/62/55 23/52/46 22/50/44
f 39/62/55 40/63/56 24/54/48 23/52/46
f 40/63/56 26/55/49 18/39/35 24/54/48
f 41/64/57 50/65/58 34/38/34 25/37/33
f 43/66/59 41/64/57 25/37/33 27/41/37
f 44/67/60 43/68/59 27/44/37 28/43/39
f 45/69/61 44/67/60 28/43/39 29/47/41
f 46/70/62 45/69/61 29/47/41 30/49/43
f 47/71/63 46/70/62 30/49/43 31/51/45
f 48/72/64 47/71/63 31/51/45 32/53/47
f 50/65/58 48/72/64 32/53/47 34/38/34
f 42/73/65 49/74/66 33/56/50 26/55/49
f 49/74/66 51/75/67 35/57/51 33/56/50
f 51/76/67 52/77/68 36/59/52 35/58/51
f 52/77/68 53/78/69 37/60/53 36/59/52
f 53/78/69 54/79/70 38/61/54 37/60/53
f 54/79/70 55/80/71 39/62/55 38/61/54
f 55/80/71 56/81/72 40/63/56 39/62/55
f 56/81/72 42/73/65 26/55/49 40/63/56
f 57/2/2 66/1/1 50/65/58 41/64/57
f 59/5/5 57/2/2 41/64/57 43/66/59
f 60/8/7 59/7/5 43/68/59 44/67/60
f 61/11/9 60/8/7 44/67/60 45/69/61
f 62/13/11 61/11/9 45/69/61 46/70/62
f 63/15/13 62/13/11 46/70/62 47/71/63
f 64/17/15 63/15/13 47/71/63 48/72/64
f 66/1/1 64/17/15 48/72/64 50/65/58
f 58/20/18 65/19/17 49/74/66 42/73/65
f 65/19/17 67/23/21 51/75/67 49/74/66
f 67/26/21 68/25/23 52/77/68 51/76/67
f 68/25/23 69/29/25 53/78/69 52/77/68
f 69/29/25 70/31/27 54/79/70 53/78/69
f 70/31/27 71/33/29 55/80/71 54/79/70
f 71/33/29 72/35/31 56/81/72 55/80/71
f 72/35/31 58/20/18 42/73/65 56/81/72
