# This file uses centimeters as units for non-parametric coordinates.

mtllib Scalenus_Anterior_Muscle_Right_01.mtl
g default
v -0.743206 -0.155575 -0.474100
v -0.493088 0.084211 -0.516408
v -0.750123 -0.154554 -0.470505
v -0.503124 0.085915 -0.527547
v -0.761075 -0.148378 -0.471663
v -0.521883 0.092319 -0.527284
v -0.770535 -0.140966 -0.475577
v -0.533001 0.100466 -0.516037
v -0.772228 -0.136436 -0.481082
v -0.530359 0.101624 -0.503640
v -0.764310 -0.137156 -0.486292
v -0.516144 0.098066 -0.494020
v -0.752463 -0.143015 -0.486462
v -0.665047 -0.101465 -0.455440
v -0.744055 -0.150743 -0.480858
v -0.341253 0.303848 -0.603705
v -0.422175 0.195782 -0.550641
v -0.418463 0.188913 -0.557931
v -0.426044 0.206097 -0.541069
v -0.436443 0.213266 -0.548270
v -0.443887 0.211843 -0.562166
v -0.442763 0.201492 -0.578323
v -0.426432 0.191208 -0.581595
v -0.418385 0.186605 -0.571658
v -0.583448 -0.009462 -0.456643
v -0.263029 0.371681 -0.620436
v -0.602605 -0.001923 -0.461739
v -0.614628 0.001652 -0.468974
v -0.616573 0.001659 -0.478800
v -0.604042 -0.004871 -0.487806
v -0.588682 -0.010822 -0.482684
v -0.579045 -0.014439 -0.473583
v -0.267730 0.374748 -0.613559
v -0.575723 -0.015085 -0.465237
v -0.270421 0.377810 -0.615939
v -0.268016 0.378668 -0.626909
v -0.261937 0.376020 -0.639191
v -0.255725 0.370733 -0.645546
v -0.255307 0.368393 -0.640987
v -0.258606 0.369562 -0.631249
v -0.676368 -0.096191 -0.452404
v -0.498331 0.092218 -0.495062
v -0.694114 -0.083773 -0.457004
v -0.701513 -0.075117 -0.462500
v -0.697643 -0.073128 -0.470460
v -0.684459 -0.079922 -0.477424
v -0.674575 -0.089834 -0.471380
v -0.666392 -0.098503 -0.461852
v -0.347139 0.309181 -0.592021
v -0.491436 0.086351 -0.503121
v -0.353386 0.313766 -0.591099
v -0.360764 0.312984 -0.599609
v -0.361887 0.310253 -0.608833
v -0.355709 0.301489 -0.625926
v -0.338758 0.294910 -0.626681
v -0.336875 0.297903 -0.615113
vt 0.250996 0.624004
vt 0.375498 0.624004
vt 0.375498 0.748506
vt 0.250996 0.748506
vt 0.126494 0.125996
vt 0.001992 0.125996
vt 0.001992 0.001494
vt 0.126494 0.001494
vt 0.998008 0.125996
vt 0.873506 0.125996
vt 0.873506 0.001494
vt 0.998008 0.001494
vt 0.749004 0.125996
vt 0.749004 0.001494
vt 0.624502 0.125996
vt 0.624502 0.001494
vt 0.500000 0.125996
vt 0.500000 0.001494
vt 0.375498 0.125996
vt 0.375498 0.001494
vt 0.250996 0.125996
vt 0.250996 0.001494
vt 0.500000 0.624004
vt 0.500000 0.748506
vt 0.624502 0.624004
vt 0.624502 0.748506
vt 0.749004 0.624004
vt 0.749004 0.748506
vt 0.873506 0.624004
vt 0.873506 0.748506
vt 0.998008 0.624004
vt 0.998008 0.748506
vt 0.001992 0.624004
vt 0.126494 0.624004
vt 0.126494 0.748506
vt 0.001992 0.748506
vt 0.375498 0.375000
vt 0.250996 0.375000
vt 0.250996 0.250498
vt 0.375498 0.250498
vt 0.126494 0.375000
vt 0.250996 0.499502
vt 0.126494 0.499502
vt 0.001992 0.375000
vt 0.001992 0.499502
vt 0.873506 0.375000
vt 0.998008 0.375000
vt 0.998008 0.499502
vt 0.873506 0.499502
vt 0.749004 0.375000
vt 0.749004 0.499502
vt 0.624502 0.375000
vt 0.624502 0.499502
vt 0.500000 0.375000
vt 0.500000 0.499502
vt 0.375498 0.499502
vt 0.500000 0.250498
vt 0.126494 0.250498
vt 0.001992 0.250498
vt 0.998008 0.250498
vt 0.873506 0.250498
vt 0.749004 0.250498
vt 0.624502 0.250498
vn 0.741020 -0.474757 0.474863
vn 0.753635 -0.641757 0.142066
vn 0.667957 -0.675603 0.312079
vn 0.626465 -0.583128 0.517207
vn -0.016893 -0.051144 0.998548
vn -0.238127 0.187165 0.953029
vn -0.284063 0.077510 0.955667
vn -0.133234 -0.128586 0.982708
vn -0.504025 0.507887 0.698577
vn -0.527849 0.415163 0.740956
vn -0.553673 0.630156 -0.544381
vn -0.587586 0.734343 -0.339829
vn -0.076482 0.064275 -0.994997
vn -0.124660 0.320542 -0.938996
vn 0.318451 -0.360283 -0.876804
vn 0.293578 -0.188560 -0.937154
vn 0.505493 -0.569234 -0.648421
vn 0.483849 -0.467437 -0.739860
vn 0.566632 -0.644986 0.512759
vn 0.419707 -0.757075 0.500682
vn 0.297991 -0.575566 -0.761529
vn 0.429549 -0.640321 -0.636770
vn -0.516024 0.183384 -0.836714
vn -0.376571 0.291896 -0.879199
vn -0.722350 0.601909 -0.340464
vn -0.562670 0.623062 -0.543320
vn -0.620952 0.749140 0.230670
vn -0.600134 0.780308 -0.175950
vn -0.119792 0.580604 0.805325
vn -0.444520 0.772227 0.453947
vn 0.639511 -0.222674 0.735828
vn 0.493465 -0.329344 0.805000
vn 0.652891 -0.674991 -0.343687
vn 0.809983 -0.458778 0.365309
vn 0.714893 -0.536179 0.448820
vn 0.564866 -0.666708 -0.486237
vn 0.472483 0.006877 0.881313
vn 0.827881 -0.410354 0.382391
vn 0.657017 -0.124975 0.743445
vn -0.067274 0.414773 0.907434
vn 0.098426 0.357405 0.928749
vn -0.534133 0.650310 0.540183
vn -0.550129 0.664242 0.506103
vn -0.791321 0.497662 -0.355167
vn -0.805145 0.551210 -0.218883
vn -0.438535 -0.053922 -0.897095
vn -0.573458 0.078240 -0.815490
vn 0.130450 -0.514708 -0.847384
vn 0.097972 -0.482040 -0.870654
vn 0.748530 -0.640033 -0.173380
vn 0.247389 -0.502335 -0.828528
vn 0.175954 0.063930 0.982320
vn -0.183474 0.359395 0.914971
vn -0.520948 0.618326 0.588461
vn -0.671354 0.507805 -0.539831
vn -0.222340 -0.089648 -0.970839
s 1
g Scalenus_Anterior_Muscle_Right_01_Mesh group1
usemtl Scalenus_Anterior_Muscle_Right_phong1SG
f 16/1/1 56/2/2 40/3/3 26/4/4
f 41/5/5 43/6/6 5/7/7 3/8/8
f 43/9/6 44/10/9 7/11/10 5/12/7
f 44/10/9 45/13/11 9/14/12 7/11/10
f 45/13/11 46/15/13 11/16/14 9/14/12
f 46/15/13 47/17/15 13/18/16 11/16/14
f 47/17/15 48/19/17 15/20/18 13/18/16
f 48/19/17 14/21/19 1/22/20 15/20/18
f 56/2/2 55/23/21 39/24/22 40/3/3
f 55/23/21 54/25/23 38/26/24 39/24/22
f 54/25/23 53/27/25 37/28/26 38/26/24
f 53/27/25 52/29/27 36/30/28 37/28/26
f 52/29/27 51/31/29 35/32/30 36/30/28
f 51/33/29 49/34/31 33/35/32 35/36/30
f 49/34/31 16/1/1 26/4/4 33/35/32
f 2/37/33 50/38/34 34/39/35 32/40/36
f 42/41/37 50/38/34 18/42/38 17/43/39
f 12/44/40 42/41/37 17/43/39 19/45/41
f 10/46/42 12/47/40 19/48/41 20/49/43
f 8/50/44 10/46/42 20/49/43 21/51/45
f 6/52/46 8/50/44 21/51/45 22/53/47
f 4/54/48 6/52/46 22/53/47 23/55/49
f 2/37/33 4/54/48 23/55/49 24/56/50
f 50/38/34 2/37/33 24/56/50 18/42/38
f 16/1/1 49/34/31 17/43/39 18/42/38
f 49/34/31 51/33/29 19/45/41 17/43/39
f 51/31/29 52/29/27 20/49/43 19/48/41
f 52/29/27 53/27/25 21/51/45 20/49/43
f 53/27/25 54/25/23 22/53/47 21/51/45
f 54/25/23 55/23/21 23/55/49 22/53/47
f 55/23/21 56/2/2 24/56/50 23/55/49
f 56/2/2 16/1/1 18/42/38 24/56/50
f 4/54/48 2/37/33 32/40/36 31/57/51
f 43/6/6 41/5/5 25/58/52 27/59/53
f 44/10/9 43/9/6 27/60/53 28/61/54
f 45/13/11 44/10/9 28/61/54 29/62/55
f 46/15/13 45/13/11 29/62/55 30/63/56
f 47/17/15 46/15/13 30/63/56 31/57/51
f 48/19/17 47/17/15 31/57/51 32/40/36
f 14/21/19 48/19/17 32/40/36 34/39/35
f 6/52/46 4/54/48 31/57/51 30/63/56
f 8/50/44 6/52/46 30/63/56 29/62/55
f 10/46/42 8/50/44 29/62/55 28/61/54
f 12/47/40 10/46/42 28/61/54 27/60/53
f 42/41/37 12/44/40 27/59/53 25/58/52
f 50/38/34 42/41/37 25/58/52 34/39/35
f 14/21/19 34/39/35 25/58/52 41/5/5
f 1/22/20 14/21/19 41/5/5 3/8/8
