# This file uses centimeters as units for non-parametric coordinates.

mtllib Scalenus_Posterior_Muscle_Right_01.mtl
g default
v -0.866312 -0.079165 -0.789527
v -0.735651 0.081324 -0.703959
v -0.880474 -0.079060 -0.766858
v -0.753103 0.085506 -0.681358
v -0.890287 -0.076553 -0.759020
v -0.767104 0.089083 -0.673964
v -0.889708 -0.072571 -0.770591
v -0.771513 0.094139 -0.685836
v -0.879369 -0.069902 -0.794837
v -0.762734 0.095741 -0.709886
v -0.865014 -0.070772 -0.817347
v -0.745475 0.090076 -0.731521
v -0.855005 -0.074158 -0.824987
v -0.730404 0.083271 -0.738236
v -0.855781 -0.077396 -0.813569
v -0.725743 0.079222 -0.727259
v -0.201745 0.577475 -0.511373
v -0.195557 0.574829 -0.513871
v -0.209103 0.585804 -0.510092
v -0.193783 0.579359 -0.515904
v -0.213499 0.594992 -0.510775
v -0.198168 0.588465 -0.516300
v -0.211903 0.599625 -0.513078
v -0.205521 0.596901 -0.515324
v -0.966402 -0.212393 -0.847988
v -0.988758 -0.221163 -0.835230
v -1.001278 -0.222580 -0.833683
v -0.947455 -0.202040 -0.863833
v -0.997527 -0.216370 -0.842765
v -0.943603 -0.196043 -0.873029
v -0.978795 -0.205660 -0.858632
v -0.956344 -0.197182 -0.871466
v -0.838884 -0.003109 -0.726416
v -0.822556 -0.004631 -0.750255
v -0.849456 0.000450 -0.718231
v -0.850853 0.004265 -0.730436
v -0.839736 0.005541 -0.755561
v -0.820575 0.004663 -0.777978
v -0.807111 0.001322 -0.784732
v -0.808194 -0.002689 -0.773898
v -0.907876 -0.158482 -0.824999
v -0.923809 -0.158878 -0.807035
v -0.934732 -0.156425 -0.802215
v -0.896957 -0.154139 -0.845598
v -0.932991 -0.152967 -0.812958
v -0.896220 -0.149170 -0.856201
v -0.920959 -0.150055 -0.833633
v -0.906172 -0.148161 -0.851567
v -0.583491 0.182108 -0.640412
v -0.423295 0.311958 -0.603705
v -0.308524 0.467220 -0.566477
v -0.298108 0.463928 -0.575130
v -0.408130 0.301401 -0.619354
v -0.572948 0.168983 -0.658712
v -0.596698 0.192524 -0.630767
v -0.435018 0.339272 -0.594469
v -0.319926 0.476976 -0.560855
v -0.298378 0.469425 -0.579923
v -0.404670 0.304508 -0.627615
v -0.570798 0.164871 -0.674933
v -0.597839 0.202394 -0.639102
v -0.441623 0.355158 -0.595940
v -0.327041 0.488472 -0.561969
v -0.306340 0.480312 -0.579832
v -0.413085 0.317232 -0.624671
v -0.577776 0.172874 -0.679401
v -0.588528 0.203278 -0.658185
v -0.434470 0.357841 -0.610095
v -0.325069 0.494358 -0.568431
v -0.315046 0.490376 -0.576159
v -0.423258 0.342745 -0.618319
v -0.584257 0.188025 -0.672830
v -0.239171 0.523052 -0.550677
v -0.237716 0.528448 -0.554008
v -0.243339 0.539684 -0.553294
v -0.252246 0.549921 -0.549857
v -0.247127 0.526611 -0.545170
v -0.256246 0.536865 -0.541167
v -0.262889 0.548172 -0.540838
v -0.261416 0.553646 -0.544566
vt 0.112439 0.333997
vt 0.001771 0.333997
vt 0.001771 0.223329
vt 0.112439 0.223329
vt 0.887118 0.333997
vt 0.776450 0.333997
vt 0.776450 0.223329
vt 0.887118 0.223329
vt 0.665781 0.333997
vt 0.665781 0.223329
vt 0.555113 0.333997
vt 0.555113 0.223329
vt 0.444445 0.333997
vt 0.444445 0.223329
vt 0.333776 0.333997
vt 0.333776 0.223329
vt 0.223108 0.333997
vt 0.223108 0.223329
vt 0.112439 0.555334
vt 0.001771 0.555334
vt 0.001771 0.444666
vt 0.112439 0.444666
vt 0.887118 0.555334
vt 0.776450 0.555334
vt 0.776450 0.444666
vt 0.887118 0.444666
vt 0.223108 0.555334
vt 0.223108 0.444666
vt 0.665781 0.555334
vt 0.665781 0.444666
vt 0.333776 0.555334
vt 0.333776 0.444666
vt 0.555113 0.555334
vt 0.555113 0.444666
vt 0.444445 0.555334
vt 0.444445 0.444666
vt 0.001771 0.112660
vt 0.112439 0.112660
vt 0.776450 0.112660
vt 0.887118 0.112660
vt 0.223108 0.112660
vt 0.665781 0.112660
vt 0.333776 0.112660
vt 0.555113 0.112660
vt 0.444445 0.112660
vt 0.001771 0.001992
vt 0.112439 0.001992
vt 0.776450 0.001992
vt 0.887118 0.001992
vt 0.223108 0.001992
vt 0.665781 0.001992
vt 0.333776 0.001992
vt 0.555113 0.001992
vt 0.444445 0.001992
vt 0.112439 0.666003
vt 0.001771 0.666003
vt 0.112439 0.776671
vt 0.001771 0.776671
vt 0.001771 0.887340
vt 0.112439 0.887340
vt 0.112439 0.998008
vt 0.001771 0.998008
vt 0.887118 0.666003
vt 0.776450 0.666003
vt 0.887118 0.776671
vt 0.776450 0.776671
vt 0.776450 0.887340
vt 0.887118 0.887340
vt 0.887118 0.998008
vt 0.776450 0.998008
vt 0.223108 0.887340
vt 0.223108 0.998008
vt 0.223108 0.666003
vt 0.223108 0.776671
vt 0.665781 0.666003
vt 0.665781 0.776671
vt 0.665781 0.887340
vt 0.665781 0.998008
vt 0.333776 0.887340
vt 0.333776 0.998008
vt 0.333776 0.666003
vt 0.333776 0.776671
vt 0.555113 0.666003
vt 0.555113 0.776671
vt 0.555113 0.887340
vt 0.555113 0.998008
vt 0.444445 0.887340
vt 0.444445 0.998008
vt 0.444445 0.666003
vt 0.444445 0.776671
vn 0.605347 -0.692432 0.392547
vn 0.483863 -0.671725 0.560947
vn 0.566767 -0.601406 0.563104
vn 0.703962 -0.591303 0.393444
vn -0.424606 -0.137929 0.894811
vn -0.492078 -0.190468 0.849460
vn -0.789648 0.607438 -0.086459
vn -0.831489 0.526991 -0.175800
vn -0.648198 0.656109 -0.386472
vn -0.712850 0.578554 -0.396385
vn -0.455202 0.651250 -0.607178
vn -0.553222 0.590757 -0.587326
vn 0.351511 0.207909 -0.912805
vn 0.456782 0.149464 -0.876932
vn 0.719569 -0.675291 0.161874
vn 0.808984 -0.557226 0.187202
vn 0.401875 -0.784526 0.472246
vn 0.246326 -0.611645 0.751807
vn 0.316778 -0.714249 0.624099
vn 0.426589 -0.801963 0.418184
vn -0.114840 -0.163891 0.979771
vn -0.293025 -0.020635 0.955882
vn 0.571382 -0.759364 -0.311270
vn 0.591146 -0.806560 -0.002911
vn -0.616626 0.753965 0.226513
vn -0.637355 0.768889 0.050879
vn 0.170370 0.202251 -0.964401
vn 0.258283 0.230084 -0.938271
vn -0.428963 0.744295 -0.511874
vn -0.489707 0.788798 -0.371463
vn -0.121792 0.549760 -0.826396
vn -0.273256 0.692561 -0.667601
vn 0.509600 -0.647678 0.566410
vn 0.667188 -0.650491 0.362934
vn -0.529547 -0.022519 0.847982
vn 0.775969 -0.615816 0.136544
vn -0.751401 0.638301 -0.167238
vn 0.524114 -0.045454 -0.850434
vn -0.664873 0.651010 -0.366238
vn -0.536092 0.617155 -0.575956
vn 0.342273 -0.663727 0.665068
vn 0.550877 -0.747898 0.370382
vn -0.667634 0.373751 0.643875
vn 0.652240 -0.746869 0.129493
vn -0.686636 0.724838 -0.056046
vn 0.427600 -0.103087 -0.898071
vn -0.601195 0.746632 -0.284788
vn -0.512268 0.722878 -0.463712
vn 0.518882 -0.670356 0.530457
vn 0.259874 -0.481899 0.836803
vn 0.631191 -0.603102 0.487714
vn 0.251682 -0.427975 0.868040
vn 0.105647 -0.509571 0.853918
vn 0.580437 -0.741597 0.336343
vn 0.603913 -0.729147 0.321922
vn -0.048867 -0.518067 0.853943
vn -0.065620 -0.179016 0.981656
vn -0.054520 -0.210519 0.976068
vn -0.157821 -0.277326 0.947725
vn -0.291801 -0.297887 0.908909
vn 0.496572 0.001634 -0.867994
vn 0.569146 0.110527 -0.814774
vn 0.582138 -0.307980 -0.752505
vn 0.385612 -0.001789 -0.922659
vn -0.697156 0.558823 0.449101
vn -0.642632 0.369717 0.671069
vn -0.508117 0.131796 0.851145
vn -0.604463 0.122272 0.787194
vn 0.232606 0.307604 -0.922645
vn 0.330687 0.351070 -0.876011
vn 0.080502 0.241245 -0.967120
vn 0.065280 0.255166 -0.964691
vn -0.483975 0.632468 -0.604775
vn -0.497586 0.628036 -0.598314
vn -0.478374 0.745824 -0.463578
vn -0.320454 0.753140 -0.574534
vn -0.004398 0.503248 -0.864131
vn 0.105007 0.522683 -0.846036
vn -0.103922 0.386738 -0.916316
vn -0.118746 0.400378 -0.908623
s 1
g Scalenus_Posterior_Muscle_01_Right_Mesh group1
usemtl Scalenus_Posterior_Muscle_01_Right_phong1SG
f 34/1/1 33/2/2 3/3/3 1/4/4
f 33/5/2 35/6/5 5/7/6 3/8/3
f 35/6/5 36/9/7 7/10/8 5/7/6
f 36/9/7 37/11/9 9/12/10 7/10/8
f 37/11/9 38/13/11 11/14/12 9/12/10
f 38/13/11 39/15/13 13/16/14 11/14/12
f 39/15/13 40/17/15 15/18/16 13/16/14
f 40/17/15 34/1/1 1/4/4 15/18/16
f 54/19/17 49/20/18 4/21/19 2/22/20
f 49/23/18 55/24/21 6/25/22 4/26/19
f 60/27/23 54/19/17 2/22/20 16/28/24
f 55/24/21 61/29/25 8/30/26 6/25/22
f 66/31/27 60/27/23 16/28/24 14/32/28
f 61/29/25 67/33/29 10/34/30 8/30/26
f 72/35/31 66/31/27 14/32/28 12/36/32
f 67/33/29 72/35/31 12/36/32 10/34/30
f 42/37/33 41/38/34 1/4/4 3/3/3
f 43/39/35 42/40/33 3/8/3 5/7/6
f 41/38/34 44/41/36 15/18/16 1/4/4
f 45/42/37 43/39/35 5/7/6 7/10/8
f 44/41/36 46/43/38 13/16/14 15/18/16
f 47/44/39 45/42/37 7/10/8 9/12/10
f 46/43/38 48/45/40 11/14/12 13/16/14
f 48/45/40 47/44/39 9/12/10 11/14/12
f 33/2/2 34/1/1 2/22/20 4/21/19
f 35/6/5 33/5/2 4/26/19 6/25/22
f 36/9/7 35/6/5 6/25/22 8/30/26
f 37/11/9 36/9/7 8/30/26 10/34/30
f 38/13/11 37/11/9 10/34/30 12/36/32
f 39/15/13 38/13/11 12/36/32 14/32/28
f 40/17/15 39/15/13 14/32/28 16/28/24
f 34/1/1 40/17/15 16/28/24 2/22/20
f 41/38/34 42/37/33 26/46/41 25/47/42
f 42/40/33 43/39/35 27/48/43 26/49/41
f 44/41/36 41/38/34 25/47/42 28/50/44
f 43/39/35 45/42/37 29/51/45 27/48/43
f 46/43/38 44/41/36 28/50/44 30/52/46
f 45/42/37 47/44/39 31/53/47 29/51/45
f 48/45/40 46/43/38 30/52/46 32/54/48
f 47/44/39 48/45/40 32/54/48 31/53/47
f 49/20/18 54/19/17 53/55/49 50/56/50
f 50/56/50 53/55/49 52/57/51 51/58/52
f 77/59/53 73/60/54 18/61/55 17/62/56
f 55/24/21 49/23/18 50/63/50 56/64/57
f 56/64/57 50/63/50 51/65/52 57/66/58
f 78/67/59 77/68/53 17/69/56 19/70/60
f 73/60/54 74/71/61 20/72/62 18/61/55
f 53/55/49 59/73/63 58/74/64 52/57/51
f 54/19/17 60/27/23 59/73/63 53/55/49
f 61/29/25 55/24/21 56/64/57 62/75/65
f 62/75/65 56/64/57 57/66/58 63/76/66
f 79/77/67 78/67/59 19/70/60 21/78/68
f 74/71/61 75/79/69 22/80/70 20/72/62
f 59/73/63 65/81/71 64/82/72 58/74/64
f 60/27/23 66/31/27 65/81/71 59/73/63
f 67/33/29 61/29/25 62/75/65 68/83/73
f 68/83/73 62/75/65 63/76/66 69/84/74
f 80/85/75 79/77/67 21/78/68 23/86/76
f 75/79/69 76/87/77 24/88/78 22/80/70
f 65/81/71 71/89/79 70/90/80 64/82/72
f 66/31/27 72/35/31 71/89/79 65/81/71
f 72/35/31 67/33/29 68/83/73 71/89/79
f 71/89/79 68/83/73 69/84/74 70/90/80
f 76/87/77 80/85/75 23/86/76 24/88/78
f 73/60/54 77/59/53 51/58/52 52/57/51
f 77/68/53 78/67/59 57/66/58 51/65/52
f 74/71/61 73/60/54 52/57/51 58/74/64
f 78/67/59 79/77/67 63/76/66 57/66/58
f 75/79/69 74/71/61 58/74/64 64/82/72
f 79/77/67 80/85/75 69/84/74 63/76/66
f 76/87/77 75/79/69 64/82/72 70/90/80
f 80/85/75 76/87/77 70/90/80 69/84/74
