# This file uses centimeters as units for non-parametric coordinates.

mtllib Scalene_Muscle_Left_03.mtl
g default
v 0.713189 -0.078506 -0.578767
v 0.250717 0.810503 -0.271555
v 0.771174 -0.076630 -0.561064
v 0.267166 0.802626 -0.230278
v 0.802758 -0.068434 -0.556455
v 0.285329 0.807533 -0.218659
v 0.791602 -0.052036 -0.571508
v 0.313010 0.830538 -0.233583
v 0.744529 -0.039499 -0.595756
v 0.320389 0.850395 -0.276499
v 0.683575 -0.036886 -0.616954
v 0.302152 0.851431 -0.311991
v 0.648422 -0.048990 -0.619828
v 0.267984 0.833220 -0.320172
v 0.658772 -0.066828 -0.603996
v 0.242172 0.817598 -0.309449
v 0.341314 1.273937 -0.208386
v 0.354382 1.265656 -0.226859
v 0.338719 1.276291 -0.200682
v 0.366789 1.257193 -0.242783
v 0.345567 1.273813 -0.200187
v 0.371418 1.254604 -0.241377
v 0.360033 1.265215 -0.214323
v 0.370994 1.257263 -0.231500
v 0.588616 0.262018 -0.345199
v 0.543859 0.253920 -0.404955
v 0.616168 0.270916 -0.320800
v 0.624032 0.289257 -0.340264
v 0.602282 0.296799 -0.399092
v 0.553121 0.294237 -0.463118
v 0.513534 0.277735 -0.489484
v 0.502402 0.260988 -0.471430
v 0.241361 1.052334 -0.202475
v 0.250742 1.071690 -0.232085
v 0.245125 1.041464 -0.193834
v 0.264772 1.086075 -0.260873
v 0.264033 1.035273 -0.201874
v 0.277892 1.078772 -0.266674
v 0.281807 1.046219 -0.230240
v 0.288057 1.064047 -0.257157
v 0.722821 0.062439 -0.423705
v 0.365944 0.512081 -0.316380
v 0.745932 0.062193 -0.399626
v 0.748266 0.074703 -0.430162
v 0.722732 0.089073 -0.499750
v 0.679318 0.097500 -0.552174
v 0.649516 0.094435 -0.568617
v 0.643330 0.083288 -0.545291
v 0.408522 0.514496 -0.266531
v 0.686031 0.071207 -0.491605
v 0.449460 0.516411 -0.250479
v 0.493081 0.521784 -0.273622
v 0.485388 0.522686 -0.329987
v 0.436429 0.522938 -0.378106
v 0.380502 0.518618 -0.388447
v 0.346501 0.515371 -0.370202
vt 0.126494 0.125996
vt 0.001992 0.125996
vt 0.001992 0.001494
vt 0.126494 0.001494
vt 0.998008 0.125996
vt 0.873506 0.125996
vt 0.873506 0.001494
vt 0.998008 0.001494
vt 0.749004 0.125996
vt 0.749004 0.001494
vt 0.624502 0.125996
vt 0.624502 0.001494
vt 0.500000 0.125996
vt 0.500000 0.001494
vt 0.375498 0.125996
vt 0.375498 0.001494
vt 0.250996 0.125996
vt 0.250996 0.001494
vt 0.126494 0.624004
vt 0.001992 0.624004
vt 0.001992 0.499502
vt 0.126494 0.499502
vt 0.998008 0.624004
vt 0.873506 0.624004
vt 0.873506 0.499502
vt 0.998008 0.499502
vt 0.250996 0.624004
vt 0.250996 0.499502
vt 0.749004 0.624004
vt 0.749004 0.499502
vt 0.375498 0.624004
vt 0.375498 0.499502
vt 0.624502 0.624004
vt 0.624502 0.499502
vt 0.500000 0.624004
vt 0.500000 0.499502
vt 0.001992 0.375000
vt 0.126494 0.375000
vt 0.873506 0.375000
vt 0.998008 0.375000
vt 0.749004 0.375000
vt 0.624502 0.375000
vt 0.500000 0.375000
vt 0.375498 0.375000
vt 0.250996 0.375000
vt 0.126494 0.748506
vt 0.001992 0.748506
vt 0.998008 0.748506
vt 0.873506 0.748506
vt 0.250996 0.748506
vt 0.749004 0.748506
vt 0.375498 0.748506
vt 0.624502 0.748506
vt 0.500000 0.748506
vt 0.126494 0.250498
vt 0.001992 0.250498
vt 0.998008 0.250498
vt 0.873506 0.250498
vt 0.749004 0.250498
vt 0.624502 0.250498
vt 0.500000 0.250498
vt 0.375498 0.250498
vt 0.250996 0.250498
vn -0.633723 -0.606849 0.479718
vn -0.599089 -0.510892 0.616508
vn -0.449303 -0.661926 0.599985
vn -0.535203 -0.650837 0.538488
vn 0.565826 -0.498239 0.656962
vn 0.369580 -0.336915 0.865967
vn 0.830340 0.494587 -0.256746
vn 0.860579 0.501545 -0.088638
vn 0.646072 0.527672 -0.551501
vn 0.708363 0.573409 -0.411612
vn 0.408614 0.449624 -0.794275
vn 0.520151 0.560845 -0.644124
vn -0.757856 0.216986 -0.615282
vn -0.161958 0.347583 -0.923556
vn -0.734523 -0.363924 0.572744
vn -0.778688 -0.555203 0.292225
vn -0.973354 0.181039 -0.140738
vn -0.937617 -0.256906 0.234251
vn -0.780424 -0.312009 0.541839
vn -0.991651 0.079315 0.101673
vn 0.054507 -0.066315 0.996309
vn -0.184868 -0.076092 0.979813
vn -0.829495 0.269487 -0.489198
vn -0.925703 -0.121424 -0.358232
vn 0.787385 0.281972 0.548194
vn 0.693242 -0.029044 0.720119
vn 0.013278 0.128484 -0.991623
vn -0.105351 0.191412 -0.975839
vn 0.911609 0.381393 -0.153322
vn 0.957473 -0.046341 0.284778
vn 0.907907 -0.026686 -0.418322
vn 0.559746 0.336193 -0.757402
vn -0.585425 -0.489619 0.646182
vn -0.754476 -0.514203 0.407875
vn 0.072301 -0.158923 0.984640
vn 0.832685 0.393362 0.389746
vn 0.797766 0.505431 -0.328800
vn 0.485162 0.448147 -0.750854
vn -0.131793 0.211018 -0.968557
vn -0.895618 -0.425507 -0.129660
vn -0.894257 0.422727 -0.146991
vn -0.826491 0.442079 -0.348538
vn -0.189426 0.105239 0.976239
vn -0.661923 0.430152 -0.613863
vn 0.604227 -0.223015 0.764967
vn 0.483734 -0.112132 -0.868002
vn 0.827251 -0.327393 0.456585
vn 0.923130 -0.379414 0.062260
vn -0.564891 -0.596546 0.570115
vn -0.660111 -0.628060 0.412060
vn 0.131436 -0.256090 0.957676
vn 0.871666 0.474488 0.122718
vn 0.740943 0.560956 -0.369231
vn 0.503459 0.555410 -0.661852
vn -0.131586 0.293788 -0.946770
vn -0.808957 -0.584745 0.060519
s 1
g Scalene_Muscle_Left_03_Mesh group1
usemtl Scalene_Muscle_Left5_phong1SG
f 50/1/1 1/4/2 3/3/3 41/2/4
f 41/5/4 3/8/3 5/7/5 43/6/6
f 43/6/6 5/7/5 7/10/7 44/9/8
f 44/9/8 7/10/7 9/12/9 45/11/10
f 45/11/10 9/12/9 11/14/11 46/13/12
f 46/13/12 11/14/11 13/16/13 47/15/14
f 47/15/14 13/16/13 15/18/15 48/17/16
f 48/17/16 15/18/15 1/4/2 50/1/1
f 34/19/17 2/22/18 4/21/19 33/20/20
f 33/23/20 4/26/19 6/25/21 35/24/22
f 36/27/23 16/28/24 2/22/18 34/19/17
f 35/24/22 6/25/21 8/30/25 37/29/26
f 38/31/27 14/32/28 16/28/24 36/27/23
f 37/29/26 8/30/25 10/34/29 39/33/30
f 40/35/31 12/36/32 14/32/28 38/31/27
f 39/33/30 10/34/29 12/36/32 40/35/31
f 49/37/33 4/21/19 2/22/18 42/38/34
f 51/39/35 6/25/21 4/26/19 49/40/33
f 52/41/36 8/30/25 6/25/21 51/39/35
f 53/42/37 10/34/29 8/30/25 52/41/36
f 54/43/38 12/36/32 10/34/29 53/42/37
f 55/44/39 14/32/28 12/36/32 54/43/38
f 56/45/40 16/28/24 14/32/28 55/44/39
f 42/38/34 2/22/18 16/28/24 56/45/40
f 33/20/20 17/47/41 18/46/42 34/19/17
f 35/24/22 19/49/43 17/48/41 33/23/20
f 34/19/17 18/46/42 20/50/44 36/27/23
f 37/29/26 21/51/45 19/49/43 35/24/22
f 36/27/23 20/50/44 22/52/46 38/31/27
f 39/33/30 23/53/47 21/51/45 37/29/26
f 38/31/27 22/52/46 24/54/48 40/35/31
f 40/35/31 24/54/48 23/53/47 39/33/30
f 41/2/4 25/56/49 26/55/50 50/1/1
f 43/6/6 27/58/51 25/57/49 41/5/4
f 44/9/8 28/59/52 27/58/51 43/6/6
f 45/11/10 29/60/53 28/59/52 44/9/8
f 46/13/12 30/61/54 29/60/53 45/11/10
f 47/15/14 31/62/55 30/61/54 46/13/12
f 48/17/16 32/63/56 31/62/55 47/15/14
f 50/1/1 26/55/50 32/63/56 48/17/16
f 42/38/34 26/55/50 25/56/49 49/37/33
f 49/40/33 25/57/49 27/58/51 51/39/35
f 51/39/35 27/58/51 28/59/52 52/41/36
f 52/41/36 28/59/52 29/60/53 53/42/37
f 53/42/37 29/60/53 30/61/54 54/43/38
f 54/43/38 30/61/54 31/62/55 55/44/39
f 55/44/39 31/62/55 32/63/56 56/45/40
f 56/45/40 32/63/56 26/55/50 42/38/34
