# This file uses centimeters as units for non-parametric coordinates.

mtllib Scalene_Muscle_Left_02.mtl
g default
v 0.689796 -0.093546 -0.574794
v 0.211845 0.714249 -0.342191
v 0.737518 -0.091806 -0.560360
v 0.232881 0.705914 -0.311838
v 0.763506 -0.084997 -0.556614
v 0.249108 0.707798 -0.301947
v 0.754102 -0.071787 -0.568880
v 0.267696 0.722763 -0.310928
v 0.715145 -0.061880 -0.588639
v 0.262720 0.737984 -0.341053
v 0.665064 -0.059959 -0.605938
v 0.240993 0.741629 -0.367226
v 0.636309 -0.069744 -0.608323
v 0.215564 0.730997 -0.374958
v 0.645031 -0.084162 -0.595394
v 0.198333 0.721762 -0.368726
v 0.196915 1.111700 -0.258461
v 0.188424 1.110836 -0.274822
v 0.202187 1.112061 -0.253792
v 0.183130 1.109455 -0.290009
v 0.205473 1.112272 -0.259112
v 0.185689 1.108845 -0.293689
v 0.200071 1.111313 -0.275506
v 0.191679 1.109940 -0.289892
v 0.551739 0.192019 -0.406785
v 0.518580 0.189960 -0.446004
v 0.572943 0.197250 -0.388044
v 0.578793 0.211662 -0.402537
v 0.562710 0.219885 -0.443269
v 0.526688 0.222569 -0.485094
v 0.497785 0.212109 -0.504431
v 0.490030 0.199541 -0.490434
v 0.253039 0.946764 -0.255635
v 0.244814 0.959490 -0.282110
v 0.257884 0.937727 -0.248933
v 0.232935 0.966797 -0.309216
v 0.269438 0.929209 -0.257786
v 0.243831 0.958767 -0.316011
v 0.272801 0.934000 -0.283852
v 0.261715 0.946121 -0.308397
v 0.684043 0.023001 -0.464805
v 0.343170 0.451578 -0.377274
v 0.703836 0.022522 -0.446017
v 0.705321 0.032566 -0.469654
v 0.677926 0.044331 -0.517220
v 0.637442 0.052597 -0.554081
v 0.611234 0.051065 -0.567431
v 0.608741 0.042185 -0.548210
v 0.372181 0.449636 -0.344520
v 0.645606 0.030113 -0.509707
v 0.400174 0.444538 -0.332288
v 0.425134 0.440737 -0.348325
v 0.420275 0.438576 -0.385798
v 0.391072 0.441992 -0.415880
v 0.350544 0.446808 -0.423182
v 0.326480 0.451290 -0.411441
vt 0.624502 0.125996
vt 0.500000 0.125996
vt 0.500000 0.001494
vt 0.624502 0.001494
vt 0.375498 0.125996
vt 0.375498 0.001494
vt 0.250996 0.125996
vt 0.250996 0.001494
vt 0.126494 0.125996
vt 0.126494 0.001494
vt 0.001992 0.125996
vt 0.001992 0.001494
vt 0.998008 0.125996
vt 0.873506 0.125996
vt 0.873506 0.001494
vt 0.998008 0.001494
vt 0.749004 0.125996
vt 0.749004 0.001494
vt 0.624502 0.624004
vt 0.500000 0.624004
vt 0.500000 0.499502
vt 0.624502 0.499502
vt 0.375498 0.624004
vt 0.375498 0.499502
vt 0.749004 0.624004
vt 0.749004 0.499502
vt 0.250996 0.624004
vt 0.250996 0.499502
vt 0.873506 0.624004
vt 0.873506 0.499502
vt 0.126494 0.624004
vt 0.126494 0.499502
vt 0.998008 0.624004
vt 0.998008 0.499502
vt 0.001992 0.624004
vt 0.001992 0.499502
vt 0.500000 0.375000
vt 0.624502 0.375000
vt 0.375498 0.375000
vt 0.250996 0.375000
vt 0.126494 0.375000
vt 0.001992 0.375000
vt 0.873506 0.375000
vt 0.998008 0.375000
vt 0.749004 0.375000
vt 0.624502 0.748506
vt 0.500000 0.748506
vt 0.375498 0.748506
vt 0.749004 0.748506
vt 0.250996 0.748506
vt 0.873506 0.748506
vt 0.126494 0.748506
vt 0.998008 0.748506
vt 0.001992 0.748506
vt 0.624502 0.250498
vt 0.500000 0.250498
vt 0.375498 0.250498
vt 0.250996 0.250498
vt 0.126494 0.250498
vt 0.001992 0.250498
vt 0.998008 0.250498
vt 0.873506 0.250498
vt 0.749004 0.250498
vn -0.592074 -0.615209 0.520545
vn -0.524536 -0.563056 0.638616
vn -0.383076 -0.661538 0.644686
vn -0.488842 -0.646295 0.585949
vn 0.507746 -0.433121 0.744715
vn 0.340012 -0.279508 0.897924
vn 0.783940 0.563898 -0.259727
vn 0.813049 0.573442 -0.100574
vn 0.578724 0.589601 -0.563426
vn 0.655873 0.609684 -0.445103
vn 0.377499 0.494805 -0.782727
vn 0.488371 0.566681 -0.663601
vn -0.671493 0.120952 -0.731073
vn -0.176361 0.295509 -0.938920
vn -0.685344 -0.461140 0.563607
vn -0.763776 -0.579027 0.285260
vn -0.911855 -0.111309 0.395134
vn -0.857858 -0.260366 0.443046
vn -0.746225 -0.294255 0.597128
vn -0.869214 -0.108610 0.482360
vn -0.037389 -0.132761 0.990443
vn -0.025306 -0.081369 0.996363
vn -0.992505 -0.063531 0.104394
vn -0.977508 -0.174351 -0.118657
vn 0.894273 0.249718 0.371372
vn 0.935603 0.016902 0.352648
vn 0.041038 0.279399 -0.959298
vn -0.062775 0.187342 -0.980287
vn 0.876757 0.320209 -0.358837
vn 0.956970 0.153528 -0.246246
vn 0.708892 0.240831 -0.662927
vn 0.519269 0.291906 -0.803213
vn -0.599484 -0.489946 0.632908
vn -0.727596 -0.522043 0.445056
vn -0.006288 -0.192778 0.981222
vn 0.842215 0.464703 0.273360
vn 0.768437 0.537767 -0.346859
vn 0.504507 0.464275 -0.727957
vn -0.075712 0.174961 -0.981660
vn -0.868617 -0.490475 -0.070273
vn -0.894149 -0.314355 0.318872
vn -0.896571 -0.337174 0.287184
vn 0.074196 0.047521 0.996111
vn -0.927309 -0.342573 0.150803
vn 0.919974 0.342004 0.191523
vn 0.035406 0.161690 -0.986206
vn 0.910386 0.375882 -0.172944
vn 0.775877 0.377242 -0.505672
vn -0.568557 -0.584069 0.579315
vn -0.657868 -0.610681 0.440771
vn 0.062942 -0.234047 0.970186
vn 0.828443 0.552257 0.093240
vn 0.712758 0.597758 -0.366962
vn 0.511608 0.558139 -0.653253
vn -0.084166 0.272408 -0.958494
vn -0.805869 -0.585182 0.090204
s 1
g Scalene_Muscle_Left_02_Mesh group1
usemtl Scalene_Muscle_Left4_phong1SG
f 50/1/1 1/4/2 3/3/3 41/2/4
f 41/2/4 3/3/3 5/6/5 43/5/6
f 43/5/6 5/6/5 7/8/7 44/7/8
f 44/7/8 7/8/7 9/10/9 45/9/10
f 45/9/10 9/10/9 11/12/11 46/11/12
f 46/13/12 11/16/11 13/15/13 47/14/14
f 47/14/14 13/15/13 15/18/15 48/17/16
f 48/17/16 15/18/15 1/4/2 50/1/1
f 34/19/17 2/22/18 4/21/19 33/20/20
f 33/20/20 4/21/19 6/24/21 35/23/22
f 36/25/23 16/26/24 2/22/18 34/19/17
f 35/23/22 6/24/21 8/28/25 37/27/26
f 38/29/27 14/30/28 16/26/24 36/25/23
f 37/27/26 8/28/25 10/32/29 39/31/30
f 40/33/31 12/34/32 14/30/28 38/29/27
f 39/31/30 10/32/29 12/36/32 40/35/31
f 49/37/33 4/21/19 2/22/18 42/38/34
f 51/39/35 6/24/21 4/21/19 49/37/33
f 52/40/36 8/28/25 6/24/21 51/39/35
f 53/41/37 10/32/29 8/28/25 52/40/36
f 54/42/38 12/36/32 10/32/29 53/41/37
f 55/43/39 14/30/28 12/34/32 54/44/38
f 56/45/40 16/26/24 14/30/28 55/43/39
f 42/38/34 2/22/18 16/26/24 56/45/40
f 33/20/20 17/47/41 18/46/42 34/19/17
f 35/23/22 19/48/43 17/47/41 33/20/20
f 34/19/17 18/46/42 20/49/44 36/25/23
f 37/27/26 21/50/45 19/48/43 35/23/22
f 36/25/23 20/49/44 22/51/46 38/29/27
f 39/31/30 23/52/47 21/50/45 37/27/26
f 38/29/27 22/51/46 24/53/48 40/33/31
f 40/35/31 24/54/48 23/52/47 39/31/30
f 41/2/4 25/56/49 26/55/50 50/1/1
f 43/5/6 27/57/51 25/56/49 41/2/4
f 44/7/8 28/58/52 27/57/51 43/5/6
f 45/9/10 29/59/53 28/58/52 44/7/8
f 46/11/12 30/60/54 29/59/53 45/9/10
f 47/14/14 31/62/55 30/61/54 46/13/12
f 48/17/16 32/63/56 31/62/55 47/14/14
f 50/1/1 26/55/50 32/63/56 48/17/16
f 42/38/34 26/55/50 25/56/49 49/37/33
f 49/37/33 25/56/49 27/57/51 51/39/35
f 51/39/35 27/57/51 28/58/52 52/40/36
f 52/40/36 28/58/52 29/59/53 53/41/37
f 53/41/37 29/59/53 30/60/54 54/42/38
f 54/44/38 30/61/54 31/62/55 55/43/39
f 55/43/39 31/62/55 32/63/56 56/45/40
f 56/45/40 32/63/56 26/55/50 42/38/34
