# This file uses centimeters as units for non-parametric coordinates.

mtllib Scalene_Muscle_Right_02.mtl
g default
v -0.689796 -0.093546 -0.574794
v -0.211845 0.714249 -0.342191
v -0.737518 -0.091806 -0.560360
v -0.232881 0.705914 -0.311838
v -0.763506 -0.084997 -0.556614
v -0.249108 0.707798 -0.301947
v -0.754102 -0.071787 -0.568880
v -0.267696 0.722763 -0.310928
v -0.715145 -0.061880 -0.588639
v -0.262720 0.737984 -0.341053
v -0.665064 -0.059959 -0.605938
v -0.240993 0.741629 -0.367226
v -0.636309 -0.069744 -0.608323
v -0.215564 0.730997 -0.374958
v -0.645031 -0.084162 -0.595394
v -0.198333 0.721762 -0.368726
v -0.196915 1.111700 -0.258461
v -0.188424 1.110836 -0.274822
v -0.202187 1.112061 -0.253792
v -0.183130 1.109455 -0.290009
v -0.205473 1.112272 -0.259112
v -0.185689 1.108845 -0.293689
v -0.200071 1.111313 -0.275506
v -0.191679 1.109940 -0.289892
v -0.551739 0.192019 -0.406785
v -0.518580 0.189960 -0.446004
v -0.572943 0.197250 -0.388044
v -0.578793 0.211662 -0.402537
v -0.562710 0.219885 -0.443269
v -0.526688 0.222569 -0.485094
v -0.497785 0.212109 -0.504431
v -0.490030 0.199541 -0.490434
v -0.253039 0.946764 -0.255635
v -0.244814 0.959490 -0.282110
v -0.257884 0.937727 -0.248933
v -0.232935 0.966797 -0.309216
v -0.269438 0.929209 -0.257786
v -0.243831 0.958767 -0.316011
v -0.272801 0.934000 -0.283852
v -0.261715 0.946121 -0.308397
v -0.684043 0.023001 -0.464805
v -0.343170 0.451578 -0.377274
v -0.703836 0.022522 -0.446017
v -0.705321 0.032566 -0.469654
v -0.677926 0.044331 -0.517220
v -0.637442 0.052597 -0.554081
v -0.611234 0.051065 -0.567431
v -0.608741 0.042185 -0.548210
v -0.372181 0.449636 -0.344520
v -0.645606 0.030113 -0.509707
v -0.400174 0.444538 -0.332288
v -0.425134 0.440737 -0.348325
v -0.420275 0.438576 -0.385798
v -0.391072 0.441992 -0.415880
v -0.350544 0.446808 -0.423182
v -0.326480 0.451290 -0.411441
vt 0.624502 0.125996
vt 0.500000 0.125996
vt 0.500000 0.001494
vt 0.624502 0.001494
vt 0.375498 0.125996
vt 0.375498 0.001494
vt 0.250996 0.125996
vt 0.250996 0.001494
vt 0.126494 0.125996
vt 0.126494 0.001494
vt 0.001992 0.125996
vt 0.001992 0.001494
vt 0.998008 0.125996
vt 0.873506 0.125996
vt 0.873506 0.001494
vt 0.998008 0.001494
vt 0.749004 0.125996
vt 0.749004 0.001494
vt 0.624502 0.624004
vt 0.500000 0.624004
vt 0.500000 0.499502
vt 0.624502 0.499502
vt 0.375498 0.624004
vt 0.375498 0.499502
vt 0.749004 0.624004
vt 0.749004 0.499502
vt 0.250996 0.624004
vt 0.250996 0.499502
vt 0.873506 0.624004
vt 0.873506 0.499502
vt 0.126494 0.624004
vt 0.126494 0.499502
vt 0.998008 0.624004
vt 0.998008 0.499502
vt 0.001992 0.624004
vt 0.001992 0.499502
vt 0.500000 0.375000
vt 0.624502 0.375000
vt 0.375498 0.375000
vt 0.250996 0.375000
vt 0.126494 0.375000
vt 0.001992 0.375000
vt 0.873506 0.375000
vt 0.998008 0.375000
vt 0.749004 0.375000
vt 0.624502 0.748506
vt 0.500000 0.748506
vt 0.375498 0.748506
vt 0.749004 0.748506
vt 0.250996 0.748506
vt 0.873506 0.748506
vt 0.126494 0.748506
vt 0.998008 0.748506
vt 0.001992 0.748506
vt 0.624502 0.250498
vt 0.500000 0.250498
vt 0.375498 0.250498
vt 0.250996 0.250498
vt 0.126494 0.250498
vt 0.001992 0.250498
vt 0.998008 0.250498
vt 0.873506 0.250498
vt 0.749004 0.250498
vn 0.592073 -0.615207 0.520548
vn 0.488838 -0.646290 0.585958
vn 0.383076 -0.661537 0.644688
vn 0.524536 -0.563056 0.638615
vn -0.340020 -0.279489 0.897927
vn -0.507751 -0.433116 0.744714
vn -0.813049 0.573442 -0.100577
vn -0.783938 0.563897 -0.259732
vn -0.655873 0.609684 -0.445103
vn -0.578723 0.589601 -0.563428
vn -0.488374 0.566684 -0.663597
vn -0.377500 0.494806 -0.782727
vn 0.176357 0.295516 -0.938919
vn 0.671497 0.120950 -0.731070
vn 0.763776 -0.579027 0.285261
vn 0.685344 -0.461140 0.563607
vn 0.911856 -0.111310 0.395131
vn 0.869213 -0.108610 0.482363
vn 0.746220 -0.294252 0.597137
vn 0.857857 -0.260365 0.443047
vn 0.025310 -0.081369 0.996363
vn 0.037382 -0.132758 0.990443
vn 0.992505 -0.063531 0.104391
vn 0.977508 -0.174350 -0.118662
vn -0.935602 0.016902 0.352651
vn -0.894272 0.249718 0.371374
vn -0.041034 0.279402 -0.959297
vn 0.062777 0.187345 -0.980286
vn -0.956971 0.153528 -0.246242
vn -0.876757 0.320208 -0.358836
vn -0.708896 0.240832 -0.662923
vn -0.519269 0.291907 -0.803213
vn 0.599480 -0.489944 0.632913
vn 0.727596 -0.522043 0.445056
vn 0.006278 -0.192771 0.981224
vn -0.842215 0.464703 0.273359
vn -0.768437 0.537767 -0.346859
vn -0.504507 0.464274 -0.727958
vn 0.075708 0.174963 -0.981660
vn 0.868617 -0.490475 -0.070281
vn 0.896573 -0.337175 0.287176
vn 0.894149 -0.314355 0.318872
vn -0.074188 0.047517 0.996112
vn 0.927310 -0.342573 0.150796
vn -0.919972 0.342004 0.191532
vn -0.035395 0.161690 -0.986207
vn -0.910388 0.375882 -0.172936
vn -0.775883 0.377245 -0.505659
vn 0.657869 -0.610681 0.440770
vn 0.568554 -0.584065 0.579323
vn -0.062952 -0.234031 0.970189
vn -0.828444 0.552257 0.093237
vn -0.712758 0.597758 -0.366962
vn -0.511609 0.558141 -0.653249
vn 0.084161 0.272410 -0.958494
vn 0.805869 -0.585183 0.090200
s 1
g Scalene_Muscle_Right_02_Mesh group1
usemtl Scalene_Muscle_Right1_phong1SG
f 50/1/1 41/2/2 3/3/3 1/4/4
f 41/2/2 43/5/5 5/6/6 3/3/3
f 43/5/5 44/7/7 7/8/8 5/6/6
f 44/7/7 45/9/9 9/10/10 7/8/8
f 45/9/9 46/11/11 11/12/12 9/10/10
f 46/13/11 47/14/13 13/15/14 11/16/12
f 47/14/13 48/17/15 15/18/16 13/15/14
f 48/17/15 50/1/1 1/4/4 15/18/16
f 34/19/17 33/20/18 4/21/19 2/22/20
f 33/20/18 35/23/21 6/24/22 4/21/19
f 36/25/23 34/19/17 2/22/20 16/26/24
f 35/23/21 37/27/25 8/28/26 6/24/22
f 38/29/27 36/25/23 16/26/24 14/30/28
f 37/27/25 39/31/29 10/32/30 8/28/26
f 40/33/31 38/29/27 14/30/28 12/34/32
f 39/31/29 40/35/31 12/36/32 10/32/30
f 49/37/33 42/38/34 2/22/20 4/21/19
f 51/39/35 49/37/33 4/21/19 6/24/22
f 52/40/36 51/39/35 6/24/22 8/28/26
f 53/41/37 52/40/36 8/28/26 10/32/30
f 54/42/38 53/41/37 10/32/30 12/36/32
f 55/43/39 54/44/38 12/34/32 14/30/28
f 56/45/40 55/43/39 14/30/28 16/26/24
f 42/38/34 56/45/40 16/26/24 2/22/20
f 33/20/18 34/19/17 18/46/41 17/47/42
f 35/23/21 33/20/18 17/47/42 19/48/43
f 34/19/17 36/25/23 20/49/44 18/46/41
f 37/27/25 35/23/21 19/48/43 21/50/45
f 36/25/23 38/29/27 22/51/46 20/49/44
f 39/31/29 37/27/25 21/50/45 23/52/47
f 38/29/27 40/33/31 24/53/48 22/51/46
f 40/35/31 39/31/29 23/52/47 24/54/48
f 41/2/2 50/1/1 26/55/49 25/56/50
f 43/5/5 41/2/2 25/56/50 27/57/51
f 44/7/7 43/5/5 27/57/51 28/58/52
f 45/9/9 44/7/7 28/58/52 29/59/53
f 46/11/11 45/9/9 29/59/53 30/60/54
f 47/14/13 46/13/11 30/61/54 31/62/55
f 48/17/15 47/14/13 31/62/55 32/63/56
f 50/1/1 48/17/15 32/63/56 26/55/49
f 42/38/34 49/37/33 25/56/50 26/55/49
f 49/37/33 51/39/35 27/57/51 25/56/50
f 51/39/35 52/40/36 28/58/52 27/57/51
f 52/40/36 53/41/37 29/59/53 28/58/52
f 53/41/37 54/42/38 30/60/54 29/59/53
f 54/44/38 55/43/39 31/62/55 30/61/54
f 55/43/39 56/45/40 32/63/56 31/62/55
f 56/45/40 42/38/34 26/55/49 32/63/56
