# This file uses centimeters as units for non-parametric coordinates.

mtllib Scalenus_Anterior_Muscle_Left_02.mtl
g default
v 0.753016 -0.157112 -0.467563
v 0.202855 0.582666 -0.491588
v 0.760631 -0.156830 -0.462975
v 0.209005 0.581673 -0.491423
v 0.773902 -0.151962 -0.461988
v 0.214315 0.576721 -0.497807
v 0.785063 -0.145397 -0.465144
v 0.218226 0.570549 -0.507003
v 0.787567 -0.140972 -0.470627
v 0.218339 0.566458 -0.512466
v 0.779938 -0.141241 -0.475260
v 0.210526 0.567589 -0.511316
v 0.766653 -0.146053 -0.476307
v 0.202800 0.572351 -0.504077
v 0.755506 -0.152632 -0.473106
v 0.200363 0.578363 -0.496222
v 0.434772 0.151474 -0.424296
v 0.428188 0.144693 -0.433178
v 0.457513 0.161503 -0.414738
v 0.483736 0.167150 -0.421204
v 0.487985 0.164820 -0.436092
v 0.469174 0.154627 -0.454627
v 0.441535 0.146261 -0.456024
v 0.429944 0.142563 -0.446253
v 0.633597 -0.010090 -0.432058
v 0.293569 0.363962 -0.468572
v 0.652798 -0.002827 -0.431040
v 0.664551 0.000774 -0.435448
v 0.664935 0.000574 -0.445532
v 0.650975 -0.005434 -0.455757
v 0.636344 -0.011139 -0.455121
v 0.627660 -0.014574 -0.448562
v 0.303237 0.365089 -0.456954
v 0.625082 -0.015030 -0.440327
v 0.320183 0.365841 -0.455255
v 0.332527 0.365473 -0.465693
v 0.332465 0.362892 -0.481541
v 0.319170 0.360741 -0.494888
v 0.302500 0.358343 -0.492160
v 0.293349 0.360617 -0.481553
v 0.703551 -0.090637 -0.441065
v 0.257525 0.490536 -0.492344
v 0.720330 -0.081837 -0.443157
v 0.728219 -0.075266 -0.448374
v 0.724900 -0.072927 -0.454671
v 0.712235 -0.077053 -0.459063
v 0.702435 -0.084497 -0.455205
v 0.694240 -0.091755 -0.449836
v 0.346458 0.270826 -0.430602
v 0.532080 0.061796 -0.432913
v 0.366966 0.274450 -0.426437
v 0.390730 0.271061 -0.435031
v 0.393722 0.267044 -0.448590
v 0.369151 0.259037 -0.469589
v 0.342981 0.254833 -0.470615
v 0.336153 0.258480 -0.457787
v 0.541135 0.067225 -0.424607
v 0.337552 0.264578 -0.443022
v 0.565698 0.074562 -0.421832
v 0.583541 0.080219 -0.431098
v 0.582677 0.078957 -0.443267
v 0.562565 0.069885 -0.453281
v 0.540531 0.062185 -0.453740
v 0.532192 0.059992 -0.444455
v 0.266227 0.489252 -0.487149
v 0.692586 -0.094696 -0.445102
v 0.278082 0.482605 -0.491516
v 0.285262 0.474180 -0.502439
v 0.284503 0.468615 -0.511835
v 0.274967 0.468748 -0.515869
v 0.263406 0.474373 -0.509894
v 0.256626 0.484100 -0.500780
vt 0.375498 0.873506
vt 0.500000 0.873506
vt 0.500000 0.998008
vt 0.375498 0.998008
vt 0.624502 0.873506
vt 0.624502 0.998008
vt 0.749004 0.873506
vt 0.749004 0.998008
vt 0.873506 0.873506
vt 0.873506 0.998008
vt 0.998008 0.873506
vt 0.998008 0.998008
vt 0.001992 0.873506
vt 0.126494 0.873506
vt 0.126494 0.998008
vt 0.001992 0.998008
vt 0.250996 0.873506
vt 0.250996 0.998008
vt 0.500000 0.126494
vt 0.375498 0.126494
vt 0.375498 0.001992
vt 0.500000 0.001992
vt 0.624502 0.126494
vt 0.624502 0.001992
vt 0.749004 0.126494
vt 0.749004 0.001992
vt 0.873506 0.126494
vt 0.873506 0.001992
vt 0.998008 0.126494
vt 0.998008 0.001992
vt 0.126494 0.126494
vt 0.001992 0.126494
vt 0.001992 0.001992
vt 0.126494 0.001992
vt 0.250996 0.126494
vt 0.250996 0.001992
vt 0.500000 0.624502
vt 0.375498 0.624502
vt 0.375498 0.500000
vt 0.500000 0.500000
vt 0.624502 0.624502
vt 0.624502 0.500000
vt 0.749004 0.624502
vt 0.749004 0.500000
vt 0.873506 0.624502
vt 0.873506 0.500000
vt 0.998008 0.624502
vt 0.998008 0.500000
vt 0.126494 0.624502
vt 0.001992 0.624502
vt 0.001992 0.500000
vt 0.126494 0.500000
vt 0.250996 0.624502
vt 0.250996 0.500000
vt 0.375498 0.375498
vt 0.500000 0.375498
vt 0.624502 0.375498
vt 0.749004 0.375498
vt 0.873506 0.375498
vt 0.998008 0.375498
vt 0.001992 0.375498
vt 0.126494 0.375498
vt 0.250996 0.375498
vt 0.375498 0.749004
vt 0.500000 0.749004
vt 0.624502 0.749004
vt 0.749004 0.749004
vt 0.873506 0.749004
vt 0.998008 0.749004
vt 0.001992 0.749004
vt 0.126494 0.749004
vt 0.250996 0.749004
vt 0.500000 0.250996
vt 0.375498 0.250996
vt 0.624502 0.250996
vt 0.749004 0.250996
vt 0.873506 0.250996
vt 0.998008 0.250996
vt 0.126494 0.250996
vt 0.001992 0.250996
vt 0.250996 0.250996
vn -0.610087 -0.614858 0.499743
vn -0.558858 -0.687074 0.464335
vn 0.018798 -0.288871 0.957184
vn -0.063284 -0.248493 0.966564
vn 0.252260 -0.066829 0.965349
vn 0.209582 -0.032408 0.977254
vn 0.571002 0.279639 0.771854
vn 0.592522 0.339289 0.730616
vn 0.644391 0.669556 -0.369398
vn 0.566016 0.580887 -0.584976
vn 0.100998 0.343445 -0.933726
vn 0.085609 0.208957 -0.974170
vn -0.252648 0.048141 -0.966360
vn -0.271862 -0.100867 -0.957035
vn -0.485863 -0.178088 -0.855700
vn -0.537844 -0.353462 -0.765368
vn -0.140417 0.203920 0.968865
vn -0.076233 -0.009598 0.997044
vn -0.603583 -0.364175 0.709270
vn -0.742379 -0.251217 0.621099
vn 0.596206 0.495653 0.631559
vn 0.759927 0.527001 0.380501
vn 0.864556 0.491392 0.105248
vn 0.822660 0.563672 -0.074197
vn 0.767094 0.267279 -0.583206
vn 0.540290 0.373523 -0.754034
vn -0.024460 -0.127445 -0.991544
vn -0.508512 -0.287426 -0.811666
vn -0.709096 -0.364877 -0.603364
vn -0.844850 -0.509925 -0.161879
vn -0.920041 -0.387967 0.054824
vn -0.784393 -0.481741 0.390707
vn -0.230654 -0.338166 0.912383
vn -0.357872 -0.297545 0.885096
vn -0.663001 -0.597954 0.450423
vn -0.548545 -0.697395 0.461236
vn 0.099706 0.024154 0.994724
vn 0.008733 0.030641 0.999492
vn 0.560805 0.560940 0.608970
vn 0.515212 0.511559 0.687651
vn 0.524032 0.593980 -0.610392
vn 0.595113 0.579920 -0.556357
vn 0.212465 0.252976 -0.943855
vn 0.292767 0.225333 -0.929254
vn -0.168502 -0.217367 -0.961436
vn -0.187075 -0.281595 -0.941120
vn -0.584275 -0.725665 -0.363365
vn -0.690326 -0.687591 -0.225098
vn -0.797497 -0.407634 0.444785
vn -0.453054 -0.130418 0.881892
vn 0.026562 0.175510 0.984119
vn 0.566752 0.524952 0.634995
vn 0.706348 0.466399 -0.532490
vn 0.329335 0.068845 -0.941700
vn -0.328277 -0.369931 -0.869129
vn -0.835210 -0.533928 -0.131701
vn -0.143047 -0.255763 0.956098
vn -0.568524 -0.668495 0.479474
vn 0.167174 0.049253 0.984697
vn 0.618983 0.509338 0.597858
vn 0.543695 0.557195 -0.627638
vn 0.170006 0.214155 -0.961892
vn -0.196969 -0.183678 -0.963050
vn -0.563815 -0.609064 -0.557811
vn -0.868722 -0.210866 0.448171
vn -0.394387 0.083669 0.915128
vn 0.297983 0.393724 0.869591
vn 0.782966 0.514660 0.349414
vn 0.799020 0.272009 -0.536263
vn 0.276976 -0.078093 -0.957698
vn -0.488940 -0.340912 -0.802943
vn -0.921713 -0.356634 -0.152507
s 1
g Scalenus_Anterior_Muscle_Left_02_Mesh group1
usemtl Scalenus_Anterior_Muscle_Left4_phong1SG
f 66/1/1 1/4/2 3/3/3 41/2/4
f 41/2/4 3/3/3 5/6/5 43/5/6
f 43/5/6 5/6/5 7/8/7 44/7/8
f 44/7/8 7/8/7 9/10/9 45/9/10
f 45/9/10 9/10/9 11/12/11 46/11/12
f 46/13/12 11/16/11 13/15/13 47/14/14
f 47/14/14 13/15/13 15/18/15 48/17/16
f 48/17/16 15/18/15 1/4/2 66/1/1
f 65/19/17 4/22/18 2/21/19 42/20/20
f 67/23/21 6/24/22 4/22/18 65/19/17
f 68/25/23 8/26/24 6/24/22 67/23/21
f 69/27/25 10/28/26 8/26/24 68/25/23
f 70/29/27 12/30/28 10/28/26 69/27/25
f 71/31/29 14/34/30 12/33/28 70/32/27
f 72/35/31 16/36/32 14/34/30 71/31/29
f 42/20/20 2/21/19 16/36/32 72/35/31
f 57/37/33 17/40/34 18/39/35 50/38/36
f 59/41/37 19/42/38 17/40/34 57/37/33
f 60/43/39 20/44/40 19/42/38 59/41/37
f 61/45/41 21/46/42 20/44/40 60/43/39
f 62/47/43 22/48/44 21/46/42 61/45/41
f 63/49/45 23/52/46 22/51/44 62/50/43
f 64/53/47 24/54/48 23/52/46 63/49/45
f 50/38/36 18/39/35 24/54/48 64/53/47
f 58/55/49 18/39/35 17/40/34 49/56/50
f 49/56/50 17/40/34 19/42/38 51/57/51
f 51/57/51 19/42/38 20/44/40 52/58/52
f 52/58/52 20/44/40 21/46/42 53/59/53
f 53/59/53 21/46/42 22/48/44 54/60/54
f 54/61/54 22/51/44 23/52/46 55/62/55
f 55/62/55 23/52/46 24/54/48 56/63/56
f 56/63/56 24/54/48 18/39/35 58/55/49
f 41/2/4 25/65/57 34/64/58 66/1/1
f 43/5/6 27/66/59 25/65/57 41/2/4
f 44/7/8 28/67/60 27/66/59 43/5/6
f 45/9/10 29/68/61 28/67/60 44/7/8
f 46/11/12 30/69/62 29/68/61 45/9/10
f 47/14/14 31/71/63 30/70/62 46/13/12
f 48/17/16 32/72/64 31/71/63 47/14/14
f 66/1/1 34/64/58 32/72/64 48/17/16
f 42/20/20 26/74/65 33/73/66 65/19/17
f 65/19/17 33/73/66 35/75/67 67/23/21
f 67/23/21 35/75/67 36/76/68 68/25/23
f 68/25/23 36/76/68 37/77/69 69/27/25
f 69/27/25 37/77/69 38/78/70 70/29/27
f 70/32/27 38/80/70 39/79/71 71/31/29
f 71/31/29 39/79/71 40/81/72 72/35/31
f 72/35/31 40/81/72 26/74/65 42/20/20
f 50/38/36 34/64/58 25/65/57 57/37/33
f 57/37/33 25/65/57 27/66/59 59/41/37
f 59/41/37 27/66/59 28/67/60 60/43/39
f 60/43/39 28/67/60 29/68/61 61/45/41
f 61/45/41 29/68/61 30/69/62 62/47/43
f 62/50/43 30/70/62 31/71/63 63/49/45
f 63/49/45 31/71/63 32/72/64 64/53/47
f 64/53/47 32/72/64 34/64/58 50/38/36
f 49/56/50 33/73/66 26/74/65 58/55/49
f 51/57/51 35/75/67 33/73/66 49/56/50
f 52/58/52 36/76/68 35/75/67 51/57/51
f 53/59/53 37/77/69 36/76/68 52/58/52
f 54/60/54 38/78/70 37/77/69 53/59/53
f 55/62/55 39/79/71 38/80/70 54/61/54
f 56/63/56 40/81/72 39/79/71 55/62/55
f 58/55/49 26/74/65 40/81/72 56/63/56
