# This file uses centimeters as units for non-parametric coordinates.

mtllib Scalenus_Posterior_Muscle_Right_02.mtl
g default
v -0.827617 -0.046009 -0.832551
v -0.728139 0.122568 -0.765759
v -0.846247 -0.047159 -0.823291
v -0.739404 0.124357 -0.750409
v -0.854720 -0.046558 -0.817954
v -0.749051 0.125984 -0.745528
v -0.855798 -0.043121 -0.827749
v -0.751444 0.129236 -0.754348
v -0.843650 -0.039505 -0.843631
v -0.746054 0.131092 -0.771296
v -0.824423 -0.039789 -0.853094
v -0.735563 0.128191 -0.786011
v -0.814340 -0.042536 -0.856386
v -0.724732 0.124077 -0.790553
v -0.812656 -0.044577 -0.846177
v -0.721413 0.121557 -0.782352
v -0.275847 0.384195 -0.614265
v -0.272030 0.385843 -0.616957
v -0.284164 0.384447 -0.614630
v -0.274934 0.388420 -0.620860
v -0.292288 0.386282 -0.617809
v -0.283038 0.390308 -0.623719
v -0.295324 0.388861 -0.622068
v -0.291489 0.390545 -0.624475
v -0.902130 -0.172577 -0.885852
v -0.929155 -0.177967 -0.880032
v -0.939548 -0.178453 -0.879810
v -0.880994 -0.161903 -0.900957
v -0.936122 -0.174137 -0.886102
v -0.877470 -0.156418 -0.909003
v -0.912462 -0.166910 -0.895253
v -0.887958 -0.158295 -0.907108
v -0.803740 0.036558 -0.787691
v -0.791959 0.036160 -0.801146
v -0.812065 0.038250 -0.782481
v -0.813861 0.040308 -0.791166
v -0.806559 0.041241 -0.806531
v -0.792604 0.041590 -0.819425
v -0.781685 0.040194 -0.823665
v -0.781587 0.037939 -0.815731
v -0.858249 -0.134268 -0.863380
v -0.880340 -0.131845 -0.849653
v -0.890390 -0.128439 -0.845715
v -0.843090 -0.128016 -0.879387
v -0.888721 -0.125578 -0.855638
v -0.843113 -0.121967 -0.888635
v -0.872683 -0.122784 -0.874543
v -0.853311 -0.120821 -0.887165
v -0.637683 0.196640 -0.720548
v -0.481743 0.256252 -0.686301
v -0.366647 0.328621 -0.645421
v -0.348880 0.329243 -0.652985
v -0.477163 0.254017 -0.710961
v -0.624570 0.189640 -0.738383
v -0.650098 0.203386 -0.711801
v -0.487655 0.270641 -0.668588
v -0.387639 0.329153 -0.643370
v -0.350063 0.331560 -0.663529
v -0.481911 0.259296 -0.723348
v -0.621233 0.188690 -0.752697
v -0.651619 0.210674 -0.719093
v -0.496099 0.280714 -0.668313
v -0.399481 0.331945 -0.651319
v -0.364210 0.333258 -0.673506
v -0.488017 0.266001 -0.719413
v -0.627761 0.194347 -0.755587
v -0.643735 0.212717 -0.736207
v -0.497364 0.284008 -0.690009
v -0.394622 0.334457 -0.668890
v -0.378510 0.334705 -0.678409
v -0.491669 0.278093 -0.706074
v -0.636705 0.203718 -0.749000
v -0.316821 0.357296 -0.641788
v -0.315675 0.359293 -0.650758
v -0.323185 0.362848 -0.653545
v -0.334551 0.365341 -0.651393
v -0.326152 0.357656 -0.632758
v -0.337676 0.360054 -0.629260
v -0.346786 0.363007 -0.633399
v -0.345620 0.365246 -0.643722
vt 0.223108 0.333997
vt 0.112439 0.333997
vt 0.112439 0.223329
vt 0.223108 0.223329
vt 0.001771 0.333997
vt 0.001771 0.223329
vt 0.887118 0.333997
vt 0.776450 0.333997
vt 0.776450 0.223329
vt 0.887118 0.223329
vt 0.665781 0.333997
vt 0.665781 0.223329
vt 0.555113 0.333997
vt 0.555113 0.223329
vt 0.444445 0.333997
vt 0.444445 0.223329
vt 0.333776 0.333997
vt 0.333776 0.223329
vt 0.223108 0.555334
vt 0.112439 0.555334
vt 0.112439 0.444666
vt 0.223108 0.444666
vt 0.001771 0.555334
vt 0.001771 0.444666
vt 0.333776 0.555334
vt 0.333776 0.444666
vt 0.887118 0.555334
vt 0.776450 0.555334
vt 0.776450 0.444666
vt 0.887118 0.444666
vt 0.444445 0.555334
vt 0.444445 0.444666
vt 0.665781 0.555334
vt 0.665781 0.444666
vt 0.555113 0.555334
vt 0.555113 0.444666
vt 0.112439 0.112660
vt 0.223108 0.112660
vt 0.001771 0.112660
vt 0.333776 0.112660
vt 0.776450 0.112660
vt 0.887118 0.112660
vt 0.444445 0.112660
vt 0.665781 0.112660
vt 0.555113 0.112660
vt 0.112439 0.001992
vt 0.223108 0.001992
vt 0.001771 0.001992
vt 0.333776 0.001992
vt 0.776450 0.001992
vt 0.887118 0.001992
vt 0.444445 0.001992
vt 0.665781 0.001992
vt 0.555113 0.001992
vt 0.223108 0.666003
vt 0.112439 0.666003
vt 0.223108 0.776671
vt 0.112439 0.776671
vt 0.112439 0.887340
vt 0.223108 0.887340
vt 0.223108 0.998008
vt 0.112439 0.998008
vt 0.001771 0.666003
vt 0.001771 0.776671
vt 0.001771 0.887340
vt 0.001771 0.998008
vt 0.333776 0.887340
vt 0.333776 0.998008
vt 0.333776 0.666003
vt 0.333776 0.776671
vt 0.887118 0.666003
vt 0.776450 0.666003
vt 0.887118 0.776671
vt 0.776450 0.776671
vt 0.776450 0.887340
vt 0.887118 0.887340
vt 0.887118 0.998008
vt 0.776450 0.998008
vt 0.444445 0.887340
vt 0.444445 0.998008
vt 0.444445 0.666003
vt 0.444445 0.776671
vt 0.665781 0.666003
vt 0.665781 0.776671
vt 0.665781 0.887340
vt 0.665781 0.998008
vt 0.555113 0.887340
vt 0.555113 0.998008
vt 0.555113 0.666003
vt 0.555113 0.776671
vn 0.617677 -0.579502 0.531651
vn 0.483219 -0.572692 0.662211
vn 0.436771 -0.465874 0.769540
vn 0.581791 -0.475855 0.659607
vn -0.415170 -0.117496 0.902125
vn -0.485818 -0.101162 0.868186
vn -0.834762 0.540321 -0.105954
vn -0.839744 0.469677 -0.272458
vn -0.656214 0.578984 -0.483901
vn -0.616670 0.500102 -0.607960
vn -0.434545 0.537555 -0.722637
vn -0.376237 0.475215 -0.795372
vn 0.361432 0.177532 -0.915341
vn 0.537681 0.139198 -0.831578
vn 0.797952 -0.549645 0.247312
vn 0.824688 -0.442525 0.352224
vn 0.394611 -0.883425 0.252671
vn 0.255530 -0.792341 0.553985
vn 0.393374 -0.677895 0.621060
vn 0.524419 -0.743121 0.415638
vn -0.136351 -0.314251 0.939497
vn -0.322764 -0.065751 0.944193
vn 0.528944 -0.731091 -0.430958
vn 0.687367 -0.726225 0.011150
vn -0.568380 0.776701 0.271442
vn -0.730192 0.682671 0.027920
vn 0.039713 0.415836 -0.908572
vn 0.207029 0.242006 -0.947930
vn -0.423334 0.864515 -0.270928
vn -0.590568 0.715466 -0.373279
vn -0.227592 0.715220 -0.660804
vn -0.367694 0.633040 -0.681221
vn 0.338509 -0.549975 0.763505
vn 0.529084 -0.597791 0.602259
vn -0.507299 -0.072335 0.858729
vn 0.777403 -0.559303 0.287793
vn -0.740351 0.589122 -0.323753
vn 0.628329 -0.004727 -0.777934
vn -0.567131 0.577921 -0.586830
vn -0.367137 0.531354 -0.763462
vn 0.172505 -0.662496 0.728931
vn 0.374028 -0.753425 0.540789
vn -0.722593 0.284116 0.630188
vn 0.620269 -0.772725 0.134770
vn -0.644225 0.734532 -0.213160
vn 0.482922 -0.020700 -0.875418
vn -0.498581 0.722628 -0.478776
vn -0.436309 0.691456 -0.575781
vn 0.433988 -0.896732 0.086747
vn 0.263476 -0.827124 0.496433
vn 0.524161 -0.845109 0.105102
vn 0.327104 -0.804028 0.496531
vn 0.238421 -0.702378 0.670686
vn 0.546908 -0.823827 0.149000
vn 0.536908 -0.843244 0.025870
vn 0.317917 -0.854527 0.410746
vn -0.008757 -0.462843 0.886397
vn 0.030072 -0.471467 0.881371
vn -0.120352 -0.243331 0.962448
vn -0.024692 -0.496587 0.867636
vn 0.662386 -0.311556 -0.681306
vn 0.691628 -0.461274 -0.555766
vn 0.495458 -0.551391 -0.671185
vn 0.595154 -0.556053 -0.580169
vn -0.482953 0.734434 0.476827
vn -0.495766 0.714402 0.493807
vn -0.536949 0.671681 0.510423
vn -0.426528 0.439928 0.790277
vn 0.296352 0.332645 -0.895278
vn 0.328056 0.424511 -0.843901
vn 0.032982 0.453478 -0.890657
vn 0.254828 0.245210 -0.935379
vn -0.387430 0.901712 -0.191868
vn -0.405038 0.886782 -0.222625
vn -0.428299 0.888420 -0.165133
vn -0.416600 0.909090 -0.000026
vn -0.121200 0.768761 -0.627947
vn -0.064305 0.787133 -0.613422
vn -0.184666 0.736051 -0.651250
vn -0.136842 0.688742 -0.711975
s 1
g Scalenus_Posterior_Muscle_02_Right_Mesh group1
usemtl Scalenus_Posterior_Muscle_02_Right_phong1SG
f 34/1/1 33/2/2 3/3/3 1/4/4
f 33/2/2 35/5/5 5/6/6 3/3/3
f 35/7/5 36/8/7 7/9/8 5/10/6
f 36/8/7 37/11/9 9/12/10 7/9/8
f 37/11/9 38/13/11 11/14/12 9/12/10
f 38/13/11 39/15/13 13/16/14 11/14/12
f 39/15/13 40/17/15 15/18/16 13/16/14
f 40/17/15 34/1/1 1/4/4 15/18/16
f 54/19/17 49/20/18 4/21/19 2/22/20
f 49/20/18 55/23/21 6/24/22 4/21/19
f 60/25/23 54/19/17 2/22/20 16/26/24
f 55/27/21 61/28/25 8/29/26 6/30/22
f 66/31/27 60/25/23 16/26/24 14/32/28
f 61/28/25 67/33/29 10/34/30 8/29/26
f 72/35/31 66/31/27 14/32/28 12/36/32
f 67/33/29 72/35/31 12/36/32 10/34/30
f 42/37/33 41/38/34 1/4/4 3/3/3
f 43/39/35 42/37/33 3/3/3 5/6/6
f 41/38/34 44/40/36 15/18/16 1/4/4
f 45/41/37 43/42/35 5/10/6 7/9/8
f 44/40/36 46/43/38 13/16/14 15/18/16
f 47/44/39 45/41/37 7/9/8 9/12/10
f 46/43/38 48/45/40 11/14/12 13/16/14
f 48/45/40 47/44/39 9/12/10 11/14/12
f 33/2/2 34/1/1 2/22/20 4/21/19
f 35/5/5 33/2/2 4/21/19 6/24/22
f 36/8/7 35/7/5 6/30/22 8/29/26
f 37/11/9 36/8/7 8/29/26 10/34/30
f 38/13/11 37/11/9 10/34/30 12/36/32
f 39/15/13 38/13/11 12/36/32 14/32/28
f 40/17/15 39/15/13 14/32/28 16/26/24
f 34/1/1 40/17/15 16/26/24 2/22/20
f 41/38/34 42/37/33 26/46/41 25/47/42
f 42/37/33 43/39/35 27/48/43 26/46/41
f 44/40/36 41/38/34 25/47/42 28/49/44
f 43/42/35 45/41/37 29/50/45 27/51/43
f 46/43/38 44/40/36 28/49/44 30/52/46
f 45/41/37 47/44/39 31/53/47 29/50/45
f 48/45/40 46/43/38 30/52/46 32/54/48
f 47/44/39 48/45/40 32/54/48 31/53/47
f 49/20/18 54/19/17 53/55/49 50/56/50
f 50/56/50 53/55/49 52/57/51 51/58/52
f 77/59/53 73/60/54 18/61/55 17/62/56
f 55/23/21 49/20/18 50/56/50 56/63/57
f 56/63/57 50/56/50 51/58/52 57/64/58
f 78/65/59 77/59/53 17/62/56 19/66/60
f 73/60/54 74/67/61 20/68/62 18/61/55
f 53/55/49 59/69/63 58/70/64 52/57/51
f 54/19/17 60/25/23 59/69/63 53/55/49
f 61/28/25 55/27/21 56/71/57 62/72/65
f 62/72/65 56/71/57 57/73/58 63/74/66
f 79/75/67 78/76/59 19/77/60 21/78/68
f 74/67/61 75/79/69 22/80/70 20/68/62
f 59/69/63 65/81/71 64/82/72 58/70/64
f 60/25/23 66/31/27 65/81/71 59/69/63
f 67/33/29 61/28/25 62/72/65 68/83/73
f 68/83/73 62/72/65 63/74/66 69/84/74
f 80/85/75 79/75/67 21/78/68 23/86/76
f 75/79/69 76/87/77 24/88/78 22/80/70
f 65/81/71 71/89/79 70/90/80 64/82/72
f 66/31/27 72/35/31 71/89/79 65/81/71
f 72/35/31 67/33/29 68/83/73 71/89/79
f 71/89/79 68/83/73 69/84/74 70/90/80
f 76/87/77 80/85/75 23/86/76 24/88/78
f 73/60/54 77/59/53 51/58/52 52/57/51
f 77/59/53 78/65/59 57/64/58 51/58/52
f 74/67/61 73/60/54 52/57/51 58/70/64
f 78/76/59 79/75/67 63/74/66 57/73/58
f 75/79/69 74/67/61 58/70/64 64/82/72
f 79/75/67 80/85/75 69/84/74 63/74/66
f 76/87/77 75/79/69 64/82/72 70/90/80
f 80/85/75 76/87/77 70/90/80 69/84/74
