# This file uses centimeters as units for non-parametric coordinates.

mtllib Scalenus_Posterior_Muscle_Left_01.mtl
g default
v 0.866312 -0.079165 -0.789527
v 0.735651 0.081324 -0.703959
v 0.880474 -0.079060 -0.766858
v 0.753103 0.085506 -0.681358
v 0.890287 -0.076553 -0.759020
v 0.767104 0.089083 -0.673964
v 0.889708 -0.072571 -0.770591
v 0.771513 0.094139 -0.685836
v 0.879369 -0.069902 -0.794837
v 0.762734 0.095741 -0.709886
v 0.865014 -0.070772 -0.817347
v 0.745475 0.090076 -0.731521
v 0.855005 -0.074158 -0.824987
v 0.730404 0.083271 -0.738236
v 0.855781 -0.077396 -0.813569
v 0.725743 0.079222 -0.727259
v 0.201745 0.577475 -0.511373
v 0.195557 0.574829 -0.513871
v 0.209103 0.585804 -0.510092
v 0.193783 0.579359 -0.515904
v 0.213499 0.594992 -0.510775
v 0.198168 0.588465 -0.516300
v 0.211903 0.599625 -0.513078
v 0.205521 0.596901 -0.515324
v 0.966402 -0.212393 -0.847988
v 0.988758 -0.221163 -0.835230
v 1.001278 -0.222580 -0.833683
v 0.947455 -0.202040 -0.863833
v 0.997527 -0.216370 -0.842765
v 0.943603 -0.196043 -0.873029
v 0.978795 -0.205660 -0.858632
v 0.956344 -0.197182 -0.871466
v 0.838884 -0.003109 -0.726416
v 0.822556 -0.004631 -0.750255
v 0.849456 0.000450 -0.718231
v 0.850853 0.004265 -0.730436
v 0.839736 0.005541 -0.755561
v 0.820575 0.004663 -0.777978
v 0.807111 0.001322 -0.784732
v 0.808194 -0.002689 -0.773898
v 0.907876 -0.158482 -0.824999
v 0.923809 -0.158878 -0.807035
v 0.934732 -0.156425 -0.802215
v 0.896957 -0.154139 -0.845598
v 0.932991 -0.152967 -0.812958
v 0.896220 -0.149170 -0.856201
v 0.920959 -0.150055 -0.833633
v 0.906172 -0.148161 -0.851567
v 0.583491 0.182108 -0.640412
v 0.423295 0.311958 -0.603705
v 0.308524 0.467220 -0.566477
v 0.298108 0.463928 -0.575130
v 0.408130 0.301401 -0.619354
v 0.572948 0.168983 -0.658712
v 0.596698 0.192524 -0.630767
v 0.435018 0.339272 -0.594469
v 0.319926 0.476976 -0.560855
v 0.298378 0.469425 -0.579923
v 0.404670 0.304508 -0.627615
v 0.570798 0.164871 -0.674933
v 0.597839 0.202394 -0.639102
v 0.441623 0.355158 -0.595940
v 0.327041 0.488472 -0.561969
v 0.306340 0.480312 -0.579832
v 0.413085 0.317232 -0.624671
v 0.577776 0.172874 -0.679401
v 0.588528 0.203278 -0.658185
v 0.434470 0.357841 -0.610095
v 0.325069 0.494358 -0.568431
v 0.315046 0.490376 -0.576159
v 0.423258 0.342745 -0.618319
v 0.584257 0.188025 -0.672830
v 0.239171 0.523052 -0.550677
v 0.237716 0.528448 -0.554008
v 0.243339 0.539684 -0.553294
v 0.252246 0.549921 -0.549857
v 0.247127 0.526611 -0.545170
v 0.256246 0.536865 -0.541167
v 0.262889 0.548172 -0.540838
v 0.261416 0.553646 -0.544566
vt 0.112439 0.333997
vt 0.001771 0.333997
vt 0.001771 0.223329
vt 0.112439 0.223329
vt 0.887118 0.333997
vt 0.776450 0.333997
vt 0.776450 0.223329
vt 0.887118 0.223329
vt 0.665781 0.333997
vt 0.665781 0.223329
vt 0.555113 0.333997
vt 0.555113 0.223329
vt 0.444445 0.333997
vt 0.444445 0.223329
vt 0.333776 0.333997
vt 0.333776 0.223329
vt 0.223108 0.333997
vt 0.223108 0.223329
vt 0.112439 0.555334
vt 0.001771 0.555334
vt 0.001771 0.444666
vt 0.112439 0.444666
vt 0.887118 0.555334
vt 0.776450 0.555334
vt 0.776450 0.444666
vt 0.887118 0.444666
vt 0.223108 0.555334
vt 0.223108 0.444666
vt 0.665781 0.555334
vt 0.665781 0.444666
vt 0.333776 0.555334
vt 0.333776 0.444666
vt 0.555113 0.555334
vt 0.555113 0.444666
vt 0.444445 0.555334
vt 0.444445 0.444666
vt 0.001771 0.112660
vt 0.112439 0.112660
vt 0.776450 0.112660
vt 0.887118 0.112660
vt 0.223108 0.112660
vt 0.665781 0.112660
vt 0.333776 0.112660
vt 0.555113 0.112660
vt 0.444445 0.112660
vt 0.001771 0.001992
vt 0.112439 0.001992
vt 0.776450 0.001992
vt 0.887118 0.001992
vt 0.223108 0.001992
vt 0.665781 0.001992
vt 0.333776 0.001992
vt 0.555113 0.001992
vt 0.444445 0.001992
vt 0.112439 0.666003
vt 0.001771 0.666003
vt 0.112439 0.776671
vt 0.001771 0.776671
vt 0.001771 0.887340
vt 0.112439 0.887340
vt 0.112439 0.998008
vt 0.001771 0.998008
vt 0.887118 0.666003
vt 0.776450 0.666003
vt 0.887118 0.776671
vt 0.776450 0.776671
vt 0.776450 0.887340
vt 0.887118 0.887340
vt 0.887118 0.998008
vt 0.776450 0.998008
vt 0.223108 0.887340
vt 0.223108 0.998008
vt 0.223108 0.666003
vt 0.223108 0.776671
vt 0.665781 0.666003
vt 0.665781 0.776671
vt 0.665781 0.887340
vt 0.665781 0.998008
vt 0.333776 0.887340
vt 0.333776 0.998008
vt 0.333776 0.666003
vt 0.333776 0.776671
vt 0.555113 0.666003
vt 0.555113 0.776671
vt 0.555113 0.887340
vt 0.555113 0.998008
vt 0.444445 0.887340
vt 0.444445 0.998008
vt 0.444445 0.666003
vt 0.444445 0.776671
vn -0.605348 -0.692433 0.392543
vn -0.703965 -0.591306 0.393434
vn -0.566772 -0.601409 0.563095
vn -0.483863 -0.671723 0.560951
vn 0.492068 -0.190462 0.849467
vn 0.424607 -0.137919 0.894811
vn 0.831492 0.526993 -0.175781
vn 0.789649 0.607439 -0.086446
vn 0.712851 0.578554 -0.396383
vn 0.648201 0.656111 -0.386462
vn 0.553220 0.590753 -0.587332
vn 0.455201 0.651250 -0.607178
vn -0.456790 0.149452 -0.876930
vn -0.351519 0.207910 -0.912802
vn -0.808984 -0.557226 0.187201
vn -0.719569 -0.675291 0.161874
vn -0.401874 -0.784527 0.472245
vn -0.426589 -0.801964 0.418181
vn -0.316778 -0.714256 0.624091
vn -0.246327 -0.611651 0.751802
vn 0.293016 -0.020652 0.955885
vn 0.114836 -0.163906 0.979769
vn -0.571383 -0.759367 -0.311261
vn -0.591144 -0.806561 -0.002909
vn 0.637354 0.768889 0.050885
vn 0.616627 0.753963 0.226519
vn -0.170364 0.202261 -0.964400
vn -0.258280 0.230095 -0.938269
vn 0.489709 0.788801 -0.371454
vn 0.428964 0.744296 -0.511873
vn 0.121791 0.549761 -0.826396
vn 0.273258 0.692568 -0.667592
vn -0.509601 -0.647679 0.566408
vn -0.667189 -0.650493 0.362929
vn 0.529511 -0.022517 0.848004
vn -0.775968 -0.615816 0.136543
vn 0.751404 0.638304 -0.167213
vn -0.524117 -0.045459 -0.850432
vn 0.664874 0.651012 -0.366232
vn 0.536092 0.617156 -0.575955
vn -0.550876 -0.747898 0.370383
vn -0.342267 -0.663712 0.665086
vn 0.667604 0.373735 0.643916
vn -0.652240 -0.746871 0.129488
vn 0.686638 0.724839 -0.056015
vn -0.427583 -0.103060 -0.898082
vn 0.601199 0.746637 -0.284768
vn 0.512267 0.722880 -0.463710
vn -0.259871 -0.481894 0.836806
vn -0.518881 -0.670353 0.530461
vn -0.251677 -0.427969 0.868045
vn -0.631193 -0.603104 0.487711
vn -0.105651 -0.509561 0.853924
vn 0.048858 -0.518046 0.853956
vn -0.603906 -0.729142 0.321946
vn -0.580441 -0.741598 0.336335
vn 0.065621 -0.179013 0.981656
vn 0.054514 -0.210519 0.976069
vn 0.157816 -0.277316 0.947729
vn 0.291795 -0.297872 0.908916
vn -0.569146 0.110534 -0.814773
vn -0.496576 0.001633 -0.867992
vn -0.385608 -0.001790 -0.922661
vn -0.582138 -0.307980 -0.752505
vn 0.697156 0.558829 0.449091
vn 0.642643 0.369731 0.671051
vn 0.508124 0.131803 0.851139
vn 0.604444 0.122262 0.787210
vn -0.330686 0.351063 -0.876015
vn -0.232608 0.307604 -0.922645
vn -0.065279 0.255167 -0.964691
vn -0.080502 0.241246 -0.967119
vn 0.483973 0.632465 -0.604780
vn 0.497584 0.628028 -0.598323
vn 0.478370 0.745819 -0.463591
vn 0.320442 0.753151 -0.574526
vn -0.104999 0.522683 -0.846036
vn 0.004396 0.503242 -0.864135
vn 0.118744 0.400375 -0.908625
vn 0.103919 0.386734 -0.916317
s 1
g Scalenus_Posterior_Muscle_01_Left1_Mesh group1
usemtl Scalenus_Posterior_Muscle_01_Left1_phong1SG
f 34/1/1 1/4/2 3/3/3 33/2/4
f 33/5/4 3/8/3 5/7/5 35/6/6
f 35/6/6 5/7/5 7/10/7 36/9/8
f 36/9/8 7/10/7 9/12/9 37/11/10
f 37/11/10 9/12/9 11/14/11 38/13/12
f 38/13/12 11/14/11 13/16/13 39/15/14
f 39/15/14 13/16/13 15/18/15 40/17/16
f 40/17/16 15/18/15 1/4/2 34/1/1
f 54/19/17 2/22/18 4/21/19 49/20/20
f 49/23/20 4/26/19 6/25/21 55/24/22
f 60/27/23 16/28/24 2/22/18 54/19/17
f 55/24/22 6/25/21 8/30/25 61/29/26
f 66/31/27 14/32/28 16/28/24 60/27/23
f 61/29/26 8/30/25 10/34/29 67/33/30
f 72/35/31 12/36/32 14/32/28 66/31/27
f 67/33/30 10/34/29 12/36/32 72/35/31
f 42/37/33 3/3/3 1/4/2 41/38/34
f 43/39/35 5/7/5 3/8/3 42/40/33
f 41/38/34 1/4/2 15/18/15 44/41/36
f 45/42/37 7/10/7 5/7/5 43/39/35
f 44/41/36 15/18/15 13/16/13 46/43/38
f 47/44/39 9/12/9 7/10/7 45/42/37
f 46/43/38 13/16/13 11/14/11 48/45/40
f 48/45/40 11/14/11 9/12/9 47/44/39
f 33/2/4 4/21/19 2/22/18 34/1/1
f 35/6/6 6/25/21 4/26/19 33/5/4
f 36/9/8 8/30/25 6/25/21 35/6/6
f 37/11/10 10/34/29 8/30/25 36/9/8
f 38/13/12 12/36/32 10/34/29 37/11/10
f 39/15/14 14/32/28 12/36/32 38/13/12
f 40/17/16 16/28/24 14/32/28 39/15/14
f 34/1/1 2/22/18 16/28/24 40/17/16
f 41/38/34 25/47/41 26/46/42 42/37/33
f 42/40/33 26/49/42 27/48/43 43/39/35
f 44/41/36 28/50/44 25/47/41 41/38/34
f 43/39/35 27/48/43 29/51/45 45/42/37
f 46/43/38 30/52/46 28/50/44 44/41/36
f 45/42/37 29/51/45 31/53/47 47/44/39
f 48/45/40 32/54/48 30/52/46 46/43/38
f 47/44/39 31/53/47 32/54/48 48/45/40
f 49/20/20 50/56/49 53/55/50 54/19/17
f 50/56/49 51/58/51 52/57/52 53/55/50
f 77/59/53 17/62/54 18/61/55 73/60/56
f 55/24/22 56/64/57 50/63/49 49/23/20
f 56/64/57 57/66/58 51/65/51 50/63/49
f 78/67/59 19/70/60 17/69/54 77/68/53
f 73/60/56 18/61/55 20/72/61 74/71/62
f 53/55/50 52/57/52 58/74/63 59/73/64
f 54/19/17 53/55/50 59/73/64 60/27/23
f 61/29/26 62/75/65 56/64/57 55/24/22
f 62/75/65 63/76/66 57/66/58 56/64/57
f 79/77/67 21/78/68 19/70/60 78/67/59
f 74/71/62 20/72/61 22/80/69 75/79/70
f 59/73/64 58/74/63 64/82/71 65/81/72
f 60/27/23 59/73/64 65/81/72 66/31/27
f 67/33/30 68/83/73 62/75/65 61/29/26
f 68/83/73 69/84/74 63/76/66 62/75/65
f 80/85/75 23/86/76 21/78/68 79/77/67
f 75/79/70 22/80/69 24/88/77 76/87/78
f 65/81/72 64/82/71 70/90/79 71/89/80
f 66/31/27 65/81/72 71/89/80 72/35/31
f 72/35/31 71/89/80 68/83/73 67/33/30
f 71/89/80 70/90/79 69/84/74 68/83/73
f 76/87/78 24/88/77 23/86/76 80/85/75
f 73/60/56 52/57/52 51/58/51 77/59/53
f 77/68/53 51/65/51 57/66/58 78/67/59
f 74/71/62 58/74/63 52/57/52 73/60/56
f 78/67/59 57/66/58 63/76/66 79/77/67
f 75/79/70 64/82/71 58/74/63 74/71/62
f 79/77/67 63/76/66 69/84/74 80/85/75
f 76/87/78 70/90/79 64/82/71 75/79/70
f 80/85/75 69/84/74 70/90/79 76/87/78
