# This file uses centimeters as units for non-parametric coordinates.

mtllib Scalenus_Anterior_Muscle_Left_03.mtl
g default
v 0.751878 -0.153006 -0.457248
v 0.158411 0.779322 -0.398207
v 0.758631 -0.153246 -0.453475
v 0.164706 0.776558 -0.397949
v 0.770714 -0.149694 -0.452973
v 0.177682 0.765835 -0.403143
v 0.781047 -0.144453 -0.456029
v 0.185603 0.753498 -0.410795
v 0.783579 -0.140594 -0.460852
v 0.184100 0.746784 -0.416396
v 0.776826 -0.140358 -0.464624
v 0.174257 0.749563 -0.416621
v 0.764743 -0.143881 -0.465135
v 0.162834 0.760201 -0.411361
v 0.754410 -0.149118 -0.462081
v 0.157717 0.772522 -0.403744
v 0.322260 0.309025 -0.372962
v 0.314781 0.298948 -0.380122
v 0.349269 0.322790 -0.367251
v 0.389188 0.327856 -0.374742
v 0.398106 0.324244 -0.391387
v 0.371939 0.313908 -0.409189
v 0.332865 0.302971 -0.404083
v 0.317960 0.296612 -0.392722
v 0.566851 0.032267 -0.377232
v 0.193880 0.543285 -0.402338
v 0.592179 0.039169 -0.385226
v 0.612705 0.042822 -0.397409
v 0.617573 0.043427 -0.410917
v 0.602238 0.039049 -0.421349
v 0.579349 0.033258 -0.413577
v 0.563720 0.028677 -0.398626
v 0.204173 0.546658 -0.394279
v 0.558376 0.027523 -0.386168
v 0.224699 0.548901 -0.396245
v 0.242344 0.546984 -0.404920
v 0.244013 0.542318 -0.417555
v 0.228083 0.538528 -0.426753
v 0.207893 0.536150 -0.422303
v 0.195362 0.538700 -0.413088
v 0.685603 -0.076956 -0.414572
v 0.176393 0.668974 -0.403020
v 0.702866 -0.069601 -0.419503
v 0.715324 -0.063490 -0.426802
v 0.718788 -0.060574 -0.433692
v 0.711580 -0.063190 -0.436837
v 0.698719 -0.069780 -0.430892
v 0.685664 -0.076473 -0.423277
v 0.251183 0.432966 -0.387305
v 0.419588 0.158270 -0.368493
v 0.278314 0.442556 -0.385518
v 0.310105 0.445696 -0.392681
v 0.314651 0.441637 -0.408018
v 0.291691 0.433380 -0.422678
v 0.260239 0.425247 -0.417172
v 0.245418 0.422836 -0.406102
v 0.428262 0.164644 -0.360124
v 0.242539 0.426134 -0.394532
v 0.460057 0.173122 -0.363555
v 0.494847 0.180124 -0.375957
v 0.503156 0.179640 -0.391629
v 0.481153 0.172161 -0.404649
v 0.443925 0.162905 -0.396709
v 0.424885 0.157686 -0.381986
v 0.186325 0.668171 -0.399502
v 0.679315 -0.079599 -0.417411
v 0.202946 0.662867 -0.405322
v 0.215446 0.655550 -0.416153
v 0.216012 0.650259 -0.425357
v 0.204616 0.650469 -0.427821
v 0.188609 0.655336 -0.420188
v 0.177062 0.663370 -0.410937
vt 0.749004 0.873506
vt 0.873506 0.873506
vt 0.873506 0.998008
vt 0.749004 0.998008
vt 0.998008 0.873506
vt 0.998008 0.998008
vt 0.001992 0.873506
vt 0.126494 0.873506
vt 0.126494 0.998008
vt 0.001992 0.998008
vt 0.250996 0.873506
vt 0.250996 0.998008
vt 0.375498 0.873506
vt 0.375498 0.998008
vt 0.500000 0.873506
vt 0.500000 0.998008
vt 0.624502 0.873506
vt 0.624502 0.998008
vt 0.873506 0.126494
vt 0.749004 0.126494
vt 0.749004 0.001992
vt 0.873506 0.001992
vt 0.998008 0.126494
vt 0.998008 0.001992
vt 0.126494 0.126494
vt 0.001992 0.126494
vt 0.001992 0.001992
vt 0.126494 0.001992
vt 0.250996 0.126494
vt 0.250996 0.001992
vt 0.375498 0.126494
vt 0.375498 0.001992
vt 0.500000 0.126494
vt 0.500000 0.001992
vt 0.624502 0.126494
vt 0.624502 0.001992
vt 0.873506 0.624502
vt 0.749004 0.624502
vt 0.749004 0.500000
vt 0.873506 0.500000
vt 0.998008 0.624502
vt 0.998008 0.500000
vt 0.126494 0.624502
vt 0.001992 0.624502
vt 0.001992 0.500000
vt 0.126494 0.500000
vt 0.250996 0.624502
vt 0.250996 0.500000
vt 0.375498 0.624502
vt 0.375498 0.500000
vt 0.500000 0.624502
vt 0.500000 0.500000
vt 0.624502 0.624502
vt 0.624502 0.500000
vt 0.749004 0.375498
vt 0.873506 0.375498
vt 0.998008 0.375498
vt 0.001992 0.375498
vt 0.126494 0.375498
vt 0.250996 0.375498
vt 0.375498 0.375498
vt 0.500000 0.375498
vt 0.624502 0.375498
vt 0.749004 0.749004
vt 0.873506 0.749004
vt 0.998008 0.749004
vt 0.001992 0.749004
vt 0.126494 0.749004
vt 0.250996 0.749004
vt 0.375498 0.749004
vt 0.500000 0.749004
vt 0.624502 0.749004
vt 0.873506 0.250996
vt 0.749004 0.250996
vt 0.998008 0.250996
vt 0.126494 0.250996
vt 0.001992 0.250996
vt 0.250996 0.250996
vt 0.375498 0.250996
vt 0.500000 0.250996
vt 0.624502 0.250996
vn -0.637798 -0.759673 0.126927
vn -0.691876 -0.715393 0.097577
vn 0.129047 -0.330908 0.934798
vn 0.123526 -0.231067 0.965065
vn 0.341616 -0.102896 0.934190
vn 0.361717 0.018477 0.932105
vn 0.560639 0.152044 0.813982
vn 0.582581 0.289898 0.759314
vn 0.778736 0.627040 0.019772
vn 0.691026 0.680782 -0.242937
vn 0.018780 0.365605 -0.930581
vn -0.009574 0.228093 -0.973592
vn -0.337231 0.113349 -0.934573
vn -0.374792 -0.145012 -0.915698
vn -0.511673 -0.043817 -0.858062
vn -0.537081 -0.343086 -0.770607
vn 0.015398 0.027226 0.999511
vn -0.016957 -0.022251 0.999609
vn -0.590532 -0.127359 0.796901
vn -0.752472 -0.121298 0.647358
vn 0.453953 0.137156 0.880406
vn 0.443691 0.086838 0.891963
vn 0.838947 0.259194 0.478526
vn 0.826961 0.215822 0.519189
vn 0.706291 0.188113 -0.682471
vn 0.562033 0.254928 -0.786849
vn -0.089728 0.012031 -0.995894
vn -0.316591 0.008629 -0.948523
vn -0.521373 -0.066512 -0.850733
vn -0.711310 -0.099553 -0.695792
vn -0.901854 -0.132606 -0.411188
vn -0.985077 -0.171118 -0.018479
vn -0.141185 -0.129213 0.981515
vn -0.237986 -0.060568 0.969378
vn -0.772581 -0.473490 0.422997
vn -0.700712 -0.617878 0.356692
vn 0.183136 0.109656 0.976953
vn 0.054305 0.126748 0.990447
vn 0.497529 0.337272 0.799195
vn 0.427289 0.343804 0.836196
vn 0.681344 0.568539 -0.461014
vn 0.713067 0.478248 -0.512655
vn 0.086112 0.099124 -0.991342
vn 0.136603 0.028058 -0.990228
vn -0.306012 -0.264322 -0.914599
vn -0.260610 -0.257894 -0.930362
vn -0.607513 -0.545026 -0.577820
vn -0.656416 -0.498206 -0.566487
vn -0.814989 -0.361785 0.452664
vn -0.261246 -0.033542 0.964689
vn 0.057993 0.157462 0.985821
vn 0.471431 0.423404 0.773616
vn 0.698616 0.417407 -0.581126
vn 0.145538 0.011372 -0.989287
vn -0.287625 -0.233117 -0.928939
vn -0.736706 -0.423179 -0.527431
vn 0.029945 -0.166178 0.985641
vn -0.631821 -0.734801 0.246718
vn 0.319761 0.107877 0.941337
vn 0.576466 0.369748 0.728679
vn 0.653004 0.649094 -0.390209
vn 0.030206 0.146623 -0.988731
vn -0.355842 -0.248380 -0.900935
vn -0.567697 -0.514146 -0.642942
vn -0.847250 -0.209122 0.488298
vn -0.173455 0.000121 0.984842
vn 0.235471 0.150461 0.960164
vn 0.652815 0.355194 0.669081
vn 0.697594 0.333101 -0.634355
vn 0.039754 0.000894 -0.999209
vn -0.410051 -0.157423 -0.898374
vn -0.824706 -0.254120 -0.505255
s 1
g Scalenus_Anterior_Muscle_Left_03_Mesh group1
usemtl Scalenus_Anterior_Muscle_Left5_phong1SG
f 66/1/1 1/4/2 3/3/3 41/2/4
f 41/2/4 3/3/3 5/6/5 43/5/6
f 43/7/6 5/10/5 7/9/7 44/8/8
f 44/8/8 7/9/7 9/12/9 45/11/10
f 45/11/10 9/12/9 11/14/11 46/13/12
f 46/13/12 11/14/11 13/16/13 47/15/14
f 47/15/14 13/16/13 15/18/15 48/17/16
f 48/17/16 15/18/15 1/4/2 66/1/1
f 65/19/17 4/22/18 2/21/19 42/20/20
f 67/23/21 6/24/22 4/22/18 65/19/17
f 68/25/23 8/28/24 6/27/22 67/26/21
f 69/29/25 10/30/26 8/28/24 68/25/23
f 70/31/27 12/32/28 10/30/26 69/29/25
f 71/33/29 14/34/30 12/32/28 70/31/27
f 72/35/31 16/36/32 14/34/30 71/33/29
f 42/20/20 2/21/19 16/36/32 72/35/31
f 57/37/33 17/40/34 18/39/35 50/38/36
f 59/41/37 19/42/38 17/40/34 57/37/33
f 60/43/39 20/46/40 19/45/38 59/44/37
f 61/47/41 21/48/42 20/46/40 60/43/39
f 62/49/43 22/50/44 21/48/42 61/47/41
f 63/51/45 23/52/46 22/50/44 62/49/43
f 64/53/47 24/54/48 23/52/46 63/51/45
f 50/38/36 18/39/35 24/54/48 64/53/47
f 58/55/49 18/39/35 17/40/34 49/56/50
f 49/56/50 17/40/34 19/42/38 51/57/51
f 51/58/51 19/45/38 20/46/40 52/59/52
f 52/59/52 20/46/40 21/48/42 53/60/53
f 53/60/53 21/48/42 22/50/44 54/61/54
f 54/61/54 22/50/44 23/52/46 55/62/55
f 55/62/55 23/52/46 24/54/48 56/63/56
f 56/63/56 24/54/48 18/39/35 58/55/49
f 41/2/4 25/65/57 34/64/58 66/1/1
f 43/5/6 27/66/59 25/65/57 41/2/4
f 44/8/8 28/68/60 27/67/59 43/7/6
f 45/11/10 29/69/61 28/68/60 44/8/8
f 46/13/12 30/70/62 29/69/61 45/11/10
f 47/15/14 31/71/63 30/70/62 46/13/12
f 48/17/16 32/72/64 31/71/63 47/15/14
f 66/1/1 34/64/58 32/72/64 48/17/16
f 42/20/20 26/74/65 33/73/66 65/19/17
f 65/19/17 33/73/66 35/75/67 67/23/21
f 67/26/21 35/77/67 36/76/68 68/25/23
f 68/25/23 36/76/68 37/78/69 69/29/25
f 69/29/25 37/78/69 38/79/70 70/31/27
f 70/31/27 38/79/70 39/80/71 71/33/29
f 71/33/29 39/80/71 40/81/72 72/35/31
f 72/35/31 40/81/72 26/74/65 42/20/20
f 50/38/36 34/64/58 25/65/57 57/37/33
f 57/37/33 25/65/57 27/66/59 59/41/37
f 59/44/37 27/67/59 28/68/60 60/43/39
f 60/43/39 28/68/60 29/69/61 61/47/41
f 61/47/41 29/69/61 30/70/62 62/49/43
f 62/49/43 30/70/62 31/71/63 63/51/45
f 63/51/45 31/71/63 32/72/64 64/53/47
f 64/53/47 32/72/64 34/64/58 50/38/36
f 49/56/50 33/73/66 26/74/65 58/55/49
f 51/57/51 35/75/67 33/73/66 49/56/50
f 52/59/52 36/76/68 35/77/67 51/58/51
f 53/60/53 37/78/69 36/76/68 52/59/52
f 54/61/54 38/79/70 37/78/69 53/60/53
f 55/62/55 39/80/71 38/79/70 54/61/54
f 56/63/56 40/81/72 39/80/71 55/62/55
f 58/55/49 26/74/65 40/81/72 56/63/56
