# This file uses centimeters as units for non-parametric coordinates.

mtllib Semispinalis_Capitis_Muscle_Left_02.mtl
g default
v 0.162956 0.372759 -0.842187
v 0.144737 0.470247 -0.794533
v 0.170974 0.369175 -0.832335
v 0.152002 0.465275 -0.785491
v 0.186418 0.368824 -0.826683
v 0.165574 0.462955 -0.780381
v 0.200852 0.372417 -0.829848
v 0.178196 0.465586 -0.781770
v 0.205378 0.377207 -0.838074
v 0.181632 0.470545 -0.788943
v 0.197353 0.380123 -0.846447
v 0.174300 0.474131 -0.797082
v 0.182174 0.379608 -0.850086
v 0.160657 0.474514 -0.801152
v 0.167373 0.376871 -0.849559
v 0.148277 0.474140 -0.801231
v 0.202782 -0.017719 -1.155822
v 0.210531 -0.020193 -1.148058
v 0.231029 -0.020536 -1.142160
v 0.209891 -0.014772 -1.163796
v 0.251222 -0.018515 -1.139982
v 0.229089 -0.013025 -1.165358
v 0.258738 -0.015306 -1.145197
v 0.250200 -0.013039 -1.156100
v 0.297732 -0.386770 -1.334607
v 0.299768 -0.386829 -1.327355
v 0.310938 -0.386780 -1.323343
v 0.306091 -0.386621 -1.341965
v 0.322426 -0.386665 -1.323947
v 0.317371 -0.386517 -1.343185
v 0.328396 -0.386604 -1.326846
v 0.326381 -0.386553 -1.334839
v 0.114523 1.061979 -0.674797
v 0.115909 1.064796 -0.686152
v 0.119804 1.060793 -0.662179
v 0.123875 1.066690 -0.691840
v 0.130166 1.063290 -0.657822
v 0.133902 1.067480 -0.686852
v 0.138403 1.066828 -0.662034
v 0.139412 1.068182 -0.672769
v 0.070577 1.541496 -0.910124
v 0.071680 1.550592 -0.917240
v 0.076055 1.535246 -0.906745
v 0.078339 1.557335 -0.922221
v 0.085052 1.536154 -0.906441
v 0.087042 1.558275 -0.921500
v 0.091944 1.543755 -0.908813
v 0.092726 1.552877 -0.915499
v 0.171379 0.239252 -0.937063
v 0.180406 0.111004 -1.041271
v 0.188694 0.108675 -1.030694
v 0.180336 0.236397 -0.925961
v 0.209066 0.108788 -1.024936
v 0.200468 0.235128 -0.916298
v 0.178158 0.240824 -0.944206
v 0.187143 0.114422 -1.050077
v 0.229209 0.110355 -1.026550
v 0.217472 0.236866 -0.916383
v 0.199278 0.240051 -0.941826
v 0.206510 0.116016 -1.050483
v 0.236233 0.113253 -1.035018
v 0.224614 0.241156 -0.928443
v 0.217118 0.242203 -0.937954
v 0.227522 0.115553 -1.044454
v 0.228510 -0.127069 -1.232403
v 0.258737 -0.253736 -1.297216
v 0.266552 -0.247929 -1.286553
v 0.235590 -0.129679 -1.226152
v 0.284147 -0.244858 -1.280557
v 0.253687 -0.130129 -1.222348
v 0.235747 -0.123489 -1.239316
v 0.265559 -0.259115 -1.305659
v 0.301525 -0.245966 -1.284860
v 0.271380 -0.128309 -1.221310
v 0.253508 -0.121258 -1.241041
v 0.283176 -0.260687 -1.308294
v 0.308824 -0.251009 -1.295080
v 0.278293 -0.125057 -1.225846
v 0.271265 -0.122116 -1.234558
v 0.301315 -0.257250 -1.304245
v 0.122421 0.639626 -0.738476
v 0.110607 0.828644 -0.683528
v 0.109327 0.831844 -0.694322
v 0.120355 0.643740 -0.747995
v 0.129656 0.638559 -0.730503
v 0.119188 0.827719 -0.672771
v 0.115692 0.835157 -0.698922
v 0.124036 0.648449 -0.753237
v 0.141020 0.641830 -0.729814
v 0.130335 0.829964 -0.670108
v 0.127164 0.836905 -0.693384
v 0.131959 0.650734 -0.748806
v 0.146767 0.646812 -0.736171
v 0.137710 0.833830 -0.676049
v 0.136620 0.836754 -0.685124
v 0.142830 0.650465 -0.743684
v 0.089715 1.259493 -0.753179
v 0.074948 1.411612 -0.883229
v 0.075904 1.406672 -0.885497
v 0.089254 1.261929 -0.760081
v 0.096054 1.260008 -0.744226
v 0.079785 1.416815 -0.881290
v 0.081927 1.404858 -0.886957
v 0.095114 1.265179 -0.761977
v 0.104660 1.263773 -0.737655
v 0.087816 1.419481 -0.880680
v 0.089690 1.407406 -0.886694
v 0.104028 1.267864 -0.757255
v 0.111070 1.267401 -0.739660
v 0.094198 1.417952 -0.881939
v 0.094887 1.412899 -0.884545
v 0.110782 1.268871 -0.748091
v 0.073231 1.478676 -0.923490
v 0.081900 1.480627 -0.929321
v 0.093166 1.482517 -0.930070
v 0.100185 1.483126 -0.925230
v 0.072441 1.477585 -0.917445
v 0.079677 1.477833 -0.914608
v 0.090796 1.479572 -0.915481
v 0.099233 1.481874 -0.919292
vt 0.499146 0.500000
vt 0.570291 0.500000
vt 0.570291 0.571144
vt 0.499146 0.571144
vt 0.001138 0.500000
vt 0.072282 0.500000
vt 0.072282 0.571144
vt 0.001138 0.571144
vt 0.143426 0.500000
vt 0.143426 0.571144
vt 0.214570 0.500000
vt 0.214570 0.571144
vt 0.285714 0.500000
vt 0.285714 0.571144
vt 0.356858 0.500000
vt 0.356858 0.571144
vt 0.428002 0.500000
vt 0.428002 0.571144
vt 0.570291 0.642288
vt 0.499146 0.642288
vt 0.072282 0.642288
vt 0.001138 0.642288
vt 0.428002 0.642288
vt 0.143426 0.642288
vt 0.356858 0.642288
vt 0.214570 0.642288
vt 0.285714 0.642288
vt 0.570291 0.855720
vt 0.499146 0.855720
vt 0.499146 0.784576
vt 0.570291 0.784576
vt 0.072282 0.855720
vt 0.001138 0.855720
vt 0.001138 0.784576
vt 0.072282 0.784576
vt 0.428002 0.855720
vt 0.428002 0.784576
vt 0.143426 0.855720
vt 0.143426 0.784576
vt 0.356858 0.855720
vt 0.356858 0.784576
vt 0.214570 0.855720
vt 0.214570 0.784576
vt 0.285714 0.855720
vt 0.285714 0.784576
vt 0.499146 0.428856
vt 0.570291 0.428856
vt 0.001138 0.428856
vt 0.072282 0.428856
vt 0.428002 0.428856
vt 0.143426 0.428856
vt 0.356858 0.428856
vt 0.214570 0.428856
vt 0.285714 0.428856
vt 0.499146 0.215424
vt 0.570291 0.215424
vt 0.570291 0.286568
vt 0.499146 0.286568
vt 0.001138 0.215424
vt 0.072282 0.215424
vt 0.072282 0.286568
vt 0.001138 0.286568
vt 0.428002 0.215424
vt 0.428002 0.286568
vt 0.143426 0.215424
vt 0.143426 0.286568
vt 0.356858 0.215424
vt 0.356858 0.286568
vt 0.214570 0.215424
vt 0.214570 0.286568
vt 0.285714 0.215424
vt 0.285714 0.286568
vt 0.570291 0.713432
vt 0.499146 0.713432
vt 0.001138 0.713432
vt 0.072282 0.713432
vt 0.428002 0.713432
vt 0.143426 0.713432
vt 0.356858 0.713432
vt 0.214570 0.713432
vt 0.285714 0.713432
vt 0.570291 0.926864
vt 0.499146 0.926864
vt 0.570291 0.998008
vt 0.499146 0.998008
vt 0.001138 0.926864
vt 0.072282 0.926864
vt 0.072282 0.998008
vt 0.001138 0.998008
vt 0.428002 0.926864
vt 0.428002 0.998008
vt 0.143426 0.926864
vt 0.143426 0.998008
vt 0.356858 0.926864
vt 0.356858 0.998008
vt 0.214570 0.926864
vt 0.214570 0.998008
vt 0.285714 0.926864
vt 0.285714 0.998008
vt 0.499146 0.357712
vt 0.570291 0.357712
vt 0.001138 0.357712
vt 0.072282 0.357712
vt 0.428002 0.357712
vt 0.143426 0.357712
vt 0.356858 0.357712
vt 0.214570 0.357712
vt 0.285714 0.357712
vt 0.499146 0.144280
vt 0.570291 0.144280
vt 0.570291 0.073136
vt 0.499146 0.073136
vt 0.499146 0.001992
vt 0.570291 0.001992
vt 0.001138 0.144280
vt 0.072282 0.144280
vt 0.072282 0.073136
vt 0.001138 0.073136
vt 0.001138 0.001992
vt 0.072282 0.001992
vt 0.428002 0.073136
vt 0.428002 0.001992
vt 0.428002 0.144280
vt 0.143426 0.144280
vt 0.143426 0.073136
vt 0.143426 0.001992
vt 0.356858 0.073136
vt 0.356858 0.001992
vt 0.356858 0.144280
vt 0.214570 0.144280
vt 0.214570 0.073136
vt 0.214570 0.001992
vt 0.285714 0.073136
vt 0.285714 0.001992
vt 0.285714 0.144280
vn -0.981378 -0.183129 0.057970
vn -0.970211 -0.201449 0.134570
vn -0.539120 -0.490091 0.684953
vn -0.667702 -0.359945 0.651624
vn -0.090783 -0.521290 0.848537
vn -0.156216 -0.371296 0.915279
vn 0.549813 -0.357952 0.754702
vn 0.485824 -0.209602 0.848553
vn 0.979936 0.196036 -0.036002
vn 0.976546 0.212782 0.032886
vn 0.437895 0.525425 -0.729504
vn 0.552703 0.398472 -0.731942
vn 0.081489 0.531056 -0.843409
vn 0.190167 0.381656 -0.904531
vn -0.350712 0.462482 -0.814316
vn -0.398371 0.256707 -0.880569
vn -0.507664 -0.547130 0.665526
vn -0.983791 -0.149195 0.099482
vn -0.112773 -0.607028 0.786638
vn -0.279687 0.573239 -0.770177
vn 0.477896 -0.494931 0.725713
vn 0.086335 0.612927 -0.785409
vn 0.993668 0.111291 -0.015412
vn 0.398109 0.580806 -0.710052
vn -0.379729 -0.548816 0.744719
vn -0.400723 -0.627751 0.667346
vn -0.987304 -0.151076 -0.049068
vn -0.978291 -0.203174 -0.040828
vn -0.090098 -0.541474 0.835876
vn -0.096241 -0.644544 0.758486
vn -0.363369 0.534914 -0.762778
vn -0.349926 0.414714 -0.839979
vn 0.260624 -0.475288 0.840344
vn 0.257594 -0.586066 0.768227
vn 0.098691 0.630890 -0.769570
vn 0.081002 0.516079 -0.852702
vn 0.972556 0.228152 -0.045615
vn 0.979672 0.199208 -0.023624
vn 0.453209 0.608699 -0.651219
vn 0.428682 0.528664 -0.732629
vn -0.991024 -0.069325 -0.114303
vn -0.832086 -0.234041 0.502849
vn -0.361258 -0.295651 0.884355
vn -0.240040 0.246942 -0.938829
vn 0.378309 -0.216275 0.900060
vn 0.376844 0.289978 -0.879716
vn 0.986321 0.069859 0.149300
vn 0.680027 0.271751 -0.680966
vn -0.719139 -0.371001 -0.587536
vn -0.883764 -0.100037 -0.457114
vn -0.953059 0.012790 0.302515
vn -0.947633 0.101250 0.302886
vn -0.663835 0.061572 0.745341
vn -0.695134 0.303412 0.651712
vn 0.192220 -0.487576 -0.851658
vn 0.100282 -0.145550 -0.984255
vn -0.030049 0.117189 0.992655
vn -0.250340 0.452689 0.855806
vn 0.676476 -0.313320 -0.666491
vn 0.722430 -0.050250 -0.689615
vn 0.818912 0.149631 0.554071
vn 0.696647 0.459244 0.551161
vn 0.956291 -0.028931 -0.290983
vn 0.962771 0.032516 -0.268356
vn -0.985994 -0.161262 0.042552
vn -0.445893 -0.613972 0.651320
vn -0.102792 -0.661498 0.742869
vn -0.326596 0.592722 -0.736217
vn 0.355448 -0.591593 0.723654
vn 0.092562 0.660517 -0.745084
vn 0.990287 0.138087 -0.016218
vn 0.407417 0.629144 -0.661958
vn -0.980140 -0.186632 -0.067041
vn -0.421809 -0.435057 0.795489
vn -0.957368 -0.224887 -0.181306
vn -0.495095 -0.356011 0.792551
vn -0.055164 -0.295319 0.953805
vn -0.064657 -0.401323 0.913652
vn -0.355166 0.257032 -0.898773
vn -0.317656 0.166662 -0.933444
vn 0.392583 -0.190542 0.899763
vn 0.360974 -0.285143 0.887914
vn 0.089669 0.374495 -0.922883
vn 0.161290 0.287004 -0.944253
vn 0.987902 0.154075 -0.017633
vn 0.957575 0.278331 -0.074712
vn 0.457297 0.401394 -0.793576
vn 0.540623 0.303503 -0.784610
vn -0.929241 -0.080994 0.360488
vn -0.962522 0.024025 -0.270139
vn -0.561827 -0.152349 0.813105
vn -0.073221 0.135296 -0.988096
vn 0.190568 -0.151511 0.969911
vn 0.589045 0.120077 -0.799130
vn 0.911562 -0.032100 0.409909
vn 0.899204 0.083559 -0.429477
vn -0.878125 0.256892 0.403612
vn -0.676028 -0.467149 -0.569875
vn -0.925971 0.039622 0.375510
vn -0.992903 -0.044740 0.110189
vn -0.701852 0.041849 -0.711092
vn -0.724554 -0.185962 -0.663657
vn -0.531194 0.490580 0.690771
vn -0.250723 0.210345 0.944930
vn -0.236475 -0.141624 0.961261
vn -0.234539 0.087220 -0.968186
vn -0.217715 -0.211157 -0.952897
vn 0.095682 -0.607573 -0.788480
vn -0.182413 0.596951 0.781265
vn 0.168037 0.213864 0.962302
vn 0.268001 -0.121378 0.955742
vn 0.239946 0.127811 -0.962336
vn 0.328442 -0.174152 -0.928330
vn 0.509226 -0.512662 -0.691278
vn 0.596091 0.520346 0.611487
vn 0.791963 0.102341 0.601931
vn 0.887374 0.024958 0.460374
vn 0.812270 0.149852 -0.563703
vn 0.880962 -0.091109 -0.464333
vn 0.897097 -0.234813 -0.374272
s 1
g Semispinalis_Capitis_Muscle_Left_02 group1
usemtl Semispinalis_Capitis_Muscle_03_Left1_phong1SG
f 2/1/1 1/4/2 3/3/3 4/2/4
f 4/5/4 3/8/3 5/7/5 6/6/6
f 6/6/6 5/7/5 7/10/7 8/9/8
f 8/9/8 7/10/7 9/12/9 10/11/10
f 10/11/10 9/12/9 11/14/11 12/13/12
f 12/13/12 11/14/11 13/16/13 14/15/14
f 14/15/14 13/16/13 15/18/15 16/17/16
f 16/17/16 15/18/15 1/4/2 2/1/1
f 52/19/17 3/3/3 1/4/2 49/20/18
f 54/21/19 5/7/5 3/8/3 52/22/17
f 49/20/18 1/4/2 15/18/15 55/23/20
f 58/24/21 7/10/7 5/7/5 54/21/19
f 55/23/20 15/18/15 13/16/13 59/25/22
f 62/26/23 9/12/9 7/10/7 58/24/21
f 59/25/22 13/16/13 11/14/11 63/27/24
f 63/27/24 11/14/11 9/12/9 62/26/23
f 68/28/25 18/31/26 17/30/27 65/29/28
f 70/32/29 19/35/30 18/34/26 68/33/25
f 65/29/28 17/30/27 20/37/31 71/36/32
f 74/38/33 21/39/34 19/35/30 70/32/29
f 71/36/32 20/37/31 22/41/35 75/40/36
f 78/42/37 23/43/38 21/39/34 74/38/33
f 75/40/36 22/41/35 24/45/39 79/44/40
f 79/44/40 24/45/39 23/43/38 78/42/37
f 84/46/41 2/1/1 4/2/4 81/47/42
f 81/48/42 4/5/4 6/6/6 85/49/43
f 88/50/44 16/17/16 2/1/1 84/46/41
f 85/49/43 6/6/6 8/9/8 89/51/45
f 92/52/46 14/15/14 16/17/16 88/50/44
f 89/51/45 8/9/8 10/11/10 93/53/47
f 96/54/48 12/13/12 14/15/14 92/52/46
f 93/53/47 10/11/10 12/13/12 96/54/48
f 100/55/49 34/58/50 33/57/51 97/56/52
f 97/59/52 33/62/51 35/61/53 101/60/54
f 104/63/55 36/64/56 34/58/50 100/55/49
f 101/60/54 35/61/53 37/66/57 105/65/58
f 108/67/59 38/68/60 36/64/56 104/63/55
f 105/65/58 37/66/57 39/70/61 109/69/62
f 112/71/63 40/72/64 38/68/60 108/67/59
f 109/69/62 39/70/61 40/72/64 112/71/63
f 49/20/18 50/74/65 51/73/66 52/19/17
f 50/74/65 17/30/27 18/31/26 51/73/66
f 51/75/66 18/34/26 19/35/30 53/76/67
f 52/22/17 51/75/66 53/76/67 54/21/19
f 55/23/20 56/77/68 50/74/65 49/20/18
f 56/77/68 20/37/31 17/30/27 50/74/65
f 53/76/67 19/35/30 21/39/34 57/78/69
f 54/21/19 53/76/67 57/78/69 58/24/21
f 59/25/22 60/79/70 56/77/68 55/23/20
f 60/79/70 22/41/35 20/37/31 56/77/68
f 57/78/69 21/39/34 23/43/38 61/80/71
f 58/24/21 57/78/69 61/80/71 62/26/23
f 63/27/24 64/81/72 60/79/70 59/25/22
f 64/81/72 24/45/39 22/41/35 60/79/70
f 61/80/71 23/43/38 24/45/39 64/81/72
f 62/26/23 61/80/71 64/81/72 63/27/24
f 65/29/28 66/83/73 67/82/74 68/28/25
f 66/83/73 25/85/75 26/84/76 67/82/74
f 67/86/74 26/89/76 27/88/77 69/87/78
f 68/33/25 67/86/74 69/87/78 70/32/29
f 71/36/32 72/90/79 66/83/73 65/29/28
f 72/90/79 28/91/80 25/85/75 66/83/73
f 69/87/78 27/88/77 29/93/81 73/92/82
f 70/32/29 69/87/78 73/92/82 74/38/33
f 75/40/36 76/94/83 72/90/79 71/36/32
f 76/94/83 30/95/84 28/91/80 72/90/79
f 73/92/82 29/93/81 31/97/85 77/96/86
f 74/38/33 73/92/82 77/96/86 78/42/37
f 79/44/40 80/98/87 76/94/83 75/40/36
f 80/98/87 32/99/88 30/95/84 76/94/83
f 77/96/86 31/97/85 32/99/88 80/98/87
f 78/42/37 77/96/86 80/98/87 79/44/40
f 81/47/42 82/101/89 83/100/90 84/46/41
f 82/101/89 33/57/51 34/58/50 83/100/90
f 85/49/43 86/103/91 82/102/89 81/48/42
f 86/103/91 35/61/53 33/62/51 82/102/89
f 83/100/90 34/58/50 36/64/56 87/104/92
f 84/46/41 83/100/90 87/104/92 88/50/44
f 89/51/45 90/105/93 86/103/91 85/49/43
f 90/105/93 37/66/57 35/61/53 86/103/91
f 87/104/92 36/64/56 38/68/60 91/106/94
f 88/50/44 87/104/92 91/106/94 92/52/46
f 93/53/47 94/107/95 90/105/93 89/51/45
f 94/107/95 39/70/61 37/66/57 90/105/93
f 91/106/94 38/68/60 40/72/64 95/108/96
f 92/52/46 91/106/94 95/108/96 96/54/48
f 96/54/48 95/108/96 94/107/95 93/53/47
f 95/108/96 40/72/64 39/70/61 94/107/95
f 97/56/52 98/110/97 99/109/98 100/55/49
f 117/111/99 41/114/100 42/113/101 113/112/102
f 101/60/54 102/116/103 98/115/97 97/59/52
f 118/117/104 43/120/105 41/119/100 117/118/99
f 113/112/102 42/113/101 44/122/106 114/121/107
f 100/55/49 99/109/98 103/123/108 104/63/55
f 105/65/58 106/124/109 102/116/103 101/60/54
f 119/125/110 45/126/111 43/120/105 118/117/104
f 114/121/107 44/122/106 46/128/112 115/127/113
f 104/63/55 103/123/108 107/129/114 108/67/59
f 109/69/62 110/130/115 106/124/109 105/65/58
f 120/131/116 47/132/117 45/126/111 119/125/110
f 115/127/113 46/128/112 48/134/118 116/133/119
f 108/67/59 107/129/114 111/135/120 112/71/63
f 112/71/63 111/135/120 110/130/115 109/69/62
f 116/133/119 48/134/118 47/132/117 120/131/116
f 113/112/102 99/109/98 98/110/97 117/111/99
f 117/118/99 98/115/97 102/116/103 118/117/104
f 114/121/107 103/123/108 99/109/98 113/112/102
f 118/117/104 102/116/103 106/124/109 119/125/110
f 115/127/113 107/129/114 103/123/108 114/121/107
f 119/125/110 106/124/109 110/130/115 120/131/116
f 116/133/119 111/135/120 107/129/114 115/127/113
f 120/131/116 110/130/115 111/135/120 116/133/119
