# This file uses centimeters as units for non-parametric coordinates.

mtllib Semispinalis_Cervicis_Muscle_Right_04.mtl
g default
v -0.256845 1.114605 -0.516591
v -0.259348 1.172045 -0.585001
v -0.271396 1.119461 -0.505543
v -0.271053 1.177395 -0.570792
v -0.285645 1.120071 -0.507070
v -0.285052 1.179066 -0.566635
v -0.290803 1.116076 -0.520396
v -0.294478 1.176540 -0.573447
v -0.285019 1.109385 -0.537778
v -0.294274 1.170393 -0.588778
v -0.269785 1.104509 -0.549634
v -0.281898 1.164825 -0.603861
v -0.255977 1.103842 -0.550054
v -0.267446 1.163097 -0.609443
v -0.251691 1.107927 -0.535892
v -0.258364 1.165442 -0.602394
v -0.274782 1.317036 -0.702550
v -0.263814 1.316008 -0.701110
v -0.278750 1.315094 -0.710441
v -0.251782 1.312572 -0.707541
v -0.273042 1.311361 -0.720413
v -0.245655 1.308861 -0.717719
v -0.260952 1.308075 -0.726573
v -0.249598 1.307028 -0.725438
v -0.300591 1.540798 -0.857394
v -0.292328 1.537848 -0.858031
v -0.306100 1.549213 -0.862097
v -0.286461 1.542229 -0.862934
v -0.305576 1.558147 -0.870044
v -0.286466 1.551186 -0.870434
v -0.299716 1.562508 -0.875900
v -0.291952 1.559593 -0.875981
v -0.188398 0.945517 -0.383632
v -0.197613 0.965883 -0.378369
v -0.208651 0.972132 -0.371830
v -0.184637 0.926514 -0.386679
v -0.217234 0.960522 -0.366782
v -0.188612 0.917702 -0.384734
v -0.217307 0.938015 -0.367873
v -0.201944 0.921391 -0.376547
v -0.275808 1.404791 -0.795919
v -0.266061 1.403893 -0.798083
v -0.280431 1.403046 -0.796410
v -0.257006 1.401278 -0.801694
v -0.277064 1.399794 -0.799550
v -0.253814 1.398233 -0.804710
v -0.267748 1.396894 -0.803317
v -0.258198 1.396265 -0.805471
v -0.268998 1.432484 -0.830407
v -0.269350 1.439217 -0.824322
v -0.278718 1.435041 -0.828539
v -0.260031 1.437613 -0.826322
v -0.282931 1.438137 -0.825696
v -0.256077 1.435053 -0.828920
v -0.279005 1.439854 -0.824320
v -0.259789 1.432775 -0.830656
v -0.255281 1.355938 -0.774087
v -0.274248 1.458755 -0.838224
v -0.250017 1.357948 -0.772835
v -0.265133 1.456263 -0.840370
v -0.252582 1.361320 -0.766616
v -0.261181 1.453463 -0.842605
v -0.261865 1.364140 -0.759449
v -0.264959 1.452518 -0.842849
v -0.265694 1.356501 -0.769937
v -0.275157 1.359339 -0.763251
v -0.277822 1.362833 -0.757506
v -0.272378 1.364811 -0.755818
v -0.283057 1.458548 -0.838445
v -0.286583 1.456469 -0.839679
v -0.282898 1.454756 -0.840963
v -0.273995 1.453394 -0.841847
v -0.278840 1.248425 -0.634522
v -0.260555 1.246248 -0.644655
v -0.291076 1.247904 -0.635860
v -0.250783 1.242273 -0.663292
v -0.293545 1.245485 -0.646483
v -0.254225 1.239794 -0.675006
v -0.283776 1.242201 -0.662300
v -0.266634 1.239906 -0.673855
v -0.221650 1.028206 -0.447440
v -0.229738 1.037937 -0.434474
v -0.243211 1.041597 -0.426744
v -0.223459 1.017845 -0.456830
v -0.256253 1.035822 -0.430020
v -0.236104 1.012503 -0.458942
v -0.259412 1.024715 -0.440814
v -0.249893 1.015781 -0.451588
v -0.282469 1.498901 -0.860239
v -0.273475 1.499166 -0.866316
v -0.270898 1.501389 -0.873596
v -0.277688 1.505108 -0.878830
v -0.292031 1.499407 -0.859131
v -0.298674 1.502115 -0.865241
v -0.297686 1.505541 -0.873302
v -0.289257 1.507168 -0.878925
vt 0.182543 0.726367
vt 0.273089 0.726367
vt 0.273089 0.816914
vt 0.182543 0.816914
vt 0.363636 0.726367
vt 0.363636 0.816914
vt 0.454183 0.726367
vt 0.454183 0.816914
vt 0.544730 0.726367
vt 0.544730 0.816914
vt 0.635277 0.726367
vt 0.635277 0.816914
vt 0.725824 0.726367
vt 0.725824 0.816914
vt 0.001449 0.726367
vt 0.091996 0.726367
vt 0.091996 0.816914
vt 0.001449 0.816914
vt 0.182543 0.635820
vt 0.273089 0.635820
vt 0.363636 0.635820
vt 0.091996 0.635820
vt 0.454183 0.635820
vt 0.001449 0.635820
vt 0.544730 0.635820
vt 0.635277 0.635820
vt 0.725824 0.635820
vt 0.182543 0.454726
vt 0.273089 0.454726
vt 0.273089 0.545273
vt 0.182543 0.545273
vt 0.363636 0.454726
vt 0.363636 0.545273
vt 0.091996 0.454726
vt 0.091996 0.545273
vt 0.454183 0.454726
vt 0.454183 0.545273
vt 0.001449 0.454726
vt 0.001449 0.545273
vt 0.544730 0.454726
vt 0.544730 0.545273
vt 0.635277 0.454726
vt 0.725824 0.454726
vt 0.725824 0.545273
vt 0.635277 0.545273
vt 0.273089 0.907461
vt 0.182543 0.907461
vt 0.363636 0.907461
vt 0.091996 0.907461
vt 0.454183 0.907461
vt 0.001449 0.907461
vt 0.544730 0.907461
vt 0.725824 0.907461
vt 0.635277 0.907461
vt 0.273089 0.092539
vt 0.182543 0.092539
vt 0.182543 0.001992
vt 0.273089 0.001992
vt 0.363636 0.092539
vt 0.363636 0.001992
vt 0.091996 0.092539
vt 0.091996 0.001992
vt 0.454183 0.092539
vt 0.454183 0.001992
vt 0.001449 0.092539
vt 0.001449 0.001992
vt 0.544730 0.092539
vt 0.544730 0.001992
vt 0.725824 0.092539
vt 0.635277 0.092539
vt 0.635277 0.001992
vt 0.725824 0.001992
vt 0.182543 0.273633
vt 0.273089 0.273633
vt 0.273089 0.364180
vt 0.182543 0.364180
vt 0.363636 0.273633
vt 0.363636 0.364180
vt 0.454183 0.273633
vt 0.454183 0.364180
vt 0.544730 0.273633
vt 0.544730 0.364180
vt 0.635277 0.273633
vt 0.635277 0.364180
vt 0.725824 0.273633
vt 0.725824 0.364180
vt 0.001449 0.273633
vt 0.091996 0.273633
vt 0.091996 0.364180
vt 0.001449 0.364180
vt 0.182543 0.183086
vt 0.273089 0.183086
vt 0.363636 0.183086
vt 0.091996 0.183086
vt 0.454183 0.183086
vt 0.001449 0.183086
vt 0.544730 0.183086
vt 0.635277 0.183086
vt 0.725824 0.183086
vt 0.273089 0.998008
vt 0.182543 0.998008
vt 0.363636 0.998008
vt 0.091996 0.998008
vt 0.454183 0.998008
vt 0.001449 0.998008
vt 0.544730 0.998008
vt 0.725824 0.998008
vt 0.635277 0.998008
vn 0.850783 0.376750 0.366371
vn 0.449592 0.641436 0.621632
vn 0.481454 0.689828 0.540683
vn 0.860961 0.458984 0.219270
vn -0.320595 0.665070 0.674463
vn -0.357574 0.603659 0.712557
vn -0.993116 0.066186 0.096643
vn -0.973722 -0.017886 0.227039
vn -0.845785 -0.367595 -0.386681
vn -0.853584 -0.453205 -0.256905
vn -0.512566 -0.575811 -0.636959
vn -0.510883 -0.661944 -0.548479
vn 0.240109 -0.657820 -0.713877
vn 0.226700 -0.671049 -0.705904
vn 0.995470 -0.067501 -0.066961
vn 0.972212 -0.007634 -0.233977
vn 0.724428 0.441241 0.529632
vn 0.258744 0.668564 0.697190
vn -0.575358 0.601400 0.554329
vn 0.984599 0.061524 0.163644
vn -0.973802 -0.081436 -0.212317
vn 0.592677 -0.543514 -0.594413
vn -0.698151 -0.421603 -0.578650
vn -0.325298 -0.583192 -0.744358
vn 0.388243 0.686372 0.614948
vn -0.090560 0.730754 0.676607
vn -0.076417 0.720018 0.689735
vn 0.470698 0.607713 0.639631
vn -0.992770 0.088228 0.081380
vn -0.952725 0.275423 0.128284
vn 0.707707 0.535238 0.461163
vn 0.815542 0.393943 0.423911
vn -0.690756 -0.499911 -0.522441
vn -0.789034 -0.359010 -0.498535
vn 0.990584 -0.022084 -0.135117
vn 0.969185 -0.133212 -0.207206
vn -0.375346 -0.628101 -0.681619
vn -0.447943 -0.562267 -0.695128
vn 0.090336 -0.658226 -0.747381
vn 0.044581 -0.633993 -0.772053
vn 0.662580 0.637382 0.393360
vn 0.912613 0.407030 0.038264
vn -0.061912 0.652428 0.755317
vn 0.890142 -0.049478 -0.452990
vn -0.862906 0.077331 0.499414
vn -0.013993 -0.680867 -0.732273
vn -0.900780 -0.431280 -0.050920
vn -0.611029 -0.660233 -0.436733
vn -0.276288 0.185605 0.942982
vn 0.320664 0.325479 0.889516
vn 0.345337 0.039700 0.937639
vn -0.547059 -0.141033 0.825128
vn -0.958577 -0.260097 0.116104
vn -0.987429 -0.151496 -0.045090
vn 0.686298 0.366039 0.628498
vn 0.814422 0.206631 0.542236
vn -0.668444 -0.338964 -0.662032
vn -0.739442 -0.082146 -0.668190
vn 0.941169 0.020458 -0.337318
vn 0.877572 0.277613 -0.390894
vn -0.256350 -0.295701 -0.920242
vn -0.356347 -0.007986 -0.934320
vn 0.235867 -0.246960 -0.939882
vn 0.163997 0.099080 -0.981472
vn 0.220008 0.600170 0.769020
vn -0.080446 0.601333 0.794939
vn 0.006711 0.669381 0.742889
vn 0.333652 0.632164 0.699318
vn -0.993564 -0.009242 0.112891
vn -0.980588 0.106534 0.164611
vn -0.478223 -0.545806 -0.688039
vn -0.615500 -0.525886 -0.587030
vn -0.223715 -0.571263 -0.789690
vn -0.343935 -0.595969 -0.725624
vn 0.094720 -0.550008 -0.829771
vn 0.005110 -0.602973 -0.797745
vn 0.993996 0.078762 -0.075946
vn 0.979132 -0.053226 -0.196133
vn 0.481423 0.552752 0.680218
vn 0.609379 0.531003 0.588807
vn 0.228087 0.541511 0.809161
vn -0.186370 0.462661 0.866724
vn -0.974727 -0.172240 0.142270
vn 0.529304 0.536452 0.657310
vn -0.395993 -0.570129 -0.719821
vn 0.940648 -0.008625 -0.339275
vn -0.177644 -0.570523 -0.801840
vn 0.038235 -0.544459 -0.837915
vn 0.817690 0.529787 0.225185
vn 0.949276 0.264028 -0.170778
vn 0.107589 0.649279 0.752902
vn 0.619503 -0.292660 -0.728399
vn -0.813275 0.072208 0.577382
vn -0.251153 -0.675370 -0.693396
vn -0.864687 -0.495504 -0.082413
vn -0.619629 -0.654625 -0.433044
s 1
g Semispinalis_Cervicis_Muscle_Right_04 group1
usemtl Semispinalis_Cervicis_Muscle_04_Right_phong1SG
f 2/1/1 4/2/2 3/3/3 1/4/4
f 4/2/2 6/5/5 5/6/6 3/3/3
f 6/5/5 8/7/7 7/8/8 5/6/6
f 8/7/7 10/9/9 9/10/10 7/8/8
f 10/9/9 12/11/11 11/12/12 9/10/10
f 12/11/11 14/13/13 13/14/14 11/12/12
f 14/15/13 16/16/15 15/17/16 13/18/14
f 16/16/15 2/1/1 1/4/4 15/17/16
f 74/19/17 73/20/18 4/2/2 2/1/1
f 73/20/18 75/21/19 6/5/5 4/2/2
f 76/22/20 74/19/17 2/1/1 16/16/15
f 75/21/19 77/23/21 8/7/7 6/5/5
f 78/24/22 76/22/20 16/16/15 14/15/13
f 77/23/21 79/25/23 10/9/9 8/7/7
f 80/26/24 78/27/22 14/13/13 12/11/11
f 79/25/23 80/26/24 12/11/11 10/9/9
f 63/28/25 68/29/26 17/30/27 18/31/28
f 68/29/26 67/32/29 19/33/30 17/30/27
f 61/34/31 63/28/25 18/31/28 20/35/32
f 67/32/29 66/36/33 21/37/34 19/33/30
f 59/38/35 61/34/31 20/35/32 22/39/36
f 66/36/33 65/40/37 23/41/38 21/37/34
f 57/42/39 59/43/35 22/44/36 24/45/40
f 65/40/37 57/42/39 24/45/40 23/41/38
f 82/46/41 81/47/42 1/4/4 3/3/3
f 83/48/43 82/46/41 3/3/3 5/6/6
f 81/47/42 84/49/44 15/17/16 1/4/4
f 85/50/45 83/48/43 5/6/6 7/8/8
f 84/49/44 86/51/46 13/18/14 15/17/16
f 87/52/47 85/50/45 7/8/8 9/10/10
f 86/53/46 88/54/48 11/12/12 13/14/14
f 88/54/48 87/52/47 9/10/10 11/12/12
f 93/55/49 89/56/50 26/57/51 25/58/52
f 94/59/53 93/55/49 25/58/52 27/60/54
f 89/56/50 90/61/55 28/62/56 26/57/51
f 95/63/57 94/59/53 27/60/54 29/64/58
f 90/61/55 91/65/59 30/66/60 28/62/56
f 96/67/61 95/63/57 29/64/58 31/68/62
f 91/69/59 92/70/63 32/71/64 30/72/60
f 92/70/63 96/67/61 31/68/62 32/71/64
f 50/73/65 55/74/66 41/75/67 42/76/68
f 55/74/66 53/77/69 43/78/70 41/75/67
f 53/77/69 51/79/71 45/80/72 43/78/70
f 51/79/71 49/81/73 47/82/74 45/80/72
f 49/81/73 56/83/75 48/84/76 47/82/74
f 56/83/75 54/85/77 46/86/78 48/84/76
f 54/87/77 52/88/79 44/89/80 46/90/78
f 52/88/79 50/73/65 42/76/68 44/89/80
f 68/29/26 63/28/25 42/76/68 41/75/67
f 67/32/29 68/29/26 41/75/67 43/78/70
f 63/28/25 61/34/31 44/89/80 42/76/68
f 66/36/33 67/32/29 43/78/70 45/80/72
f 61/34/31 59/38/35 46/90/78 44/89/80
f 65/40/37 66/36/33 45/80/72 47/82/74
f 59/43/35 57/42/39 48/84/76 46/86/78
f 57/42/39 65/40/37 47/82/74 48/84/76
f 58/91/81 69/92/82 55/74/66 50/73/65
f 69/92/82 70/93/83 53/77/69 55/74/66
f 60/94/84 58/91/81 50/73/65 52/88/79
f 70/93/83 71/95/85 51/79/71 53/77/69
f 62/96/86 60/94/84 52/88/79 54/87/77
f 71/95/85 72/97/87 49/81/73 51/79/71
f 64/98/88 62/99/86 54/85/77 56/83/75
f 72/97/87 64/98/88 56/83/75 49/81/73
f 73/20/18 74/19/17 18/31/28 17/30/27
f 75/21/19 73/20/18 17/30/27 19/33/30
f 74/19/17 76/22/20 20/35/32 18/31/28
f 77/23/21 75/21/19 19/33/30 21/37/34
f 76/22/20 78/24/22 22/39/36 20/35/32
f 79/25/23 77/23/21 21/37/34 23/41/38
f 78/27/22 80/26/24 24/45/40 22/44/36
f 80/26/24 79/25/23 23/41/38 24/45/40
f 81/47/42 82/46/41 34/100/89 33/101/90
f 82/46/41 83/48/43 35/102/91 34/100/89
f 84/49/44 81/47/42 33/101/90 36/103/92
f 83/48/43 85/50/45 37/104/93 35/102/91
f 86/51/46 84/49/44 36/103/92 38/105/94
f 85/50/45 87/52/47 39/106/95 37/104/93
f 88/54/48 86/53/46 38/107/94 40/108/96
f 87/52/47 88/54/48 40/108/96 39/106/95
f 89/56/50 93/55/49 69/92/82 58/91/81
f 93/55/49 94/59/53 70/93/83 69/92/82
f 90/61/55 89/56/50 58/91/81 60/94/84
f 94/59/53 95/63/57 71/95/85 70/93/83
f 91/65/59 90/61/55 60/94/84 62/96/86
f 95/63/57 96/67/61 72/97/87 71/95/85
f 92/70/63 91/69/59 62/99/86 64/98/88
f 96/67/61 92/70/63 64/98/88 72/97/87
