# This file uses centimeters as units for non-parametric coordinates.

mtllib Semispinalis_Capitis_Muscle_Right_05.mtl
g default
v -0.189748 0.906561 -0.684605
v -0.188332 0.972597 -0.675556
v -0.180129 0.904837 -0.673237
v -0.183114 0.970978 -0.664862
v -0.165852 0.903975 -0.654553
v -0.177069 0.969139 -0.653042
v -0.176380 0.906904 -0.645418
v -0.183206 0.970190 -0.646007
v -0.188389 0.908873 -0.647373
v -0.191772 0.972425 -0.647695
v -0.194880 0.910187 -0.657535
v -0.195501 0.974424 -0.655726
v -0.206646 0.909721 -0.673991
v -0.198929 0.974834 -0.667418
v -0.200840 0.908020 -0.686808
v -0.194516 0.974087 -0.677226
v -0.191511 0.611101 -0.796529
v -0.184505 0.611496 -0.781936
v -0.186956 0.612019 -0.750034
v -0.203903 0.612251 -0.784392
v -0.190799 0.612577 -0.723493
v -0.216520 0.612734 -0.751079
v -0.199143 0.613573 -0.713345
v -0.214717 0.613546 -0.722780
v -0.293148 0.399408 -0.909556
v -0.284399 0.399366 -0.901506
v -0.281665 0.399355 -0.892567
v -0.303097 0.399408 -0.903676
v -0.285973 0.399363 -0.885645
v -0.308425 0.399391 -0.892800
v -0.295791 0.399374 -0.880628
v -0.306227 0.399382 -0.883424
v -0.144800 1.279840 -0.760067
v -0.145733 1.278902 -0.764514
v -0.150395 1.281864 -0.757318
v -0.153325 1.278698 -0.769126
v -0.161503 1.284456 -0.759106
v -0.164562 1.280510 -0.771007
v -0.170878 1.286089 -0.763317
v -0.172057 1.284636 -0.767947
v -0.149037 1.544672 -0.908673
v -0.154713 1.557457 -0.916446
v -0.155483 1.535368 -0.904556
v -0.165213 1.564081 -0.920717
v -0.169113 1.535444 -0.904891
v -0.175828 1.564198 -0.920134
v -0.181359 1.545523 -0.908738
v -0.182822 1.558186 -0.915280
v -0.185316 0.805845 -0.712617
v -0.202369 0.705299 -0.745218
v -0.187451 0.704573 -0.730838
v -0.185046 0.805496 -0.698944
v -0.171852 0.704161 -0.703175
v -0.172352 0.804491 -0.673456
v -0.205538 0.805038 -0.714180
v -0.213659 0.706316 -0.740739
v -0.173634 0.703964 -0.680980
v -0.167326 0.802698 -0.649111
v -0.218952 0.803625 -0.696939
v -0.205809 0.706701 -0.712686
v -0.185883 0.704403 -0.675961
v -0.189354 0.805042 -0.652006
v -0.200314 0.806253 -0.664781
v -0.195285 0.705948 -0.685985
v -0.213789 0.534285 -0.828483
v -0.252521 0.470390 -0.854782
v -0.236525 0.466877 -0.864641
v -0.203011 0.532684 -0.823145
v -0.228040 0.464544 -0.863034
v -0.202728 0.535580 -0.803061
v -0.227229 0.538509 -0.815608
v -0.266739 0.472279 -0.844109
v -0.234992 0.466763 -0.852033
v -0.211086 0.541422 -0.779588
v -0.237278 0.543411 -0.794124
v -0.272394 0.473534 -0.835150
v -0.250799 0.470676 -0.837156
v -0.221549 0.545444 -0.766830
v -0.234444 0.546228 -0.774607
v -0.265919 0.473145 -0.830492
v -0.177136 1.061115 -0.668464
v -0.167156 1.166271 -0.701351
v -0.168302 1.164619 -0.708007
v -0.178094 1.061161 -0.675073
v -0.180031 1.062767 -0.663418
v -0.171105 1.169678 -0.695060
v -0.172990 1.165705 -0.711462
v -0.182893 1.062773 -0.679388
v -0.189133 1.065256 -0.664530
v -0.177769 1.171957 -0.693880
v -0.180977 1.168964 -0.710184
v -0.189032 1.065430 -0.677046
v -0.195828 1.066719 -0.670120
v -0.182668 1.172552 -0.697827
v -0.184443 1.171726 -0.704473
v -0.195278 1.067024 -0.674374
v -0.140364 1.393293 -0.853043
v -0.146016 1.426138 -0.865296
v -0.140944 1.422472 -0.867159
v -0.142926 1.391989 -0.857596
v -0.144948 1.396631 -0.846441
v -0.161310 1.430511 -0.865213
v -0.148827 1.421833 -0.868767
v -0.157290 1.393423 -0.858952
v -0.155289 1.397873 -0.843669
v -0.176273 1.433277 -0.867826
v -0.165231 1.425005 -0.870508
v -0.169604 1.394178 -0.857444
v -0.168544 1.396872 -0.847846
v -0.181926 1.432629 -0.870757
v -0.178154 1.429266 -0.871968
v -0.173317 1.395905 -0.852990
v -0.144649 1.492811 -0.917150
v -0.157139 1.495201 -0.920708
v -0.175458 1.495943 -0.920027
v -0.185746 1.495605 -0.915838
v -0.144764 1.491980 -0.913025
v -0.156607 1.492947 -0.910804
v -0.174451 1.493805 -0.910247
v -0.185215 1.494783 -0.911798
vt 0.001138 0.500000
vt 0.072282 0.500000
vt 0.072282 0.571144
vt 0.001138 0.571144
vt 0.143426 0.500000
vt 0.143426 0.571144
vt 0.214570 0.500000
vt 0.214570 0.571144
vt 0.285714 0.500000
vt 0.285714 0.571144
vt 0.356858 0.500000
vt 0.356858 0.571144
vt 0.428002 0.500000
vt 0.428002 0.571144
vt 0.499146 0.500000
vt 0.499146 0.571144
vt 0.570290 0.500000
vt 0.570290 0.571144
vt 0.072282 0.642288
vt 0.001138 0.642288
vt 0.143426 0.642288
vt 0.570290 0.642288
vt 0.499146 0.642288
vt 0.214570 0.642288
vt 0.428002 0.642288
vt 0.285714 0.642288
vt 0.356858 0.642288
vt 0.072282 0.855720
vt 0.001138 0.855720
vt 0.001138 0.784576
vt 0.072282 0.784576
vt 0.143426 0.855720
vt 0.143426 0.784576
vt 0.570290 0.855720
vt 0.499146 0.855720
vt 0.499146 0.784576
vt 0.570290 0.784576
vt 0.214570 0.855720
vt 0.214570 0.784576
vt 0.428002 0.855720
vt 0.428002 0.784576
vt 0.285714 0.855720
vt 0.285714 0.784576
vt 0.356858 0.855720
vt 0.356858 0.784576
vt 0.001138 0.428856
vt 0.072282 0.428856
vt 0.143426 0.428856
vt 0.499146 0.428856
vt 0.570290 0.428856
vt 0.214570 0.428856
vt 0.428002 0.428856
vt 0.285714 0.428856
vt 0.356858 0.428856
vt 0.001138 0.215424
vt 0.072282 0.215424
vt 0.072282 0.286568
vt 0.001138 0.286568
vt 0.143426 0.215424
vt 0.143426 0.286568
vt 0.499146 0.215424
vt 0.570290 0.215424
vt 0.570290 0.286568
vt 0.499146 0.286568
vt 0.214570 0.215424
vt 0.214570 0.286568
vt 0.428002 0.215424
vt 0.428002 0.286568
vt 0.285714 0.215424
vt 0.285714 0.286568
vt 0.356858 0.215424
vt 0.356858 0.286568
vt 0.072282 0.713432
vt 0.001138 0.713432
vt 0.143426 0.713432
vt 0.570290 0.713432
vt 0.499146 0.713432
vt 0.214570 0.713432
vt 0.428002 0.713432
vt 0.285714 0.713432
vt 0.356858 0.713432
vt 0.072282 0.926864
vt 0.001138 0.926864
vt 0.072282 0.998008
vt 0.001138 0.998008
vt 0.143426 0.926864
vt 0.143426 0.998008
vt 0.570290 0.926864
vt 0.499146 0.926864
vt 0.570290 0.998008
vt 0.499146 0.998008
vt 0.214570 0.926864
vt 0.214570 0.998008
vt 0.428002 0.926864
vt 0.428002 0.998008
vt 0.285714 0.926864
vt 0.285714 0.998008
vt 0.356858 0.926864
vt 0.356858 0.998008
vt 0.001138 0.357712
vt 0.072282 0.357712
vt 0.143426 0.357712
vt 0.570290 0.357712
vt 0.499146 0.357712
vt 0.214570 0.357712
vt 0.428002 0.357712
vt 0.285714 0.357712
vt 0.356858 0.357712
vt 0.001138 0.144280
vt 0.072282 0.144280
vt 0.072282 0.073136
vt 0.001138 0.073136
vt 0.001138 0.001992
vt 0.072282 0.001992
vt 0.143426 0.144280
vt 0.143426 0.073136
vt 0.143426 0.001992
vt 0.570290 0.073136
vt 0.499146 0.073136
vt 0.499146 0.001992
vt 0.570290 0.001992
vt 0.499146 0.144280
vt 0.570290 0.144280
vt 0.214570 0.144280
vt 0.214570 0.073136
vt 0.214570 0.001992
vt 0.428002 0.073136
vt 0.428002 0.001992
vt 0.428002 0.144280
vt 0.285714 0.144280
vt 0.285714 0.073136
vt 0.285714 0.001992
vt 0.356858 0.073136
vt 0.356858 0.001992
vt 0.356858 0.144280
vn 0.718677 0.014975 -0.695183
vn 0.903356 0.037105 -0.427284
vn 0.864203 0.087106 -0.495546
vn 0.587220 0.179659 -0.789237
vn 0.979143 0.130679 0.155569
vn 0.977700 0.063504 -0.200173
vn 0.150735 0.112070 0.982201
vn 0.424495 -0.006178 0.905409
vn -0.634269 0.063294 0.770517
vn -0.514928 -0.027418 0.856795
vn -0.953658 0.013946 0.300570
vn -0.845137 -0.005413 0.534522
vn -0.988236 0.062177 -0.139726
vn -0.981213 0.073614 0.178330
vn -0.435597 0.089952 -0.895636
vn -0.499841 0.239058 -0.832472
vn 0.881944 0.099240 -0.460789
vn 0.541790 0.207307 -0.814548
vn 0.958048 0.055101 -0.281261
vn -0.634622 0.214385 -0.742492
vn 0.708426 -0.117928 0.695863
vn -0.984166 -0.024237 0.175584
vn -0.422018 -0.136851 0.896199
vn -0.837585 -0.085114 0.539636
vn 0.860696 0.020786 -0.508695
vn -0.188551 0.504621 -0.842500
vn 0.152001 0.431369 -0.889278
vn 0.954291 0.055179 -0.293743
vn 0.889533 -0.409953 0.201665
vn 0.983806 -0.178291 0.018408
vn -0.642778 0.523664 -0.559118
vn -0.806868 0.343219 -0.480796
vn 0.665298 -0.589713 0.457840
vn 0.836427 -0.404201 0.370151
vn -0.885783 0.419356 -0.198822
vn -0.984565 0.171216 -0.036287
vn 0.099634 -0.654818 0.749191
vn -0.050455 -0.464987 0.883879
vn -0.785455 -0.215328 0.580254
vn -0.880191 -0.086130 0.466739
vn 0.843625 -0.147120 -0.516384
vn 0.997920 -0.043057 -0.047979
vn 0.685018 0.150074 0.712901
vn -0.092643 -0.178175 -0.979628
vn -0.148044 0.237059 0.960149
vn -0.714805 -0.110037 -0.690612
vn -0.771047 0.184671 0.609412
vn -0.980568 0.007969 -0.196016
vn 0.395263 -0.544647 -0.739680
vn 0.929737 0.193938 0.313012
vn 0.938132 0.104936 0.329996
vn 0.618702 -0.490079 -0.614028
vn 0.395033 0.540731 0.742671
vn 0.412162 0.470169 0.780425
vn 0.044511 -0.563539 -0.824890
vn 0.101640 -0.565635 -0.818368
vn -0.063773 0.587277 0.806870
vn -0.081856 0.563650 0.821948
vn -0.249381 -0.547452 -0.798815
vn -0.322888 -0.509666 -0.797486
vn -0.512923 0.486052 0.707576
vn -0.543901 0.505073 0.670129
vn -0.879305 -0.291414 -0.376696
vn -0.959402 -0.116394 -0.256904
vn 0.910077 0.127492 -0.394343
vn 0.318029 0.356771 -0.878392
vn 0.982377 -0.010850 -0.186593
vn -0.885484 0.149411 -0.439994
vn 0.870487 -0.234358 0.432815
vn -0.987890 -0.018981 0.153990
vn -0.240936 -0.302585 0.922167
vn -0.850852 -0.126254 0.510011
vn 0.358826 0.307802 -0.881194
vn -0.263265 0.599166 -0.756103
vn 0.147409 0.448601 -0.881492
vn -0.269226 0.665360 -0.696286
vn 0.842879 -0.529837 0.093958
vn 0.812454 -0.574704 -0.098148
vn -0.542009 0.632782 -0.553004
vn -0.478645 0.683986 -0.550511
vn 0.528347 -0.660059 0.534014
vn 0.471437 -0.659094 0.585955
vn -0.858359 0.495648 -0.132485
vn -0.780709 0.580270 -0.231905
vn 0.243651 -0.668894 0.702293
vn 0.219349 -0.617996 0.754962
vn -0.439624 -0.399443 0.804473
vn -0.512659 -0.300874 0.804149
vn 0.810549 -0.318134 -0.491733
vn 0.956085 -0.001208 0.293087
vn 0.428317 0.309447 0.848992
vn 0.108417 -0.415408 -0.903151
vn -0.179747 0.411130 0.893679
vn -0.441584 -0.326755 -0.835604
vn -0.712277 0.361794 0.601470
vn -0.945330 -0.033700 -0.324369
vn 0.506438 -0.421180 -0.752415
vn 0.430932 0.519202 0.738056
vn 0.562669 0.415280 0.714805
vn 0.503954 -0.255419 -0.825101
vn 0.426364 0.062408 -0.902397
vn 0.994175 0.083759 0.067831
vn 0.124784 0.571556 0.811019
vn 0.124236 0.375188 0.918586
vn 0.194666 -0.115050 0.974099
vn 0.081558 -0.329558 -0.940606
vn 0.072684 0.013076 -0.997269
vn 0.044020 -0.511943 -0.857891
vn -0.098320 0.543232 0.833806
vn -0.093658 0.329562 0.939477
vn -0.131416 -0.099570 0.986314
vn -0.153684 -0.351345 -0.923546
vn -0.166997 0.000929 -0.985957
vn -0.101032 -0.534861 -0.838878
vn -0.611348 0.373229 0.697821
vn -0.685009 0.118096 0.718899
vn -0.781637 0.004691 0.623715
vn -0.537309 -0.353182 -0.765873
vn -0.560757 0.017398 -0.827798
vn -0.409981 -0.541112 -0.734244
s 1
g Semispinalis_Capitis_Muscle_Right_05 group1
usemtl Semispinalis_Capitis_Muscle_06_Right_phong1SG
f 2/1/1 4/2/2 3/3/3 1/4/4
f 4/2/2 6/5/5 5/6/6 3/3/3
f 6/5/5 8/7/7 7/8/8 5/6/6
f 8/7/7 10/9/9 9/10/10 7/8/8
f 10/9/9 12/11/11 11/12/12 9/10/10
f 12/11/11 14/13/13 13/14/14 11/12/12
f 14/13/13 16/15/15 15/16/16 13/14/14
f 16/15/15 2/17/1 1/18/4 15/16/16
f 52/19/17 49/20/18 1/4/4 3/3/3
f 54/21/19 52/19/17 3/3/3 5/6/6
f 49/22/18 55/23/20 15/16/16 1/18/4
f 58/24/21 54/21/19 5/6/6 7/8/8
f 55/23/20 59/25/22 13/14/14 15/16/16
f 62/26/23 58/24/21 7/8/8 9/10/10
f 59/25/22 63/27/24 11/12/12 13/14/14
f 63/27/24 62/26/23 9/10/10 11/12/12
f 68/28/25 65/29/26 17/30/27 18/31/28
f 70/32/29 68/28/25 18/31/28 19/33/30
f 65/34/26 71/35/31 20/36/32 17/37/27
f 74/38/33 70/32/29 19/33/30 21/39/34
f 71/35/31 75/40/35 22/41/36 20/36/32
f 78/42/37 74/38/33 21/39/34 23/43/38
f 75/40/35 79/44/39 24/45/40 22/41/36
f 79/44/39 78/42/37 23/43/38 24/45/40
f 84/46/41 81/47/42 4/2/2 2/1/1
f 81/47/42 85/48/43 6/5/5 4/2/2
f 88/49/44 84/50/41 2/17/1 16/15/15
f 85/48/43 89/51/45 8/7/7 6/5/5
f 92/52/46 88/49/44 16/15/15 14/13/13
f 89/51/45 93/53/47 10/9/9 8/7/7
f 96/54/48 92/52/46 14/13/13 12/11/11
f 93/53/47 96/54/48 12/11/11 10/9/9
f 100/55/49 97/56/50 33/57/51 34/58/52
f 97/56/50 101/59/53 35/60/54 33/57/51
f 104/61/55 100/62/49 34/63/52 36/64/56
f 101/59/53 105/65/57 37/66/58 35/60/54
f 108/67/59 104/61/55 36/64/56 38/68/60
f 105/65/57 109/69/61 39/70/62 37/66/58
f 112/71/63 108/67/59 38/68/60 40/72/64
f 109/69/61 112/71/63 40/72/64 39/70/62
f 49/20/18 52/19/17 51/73/65 50/74/66
f 50/74/66 51/73/65 18/31/28 17/30/27
f 51/73/65 53/75/67 19/33/30 18/31/28
f 52/19/17 54/21/19 53/75/67 51/73/65
f 55/23/20 49/22/18 50/76/66 56/77/68
f 56/77/68 50/76/66 17/37/27 20/36/32
f 53/75/67 57/78/69 21/39/34 19/33/30
f 54/21/19 58/24/21 57/78/69 53/75/67
f 59/25/22 55/23/20 56/77/68 60/79/70
f 60/79/70 56/77/68 20/36/32 22/41/36
f 57/78/69 61/80/71 23/43/38 21/39/34
f 58/24/21 62/26/23 61/80/71 57/78/69
f 63/27/24 59/25/22 60/79/70 64/81/72
f 64/81/72 60/79/70 22/41/36 24/45/40
f 61/80/71 64/81/72 24/45/40 23/43/38
f 62/26/23 63/27/24 64/81/72 61/80/71
f 65/29/26 68/28/25 67/82/73 66/83/74
f 66/83/74 67/82/73 26/84/75 25/85/76
f 67/82/73 69/86/77 27/87/78 26/84/75
f 68/28/25 70/32/29 69/86/77 67/82/73
f 71/35/31 65/34/26 66/88/74 72/89/79
f 72/89/79 66/88/74 25/90/76 28/91/80
f 69/86/77 73/92/81 29/93/82 27/87/78
f 70/32/29 74/38/33 73/92/81 69/86/77
f 75/40/35 71/35/31 72/89/79 76/94/83
f 76/94/83 72/89/79 28/91/80 30/95/84
f 73/92/81 77/96/85 31/97/86 29/93/82
f 74/38/33 78/42/37 77/96/85 73/92/81
f 79/44/39 75/40/35 76/94/83 80/98/87
f 80/98/87 76/94/83 30/95/84 32/99/88
f 77/96/85 80/98/87 32/99/88 31/97/86
f 78/42/37 79/44/39 80/98/87 77/96/85
f 81/47/42 84/46/41 83/100/89 82/101/90
f 82/101/90 83/100/89 34/58/52 33/57/51
f 85/48/43 81/47/42 82/101/90 86/102/91
f 86/102/91 82/101/90 33/57/51 35/60/54
f 83/103/89 87/104/92 36/64/56 34/63/52
f 84/50/41 88/49/44 87/104/92 83/103/89
f 89/51/45 85/48/43 86/102/91 90/105/93
f 90/105/93 86/102/91 35/60/54 37/66/58
f 87/104/92 91/106/94 38/68/60 36/64/56
f 88/49/44 92/52/46 91/106/94 87/104/92
f 93/53/47 89/51/45 90/105/93 94/107/95
f 94/107/95 90/105/93 37/66/58 39/70/62
f 91/106/94 95/108/96 40/72/64 38/68/60
f 92/52/46 96/54/48 95/108/96 91/106/94
f 96/54/48 93/53/47 94/107/95 95/108/96
f 95/108/96 94/107/95 39/70/62 40/72/64
f 97/56/50 100/55/49 99/109/97 98/110/98
f 117/111/99 113/112/100 42/113/101 41/114/102
f 101/59/53 97/56/50 98/110/98 102/115/103
f 118/116/104 117/111/99 41/114/102 43/117/105
f 113/118/100 114/119/106 44/120/107 42/121/101
f 100/62/49 104/61/55 103/122/108 99/123/97
f 105/65/57 101/59/53 102/115/103 106/124/109
f 119/125/110 118/116/104 43/117/105 45/126/111
f 114/119/106 115/127/112 46/128/113 44/120/107
f 104/61/55 108/67/59 107/129/114 103/122/108
f 109/69/61 105/65/57 106/124/109 110/130/115
f 120/131/116 119/125/110 45/126/111 47/132/117
f 115/127/112 116/133/118 48/134/119 46/128/113
f 108/67/59 112/71/63 111/135/120 107/129/114
f 112/71/63 109/69/61 110/130/115 111/135/120
f 116/133/118 120/131/116 47/132/117 48/134/119
f 113/112/100 117/111/99 98/110/98 99/109/97
f 117/111/99 118/116/104 102/115/103 98/110/98
f 114/119/106 113/118/100 99/123/97 103/122/108
f 118/116/104 119/125/110 106/124/109 102/115/103
f 115/127/112 114/119/106 103/122/108 107/129/114
f 119/125/110 120/131/116 110/130/115 106/124/109
f 116/133/118 115/127/112 107/129/114 111/135/120
f 120/131/116 116/133/118 111/135/120 110/130/115
