# This file uses centimeters as units for non-parametric coordinates.

mtllib Semispinalis_Cervicis_Muscle_Left_02.mtl
g default
v 0.196199 0.840055 -0.530853
v 0.210665 0.945208 -0.550020
v 0.209247 0.842997 -0.510026
v 0.221647 0.947895 -0.525961
v 0.228924 0.844049 -0.503776
v 0.237724 0.948946 -0.519373
v 0.244165 0.842701 -0.515276
v 0.249805 0.947872 -0.533311
v 0.248996 0.839102 -0.538658
v 0.253457 0.944777 -0.561155
v 0.236264 0.836332 -0.559575
v 0.243211 0.941727 -0.585240
v 0.216677 0.835623 -0.566344
v 0.226416 0.940502 -0.591928
v 0.201273 0.836895 -0.554780
v 0.213625 0.941675 -0.579064
v 0.245818 1.190722 -0.659520
v 0.234913 1.189148 -0.658252
v 0.250219 1.188217 -0.667220
v 0.223619 1.184238 -0.664645
v 0.245370 1.183102 -0.677086
v 0.218507 1.179150 -0.674324
v 0.234250 1.178370 -0.683064
v 0.223105 1.176769 -0.681731
v 0.251094 1.527321 -0.885028
v 0.239054 1.523003 -0.885889
v 0.258705 1.540598 -0.888912
v 0.229685 1.530245 -0.890439
v 0.257278 1.555164 -0.896069
v 0.228486 1.545012 -0.897565
v 0.247827 1.562574 -0.901670
v 0.235963 1.558430 -0.902366
v 0.222681 0.586075 -0.543316
v 0.217799 0.605530 -0.533607
v 0.226699 0.613342 -0.527399
v 0.233909 0.568361 -0.550819
v 0.246562 0.605352 -0.527958
v 0.246368 0.561440 -0.551775
v 0.263400 0.585823 -0.535290
v 0.258630 0.567789 -0.545319
v 0.232767 1.362150 -0.797042
v 0.219189 1.362053 -0.801449
v 0.239237 1.358486 -0.798361
v 0.206288 1.358429 -0.808830
v 0.234850 1.353407 -0.804310
v 0.201864 1.353460 -0.814732
v 0.222198 1.349739 -0.811667
v 0.208493 1.349754 -0.816025
v 0.226119 1.420671 -0.857220
v 0.224979 1.423164 -0.851745
v 0.239236 1.421507 -0.855401
v 0.212309 1.422729 -0.854316
v 0.244108 1.422647 -0.853267
v 0.207388 1.421619 -0.856668
v 0.238544 1.423292 -0.851554
v 0.213133 1.420938 -0.858144
v 0.215334 1.269039 -0.745209
v 0.230187 1.453196 -0.867319
v 0.208074 1.271040 -0.743027
v 0.217413 1.452131 -0.870665
v 0.209702 1.273979 -0.735877
v 0.212356 1.450613 -0.873676
v 0.219796 1.276423 -0.728111
v 0.218031 1.450134 -0.874536
v 0.227866 1.269312 -0.741255
v 0.238358 1.271856 -0.733778
v 0.240236 1.275097 -0.726938
v 0.232584 1.276999 -0.724468
v 0.243370 1.452717 -0.867942
v 0.248745 1.451622 -0.870764
v 0.244021 1.450666 -0.872030
v 0.231066 1.450363 -0.873121
v 0.248325 1.070400 -0.587009
v 0.226599 1.068186 -0.599592
v 0.263850 1.069887 -0.588342
v 0.215942 1.064320 -0.621691
v 0.266431 1.067524 -0.600564
v 0.220700 1.061785 -0.635315
v 0.254879 1.064144 -0.619741
v 0.235841 1.061750 -0.634173
v 0.209562 0.705772 -0.517757
v 0.219322 0.714132 -0.498869
v 0.238029 0.717062 -0.489047
v 0.213576 0.697254 -0.532737
v 0.256365 0.712374 -0.495448
v 0.230361 0.693085 -0.537384
v 0.260949 0.702888 -0.512943
v 0.248489 0.695341 -0.528778
v 0.234425 1.492443 -0.881482
v 0.220950 1.493992 -0.886430
v 0.216798 1.499264 -0.893873
v 0.224748 1.505035 -0.899350
v 0.249257 1.494162 -0.880623
v 0.257301 1.499649 -0.886927
v 0.254199 1.505466 -0.894911
v 0.240419 1.507685 -0.899800
vt 0.182543 0.726367
vt 0.273089 0.726367
vt 0.273089 0.816914
vt 0.182543 0.816914
vt 0.363636 0.726367
vt 0.363636 0.816914
vt 0.454183 0.726367
vt 0.454183 0.816914
vt 0.544730 0.726367
vt 0.544730 0.816914
vt 0.635277 0.726367
vt 0.635277 0.816914
vt 0.725824 0.726367
vt 0.725824 0.816914
vt 0.001449 0.726367
vt 0.091996 0.726367
vt 0.091996 0.816914
vt 0.001449 0.816914
vt 0.182543 0.635820
vt 0.273089 0.635820
vt 0.363636 0.635820
vt 0.091996 0.635820
vt 0.454183 0.635820
vt 0.001449 0.635820
vt 0.544730 0.635820
vt 0.635277 0.635820
vt 0.725824 0.635820
vt 0.182543 0.454726
vt 0.273089 0.454726
vt 0.273089 0.545273
vt 0.182543 0.545273
vt 0.363636 0.454726
vt 0.363636 0.545273
vt 0.091996 0.454726
vt 0.091996 0.545273
vt 0.454183 0.454726
vt 0.454183 0.545273
vt 0.001449 0.454726
vt 0.001449 0.545273
vt 0.544730 0.454726
vt 0.544730 0.545273
vt 0.635277 0.454726
vt 0.725824 0.454726
vt 0.725824 0.545273
vt 0.635277 0.545273
vt 0.273089 0.907461
vt 0.182543 0.907461
vt 0.363636 0.907461
vt 0.091996 0.907461
vt 0.454183 0.907461
vt 0.001449 0.907461
vt 0.544730 0.907461
vt 0.725824 0.907461
vt 0.635277 0.907461
vt 0.273089 0.092539
vt 0.182543 0.092539
vt 0.182543 0.001992
vt 0.273089 0.001992
vt 0.363636 0.092539
vt 0.363636 0.001992
vt 0.091996 0.092539
vt 0.091996 0.001992
vt 0.454183 0.092539
vt 0.454183 0.001992
vt 0.001449 0.092539
vt 0.001449 0.001992
vt 0.544730 0.092539
vt 0.544730 0.001992
vt 0.725824 0.092539
vt 0.635277 0.092539
vt 0.635277 0.001992
vt 0.725824 0.001992
vt 0.182543 0.273633
vt 0.273089 0.273633
vt 0.273089 0.364180
vt 0.182543 0.364180
vt 0.363636 0.273633
vt 0.363636 0.364180
vt 0.454183 0.273633
vt 0.454183 0.364180
vt 0.544730 0.273633
vt 0.544730 0.364180
vt 0.635277 0.273633
vt 0.635277 0.364180
vt 0.725824 0.273633
vt 0.725824 0.364180
vt 0.001449 0.273633
vt 0.091996 0.273633
vt 0.091996 0.364180
vt 0.001449 0.364180
vt 0.182543 0.183086
vt 0.273089 0.183086
vt 0.363636 0.183086
vt 0.091996 0.183086
vt 0.454183 0.183086
vt 0.001449 0.183086
vt 0.544730 0.183086
vt 0.635277 0.183086
vt 0.725824 0.183086
vt 0.273089 0.998008
vt 0.182543 0.998008
vt 0.363636 0.998008
vt 0.091996 0.998008
vt 0.454183 0.998008
vt 0.001449 0.998008
vt 0.544730 0.998008
vt 0.725824 0.998008
vt 0.635277 0.998008
vn -0.932410 0.223250 0.284203
vn -0.985230 0.032570 0.168108
vn -0.697231 0.094609 0.710576
vn -0.596892 0.330824 0.730942
vn 0.078115 0.130457 0.988372
vn 0.258103 0.274809 0.926209
vn 0.864273 0.089326 0.495029
vn 0.954360 0.002255 0.298649
vn 0.982728 -0.020606 -0.183904
vn 0.958451 -0.143435 -0.246573
vn 0.663080 -0.148944 -0.733580
vn 0.660257 -0.249193 -0.708494
vn -0.106858 -0.200540 -0.973840
vn -0.246195 -0.274729 -0.929469
vn -0.870670 -0.078435 -0.485574
vn -0.965151 0.012463 -0.261399
vn -0.790237 0.322060 0.521347
vn -0.322008 0.492620 0.808478
vn 0.643748 0.366949 0.671518
vn -0.993675 0.083160 0.075461
vn 0.988783 -0.076151 -0.128489
vn -0.597743 -0.277243 -0.752223
vn 0.805692 -0.241872 -0.540702
vn 0.418783 -0.335030 -0.844024
vn -0.410505 0.556195 0.722587
vn -0.505046 0.444429 0.739872
vn 0.058335 0.552041 0.831774
vn 0.082844 0.631411 0.771011
vn 0.922458 0.285391 0.260045
vn 0.955055 0.230652 0.186195
vn -0.754755 0.373922 0.539006
vn -0.856870 0.253751 0.448759
vn 0.846482 -0.194857 -0.495478
vn 0.752201 -0.361219 -0.551103
vn -0.966988 -0.205790 -0.150285
vn -0.942244 -0.157894 -0.295373
vn 0.517043 -0.376374 -0.768771
vn 0.391834 -0.540345 -0.744643
vn -0.098032 -0.622301 -0.776616
vn -0.002155 -0.458170 -0.888862
vn -0.674247 -0.067953 0.735373
vn -0.992082 -0.089154 0.088459
vn -0.004473 -0.041207 0.999141
vn -0.698596 -0.098603 -0.708689
vn 0.687881 -0.032829 0.725081
vn 0.084988 -0.037078 -0.995692
vn 0.997141 -0.023483 -0.071818
vn 0.626135 0.005948 -0.779692
vn 0.186479 0.209744 0.959809
vn 0.291010 0.091537 0.952331
vn -0.211416 0.164960 0.963375
vn -0.175786 0.275234 0.945169
vn 0.977482 -0.174977 0.117949
vn 0.978756 -0.047418 -0.199472
vn -0.620206 0.230082 0.749938
vn -0.471997 0.297869 0.829754
vn 0.473136 -0.256182 -0.842920
vn 0.454514 -0.066668 -0.888241
vn -0.744165 0.132578 -0.654707
vn -0.934877 -0.037444 -0.352991
vn 0.160276 -0.242383 -0.956850
vn 0.202444 -0.057860 -0.977583
vn -0.033683 -0.037597 -0.998725
vn -0.137090 -0.227531 -0.964073
vn -0.214290 0.588983 0.779217
vn -0.350309 0.604934 0.715079
vn -0.002273 0.650062 0.759878
vn 0.078946 0.598482 0.797237
vn 0.950416 0.201574 0.236809
vn 0.993726 0.015865 0.110708
vn 0.631079 -0.481594 -0.608117
vn 0.420229 -0.527550 -0.738308
vn 0.335803 -0.571907 -0.748437
vn 0.220268 -0.528236 -0.820030
vn -0.024231 -0.602609 -0.797669
vn -0.005897 -0.510872 -0.859637
vn -0.952268 -0.180369 -0.246278
vn -0.966245 -0.036676 -0.255000
vn -0.646704 0.477856 0.594498
vn -0.458613 0.530581 0.712852
vn -0.129784 0.404155 0.905437
vn 0.161142 0.355914 0.920521
vn 0.981638 -0.145774 0.123033
vn -0.375590 0.415459 0.828448
vn 0.248698 -0.449885 -0.857761
vn -0.937199 -0.063191 -0.343023
vn 0.110620 -0.447842 -0.887244
vn -0.028633 -0.435333 -0.899814
vn -0.872292 -0.026628 -0.488260
vn -0.866405 -0.174693 0.467787
vn -0.171721 -0.309046 0.935416
vn -0.245815 0.090198 -0.965111
vn 0.395090 -0.268006 0.878679
vn 0.196351 0.135468 -0.971131
vn 0.882537 0.092315 -0.461093
vn 0.467363 0.149207 -0.871384
s 1
g Semispinalis_Cervicis_Muscle_Left_02 group1
usemtl Semispinalis_Cervicis_Muscle_02_Left1_phong1SG
f 2/1/1 1/4/2 3/3/3 4/2/4
f 4/2/4 3/3/3 5/6/5 6/5/6
f 6/5/6 5/6/5 7/8/7 8/7/8
f 8/7/8 7/8/7 9/10/9 10/9/10
f 10/9/10 9/10/9 11/12/11 12/11/12
f 12/11/12 11/12/11 13/14/13 14/13/14
f 14/15/14 13/18/13 15/17/15 16/16/16
f 16/16/16 15/17/15 1/4/2 2/1/1
f 74/19/17 2/1/1 4/2/4 73/20/18
f 73/20/18 4/2/4 6/5/6 75/21/19
f 76/22/20 16/16/16 2/1/1 74/19/17
f 75/21/19 6/5/6 8/7/8 77/23/21
f 78/24/22 14/15/14 16/16/16 76/22/20
f 77/23/21 8/7/8 10/9/10 79/25/23
f 80/26/24 12/11/12 14/13/14 78/27/22
f 79/25/23 10/9/10 12/11/12 80/26/24
f 63/28/25 18/31/26 17/30/27 68/29/28
f 68/29/28 17/30/27 19/33/29 67/32/30
f 61/34/31 20/35/32 18/31/26 63/28/25
f 67/32/30 19/33/29 21/37/33 66/36/34
f 59/38/35 22/39/36 20/35/32 61/34/31
f 66/36/34 21/37/33 23/41/37 65/40/38
f 57/42/39 24/45/40 22/44/36 59/43/35
f 65/40/38 23/41/37 24/45/40 57/42/39
f 82/46/41 3/3/3 1/4/2 81/47/42
f 83/48/43 5/6/5 3/3/3 82/46/41
f 81/47/42 1/4/2 15/17/15 84/49/44
f 85/50/45 7/8/7 5/6/5 83/48/43
f 84/49/44 15/17/15 13/18/13 86/51/46
f 87/52/47 9/10/9 7/8/7 85/50/45
f 86/53/46 13/14/13 11/12/11 88/54/48
f 88/54/48 11/12/11 9/10/9 87/52/47
f 93/55/49 25/58/50 26/57/51 89/56/52
f 94/59/53 27/60/54 25/58/50 93/55/49
f 89/56/52 26/57/51 28/62/55 90/61/56
f 95/63/57 29/64/58 27/60/54 94/59/53
f 90/61/56 28/62/55 30/66/59 91/65/60
f 96/67/61 31/68/62 29/64/58 95/63/57
f 91/69/60 30/72/59 32/71/63 92/70/64
f 92/70/64 32/71/63 31/68/62 96/67/61
f 50/73/65 42/76/66 41/75/67 55/74/68
f 55/74/68 41/75/67 43/78/69 53/77/70
f 53/77/70 43/78/69 45/80/71 51/79/72
f 51/79/72 45/80/71 47/82/73 49/81/74
f 49/81/74 47/82/73 48/84/75 56/83/76
f 56/83/76 48/84/75 46/86/77 54/85/78
f 54/87/78 46/90/77 44/89/79 52/88/80
f 52/88/80 44/89/79 42/76/66 50/73/65
f 68/29/28 41/75/67 42/76/66 63/28/25
f 67/32/30 43/78/69 41/75/67 68/29/28
f 63/28/25 42/76/66 44/89/79 61/34/31
f 66/36/34 45/80/71 43/78/69 67/32/30
f 61/34/31 44/89/79 46/90/77 59/38/35
f 65/40/38 47/82/73 45/80/71 66/36/34
f 59/43/35 46/86/77 48/84/75 57/42/39
f 57/42/39 48/84/75 47/82/73 65/40/38
f 58/91/81 50/73/65 55/74/68 69/92/82
f 69/92/82 55/74/68 53/77/70 70/93/83
f 60/94/84 52/88/80 50/73/65 58/91/81
f 70/93/83 53/77/70 51/79/72 71/95/85
f 62/96/86 54/87/78 52/88/80 60/94/84
f 71/95/85 51/79/72 49/81/74 72/97/87
f 64/98/88 56/83/76 54/85/78 62/99/86
f 72/97/87 49/81/74 56/83/76 64/98/88
f 73/20/18 17/30/27 18/31/26 74/19/17
f 75/21/19 19/33/29 17/30/27 73/20/18
f 74/19/17 18/31/26 20/35/32 76/22/20
f 77/23/21 21/37/33 19/33/29 75/21/19
f 76/22/20 20/35/32 22/39/36 78/24/22
f 79/25/23 23/41/37 21/37/33 77/23/21
f 78/27/22 22/44/36 24/45/40 80/26/24
f 80/26/24 24/45/40 23/41/37 79/25/23
f 81/47/42 33/101/89 34/100/90 82/46/41
f 82/46/41 34/100/90 35/102/91 83/48/43
f 84/49/44 36/103/92 33/101/89 81/47/42
f 83/48/43 35/102/91 37/104/93 85/50/45
f 86/51/46 38/105/94 36/103/92 84/49/44
f 85/50/45 37/104/93 39/106/95 87/52/47
f 88/54/48 40/108/96 38/107/94 86/53/46
f 87/52/47 39/106/95 40/108/96 88/54/48
f 89/56/52 58/91/81 69/92/82 93/55/49
f 93/55/49 69/92/82 70/93/83 94/59/53
f 90/61/56 60/94/84 58/91/81 89/56/52
f 94/59/53 70/93/83 71/95/85 95/63/57
f 91/65/60 62/96/86 60/94/84 90/61/56
f 95/63/57 71/95/85 72/97/87 96/67/61
f 92/70/64 64/98/88 62/99/86 91/69/60
f 96/67/61 72/97/87 64/98/88 92/70/64
