# This file uses centimeters as units for non-parametric coordinates.

mtllib Semispinalis_Cervicis_Muscle_Left_03.mtl
g default
v 0.242897 0.968657 -0.495949
v 0.247491 1.043694 -0.544319
v 0.261051 0.973814 -0.481043
v 0.260686 1.049871 -0.527406
v 0.278125 0.975340 -0.480916
v 0.275846 1.052017 -0.522567
v 0.283852 0.971813 -0.496377
v 0.285794 1.049143 -0.531070
v 0.275996 0.964981 -0.518510
v 0.284733 1.041969 -0.549690
v 0.256347 0.960220 -0.533600
v 0.270903 1.035694 -0.567255
v 0.238884 0.959810 -0.534026
v 0.255356 1.034105 -0.573296
v 0.235016 0.962828 -0.518532
v 0.245682 1.036661 -0.564853
v 0.259176 1.244747 -0.671454
v 0.249125 1.243166 -0.670622
v 0.262696 1.242630 -0.676710
v 0.237936 1.239096 -0.674909
v 0.257402 1.238066 -0.683476
v 0.232368 1.235014 -0.681614
v 0.246431 1.234041 -0.687641
v 0.236115 1.232893 -0.686819
v 0.279200 1.539646 -0.873035
v 0.270518 1.536249 -0.873997
v 0.284553 1.549658 -0.876457
v 0.263435 1.541399 -0.878000
v 0.283491 1.560459 -0.883119
v 0.261746 1.552170 -0.884160
v 0.276793 1.565741 -0.888310
v 0.268021 1.562302 -0.888703
v 0.200005 0.767160 -0.436505
v 0.205887 0.782883 -0.426985
v 0.216285 0.787249 -0.420248
v 0.199766 0.752249 -0.443882
v 0.227070 0.777618 -0.419614
v 0.205344 0.744965 -0.444698
v 0.230552 0.759832 -0.426475
v 0.217907 0.747194 -0.437550
v 0.254877 1.387953 -0.799479
v 0.244016 1.387951 -0.801917
v 0.260027 1.385826 -0.800172
v 0.233906 1.386019 -0.806055
v 0.256233 1.382673 -0.803543
v 0.230328 1.383068 -0.809539
v 0.245817 1.380531 -0.807674
v 0.235177 1.380684 -0.810252
v 0.250994 1.436235 -0.841581
v 0.250307 1.438494 -0.837293
v 0.261409 1.437000 -0.840455
v 0.239969 1.438198 -0.838627
v 0.265642 1.438032 -0.838792
v 0.235544 1.437437 -0.840439
v 0.260967 1.438610 -0.837506
v 0.240568 1.436552 -0.841650
v 0.230785 1.317308 -0.751950
v 0.253996 1.461288 -0.852350
v 0.224523 1.319134 -0.750683
v 0.244041 1.460190 -0.855502
v 0.226349 1.321115 -0.745722
v 0.239573 1.458902 -0.858395
v 0.235674 1.322252 -0.740390
v 0.244381 1.458347 -0.858477
v 0.241909 1.316898 -0.749038
v 0.251532 1.318224 -0.744101
v 0.253578 1.320526 -0.739567
v 0.247070 1.322063 -0.737997
v 0.263620 1.461176 -0.852370
v 0.267751 1.460199 -0.854146
v 0.263900 1.459291 -0.855418
v 0.254354 1.458673 -0.856792
v 0.271497 1.150328 -0.595017
v 0.254439 1.147840 -0.603518
v 0.282788 1.150465 -0.595313
v 0.245024 1.144413 -0.617800
v 0.284164 1.148066 -0.603076
v 0.247835 1.142126 -0.626622
v 0.274484 1.144241 -0.615551
v 0.259195 1.141890 -0.625348
v 0.208308 0.862337 -0.474163
v 0.219457 0.870619 -0.458313
v 0.238578 0.873623 -0.449512
v 0.211306 0.852667 -0.487516
v 0.255957 0.868757 -0.454306
v 0.228772 0.847576 -0.491841
v 0.260057 0.858871 -0.468962
v 0.247791 0.850529 -0.483364
v 0.260155 1.501692 -0.873963
v 0.249947 1.502962 -0.879630
v 0.246793 1.506498 -0.886390
v 0.255641 1.511854 -0.891852
v 0.270207 1.502754 -0.873417
v 0.277477 1.507566 -0.879557
v 0.276897 1.512650 -0.887334
v 0.268443 1.514898 -0.892515
vt 0.273089 0.726367
vt 0.363636 0.726367
vt 0.363636 0.816914
vt 0.273089 0.816914
vt 0.454183 0.726367
vt 0.454183 0.816914
vt 0.544730 0.726367
vt 0.544730 0.816914
vt 0.635277 0.726367
vt 0.635277 0.816914
vt 0.725824 0.726367
vt 0.725824 0.816914
vt 0.001449 0.726367
vt 0.091996 0.726367
vt 0.091996 0.816914
vt 0.001449 0.816914
vt 0.182543 0.726367
vt 0.182543 0.816914
vt 0.273089 0.635820
vt 0.363636 0.635820
vt 0.454183 0.635820
vt 0.182543 0.635820
vt 0.544730 0.635820
vt 0.091996 0.635820
vt 0.635277 0.635820
vt 0.001449 0.635820
vt 0.725824 0.635820
vt 0.273089 0.454726
vt 0.363636 0.454726
vt 0.363636 0.545274
vt 0.273089 0.545274
vt 0.454183 0.454726
vt 0.454183 0.545274
vt 0.182543 0.454726
vt 0.182543 0.545274
vt 0.544730 0.454726
vt 0.544730 0.545274
vt 0.091996 0.454726
vt 0.091996 0.545274
vt 0.635277 0.454726
vt 0.635277 0.545274
vt 0.001449 0.454726
vt 0.001449 0.545274
vt 0.725824 0.454726
vt 0.725824 0.545274
vt 0.363636 0.907461
vt 0.273089 0.907461
vt 0.454183 0.907461
vt 0.182543 0.907461
vt 0.544730 0.907461
vt 0.091996 0.907461
vt 0.635277 0.907461
vt 0.001449 0.907461
vt 0.725824 0.907461
vt 0.363636 0.092539
vt 0.273089 0.092539
vt 0.273089 0.001992
vt 0.363636 0.001992
vt 0.454183 0.092539
vt 0.454183 0.001992
vt 0.182543 0.092539
vt 0.182543 0.001992
vt 0.544730 0.092539
vt 0.544730 0.001992
vt 0.091996 0.092539
vt 0.091996 0.001992
vt 0.635277 0.092539
vt 0.635277 0.001992
vt 0.001449 0.092539
vt 0.001449 0.001992
vt 0.725824 0.092539
vt 0.725824 0.001992
vt 0.273089 0.273633
vt 0.363636 0.273633
vt 0.363636 0.364180
vt 0.273089 0.364180
vt 0.454183 0.273633
vt 0.454183 0.364180
vt 0.544730 0.273633
vt 0.544730 0.364180
vt 0.635277 0.273633
vt 0.635277 0.364180
vt 0.725824 0.273633
vt 0.725824 0.364180
vt 0.001449 0.273633
vt 0.091996 0.273633
vt 0.091996 0.364180
vt 0.001449 0.364180
vt 0.182543 0.273633
vt 0.182543 0.364180
vt 0.273089 0.183086
vt 0.363636 0.183086
vt 0.454183 0.183086
vt 0.182543 0.183086
vt 0.544730 0.183086
vt 0.091996 0.183086
vt 0.635277 0.183086
vt 0.001449 0.183086
vt 0.725824 0.183086
vt 0.363636 0.998008
vt 0.273089 0.998008
vt 0.454183 0.998008
vt 0.182543 0.998008
vt 0.544730 0.998008
vt 0.091996 0.998008
vt 0.635277 0.998008
vt 0.001449 0.998008
vt 0.725824 0.998008
vn -0.849673 0.314132 0.423530
vn -0.866328 0.334743 0.370705
vn -0.501782 0.408517 0.762449
vn -0.504344 0.480748 0.717300
vn 0.309491 0.309225 0.899219
vn 0.299170 0.507780 0.807872
vn 0.970303 -0.050134 0.236639
vn 0.996486 0.040183 0.073497
vn 0.878812 -0.290058 -0.378888
vn 0.864318 -0.244019 -0.439783
vn 0.513940 -0.404367 -0.756540
vn 0.547010 -0.388246 -0.741650
vn -0.267758 -0.338182 -0.902185
vn -0.254908 -0.424267 -0.868918
vn -0.973212 0.107899 -0.203018
vn -0.997491 0.040249 -0.058245
vn -0.714518 0.393270 0.578621
vn -0.323539 0.567937 0.756815
vn 0.536416 0.540385 0.648260
vn -0.972120 0.112313 0.205835
vn 0.966137 -0.076488 -0.246431
vn -0.537350 -0.442509 -0.717942
vn 0.722538 -0.321219 -0.612174
vn 0.384586 -0.445186 -0.808643
vn -0.304727 0.628732 0.715429
vn -0.418411 0.532011 0.736136
vn 0.026909 0.639270 0.768511
vn 0.078247 0.668836 0.739280
vn 0.935406 0.312536 0.165337
vn 0.963975 0.207107 0.166909
vn -0.639878 0.497639 0.585587
vn -0.760426 0.337681 0.554729
vn 0.737827 -0.325862 -0.591121
vn 0.615295 -0.494183 -0.614163
vn -0.974126 -0.153353 -0.166013
vn -0.943870 -0.248134 -0.218035
vn 0.408819 -0.497091 -0.765354
vn 0.279458 -0.611476 -0.740270
vn -0.116635 -0.644889 -0.755324
vn -0.024360 -0.578942 -0.815005
vn -0.659807 0.363619 0.657599
vn -0.944145 0.259820 0.202692
vn 0.031439 0.294072 0.955266
vn -0.884418 -0.026407 -0.465948
vn 0.852525 -0.035212 0.521499
vn -0.022045 -0.388566 -0.921157
vn 0.923744 -0.310829 -0.223792
vn 0.591839 -0.422014 -0.686754
vn 0.212990 0.246663 0.945406
vn 0.536278 -0.132152 0.833632
vn -0.277792 0.075848 0.957642
vn -0.259242 0.343706 0.902585
vn 0.957756 -0.276124 0.080374
vn 0.981012 -0.139855 -0.134372
vn -0.679801 0.203818 0.704506
vn -0.561890 0.359734 0.744897
vn 0.606609 -0.326738 -0.724753
vn 0.671575 -0.038914 -0.739914
vn -0.825040 0.273726 -0.494352
vn -0.903812 -0.088972 -0.418579
vn 0.218572 -0.262637 -0.939813
vn 0.288863 0.032482 -0.956819
vn -0.139541 0.106834 -0.984436
vn -0.176961 -0.252544 -0.951266
vn -0.155957 0.576787 0.801869
vn -0.242372 0.635757 0.732850
vn 0.026676 0.645906 0.762951
vn 0.074799 0.573005 0.816132
vn 0.945568 0.171525 0.276553
vn 0.989489 0.016106 0.143707
vn 0.504414 -0.563788 -0.653996
vn 0.352495 -0.543349 -0.761918
vn 0.244511 -0.608884 -0.754636
vn 0.167120 -0.542916 -0.822990
vn -0.034717 -0.606546 -0.794290
vn -0.030265 -0.527796 -0.848832
vn -0.931875 -0.150223 -0.330216
vn -0.976212 0.006982 -0.216708
vn -0.517883 0.565030 0.642291
vn -0.366591 0.551261 0.749482
vn -0.174571 0.520258 0.835976
vn 0.134680 0.473351 0.870517
vn 0.962153 -0.053776 0.267152
vn -0.409283 0.526759 0.744992
vn 0.314517 -0.552568 -0.771847
vn -0.893959 -0.139105 -0.426014
vn 0.150754 -0.559665 -0.814891
vn 0.003020 -0.550587 -0.834773
vn -0.994741 0.102399 0.001943
vn -0.793098 0.301763 0.529088
vn -0.116800 0.342462 0.932243
vn -0.614101 -0.249874 -0.748627
vn 0.763705 0.014785 0.645396
vn 0.198824 -0.453682 -0.868701
vn 0.898768 -0.372024 -0.231981
vn 0.607499 -0.458647 -0.648527
s 1
g Semispinalis_Cervicis_Muscle_Left_03 group1
usemtl Semispinalis_Cervicis_Muscle_03_Left1_phong1SG
f 2/1/1 1/4/2 3/3/3 4/2/4
f 4/2/4 3/3/3 5/6/5 6/5/6
f 6/5/6 5/6/5 7/8/7 8/7/8
f 8/7/8 7/8/7 9/10/9 10/9/10
f 10/9/10 9/10/9 11/12/11 12/11/12
f 12/13/12 11/16/11 13/15/13 14/14/14
f 14/14/14 13/15/13 15/18/15 16/17/16
f 16/17/16 15/18/15 1/4/2 2/1/1
f 74/19/17 2/1/1 4/2/4 73/20/18
f 73/20/18 4/2/4 6/5/6 75/21/19
f 76/22/20 16/17/16 2/1/1 74/19/17
f 75/21/19 6/5/6 8/7/8 77/23/21
f 78/24/22 14/14/14 16/17/16 76/22/20
f 77/23/21 8/7/8 10/9/10 79/25/23
f 80/26/24 12/13/12 14/14/14 78/24/22
f 79/25/23 10/9/10 12/11/12 80/27/24
f 63/28/25 18/31/26 17/30/27 68/29/28
f 68/29/28 17/30/27 19/33/29 67/32/30
f 61/34/31 20/35/32 18/31/26 63/28/25
f 67/32/30 19/33/29 21/37/33 66/36/34
f 59/38/35 22/39/36 20/35/32 61/34/31
f 66/36/34 21/37/33 23/41/37 65/40/38
f 57/42/39 24/43/40 22/39/36 59/38/35
f 65/40/38 23/41/37 24/45/40 57/44/39
f 82/46/41 3/3/3 1/4/2 81/47/42
f 83/48/43 5/6/5 3/3/3 82/46/41
f 81/47/42 1/4/2 15/18/15 84/49/44
f 85/50/45 7/8/7 5/6/5 83/48/43
f 84/49/44 15/18/15 13/15/13 86/51/46
f 87/52/47 9/10/9 7/8/7 85/50/45
f 86/51/46 13/15/13 11/16/11 88/53/48
f 88/54/48 11/12/11 9/10/9 87/52/47
f 93/55/49 25/58/50 26/57/51 89/56/52
f 94/59/53 27/60/54 25/58/50 93/55/49
f 89/56/52 26/57/51 28/62/55 90/61/56
f 95/63/57 29/64/58 27/60/54 94/59/53
f 90/61/56 28/62/55 30/66/59 91/65/60
f 96/67/61 31/68/62 29/64/58 95/63/57
f 91/65/60 30/66/59 32/70/63 92/69/64
f 92/71/64 32/72/63 31/68/62 96/67/61
f 50/73/65 42/76/66 41/75/67 55/74/68
f 55/74/68 41/75/67 43/78/69 53/77/70
f 53/77/70 43/78/69 45/80/71 51/79/72
f 51/79/72 45/80/71 47/82/73 49/81/74
f 49/81/74 47/82/73 48/84/75 56/83/76
f 56/85/76 48/88/75 46/87/77 54/86/78
f 54/86/78 46/87/77 44/90/79 52/89/80
f 52/89/80 44/90/79 42/76/66 50/73/65
f 68/29/28 41/75/67 42/76/66 63/28/25
f 67/32/30 43/78/69 41/75/67 68/29/28
f 63/28/25 42/76/66 44/90/79 61/34/31
f 66/36/34 45/80/71 43/78/69 67/32/30
f 61/34/31 44/90/79 46/87/77 59/38/35
f 65/40/38 47/82/73 45/80/71 66/36/34
f 59/38/35 46/87/77 48/88/75 57/42/39
f 57/44/39 48/84/75 47/82/73 65/40/38
f 58/91/81 50/73/65 55/74/68 69/92/82
f 69/92/82 55/74/68 53/77/70 70/93/83
f 60/94/84 52/89/80 50/73/65 58/91/81
f 70/93/83 53/77/70 51/79/72 71/95/85
f 62/96/86 54/86/78 52/89/80 60/94/84
f 71/95/85 51/79/72 49/81/74 72/97/87
f 64/98/88 56/85/76 54/86/78 62/96/86
f 72/97/87 49/81/74 56/83/76 64/99/88
f 73/20/18 17/30/27 18/31/26 74/19/17
f 75/21/19 19/33/29 17/30/27 73/20/18
f 74/19/17 18/31/26 20/35/32 76/22/20
f 77/23/21 21/37/33 19/33/29 75/21/19
f 76/22/20 20/35/32 22/39/36 78/24/22
f 79/25/23 23/41/37 21/37/33 77/23/21
f 78/24/22 22/39/36 24/43/40 80/26/24
f 80/27/24 24/45/40 23/41/37 79/25/23
f 81/47/42 33/101/89 34/100/90 82/46/41
f 82/46/41 34/100/90 35/102/91 83/48/43
f 84/49/44 36/103/92 33/101/89 81/47/42
f 83/48/43 35/102/91 37/104/93 85/50/45
f 86/51/46 38/105/94 36/103/92 84/49/44
f 85/50/45 37/104/93 39/106/95 87/52/47
f 88/53/48 40/107/96 38/105/94 86/51/46
f 87/52/47 39/106/95 40/108/96 88/54/48
f 89/56/52 58/91/81 69/92/82 93/55/49
f 93/55/49 69/92/82 70/93/83 94/59/53
f 90/61/56 60/94/84 58/91/81 89/56/52
f 94/59/53 70/93/83 71/95/85 95/63/57
f 91/65/60 62/96/86 60/94/84 90/61/56
f 95/63/57 71/95/85 72/97/87 96/67/61
f 92/69/64 64/98/88 62/96/86 91/65/60
f 96/67/61 72/97/87 64/99/88 92/71/64
