# This file uses centimeters as units for non-parametric coordinates.

mtllib Semispinalis_Cervicis_Muscle_Right_03.mtl
g default
v -0.242897 0.968657 -0.495949
v -0.247491 1.043694 -0.544319
v -0.261051 0.973814 -0.481043
v -0.260686 1.049871 -0.527406
v -0.278125 0.975340 -0.480916
v -0.275846 1.052017 -0.522567
v -0.283852 0.971813 -0.496377
v -0.285794 1.049143 -0.531070
v -0.275996 0.964981 -0.518510
v -0.284733 1.041969 -0.549690
v -0.256347 0.960220 -0.533600
v -0.270903 1.035694 -0.567255
v -0.238884 0.959810 -0.534026
v -0.255356 1.034105 -0.573296
v -0.235016 0.962828 -0.518532
v -0.245682 1.036661 -0.564853
v -0.259176 1.244747 -0.671454
v -0.249125 1.243166 -0.670622
v -0.262696 1.242630 -0.676710
v -0.237936 1.239096 -0.674909
v -0.257402 1.238066 -0.683476
v -0.232368 1.235014 -0.681614
v -0.246431 1.234041 -0.687641
v -0.236115 1.232893 -0.686819
v -0.279200 1.539646 -0.873035
v -0.270518 1.536249 -0.873997
v -0.284553 1.549658 -0.876457
v -0.263435 1.541399 -0.878000
v -0.283491 1.560459 -0.883119
v -0.261746 1.552170 -0.884160
v -0.276793 1.565741 -0.888310
v -0.268021 1.562302 -0.888703
v -0.200005 0.767160 -0.436505
v -0.205887 0.782883 -0.426985
v -0.216285 0.787249 -0.420248
v -0.199766 0.752249 -0.443882
v -0.227070 0.777618 -0.419614
v -0.205344 0.744965 -0.444698
v -0.230552 0.759832 -0.426475
v -0.217907 0.747194 -0.437550
v -0.254877 1.387953 -0.799479
v -0.244016 1.387951 -0.801917
v -0.260027 1.385826 -0.800172
v -0.233906 1.386019 -0.806055
v -0.256233 1.382673 -0.803543
v -0.230328 1.383068 -0.809539
v -0.245817 1.380531 -0.807674
v -0.235177 1.380684 -0.810252
v -0.250994 1.436235 -0.841581
v -0.250307 1.438494 -0.837293
v -0.261409 1.437000 -0.840455
v -0.239969 1.438198 -0.838627
v -0.265642 1.438032 -0.838792
v -0.235544 1.437437 -0.840439
v -0.260967 1.438610 -0.837506
v -0.240568 1.436552 -0.841650
v -0.230785 1.317308 -0.751950
v -0.253996 1.461288 -0.852350
v -0.224523 1.319134 -0.750683
v -0.244041 1.460190 -0.855502
v -0.226349 1.321115 -0.745722
v -0.239573 1.458902 -0.858395
v -0.235674 1.322252 -0.740390
v -0.244381 1.458347 -0.858477
v -0.241909 1.316898 -0.749038
v -0.251532 1.318224 -0.744101
v -0.253578 1.320526 -0.739567
v -0.247070 1.322063 -0.737997
v -0.263620 1.461176 -0.852370
v -0.267751 1.460199 -0.854146
v -0.263900 1.459291 -0.855418
v -0.254354 1.458673 -0.856792
v -0.271497 1.150328 -0.595017
v -0.254439 1.147840 -0.603518
v -0.282788 1.150465 -0.595313
v -0.245024 1.144413 -0.617800
v -0.284164 1.148066 -0.603076
v -0.247835 1.142126 -0.626622
v -0.274484 1.144241 -0.615551
v -0.259195 1.141890 -0.625348
v -0.208308 0.862337 -0.474163
v -0.219457 0.870619 -0.458313
v -0.238578 0.873623 -0.449512
v -0.211306 0.852667 -0.487516
v -0.255957 0.868757 -0.454306
v -0.228772 0.847576 -0.491841
v -0.260057 0.858871 -0.468962
v -0.247791 0.850529 -0.483364
v -0.260155 1.501692 -0.873963
v -0.249947 1.502962 -0.879630
v -0.246793 1.506498 -0.886390
v -0.255641 1.511854 -0.891852
v -0.270207 1.502754 -0.873417
v -0.277477 1.507566 -0.879557
v -0.276897 1.512650 -0.887334
v -0.268443 1.514898 -0.892515
vt 0.273089 0.726367
vt 0.363636 0.726367
vt 0.363636 0.816914
vt 0.273089 0.816914
vt 0.454183 0.726367
vt 0.454183 0.816914
vt 0.544730 0.726367
vt 0.544730 0.816914
vt 0.635277 0.726367
vt 0.635277 0.816914
vt 0.725824 0.726367
vt 0.725824 0.816914
vt 0.001449 0.726367
vt 0.091996 0.726367
vt 0.091996 0.816914
vt 0.001449 0.816914
vt 0.182543 0.726367
vt 0.182543 0.816914
vt 0.273089 0.635820
vt 0.363636 0.635820
vt 0.454183 0.635820
vt 0.182543 0.635820
vt 0.544730 0.635820
vt 0.091996 0.635820
vt 0.635277 0.635820
vt 0.001449 0.635820
vt 0.725824 0.635820
vt 0.273089 0.454726
vt 0.363636 0.454726
vt 0.363636 0.545274
vt 0.273089 0.545274
vt 0.454183 0.454726
vt 0.454183 0.545274
vt 0.182543 0.454726
vt 0.182543 0.545274
vt 0.544730 0.454726
vt 0.544730 0.545274
vt 0.091996 0.454726
vt 0.091996 0.545274
vt 0.635277 0.454726
vt 0.635277 0.545274
vt 0.001449 0.454726
vt 0.001449 0.545274
vt 0.725824 0.454726
vt 0.725824 0.545274
vt 0.363636 0.907461
vt 0.273089 0.907461
vt 0.454183 0.907461
vt 0.182543 0.907461
vt 0.544730 0.907461
vt 0.091996 0.907461
vt 0.635277 0.907461
vt 0.001449 0.907461
vt 0.725824 0.907461
vt 0.363636 0.092539
vt 0.273089 0.092539
vt 0.273089 0.001992
vt 0.363636 0.001992
vt 0.454183 0.092539
vt 0.454183 0.001992
vt 0.182543 0.092539
vt 0.182543 0.001992
vt 0.544730 0.092539
vt 0.544730 0.001992
vt 0.091996 0.092539
vt 0.091996 0.001992
vt 0.635277 0.092539
vt 0.635277 0.001992
vt 0.001449 0.092539
vt 0.001449 0.001992
vt 0.725824 0.092539
vt 0.725824 0.001992
vt 0.273089 0.273633
vt 0.363636 0.273633
vt 0.363636 0.364180
vt 0.273089 0.364180
vt 0.454183 0.273633
vt 0.454183 0.364180
vt 0.544730 0.273633
vt 0.544730 0.364180
vt 0.635277 0.273633
vt 0.635277 0.364180
vt 0.725824 0.273633
vt 0.725824 0.364180
vt 0.001449 0.273633
vt 0.091996 0.273633
vt 0.091996 0.364180
vt 0.001449 0.364180
vt 0.182543 0.273633
vt 0.182543 0.364180
vt 0.273089 0.183086
vt 0.363636 0.183086
vt 0.454183 0.183086
vt 0.182543 0.183086
vt 0.544730 0.183086
vt 0.091996 0.183086
vt 0.635277 0.183086
vt 0.001449 0.183086
vt 0.725824 0.183086
vt 0.363636 0.998008
vt 0.273089 0.998008
vt 0.454183 0.998008
vt 0.182543 0.998008
vt 0.544730 0.998008
vt 0.091996 0.998008
vt 0.635277 0.998008
vt 0.001449 0.998008
vt 0.725824 0.998008
vn 0.849672 0.314132 0.423530
vn 0.504343 0.480747 0.717301
vn 0.501780 0.408514 0.762452
vn 0.866326 0.334742 0.370712
vn -0.299170 0.507779 0.807872
vn -0.309498 0.309222 0.899218
vn -0.996486 0.040183 0.073497
vn -0.970304 -0.050134 0.236636
vn -0.864319 -0.244020 -0.439780
vn -0.878811 -0.290057 -0.378890
vn -0.547012 -0.388247 -0.741648
vn -0.513940 -0.404366 -0.756540
vn 0.254908 -0.424265 -0.868919
vn 0.267759 -0.338181 -0.902186
vn 0.997491 0.040249 -0.058244
vn 0.973213 0.107900 -0.203013
vn 0.714519 0.393272 0.578619
vn 0.323538 0.567940 0.756814
vn -0.536420 0.540390 0.648253
vn 0.972120 0.112314 0.205834
vn -0.966135 -0.076487 -0.246440
vn 0.537350 -0.442510 -0.717941
vn -0.722538 -0.321220 -0.612174
vn -0.384588 -0.445186 -0.808642
vn 0.304727 0.628731 0.715429
vn -0.078245 0.668835 0.739282
vn -0.026909 0.639273 0.768509
vn 0.418412 0.532013 0.736134
vn -0.963975 0.207109 0.166911
vn -0.935407 0.312540 0.165324
vn 0.639878 0.497639 0.585587
vn 0.760427 0.337682 0.554727
vn -0.615292 -0.494179 -0.614169
vn -0.737824 -0.325861 -0.591127
vn 0.974127 -0.153352 -0.166012
vn 0.943871 -0.248132 -0.218031
vn -0.279456 -0.611477 -0.740270
vn -0.408819 -0.497092 -0.765354
vn 0.116633 -0.644895 -0.755319
vn 0.024357 -0.578942 -0.815005
vn 0.659806 0.363617 0.657601
vn 0.944144 0.259819 0.202699
vn -0.031447 0.294072 0.955266
vn 0.884420 -0.026405 -0.465945
vn -0.852528 -0.035210 0.521494
vn 0.022044 -0.388564 -0.921158
vn -0.923743 -0.310828 -0.223797
vn -0.591837 -0.422013 -0.686756
vn -0.212986 0.246664 0.945407
vn 0.259241 0.343704 0.902586
vn 0.277795 0.075848 0.957642
vn -0.536274 -0.132152 0.833635
vn -0.957755 -0.276129 0.080367
vn -0.981010 -0.139854 -0.134392
vn 0.561884 0.359732 0.744902
vn 0.679791 0.203816 0.704516
vn -0.606602 -0.326738 -0.724759
vn -0.671561 -0.038914 -0.739927
vn 0.903811 -0.088981 -0.418578
vn 0.825054 0.273730 -0.494326
vn -0.218568 -0.262641 -0.939813
vn -0.288854 0.032483 -0.956822
vn 0.176965 -0.252557 -0.951262
vn 0.139543 0.106837 -0.984436
vn 0.155958 0.576791 0.801866
vn -0.074799 0.573011 0.816127
vn -0.026674 0.645907 0.762950
vn 0.242373 0.635758 0.732849
vn -0.989491 0.016107 0.143692
vn -0.945568 0.171531 0.276548
vn -0.352494 -0.543348 -0.761919
vn -0.504409 -0.563782 -0.654004
vn -0.167121 -0.542921 -0.822987
vn -0.244511 -0.608886 -0.754633
vn 0.030265 -0.527798 -0.848830
vn 0.034716 -0.606553 -0.794285
vn 0.976211 0.006991 -0.216712
vn 0.931876 -0.150222 -0.330212
vn 0.366589 0.551262 0.749482
vn 0.517881 0.565030 0.642293
vn 0.174570 0.520259 0.835976
vn -0.134682 0.473355 0.870515
vn -0.962153 -0.053791 0.267148
vn 0.409280 0.526757 0.744995
vn -0.314520 -0.552570 -0.771844
vn 0.893952 -0.139099 -0.426029
vn -0.150755 -0.559674 -0.814885
vn -0.003021 -0.550595 -0.834767
vn 0.793099 0.301764 0.529086
vn 0.994741 0.102399 0.001946
vn 0.116798 0.342466 0.932242
vn 0.614098 -0.249870 -0.748631
vn -0.763707 0.014786 0.645394
vn -0.198824 -0.453676 -0.868705
vn -0.898768 -0.372023 -0.231980
vn -0.607496 -0.458645 -0.648532
s 1
g Semispinalis_Cervicis_Muscle_Right_03 group1
usemtl Semispinalis_Cervicis_Muscle_03_Right_phong1SG
f 2/1/1 4/2/2 3/3/3 1/4/4
f 4/2/2 6/5/5 5/6/6 3/3/3
f 6/5/5 8/7/7 7/8/8 5/6/6
f 8/7/7 10/9/9 9/10/10 7/8/8
f 10/9/9 12/11/11 11/12/12 9/10/10
f 12/13/11 14/14/13 13/15/14 11/16/12
f 14/14/13 16/17/15 15/18/16 13/15/14
f 16/17/15 2/1/1 1/4/4 15/18/16
f 74/19/17 73/20/18 4/2/2 2/1/1
f 73/20/18 75/21/19 6/5/5 4/2/2
f 76/22/20 74/19/17 2/1/1 16/17/15
f 75/21/19 77/23/21 8/7/7 6/5/5
f 78/24/22 76/22/20 16/17/15 14/14/13
f 77/23/21 79/25/23 10/9/9 8/7/7
f 80/26/24 78/24/22 14/14/13 12/13/11
f 79/25/23 80/27/24 12/11/11 10/9/9
f 63/28/25 68/29/26 17/30/27 18/31/28
f 68/29/26 67/32/29 19/33/30 17/30/27
f 61/34/31 63/28/25 18/31/28 20/35/32
f 67/32/29 66/36/33 21/37/34 19/33/30
f 59/38/35 61/34/31 20/35/32 22/39/36
f 66/36/33 65/40/37 23/41/38 21/37/34
f 57/42/39 59/38/35 22/39/36 24/43/40
f 65/40/37 57/44/39 24/45/40 23/41/38
f 82/46/41 81/47/42 1/4/4 3/3/3
f 83/48/43 82/46/41 3/3/3 5/6/6
f 81/47/42 84/49/44 15/18/16 1/4/4
f 85/50/45 83/48/43 5/6/6 7/8/8
f 84/49/44 86/51/46 13/15/14 15/18/16
f 87/52/47 85/50/45 7/8/8 9/10/10
f 86/51/46 88/53/48 11/16/12 13/15/14
f 88/54/48 87/52/47 9/10/10 11/12/12
f 93/55/49 89/56/50 26/57/51 25/58/52
f 94/59/53 93/55/49 25/58/52 27/60/54
f 89/56/50 90/61/55 28/62/56 26/57/51
f 95/63/57 94/59/53 27/60/54 29/64/58
f 90/61/55 91/65/59 30/66/60 28/62/56
f 96/67/61 95/63/57 29/64/58 31/68/62
f 91/65/59 92/69/63 32/70/64 30/66/60
f 92/71/63 96/67/61 31/68/62 32/72/64
f 50/73/65 55/74/66 41/75/67 42/76/68
f 55/74/66 53/77/69 43/78/70 41/75/67
f 53/77/69 51/79/71 45/80/72 43/78/70
f 51/79/71 49/81/73 47/82/74 45/80/72
f 49/81/73 56/83/75 48/84/76 47/82/74
f 56/85/75 54/86/77 46/87/78 48/88/76
f 54/86/77 52/89/79 44/90/80 46/87/78
f 52/89/79 50/73/65 42/76/68 44/90/80
f 68/29/26 63/28/25 42/76/68 41/75/67
f 67/32/29 68/29/26 41/75/67 43/78/70
f 63/28/25 61/34/31 44/90/80 42/76/68
f 66/36/33 67/32/29 43/78/70 45/80/72
f 61/34/31 59/38/35 46/87/78 44/90/80
f 65/40/37 66/36/33 45/80/72 47/82/74
f 59/38/35 57/42/39 48/88/76 46/87/78
f 57/44/39 65/40/37 47/82/74 48/84/76
f 58/91/81 69/92/82 55/74/66 50/73/65
f 69/92/82 70/93/83 53/77/69 55/74/66
f 60/94/84 58/91/81 50/73/65 52/89/79
f 70/93/83 71/95/85 51/79/71 53/77/69
f 62/96/86 60/94/84 52/89/79 54/86/77
f 71/95/85 72/97/87 49/81/73 51/79/71
f 64/98/88 62/96/86 54/86/77 56/85/75
f 72/97/87 64/99/88 56/83/75 49/81/73
f 73/20/18 74/19/17 18/31/28 17/30/27
f 75/21/19 73/20/18 17/30/27 19/33/30
f 74/19/17 76/22/20 20/35/32 18/31/28
f 77/23/21 75/21/19 19/33/30 21/37/34
f 76/22/20 78/24/22 22/39/36 20/35/32
f 79/25/23 77/23/21 21/37/34 23/41/38
f 78/24/22 80/26/24 24/43/40 22/39/36
f 80/27/24 79/25/23 23/41/38 24/45/40
f 81/47/42 82/46/41 34/100/89 33/101/90
f 82/46/41 83/48/43 35/102/91 34/100/89
f 84/49/44 81/47/42 33/101/90 36/103/92
f 83/48/43 85/50/45 37/104/93 35/102/91
f 86/51/46 84/49/44 36/103/92 38/105/94
f 85/50/45 87/52/47 39/106/95 37/104/93
f 88/53/48 86/51/46 38/105/94 40/107/96
f 87/52/47 88/54/48 40/108/96 39/106/95
f 89/56/50 93/55/49 69/92/82 58/91/81
f 93/55/49 94/59/53 70/93/83 69/92/82
f 90/61/55 89/56/50 58/91/81 60/94/84
f 94/59/53 95/63/57 71/95/85 70/93/83
f 91/65/59 90/61/55 60/94/84 62/96/86
f 95/63/57 96/67/61 72/97/87 71/95/85
f 92/69/63 91/65/59 62/96/86 64/98/88
f 96/67/61 92/71/63 64/99/88 72/97/87
