# This file uses centimeters as units for non-parametric coordinates.

mtllib Splenius_Cervicis_Muscle_Right.mtl
g default
v -0.035607 0.632042 -1.126581
v -0.038407 -0.527590 -1.637739
v -0.428980 1.566988 -0.891866
v -0.564345 1.501295 -0.585415
v -0.033071 0.620001 -1.069238
v -0.023485 -0.515545 -1.604004
v -0.407666 1.591507 -0.879930
v -0.523550 1.510923 -0.554441
v -0.272602 1.130722 -0.862693
v -0.466723 0.715412 -0.489601
v -0.257663 1.125797 -0.829615
v -0.350037 0.722424 -0.483692
v -0.150029 0.859940 -0.939016
v -0.531877 1.126759 -0.468273
v -0.144528 0.849560 -0.896101
v -0.455284 1.106386 -0.414574
v -0.316360 1.413942 -0.868512
v -0.360783 0.152498 -1.127478
v -0.299529 1.425484 -0.846983
v -0.303750 0.149790 -1.077791
v -0.088249 0.741859 -1.056250
v -0.084834 0.731598 -1.005026
v -0.483611 0.494160 -0.875818
v -0.385240 0.491907 -0.836487
v -0.228339 0.987181 -0.888199
v -0.215796 0.979330 -0.849251
v -0.182354 -0.182243 -1.435033
v -0.141740 -0.219481 -1.386586
v -0.501858 1.598673 -0.798313
v -0.573535 1.587162 -0.672036
v -0.020846 -0.150270 -1.459628
v -0.019270 0.247856 -1.252622
v -0.016158 -0.155148 -1.399630
v -0.022186 0.252790 -1.228550
v -0.472757 1.617682 -0.780245
v -0.529871 1.601393 -0.647587
v -0.410990 1.009087 -0.821383
v -0.514916 0.889578 -0.741546
v -0.359060 0.850130 -0.641424
v -0.368199 1.002277 -0.788954
v -0.195230 0.645187 -1.084960
v -0.277036 0.419733 -1.073141
v -0.335967 1.295406 -0.729073
v -0.407286 1.209200 -0.598002
v -0.235895 0.418274 -1.028594
v -0.171771 0.642057 -1.069422
v -0.476866 1.191612 -0.683926
v -0.379928 1.304844 -0.774519
v -0.110628 0.465183 -1.110728
v -0.161107 0.128538 -1.220997
v -0.139804 0.125851 -1.190784
v -0.100289 0.462608 -1.074616
v -0.415955 0.652670 -0.906566
v -0.334862 0.807602 -0.914466
v -0.294602 0.799646 -0.876524
v -0.347157 0.648714 -0.870627
vt 0.001494 0.250996
vt 0.125996 0.250996
vt 0.125996 0.375498
vt 0.001494 0.375498
vt 0.624004 0.873506
vt 0.624004 0.749004
vt 0.748506 0.749004
vt 0.748506 0.873506
vt 0.125996 0.500000
vt 0.001494 0.500000
vt 0.001494 0.873506
vt 0.125996 0.873506
vt 0.125996 0.998008
vt 0.001494 0.998008
vt 0.250498 0.624502
vt 0.375000 0.624502
vt 0.375000 0.749004
vt 0.250498 0.749004
vt 0.125996 0.624502
vt 0.001494 0.624502
vt 0.624004 0.375498
vt 0.624004 0.250996
vt 0.748506 0.250996
vt 0.748506 0.375498
vt 0.624004 0.500000
vt 0.748506 0.500000
vt 0.624004 0.998008
vt 0.748506 0.998008
vt 0.375000 0.375498
vt 0.375000 0.250996
vt 0.499502 0.250996
vt 0.499502 0.375498
vt 0.624004 0.624502
vt 0.499502 0.624502
vt 0.499502 0.500000
vt 0.375000 0.500000
vt 0.375000 0.998008
vt 0.375000 0.873506
vt 0.499502 0.873506
vt 0.499502 0.998008
vt 0.499502 0.749004
vt 0.624004 0.001992
vt 0.624004 0.126494
vt 0.499502 0.126494
vt 0.499502 0.001992
vt 0.250498 0.250996
vt 0.250498 0.375498
vt 0.250498 0.500000
vt 0.250498 0.873506
vt 0.250498 0.998008
vt 0.125996 0.749004
vt 0.375000 0.001992
vt 0.375000 0.126494
vt 0.250498 0.126494
vt 0.250498 0.001992
vt 0.125996 0.126494
vt 0.001494 0.126494
vt 0.001494 0.001992
vt 0.125996 0.001992
vt 0.748506 0.624502
vt 0.001494 0.749004
vt 0.748506 0.126494
vt 0.748506 0.001992
vn -0.500561 0.363869 -0.785518
vn -0.421378 0.255856 -0.870045
vn 0.018945 0.469021 -0.882984
vn -0.558434 0.267028 -0.785396
vn 0.663925 0.141953 0.734202
vn 0.930746 0.191589 0.311459
vn 0.813931 0.340432 0.470767
vn 0.694220 0.361953 0.622132
vn 0.309209 -0.252830 0.916770
vn 0.688223 -0.187204 0.700931
vn -0.533589 -0.618391 0.576954
vn -0.001589 -0.604302 0.796754
vn -0.591203 0.254545 -0.765301
vn -0.830324 0.056686 -0.554391
vn 0.435844 -0.291717 0.851435
vn 0.745201 -0.208397 0.633440
vn 0.913320 -0.123694 0.388003
vn 0.613111 -0.217916 0.759347
vn 0.454674 -0.254077 0.853649
vn 0.581755 -0.313258 0.750620
vn -0.414078 -0.207326 -0.886316
vn -0.682271 -0.104442 -0.723601
vn -0.686419 -0.285405 -0.668859
vn -0.545807 -0.361614 -0.755864
vn 0.838114 0.344426 0.423008
vn 0.766807 0.471688 0.435335
vn -0.959478 -0.053207 0.276716
vn -0.992179 -0.124044 -0.013920
vn -0.133594 0.368889 -0.919823
vn -0.499781 0.280729 -0.819396
vn -0.613692 0.182386 -0.768191
vn -0.311493 0.137043 -0.940314
vn 0.841952 0.185132 0.506797
vn 0.885523 -0.050254 0.461869
vn 0.792274 -0.028602 0.609494
vn 0.489110 -0.184162 0.852559
vn -0.951931 -0.228229 -0.204302
vn 0.506493 -0.560944 0.654833
vn 0.734181 -0.329918 0.593408
vn -0.855034 -0.352028 0.380780
vn 0.984256 0.042288 0.171617
vn -0.935346 -0.052580 -0.349804
vn -0.966967 0.026210 -0.253551
vn -0.393736 0.304067 -0.867476
vn -0.016860 0.549985 -0.835005
vn 0.411894 -0.388177 0.824416
vn 0.150876 -0.547603 0.823023
vn -0.798730 0.063166 -0.598366
vn 0.513918 -0.347449 0.784326
vn -0.836660 0.127794 -0.532605
vn -0.486453 0.274834 -0.829355
vn -0.386614 0.411347 -0.825423
vn -0.262251 0.478654 -0.837923
vn 0.755672 0.388128 0.527557
vn 0.361246 -0.451789 0.815714
vn -0.816907 -0.224825 -0.531146
s 1
g Splenius_Cervicis_Muscle_Right_Mesh group1
usemtl Splenius_Cervicis_Muscle_Right_phong1SG
f 32/1/1 49/2/2 21/3/3 1/4/4
f 16/5/5 44/6/6 36/7/7 8/8/8
f 21/3/3 22/9/9 5/10/10 1/4/4
f 6/11/11 28/12/12 27/13/13 2/14/14
f 46/15/15 55/16/16 56/17/17 45/18/18
f 22/9/9 52/19/19 34/20/20 5/10/10
f 17/21/21 48/22/22 29/23/23 3/24/24
f 19/25/25 17/21/21 3/24/24 7/26/26
f 14/27/27 16/5/5 8/8/8 4/28/28
f 25/29/29 54/30/30 37/31/31 9/32/32
f 19/25/25 43/33/33 40/34/34 11/35/35
f 26/36/36 25/29/29 9/32/32 11/35/35
f 23/37/37 24/38/38 12/39/39 10/40/40
f 24/38/38 56/17/17 39/41/41 12/39/39
f 14/42/27 47/43/42 38/44/43 10/45/40
f 17/21/21 19/25/25 11/35/35 9/32/32
f 16/5/5 14/27/27 10/40/40 12/39/39
f 21/3/3 49/2/2 41/46/44 13/47/45
f 22/9/9 21/3/3 13/47/45 15/48/46
f 27/13/13 28/12/12 20/49/47 18/50/48
f 28/12/12 51/51/49 45/18/18 20/49/47
f 23/52/37 53/53/50 42/54/51 18/55/48
f 25/29/29 26/36/36 15/48/46 13/47/45
f 24/38/38 23/37/37 18/50/48 20/49/47
f 26/36/36 55/16/16 46/15/15 15/48/46
f 50/56/52 31/57/53 2/58/14 27/59/13
f 49/2/2 32/1/1 31/57/53 50/56/52
f 35/60/54 43/33/33 19/25/25 7/26/26
f 36/7/7 44/6/6 43/33/33 35/60/54
f 45/18/18 56/17/17 24/38/38 20/49/47
f 42/54/51 53/53/50 54/30/30 41/46/44
f 33/61/55 51/51/49 28/12/12 6/11/11
f 34/20/20 52/19/19 51/51/49 33/61/55
f 29/23/23 48/22/22 47/43/42 30/62/56
f 30/62/56 47/43/42 14/42/27 4/63/28
f 37/31/31 54/30/30 53/53/50 38/44/43
f 38/44/43 53/53/50 23/52/37 10/45/40
f 39/41/41 44/6/6 16/5/5 12/39/39
f 40/34/34 43/33/33 44/6/6 39/41/41
f 39/41/41 56/17/17 55/16/16 40/34/34
f 40/34/34 55/16/16 26/36/36 11/35/35
f 37/31/31 48/22/22 17/21/21 9/32/32
f 38/44/43 47/43/42 48/22/22 37/31/31
f 41/46/44 49/2/2 50/56/52 42/54/51
f 42/54/51 50/56/52 27/59/13 18/55/48
f 45/18/18 51/51/49 52/19/19 46/15/15
f 46/15/15 52/19/19 22/9/9 15/48/46
f 41/46/44 54/30/30 25/29/29 13/47/45
