# This file uses centimeters as units for non-parametric coordinates.

mtllib Sternothyroideus_Muscle_Right.mtl
g default
v -0.067012 -0.575935 0.045212
v -0.242083 -0.496567 -0.016240
v -0.049154 0.376198 0.132131
v -0.141338 0.463478 0.068778
v -0.052862 -0.539196 0.042120
v -0.238007 -0.433792 -0.037256
v -0.080841 0.430769 0.139901
v -0.147238 0.507824 0.108662
v -0.019725 -0.187689 -0.096721
v -0.181681 -0.197832 -0.167689
v -0.015220 -0.184555 -0.078209
v -0.177633 -0.195200 -0.147330
v -0.000071 -0.388050 -0.090753
v -0.182178 0.132584 -0.085590
v -0.000642 -0.381565 -0.075650
v -0.190971 0.132168 -0.063418
v -0.030636 0.135235 0.041161
v -0.194958 -0.350775 -0.127809
v -0.044422 0.136232 0.063213
v -0.190848 -0.347143 -0.111678
v -0.181084 0.314404 -0.001311
v -0.184878 0.296381 -0.013446
v -0.041609 -0.023867 -0.033144
v -0.049776 -0.021954 -0.011034
v -0.190888 -0.027317 -0.132975
v -0.196647 -0.028463 -0.108288
v -0.034496 0.272627 0.115459
v -0.045708 0.254541 0.106950
v -0.084020 0.377249 0.057825
v -0.164010 -0.585577 0.055253
v -0.155618 -0.496225 0.017329
v -0.114117 0.485777 0.159871
v -0.095040 -0.189655 -0.151462
v -0.109019 -0.187429 -0.098702
v -0.087857 -0.371218 -0.123795
v -0.104106 -0.358305 -0.073269
v -0.085538 0.136568 -0.040600
v -0.123276 0.135315 0.015364
v -0.082176 0.303732 0.036295
v -0.117413 0.270912 0.069242
v -0.103536 -0.024048 -0.099607
v -0.129467 -0.023266 -0.047545
v -0.159849 0.384501 0.029290
v -0.185635 0.408121 0.052009
v -0.034731 0.324892 0.140551
v -0.054507 0.349483 0.159921
v -0.080621 0.339045 0.054539
v -0.124131 0.379879 0.120197
vt 0.128905 -0.034220
vt 0.128905 0.108068
vt -0.013383 0.108068
vt -0.013383 -0.034220
vt 0.413481 0.392644
vt 0.555769 0.392644
vt 0.555769 0.534932
vt 0.413481 0.534932
vt 0.840345 0.108068
vt 0.698057 0.108068
vt 0.698057 -0.034220
vt 0.840345 -0.034220
vt 0.413481 -0.034220
vt 0.413481 0.108068
vt 0.271193 0.108068
vt 0.271193 -0.034220
vt 0.271193 0.392644
vt 0.271193 0.534932
vt 0.555769 0.108068
vt 0.555769 -0.034220
vt -0.013383 0.819508
vt 0.128905 0.819508
vt 0.128905 0.961796
vt -0.013383 0.961796
vt 0.698057 0.819508
vt 0.840345 0.819508
vt 0.840345 0.961796
vt 0.698057 0.961796
vt 0.271193 0.819508
vt 0.413481 0.819508
vt 0.413481 0.961796
vt 0.271193 0.961796
vt 0.555769 0.819508
vt 0.555769 0.961796
vt 0.128905 0.250356
vt -0.013383 0.250356
vt 0.840345 0.250356
vt 0.698057 0.250356
vt 0.413481 0.250356
vt 0.271193 0.250356
vt 0.555769 0.250356
vt 0.128905 0.392644
vt 0.840345 0.392644
vt 0.698057 0.392644
vt 0.271193 0.677220
vt 0.128905 0.677220
vt 0.128905 0.534932
vt 0.840345 0.677220
vt 0.698057 0.677220
vt 0.698057 0.534932
vt 0.840345 0.534932
vt 0.413481 0.677220
vt 0.555769 0.677220
vt -0.013383 0.392644
vt -0.013383 0.534932
vt -0.013383 0.677220
vn 0.020482 -0.626153 -0.779431
vn 0.149526 -0.428955 -0.890865
vn 0.361546 -0.441586 -0.821150
vn 0.110929 -0.636696 -0.763094
vn -0.780516 -0.204078 0.590886
vn -0.518012 -0.299342 0.801285
vn -0.621949 -0.259109 0.738947
vn -0.822769 -0.155106 0.546803
vn 0.271052 0.320522 0.907632
vn 0.416998 0.423106 0.804422
vn -0.396571 0.641754 0.656417
vn -0.504648 0.404385 0.762760
vn -0.108924 -0.447587 -0.887582
vn -0.062899 -0.612876 -0.787672
vn 0.066202 0.265854 -0.961738
vn 0.214529 0.343406 -0.914357
vn -0.120946 0.378483 0.917673
vn 0.013660 0.580540 0.814117
vn 0.991035 0.088167 -0.100381
vn 0.670472 0.256797 -0.696077
vn 0.564328 0.251550 -0.786293
vn 0.962585 0.263110 -0.064831
vn -0.318208 -0.300234 0.899224
vn -0.232733 -0.101352 0.967245
vn 0.212924 0.368941 -0.904735
vn -0.907608 -0.119554 0.402436
vn -0.843390 -0.044785 0.535433
vn -0.136029 0.479067 -0.867174
vn -0.679539 -0.262691 0.684997
vn -0.734160 -0.098935 0.671730
vn 0.367496 0.076496 -0.926874
vn 0.652061 0.131593 -0.746659
vn 0.041171 -0.106862 0.993421
vn -0.692851 -0.034457 0.720257
vn -0.012486 0.011837 -0.999852
vn -0.367218 -0.108324 0.923806
vn 0.504134 0.266457 -0.821492
vn 0.813027 0.208779 -0.543507
vn -0.162434 -0.377560 0.911627
vn 0.310867 0.390768 -0.866408
vn 0.619844 0.323135 -0.715106
vn 0.590323 0.291089 -0.752852
vn 0.915641 0.176528 -0.361164
vn -0.369042 -0.383709 0.846508
vn -0.282359 -0.361641 0.888532
vn 0.905833 0.153597 -0.394810
vn -0.841836 -0.199435 0.501536
vn -0.671771 -0.296170 0.678975
s 1
g Sternothyroideus_Muscle_Right_Mesh group1
usemtl Sternothyroideus_Muscle_Right_phong1SG
f 30/1/1 35/2/2 13/3/3 1/4/4
f 26/5/5 42/6/6 38/7/7 16/8/8
f 13/9/3 15/10/9 5/11/10 1/12/4
f 6/13/11 20/14/12 18/15/13 2/16/14
f 25/17/15 26/5/5 16/8/8 14/18/16
f 15/10/9 36/19/17 31/20/18 5/11/10
f 45/21/19 47/22/20 29/23/21 3/24/22
f 46/25/23 45/26/19 3/27/22 7/28/24
f 43/29/25 44/30/26 8/31/27 4/32/28
f 44/30/26 48/33/29 32/34/30 8/31/27
f 13/3/3 35/2/2 33/35/31 9/36/32
f 15/10/9 13/9/3 9/37/32 11/38/33
f 18/15/13 20/14/12 12/39/34 10/40/35
f 20/14/12 36/19/17 34/41/36 12/39/34
f 25/17/15 41/42/37 33/35/31 10/40/35
f 23/43/38 24/44/39 11/38/33 9/37/32
f 26/5/5 25/17/15 10/40/35 12/39/34
f 24/44/39 42/6/6 34/41/36 11/38/33
f 21/45/40 39/46/41 37/47/42 14/18/16
f 27/48/43 28/49/44 19/50/45 17/51/46
f 22/52/47 21/45/40 14/18/16 16/8/8
f 28/49/44 40/53/48 38/7/7 19/50/45
f 23/54/38 41/42/37 37/47/42 17/55/46
f 24/44/39 23/43/38 17/51/46 19/50/45
f 35/2/2 30/1/1 2/16/14 18/15/13
f 38/7/7 42/6/6 24/44/39 19/50/45
f 31/20/18 36/19/17 20/14/12 6/13/11
f 29/23/21 47/22/20 43/29/25 4/32/28
f 32/34/30 48/33/29 46/25/23 7/28/24
f 33/35/31 35/2/2 18/15/13 10/40/35
f 34/41/36 36/19/17 15/10/9 11/38/33
f 33/35/31 41/42/37 23/54/38 9/36/32
f 34/41/36 42/6/6 26/5/5 12/39/34
f 37/47/42 39/46/41 27/56/43 17/55/46
f 38/7/7 40/53/48 22/52/47 16/8/8
f 37/47/42 41/42/37 25/17/15 14/18/16
f 47/22/20 45/21/19 27/56/43 39/46/41
f 45/26/19 46/25/23 28/49/44 27/48/43
f 44/30/26 43/29/25 21/45/40 22/52/47
f 48/33/29 44/30/26 22/52/47 40/53/48
f 43/29/25 47/22/20 39/46/41 21/45/40
f 46/25/23 48/33/29 40/53/48 28/49/44
