# This file uses centimeters as units for non-parametric coordinates.

mtllib Stylohyoid_Muscle_Left.mtl
g default
v 0.098407 0.696667 0.351111
v 0.592978 1.307070 -0.287977
v 0.095835 0.700169 0.356176
v 0.590646 1.307207 -0.278660
v 0.092137 0.694155 0.367540
v 0.597031 1.304377 -0.272337
v 0.091558 0.684555 0.374138
v 0.605405 1.301657 -0.273997
v 0.094346 0.677177 0.372110
v 0.610559 1.300806 -0.282661
v 0.098829 0.676313 0.362625
v 0.609490 1.302443 -0.293143
v 0.102489 0.682278 0.351260
v 0.603100 1.305439 -0.299335
v 0.103189 0.691635 0.344650
v 0.595110 1.307940 -0.297679
v 0.345142 0.967743 0.094172
v 0.360017 0.948956 0.077858
v 0.357566 0.973436 0.109326
v 0.382648 0.963211 0.107861
v 0.405532 0.944075 0.092206
v 0.413268 0.926161 0.070254
v 0.401285 0.920135 0.054999
v 0.376032 0.930986 0.057025
v 0.199968 0.818693 0.268363
v 0.527434 1.124660 -0.134420
v 0.205248 0.818651 0.286234
v 0.216970 0.807480 0.288988
v 0.228171 0.792072 0.275221
v 0.232690 0.781878 0.253758
v 0.227951 0.782570 0.237107
v 0.215899 0.793453 0.234047
v 0.515036 1.140301 -0.115566
v 0.206660 0.805927 0.252120
v 0.525329 1.142605 -0.101705
v 0.545697 1.133060 -0.103935
v 0.564849 1.115913 -0.122110
v 0.570298 1.101355 -0.145987
v 0.560662 1.098160 -0.160014
v 0.541274 1.108305 -0.156494
v 0.144981 0.754679 0.322563
v 0.583168 1.216261 -0.217157
v 0.144747 0.751602 0.337278
v 0.148966 0.740986 0.342154
v 0.155396 0.729013 0.334553
v 0.159765 0.722815 0.318676
v 0.159311 0.726082 0.303637
v 0.154811 0.736725 0.298436
v 0.443648 1.051430 -0.014649
v 0.280435 0.874399 0.167723
v 0.453857 1.055643 -0.000028
v 0.473891 1.046162 -0.003014
v 0.492659 1.028154 -0.021133
v 0.499213 1.011562 -0.044017
v 0.489160 1.006691 -0.058613
v 0.468496 1.016897 -0.056133
v 0.269796 0.889761 0.184272
v 0.455476 1.034170 -0.033890
v 0.278156 0.892389 0.200704
v 0.295282 0.881853 0.201108
v 0.312000 0.865093 0.186452
v 0.319367 0.852009 0.165824
v 0.312476 0.849909 0.150671
v 0.294367 0.860197 0.149674
v 0.572949 1.227375 -0.197785
v 0.149318 0.746016 0.311795
v 0.580541 1.228674 -0.184288
v 0.597214 1.221094 -0.187562
v 0.612063 1.208874 -0.206319
v 0.613720 1.200125 -0.228666
v 0.604616 1.199343 -0.241166
v 0.591045 1.206293 -0.237788
vt 0.749004 0.873506
vt 0.873506 0.873506
vt 0.873506 0.998008
vt 0.749004 0.998008
vt 0.998008 0.873506
vt 0.998008 0.998008
vt 0.001992 0.873506
vt 0.126494 0.873506
vt 0.126494 0.998008
vt 0.001992 0.998008
vt 0.250996 0.873506
vt 0.250996 0.998008
vt 0.375498 0.873506
vt 0.375498 0.998008
vt 0.500000 0.873506
vt 0.500000 0.998008
vt 0.624502 0.873506
vt 0.624502 0.998008
vt 0.873506 0.126494
vt 0.749004 0.126494
vt 0.749004 0.001992
vt 0.873506 0.001992
vt 0.998008 0.126494
vt 0.998008 0.001992
vt 0.126494 0.126494
vt 0.001992 0.126494
vt 0.001992 0.001992
vt 0.126494 0.001992
vt 0.250996 0.126494
vt 0.250996 0.001992
vt 0.375498 0.126494
vt 0.375498 0.001992
vt 0.500000 0.126494
vt 0.500000 0.001992
vt 0.624502 0.126494
vt 0.624502 0.001992
vt 0.873506 0.624502
vt 0.749004 0.624502
vt 0.749004 0.500000
vt 0.873506 0.500000
vt 0.998008 0.624502
vt 0.998008 0.500000
vt 0.126494 0.624502
vt 0.001992 0.624502
vt 0.001992 0.500000
vt 0.126494 0.500000
vt 0.250996 0.624502
vt 0.250996 0.500000
vt 0.375498 0.624502
vt 0.375498 0.500000
vt 0.500000 0.624502
vt 0.500000 0.500000
vt 0.624502 0.624502
vt 0.624502 0.500000
vt 0.749004 0.375498
vt 0.873506 0.375498
vt 0.998008 0.375498
vt 0.001992 0.375498
vt 0.126494 0.375498
vt 0.250996 0.375498
vt 0.375498 0.375498
vt 0.500000 0.375498
vt 0.624502 0.375498
vt 0.749004 0.749004
vt 0.873506 0.749004
vt 0.998008 0.749004
vt 0.001992 0.749004
vt 0.126494 0.749004
vt 0.250996 0.749004
vt 0.375498 0.749004
vt 0.500000 0.749004
vt 0.624502 0.749004
vt 0.873506 0.250996
vt 0.749004 0.250996
vt 0.998008 0.250996
vt 0.126494 0.250996
vt 0.001992 0.250996
vt 0.250996 0.250996
vt 0.375498 0.250996
vt 0.500000 0.250996
vt 0.624502 0.250996
vn -0.790210 0.263084 -0.553494
vn -0.753368 0.303148 -0.583556
vn -0.773385 0.623049 -0.116985
vn -0.804304 0.562584 -0.191296
vn -0.187234 0.597849 0.779436
vn -0.253450 0.702683 0.664831
vn 0.486092 0.009933 0.873851
vn 0.480274 0.121050 0.868725
vn 0.669076 -0.310984 0.675001
vn 0.723936 -0.322661 0.609760
vn 0.709634 -0.628471 0.318503
vn 0.707632 -0.679037 0.195363
vn 0.349564 -0.855334 -0.382373
vn 0.190728 -0.828264 -0.526879
vn -0.589567 -0.129535 -0.797265
vn -0.657799 -0.107722 -0.745451
vn -0.933876 0.302048 -0.191425
vn -0.980496 0.014836 -0.195977
vn -0.946030 -0.130415 -0.296679
vn -0.896312 -0.008132 -0.443350
vn -0.045224 0.733461 0.678226
vn -0.111798 0.753754 0.647577
vn 0.665967 0.361517 0.652528
vn 0.697910 0.489764 0.522545
vn 0.927577 0.034131 0.372071
vn 0.976068 0.153330 0.154211
vn 0.938242 -0.325336 -0.117722
vn 0.870937 -0.230209 -0.434134
vn 0.164395 -0.580190 -0.797718
vn -0.035435 -0.488989 -0.871570
vn -0.722500 -0.245490 -0.646319
vn -0.715744 -0.328158 -0.616460
vn -0.827725 0.478075 -0.293796
vn -0.821222 0.452080 -0.348165
vn -0.775494 0.056710 -0.628803
vn -0.783745 0.088073 -0.614807
vn -0.127590 0.797055 0.590275
vn -0.112643 0.814654 0.568903
vn 0.556788 0.299028 0.774964
vn 0.544724 0.350326 0.761936
vn 0.764562 -0.131280 0.631040
vn 0.776659 -0.059481 0.627106
vn 0.755521 -0.597775 0.268056
vn 0.799103 -0.542110 0.259905
vn 0.094159 -0.836311 -0.540109
vn 0.091103 -0.831698 -0.547703
vn -0.620189 -0.246174 -0.744825
vn -0.635015 -0.252426 -0.730093
vn -0.807561 0.059522 -0.586773
vn -0.841347 0.418426 -0.342133
vn -0.065093 0.807478 0.586296
vn 0.593545 0.341887 0.728573
vn 0.820758 -0.052175 0.568888
vn 0.835175 -0.515994 0.190349
vn 0.093686 -0.797622 -0.595838
vn -0.659203 -0.253328 -0.708008
vn -0.809378 0.545230 -0.218248
vn -0.805531 0.186820 -0.562333
vn -0.159675 0.767056 0.621393
vn 0.566046 0.211017 0.796909
vn 0.772122 -0.226130 0.593880
vn 0.741700 -0.633353 0.220784
vn 0.121268 -0.829468 -0.545231
vn -0.653501 -0.167516 -0.738156
vn -0.843437 0.051840 -0.534721
vn -0.889916 0.361462 -0.278199
vn -0.077783 0.757654 0.648005
vn 0.628199 0.309612 0.713797
vn 0.863783 -0.059536 0.500335
vn 0.881037 -0.466865 0.076226
vn 0.120387 -0.718877 -0.684634
vn -0.695062 -0.215624 -0.685853
s 1
g Stylohyoid_Muscle_Left1_Mesh group1
usemtl Stylohyoid_Muscle_Left1_phong1SG
f 66/1/1 1/4/2 3/3/3 41/2/4
f 41/2/4 3/3/3 5/6/5 43/5/6
f 43/7/6 5/10/5 7/9/7 44/8/8
f 44/8/8 7/9/7 9/12/9 45/11/10
f 45/11/10 9/12/9 11/14/11 46/13/12
f 46/13/12 11/14/11 13/16/13 47/15/14
f 47/15/14 13/16/13 15/18/15 48/17/16
f 48/17/16 15/18/15 1/4/2 66/1/1
f 65/19/17 4/22/18 2/21/19 42/20/20
f 67/23/21 6/24/22 4/22/18 65/19/17
f 68/25/23 8/28/24 6/27/22 67/26/21
f 69/29/25 10/30/26 8/28/24 68/25/23
f 70/31/27 12/32/28 10/30/26 69/29/25
f 71/33/29 14/34/30 12/32/28 70/31/27
f 72/35/31 16/36/32 14/34/30 71/33/29
f 42/20/20 2/21/19 16/36/32 72/35/31
f 57/37/33 17/40/34 18/39/35 50/38/36
f 59/41/37 19/42/38 17/40/34 57/37/33
f 60/43/39 20/46/40 19/45/38 59/44/37
f 61/47/41 21/48/42 20/46/40 60/43/39
f 62/49/43 22/50/44 21/48/42 61/47/41
f 63/51/45 23/52/46 22/50/44 62/49/43
f 64/53/47 24/54/48 23/52/46 63/51/45
f 50/38/36 18/39/35 24/54/48 64/53/47
f 58/55/49 18/39/35 17/40/34 49/56/50
f 49/56/50 17/40/34 19/42/38 51/57/51
f 51/58/51 19/45/38 20/46/40 52/59/52
f 52/59/52 20/46/40 21/48/42 53/60/53
f 53/60/53 21/48/42 22/50/44 54/61/54
f 54/61/54 22/50/44 23/52/46 55/62/55
f 55/62/55 23/52/46 24/54/48 56/63/56
f 56/63/56 24/54/48 18/39/35 58/55/49
f 41/2/4 25/65/57 34/64/58 66/1/1
f 43/5/6 27/66/59 25/65/57 41/2/4
f 44/8/8 28/68/60 27/67/59 43/7/6
f 45/11/10 29/69/61 28/68/60 44/8/8
f 46/13/12 30/70/62 29/69/61 45/11/10
f 47/15/14 31/71/63 30/70/62 46/13/12
f 48/17/16 32/72/64 31/71/63 47/15/14
f 66/1/1 34/64/58 32/72/64 48/17/16
f 42/20/20 26/74/65 33/73/66 65/19/17
f 65/19/17 33/73/66 35/75/67 67/23/21
f 67/26/21 35/77/67 36/76/68 68/25/23
f 68/25/23 36/76/68 37/78/69 69/29/25
f 69/29/25 37/78/69 38/79/70 70/31/27
f 70/31/27 38/79/70 39/80/71 71/33/29
f 71/33/29 39/80/71 40/81/72 72/35/31
f 72/35/31 40/81/72 26/74/65 42/20/20
f 50/38/36 34/64/58 25/65/57 57/37/33
f 57/37/33 25/65/57 27/66/59 59/41/37
f 59/44/37 27/67/59 28/68/60 60/43/39
f 60/43/39 28/68/60 29/69/61 61/47/41
f 61/47/41 29/69/61 30/70/62 62/49/43
f 62/49/43 30/70/62 31/71/63 63/51/45
f 63/51/45 31/71/63 32/72/64 64/53/47
f 64/53/47 32/72/64 34/64/58 50/38/36
f 49/56/50 33/73/66 26/74/65 58/55/49
f 51/57/51 35/75/67 33/73/66 49/56/50
f 52/59/52 36/76/68 35/77/67 51/58/51
f 53/60/53 37/78/69 36/76/68 52/59/52
f 54/61/54 38/79/70 37/78/69 53/60/53
f 55/62/55 39/80/71 38/79/70 54/61/54
f 56/63/56 40/81/72 39/80/71 55/62/55
f 58/55/49 26/74/65 40/81/72 56/63/56
