# This file uses centimeters as units for non-parametric coordinates.

mtllib Superior_Auricular_Muscle_Left.mtl
g default
v 0.837039 1.638231 -0.034334
v 0.800153 1.624584 -0.196016
v 0.924463 2.109739 0.050439
v 0.894072 1.942404 -0.341302
v 0.842997 1.634829 -0.061215
v 0.807828 1.621666 -0.228215
v 0.920567 2.134796 0.052128
v 0.896683 1.955811 -0.364927
v 0.940532 1.837988 -0.046910
v 0.898684 1.820976 -0.233217
v 0.944702 1.836138 -0.054263
v 0.906592 1.819956 -0.244019
v 0.929217 2.107319 -0.165016
v 0.815752 1.629774 -0.121510
v 0.827824 1.629694 -0.135839
v 0.928111 2.162714 -0.155799
v 0.914411 1.829386 -0.138660
v 0.925382 1.827272 -0.146738
v 0.929505 2.134394 -0.020350
v 0.807157 1.627111 -0.159132
v 0.819759 1.627131 -0.172981
v 0.925511 2.166456 -0.010000
v 0.923877 1.831396 -0.094824
v 0.915816 1.823227 -0.194557
v 0.916182 2.043581 -0.292122
v 0.825855 1.632545 -0.083266
v 0.837686 1.632437 -0.097464
v 0.914596 2.097456 -0.293886
v 0.904719 1.824932 -0.185636
v 0.934343 1.828844 -0.102074
v 0.865233 1.703291 -0.047486
v 0.897420 1.774452 -0.048974
v 0.914999 1.901819 -0.306191
v 0.914025 1.878925 -0.272852
v 0.868063 1.702835 -0.061045
v 0.899667 1.772203 -0.061373
v 0.926803 1.899836 -0.311108
v 0.923496 1.877298 -0.278879
v 0.949534 1.918362 -0.025452
v 0.942967 2.018639 0.034909
v 0.857889 1.759413 -0.213327
v 0.833442 1.699020 -0.204763
v 0.956579 1.916269 -0.027966
v 0.950296 2.014887 0.033402
v 0.866134 1.758286 -0.229155
v 0.839679 1.698298 -0.218226
v 0.871255 1.765863 -0.130632
v 0.843775 1.701572 -0.132012
v 0.853884 1.701038 -0.144075
v 0.880704 1.764135 -0.140058
v 0.927590 2.050592 -0.164987
v 0.935432 1.934134 -0.162335
v 0.943853 2.046692 -0.166851
v 0.949258 1.933128 -0.166316
v 0.883687 1.770761 -0.090661
v 0.853225 1.703039 -0.090589
v 0.861962 1.702576 -0.103622
v 0.892190 1.768753 -0.100724
v 0.932082 2.060680 -0.015898
v 0.945760 1.936659 -0.082319
v 0.937804 1.976070 -0.260300
v 0.938467 1.908085 -0.224435
v 0.837536 1.700020 -0.169872
v 0.862194 1.762064 -0.168858
v 0.872812 1.760292 -0.180932
v 0.848487 1.699646 -0.181189
v 0.924683 1.910505 -0.220643
v 0.920605 1.980589 -0.258934
v 0.958644 1.934715 -0.087303
v 0.946957 2.055557 -0.015982
vt 0.001195 0.898407
vt 0.100797 0.898407
vt 0.100797 0.998008
vt 0.001195 0.998008
vt 0.200398 0.798805
vt 0.200398 0.699203
vt 0.300000 0.699203
vt 0.300000 0.798805
vt 0.100797 0.001992
vt 0.100797 0.101594
vt 0.001195 0.101594
vt 0.001195 0.001992
vt 0.001195 0.500000
vt 0.100797 0.500000
vt 0.100797 0.599602
vt 0.001195 0.599602
vt 0.399602 0.300797
vt 0.399602 0.201195
vt 0.499203 0.201195
vt 0.499203 0.300797
vt 0.100797 0.201195
vt 0.001195 0.201195
vt 0.499203 0.998008
vt 0.499203 0.898407
vt 0.598805 0.898407
vt 0.598805 0.998008
vt 0.499203 0.101594
vt 0.499203 0.001992
vt 0.598805 0.001992
vt 0.598805 0.101594
vt 0.499203 0.599602
vt 0.499203 0.500000
vt 0.598805 0.500000
vt 0.598805 0.599602
vt 0.499203 0.400398
vt 0.598805 0.400398
vt 0.200398 0.599602
vt 0.300000 0.599602
vt 0.200398 0.300797
vt 0.200398 0.400398
vt 0.100797 0.400398
vt 0.100797 0.300797
vt 0.598805 0.201195
vt 0.598805 0.300797
vt 0.001195 0.400398
vt 0.598805 0.699203
vt 0.499203 0.699203
vt 0.300000 0.898407
vt 0.200398 0.898407
vt 0.001195 0.300797
vt 0.399602 0.798805
vt 0.399602 0.699203
vt 0.499203 0.798805
vt 0.598805 0.798805
vt 0.001195 0.699203
vt 0.100797 0.699203
vt 0.100797 0.798805
vt 0.001195 0.798805
vt 0.300000 0.400398
vt 0.300000 0.300797
vt 0.300000 0.201195
vt 0.200398 0.998008
vt 0.300000 0.998008
vt 0.200398 0.001992
vt 0.200398 0.101594
vt 0.300000 0.001992
vt 0.300000 0.101594
vt 0.200398 0.500000
vt 0.300000 0.500000
vt 0.200398 0.201195
vt 0.399602 0.898407
vt 0.399602 0.998008
vt 0.399602 0.001992
vt 0.399602 0.101594
vt 0.399602 0.599602
vt 0.399602 0.500000
vt 0.399602 0.400398
vn -0.899788 0.387310 0.200928
vn -0.813369 0.395810 0.426339
vn -0.806083 0.384544 0.449839
vn -0.894623 0.391822 0.214768
vn -0.859023 0.484597 0.165058
vn -0.927705 0.345458 0.141502
vn -0.916109 0.389268 0.095993
vn -0.867776 0.485958 0.103974
vn 0.938755 -0.344383 -0.011785
vn 0.925223 -0.378670 -0.023925
vn 0.714827 -0.259904 -0.649209
vn -0.913241 0.405199 -0.042481
vn -0.920054 0.387499 -0.057841
vn 0.802495 -0.344862 -0.486900
vn 0.994393 -0.039837 -0.097954
vn 0.987875 0.124939 -0.092154
vn 0.989638 0.141867 0.022138
vn 0.998133 -0.001817 -0.061055
vn 0.925915 -0.342759 -0.158736
vn 0.914729 -0.370906 -0.160310
vn -0.979586 -0.153419 0.129900
vn -0.980799 -0.142949 0.132662
vn -0.999049 -0.043267 0.005366
vn -0.995747 -0.086285 0.032300
vn 0.985852 0.068594 0.152938
vn 0.968919 0.198867 0.147131
vn -0.987159 -0.106903 0.118693
vn -0.968016 -0.169496 0.184976
vn 0.915686 0.072092 -0.395375
vn 0.933589 -0.036390 -0.356493
vn 0.966214 0.131049 -0.221939
vn 0.967783 0.073055 -0.240955
vn -0.929355 0.365885 -0.049269
vn -0.882405 0.466396 -0.061933
vn 0.858444 -0.491540 -0.146501
vn 0.915115 -0.368115 -0.164487
vn 0.913734 -0.376063 -0.153843
vn 0.861085 -0.493892 -0.120846
vn 0.985575 0.156386 -0.064690
vn 0.984668 0.171979 0.029200
vn 0.915181 -0.367766 -0.164900
vn -0.986560 -0.006565 0.163269
vn -0.984511 -0.012383 0.174885
vn -0.928750 0.324122 0.179912
vn -0.851761 0.479859 0.210329
vn 0.918925 -0.356562 -0.168643
vn -0.993640 0.019089 0.110974
vn -0.996471 -0.044010 0.071479
vn -0.987684 0.105364 0.115668
vn -0.999133 -0.003935 0.041452
vn -0.906771 0.398213 0.138540
vn -0.906026 0.383299 0.179438
vn -0.905773 0.383030 0.181283
vn -0.912865 0.387648 0.128089
vn 0.905370 -0.409781 -0.111287
vn 0.923080 -0.361989 -0.129953
vn 0.930419 -0.344731 -0.124424
vn -0.797274 0.463135 0.387119
vn -0.917328 0.198391 0.345180
vn 0.864114 -0.502509 -0.028125
vn 0.948568 -0.315625 -0.024499
vn 0.848347 -0.463455 -0.255964
vn 0.776540 -0.512050 -0.367138
vn 0.857108 -0.495256 -0.141728
vn -0.994579 -0.029373 0.099745
vn -0.974502 -0.084881 0.207706
vn 0.997247 -0.052367 0.052499
vn 0.939472 -0.278939 -0.198963
vn -0.995732 0.092209 0.003802
vn 0.982341 -0.145842 -0.117202
s 1
g Superior_Auricular_Muscle_Left1_Mesh group1
usemtl Superior_Auricular_Muscle_Left1_phong1SG
f 26/1/1 1/4/2 31/3/3 56/2/4
f 47/5/5 17/8/6 29/7/7 64/6/8
f 31/9/3 1/12/2 5/11/9 35/10/10
f 6/13/11 2/16/12 42/15/13 46/14/14
f 54/17/15 53/20/16 70/19/17 69/18/18
f 35/10/10 5/11/9 27/22/19 57/21/20
f 40/23/21 3/26/22 19/25/23 59/24/24
f 44/27/25 7/30/26 3/29/22 40/28/21
f 33/31/27 4/34/28 8/33/29 37/32/30
f 37/32/30 8/33/29 28/36/31 61/35/32
f 29/7/7 10/38/33 41/37/34 64/6/8
f 50/39/35 49/42/36 66/41/37 65/40/38
f 53/20/16 16/44/39 22/43/40 70/19/17
f 21/45/41 6/13/11 46/14/14 66/41/37
f 25/46/42 4/34/28 33/31/27 68/47/43
f 22/43/40 7/30/26 44/27/25 70/19/17
f 23/48/44 17/8/6 47/5/5 55/49/45
f 49/42/36 15/50/46 21/45/41 66/41/37
f 52/51/47 51/53/48 68/47/43 67/52/49
f 27/22/19 15/50/46 49/42/36 57/21/20
f 19/25/23 13/54/50 51/53/48 59/24/24
f 28/36/31 16/44/39 53/20/16 61/35/32
f 20/55/51 14/58/52 48/57/53 63/56/54
f 48/57/53 47/5/5 64/6/8 63/56/54
f 51/53/48 13/54/50 25/46/42 68/47/43
f 24/59/55 18/60/56 50/39/35 65/40/38
f 29/7/7 17/8/6 52/51/47 67/52/49
f 30/61/57 18/60/56 54/17/15 69/18/18
f 31/3/3 32/62/58 55/49/45 56/2/4
f 32/62/58 9/63/59 23/48/44 55/49/45
f 35/10/10 36/65/60 32/64/58 31/9/3
f 36/65/60 11/67/61 9/66/59 32/64/58
f 41/37/34 10/38/33 12/69/62 45/68/63
f 42/15/13 41/37/34 45/68/63 46/14/14
f 57/21/20 58/70/64 36/65/60 35/10/10
f 58/70/64 30/61/57 11/67/61 36/65/60
f 60/71/65 23/48/44 9/63/59 39/72/66
f 59/24/24 60/71/65 39/72/66 40/23/21
f 39/73/66 9/66/59 11/67/61 43/74/67
f 40/28/21 39/73/66 43/74/67 44/27/25
f 37/32/30 38/76/68 34/75/69 33/31/27
f 38/76/68 12/69/62 10/38/33 34/75/69
f 61/35/32 62/77/70 38/76/68 37/32/30
f 62/77/70 24/59/55 12/69/62 38/76/68
f 41/37/34 42/15/13 63/56/54 64/6/8
f 42/15/13 2/16/12 20/55/51 63/56/54
f 45/68/63 12/69/62 24/59/55 65/40/38
f 46/14/14 45/68/63 65/40/38 66/41/37
f 33/31/27 34/75/69 67/52/49 68/47/43
f 34/75/69 10/38/33 29/7/7 67/52/49
f 43/74/67 11/67/61 30/61/57 69/18/18
f 44/27/25 43/74/67 69/18/18 70/19/17
f 47/5/5 48/57/53 56/2/4 55/49/45
f 48/57/53 14/58/52 26/1/1 56/2/4
f 49/42/36 50/39/35 58/70/64 57/21/20
f 50/39/35 18/60/56 30/61/57 58/70/64
f 51/53/48 52/51/47 60/71/65 59/24/24
f 52/51/47 17/8/6 23/48/44 60/71/65
f 53/20/16 54/17/15 62/77/70 61/35/32
f 54/17/15 18/60/56 24/59/55 62/77/70
