# This file uses centimeters as units for non-parametric coordinates.

mtllib Thyrohyoid_Muscle_Right.mtl
g default
v -0.188975 0.551016 0.067229
v -0.203669 0.553141 0.045773
v -0.146134 0.854328 0.201872
v -0.156878 0.848600 0.203915
v -0.116946 0.531187 0.227202
v -0.117185 0.506062 0.225588
v -0.106150 0.687166 0.354398
v -0.116817 0.682198 0.364962
v -0.175316 0.703058 0.150833
v -0.209493 0.689491 0.145339
v -0.109140 0.577431 0.271268
v -0.117899 0.568502 0.282851
v -0.184553 0.508059 0.079510
v -0.154162 0.519751 0.181250
v -0.152309 0.536283 0.161646
v -0.167656 0.542892 0.103066
v -0.129687 0.735062 0.312637
v -0.140797 0.799345 0.263537
v -0.145246 0.795685 0.264172
v -0.132583 0.734402 0.311766
v -0.150004 0.607000 0.226537
v -0.160972 0.644497 0.181989
v -0.202032 0.631458 0.188792
v -0.168159 0.589731 0.232788
v -0.182950 0.612505 0.099042
v -0.190809 0.788315 0.190451
v -0.115000 0.546682 0.244361
v -0.122393 0.626980 0.327547
v -0.164910 0.791857 0.190685
v -0.210099 0.603352 0.082421
v -0.111817 0.632414 0.316073
v -0.111453 0.535221 0.254804
v -0.164613 0.669090 0.285962
v -0.184828 0.720659 0.243604
v -0.152249 0.559193 0.190341
v -0.160214 0.581059 0.138140
v -0.198837 0.538836 0.118496
v -0.164243 0.543718 0.200792
v -0.153449 0.729898 0.240647
v -0.138869 0.675636 0.275166
vt 0.484910 0.464784
vt 0.484910 0.589286
vt 0.360408 0.589286
vt 0.360408 0.464784
vt 0.733914 0.962792
vt 0.733914 0.838290
vt 0.858416 0.838290
vt 0.858416 0.962792
vt 0.235906 0.589286
vt 0.235906 0.464784
vt 0.609412 0.464784
vt 0.609412 0.589286
vt 0.609412 0.962792
vt 0.609412 0.838290
vt 0.982918 0.589286
vt 0.858416 0.589286
vt 0.858416 0.464784
vt 0.982918 0.464784
vt 0.360408 0.838290
vt 0.484910 0.838290
vt 0.484910 0.962792
vt 0.360408 0.962792
vt -0.013098 0.838290
vt 0.111404 0.838290
vt 0.111404 0.962792
vt -0.013098 0.962792
vt 0.982918 0.838290
vt 0.982918 0.962792
vt 0.235906 0.962792
vt 0.235906 0.838290
vt 0.111404 0.464784
vt 0.111404 0.589286
vt -0.013098 0.589286
vt -0.013098 0.464784
vt 0.609412 0.713788
vt 0.733914 0.589286
vt 0.733914 0.713788
vt 0.858416 0.713788
vt 0.484910 0.713788
vt 0.360408 0.713788
vt 0.235906 0.713788
vt 0.982918 0.713788
vt -0.013098 0.713788
vt 0.111404 0.713788
vt 0.733914 0.464784
vn -0.959583 -0.158470 -0.232567
vn -0.978187 0.045864 -0.202601
vn 0.718749 0.341676 -0.605522
vn 0.761418 0.300594 -0.574357
vn -0.823149 0.135862 0.551332
vn -0.859797 -0.100992 0.500549
vn -0.695439 -0.310105 0.648228
vn -0.756654 -0.089580 0.647649
vn 0.955716 0.123556 -0.267099
vn 0.916549 0.146738 -0.372029
vn -0.910854 -0.397078 0.112584
vn -0.923705 -0.328641 0.196885
vn -0.812167 0.288579 0.507058
vn -0.910182 0.102496 0.401328
vn 0.866134 0.285152 -0.410488
vn -0.561746 -0.576825 0.593055
vn -0.645536 -0.554673 0.524997
vn 0.856835 0.359349 -0.369732
vn 0.848604 0.041665 -0.527386
vn -0.931361 0.351544 0.094784
vn -0.893301 0.428475 0.135728
vn 0.891037 -0.103738 -0.441918
vn 0.956681 0.114314 -0.267758
vn 0.931424 0.117786 -0.344350
vn 0.936380 0.049871 -0.347428
vn 0.966294 0.044263 -0.253609
vn 0.947367 -0.104201 -0.302719
vn 0.961414 -0.000957 -0.275103
vn 0.956156 0.163450 -0.243002
vn 0.929251 0.222250 -0.295121
vn -0.956694 -0.119264 0.265544
vn -0.794080 -0.436066 0.423419
vn -0.832106 -0.320428 0.452687
vn -0.614910 -0.484955 0.621856
vn -0.973142 0.188772 -0.131754
vn 0.791323 0.238196 -0.563091
vn 0.964783 0.087249 -0.248156
vn 0.916406 0.209695 -0.340923
vn 0.927404 0.175919 -0.330113
vn -0.702137 -0.605600 0.374502
s 1
g Thyrohyoid_Muscle_Right_Mesh group1
usemtl Thyrohyoid_Muscle_Right_phong1SG
f 2/1/1 30/2/2 25/3/3 1/4/4
f 20/5/5 33/6/6 28/7/7 8/8/8
f 25/3/3 36/9/9 16/10/10 1/4/4
f 13/11/11 37/12/12 30/2/2 2/1/1
f 19/13/13 34/14/14 33/6/6 20/5/5
f 27/15/15 32/16/16 6/17/17 5/18/18
f 29/19/19 26/20/20 4/21/21 3/22/22
f 31/23/23 40/24/24 17/25/25 7/26/26
f 26/20/20 34/14/14 19/13/13 4/21/21
f 28/7/7 31/27/23 7/28/26 8/8/8
f 18/29/27 39/30/28 29/19/19 3/22/22
f 17/25/25 40/24/24 39/30/28 18/29/27
f 15/31/29 35/32/30 27/33/15 5/34/18
f 16/10/10 36/9/9 35/32/30 15/31/29
f 23/35/31 37/12/12 38/36/32 24/37/33
f 24/37/33 38/36/32 32/16/16 12/38/34
f 25/3/3 30/2/2 10/39/35 9/40/36
f 28/7/7 33/6/6 24/37/33 12/38/34
f 36/9/9 25/3/3 9/40/36 22/41/37
f 30/2/2 37/12/12 23/35/31 10/39/35
f 33/6/6 34/14/14 23/35/31 24/37/33
f 32/16/16 27/15/15 11/42/38 12/38/34
f 26/20/20 29/19/19 9/40/36 10/39/35
f 40/24/24 31/23/23 11/43/38 21/44/39
f 34/14/14 26/20/20 10/39/35 23/35/31
f 31/27/23 28/7/7 12/38/34 11/42/38
f 29/19/19 39/30/28 22/41/37 9/40/36
f 39/30/28 40/24/24 21/44/39 22/41/37
f 27/33/15 35/32/30 21/44/39 11/43/38
f 35/32/30 36/9/9 22/41/37 21/44/39
f 38/36/32 37/12/12 13/11/11 14/45/40
f 32/16/16 38/36/32 14/45/40 6/17/17
