# This file uses centimeters as units for non-parametric coordinates.

mtllib Upper_Canine_Right.mtl
g default
v 0.135027 1.213255 0.952968
v 0.177545 1.049797 0.924624
v 0.170900 1.136131 0.966491
v 0.195160 0.996773 0.911884
v 0.148294 1.049288 0.976417
v 0.194942 1.057556 0.939751
v 0.146986 0.972883 0.984784
v 0.206653 0.987206 0.926095
v 0.131147 1.048702 0.961034
v 0.181838 1.053951 0.920872
v 0.144903 1.044809 0.984664
v 0.197532 1.049948 0.937808
v 0.150122 0.982014 0.965752
v 0.184259 0.992517 0.926820
v 0.169469 1.052139 0.922324
v 0.134852 1.047804 0.952439
v 0.195372 1.056850 0.949512
v 0.155455 1.060614 0.977521
v 0.161456 0.965698 0.988454
v 0.207528 0.974562 0.936131
v 0.130887 1.054073 0.950987
v 0.171327 1.053659 0.918608
v 0.198196 1.057226 0.949321
v 0.153616 1.058661 0.985683
v 0.134660 1.052406 0.960401
v 0.179815 1.113583 0.928589
v 0.149740 1.108015 0.974553
v 0.190122 1.114817 0.943719
v 0.162314 1.110683 0.931131
v 0.141428 1.105150 0.950108
v 0.185467 1.112135 0.956041
v 0.164433 1.109301 0.973545
v 0.136533 1.098572 0.963100
v 0.158815 1.211142 0.936323
v 0.140248 1.212414 0.957789
v 0.157733 1.210114 0.945646
v 0.139640 1.213310 0.944084
v 0.138214 1.214401 0.946270
v 0.149424 1.214762 0.953323
v 0.147223 1.217110 0.955239
v 0.194054 1.052378 0.928653
v 0.132688 1.052763 0.973759
v 0.143562 0.976164 0.976391
v 0.202184 0.988155 0.917787
v 0.134933 1.034578 0.972126
v 0.192171 1.045361 0.925596
v 0.149435 1.212292 0.945748
v 0.138652 1.215439 0.953304
v 0.157556 0.973501 0.972470
v 0.185085 0.978945 0.947040
v 0.186023 1.115341 0.935014
v 0.142038 1.107374 0.968657
v 0.157989 1.210726 0.940527
v 0.137060 1.213766 0.954946
v 0.174419 0.998737 0.945080
v 0.149587 1.045568 0.935050
v 0.184768 1.067804 0.967092
v 0.200842 0.959337 0.973535
v 0.146873 1.054426 0.931229
v 0.185743 1.078960 0.977016
v 0.151209 1.107822 0.938375
v 0.175690 1.109659 0.967428
v 0.138611 1.212986 0.944295
v 0.148150 1.215897 0.955082
v 0.143136 1.215708 0.948985
v 0.179119 0.952305 0.948156
v 0.141988 0.980873 0.971711
v 0.139615 1.134796 0.961080
v 0.148320 0.972052 0.981133
v 0.203035 0.981949 0.928821
v 0.151012 1.133394 0.941604
v 0.144696 1.136549 0.966593
v 0.162740 0.958740 0.979455
v 0.194871 0.968309 0.949632
v 0.146493 0.973433 0.974182
v 0.201964 0.987013 0.919073
v 0.180534 1.134541 0.940551
v 0.195808 0.945604 0.965311
v 0.191939 1.001024 0.913930
v 0.187311 1.026592 0.912394
v 0.207931 0.994143 0.918840
v 0.209652 1.034019 0.932218
v 0.124581 1.027016 0.963257
v 0.131027 0.993765 0.965782
v 0.137347 1.028513 0.986672
v 0.139134 0.993685 0.986090
v 0.135749 0.994379 0.958599
v 0.125550 1.026773 0.950689
v 0.179885 1.002842 0.911673
v 0.174582 1.027052 0.909742
v 0.168087 0.991964 0.993112
v 0.169324 1.028574 0.993787
v 0.216057 0.994930 0.946537
v 0.211626 1.031244 0.954071
v 0.128108 0.994188 0.977480
v 0.129439 1.025902 0.975998
v 0.202107 0.994968 0.910502
v 0.199074 1.027538 0.921200
v 0.142242 1.011868 0.923148
v 0.163497 1.015718 0.946521
v 0.194213 1.039120 0.990023
v 0.199956 0.994581 0.987658
v 0.141157 1.160427 0.952608
v 0.136415 1.160339 0.962852
v 0.151914 1.160137 0.942817
v 0.168364 1.157574 0.940573
v 0.176060 1.157980 0.951933
v 0.168865 1.162752 0.961318
v 0.157528 1.165037 0.970743
v 0.146628 1.161385 0.972261
v 0.173136 1.157951 0.945343
v 0.140673 1.161882 0.967699
v 0.146048 1.159575 0.945926
v 0.163625 1.162933 0.967704
v 0.144496 1.133835 0.950081
v 0.158859 1.134123 0.937083
v 0.175236 1.133766 0.934967
v 0.183755 1.134472 0.948083
v 0.177907 1.135998 0.958548
v 0.163254 1.138174 0.970906
v 0.151119 1.136402 0.971799
vt 0.935640 0.951875
vt 0.934578 0.952920
vt 0.934648 0.952025
vt 0.935588 0.952642
vt 0.936231 0.979557
vt 0.936658 0.979836
vt 0.936540 0.979663
vt 0.935687 0.979472
vt 0.935661 0.949669
vt 0.935060 0.952702
vt 0.951497 0.952638
vt 0.950993 0.951467
vt 0.948225 0.952900
vt 0.947075 0.952207
vt 0.946238 0.943690
vt 0.947497 0.935945
vt 0.941721 0.939481
vt 0.939730 0.940901
vt 0.938332 0.951375
vt 0.940666 0.953686
vt 0.941158 0.954011
vt 0.939240 0.952122
vt 0.934615 0.942861
vt 0.935880 0.942963
vt 0.937551 0.940711
vt 0.936787 0.942848
vt 0.933834 0.942932
vt 0.937973 0.939925
vt 0.938890 0.939378
vt 0.950930 0.944072
vt 0.953654 0.943062
vt 0.953675 0.941925
vt 0.951793 0.943363
vt 0.955214 0.942924
vt 0.957391 0.943055
vt 0.955106 0.939658
vt 0.954872 0.941767
vt 0.945410 0.952851
vt 0.944912 0.952598
vt 0.938860 0.952979
vt 0.939587 0.951502
vt 0.936922 0.979481
vt 0.939546 0.979312
vt 0.941837 0.979050
vt 0.942058 0.979120
vt 0.936647 0.979427
vt 0.937859 0.979881
vt 0.951967 0.934828
vt 0.949095 0.940389
vt 0.951716 0.938615
vt 0.953616 0.941735
vt 0.953903 0.940890
vt 0.951850 0.953384
vt 0.952606 0.953446
vt 0.952429 0.952232
vt 0.951735 0.953501
vt 0.949010 0.955211
vt 0.949271 0.957072
vt 0.943312 0.946523
vt 0.947702 0.944375
vt 0.948874 0.942653
vt 0.942766 0.938179
vt 0.944542 0.942561
vt 0.953315 0.937118
vt 0.953078 0.942997
vt 0.936090 0.960343
vt 0.937401 0.961440
vt 0.940021 0.961886
vt 0.942996 0.962363
vt 0.947683 0.962847
vt 0.949346 0.963140
vt 0.950444 0.963053
vt 0.949197 0.962605
vt 0.946578 0.962192
vt 0.943563 0.962132
vt 0.939627 0.961918
vt 0.937565 0.961811
vt 0.936916 0.966385
vt 0.938223 0.966225
vt 0.939968 0.966151
vt 0.942070 0.966273
vt 0.946457 0.966213
vt 0.947876 0.966342
vt 0.948739 0.966331
vt 0.947172 0.966586
vt 0.945295 0.966608
vt 0.943247 0.966948
vt 0.939997 0.966653
vt 0.938276 0.966678
vt 0.937085 0.979332
vt 0.938953 0.980115
vt 0.938758 0.939470
vt 0.943110 0.937019
vt 0.939247 0.939239
vt 0.939543 0.979724
vt 0.941768 0.978948
vt 0.939202 0.979913
vt 0.937619 0.945880
vt 0.933148 0.948367
vt 0.951540 0.950426
vt 0.956204 0.949113
vt 0.938639 0.970518
vt 0.940210 0.970612
vt 0.943347 0.971078
vt 0.941714 0.971429
vt 0.937199 0.970903
vt 0.936058 0.970646
vt 0.945894 0.970247
vt 0.946677 0.970252
vt 0.938794 0.970820
vt 0.932889 0.948407
vt 0.934190 0.948221
vt 0.936308 0.948657
vt 0.949691 0.948337
vt 0.952842 0.948494
vt 0.955675 0.949575
vt 0.946281 0.948413
vt 0.944873 0.948667
vt 0.937329 0.970660
vt 0.944616 0.970184
vt 0.944750 0.971048
vn -0.826705 0.189975 -0.529593
vn -0.813182 0.319222 -0.486654
vn -0.958650 0.254839 0.126680
vn -0.990752 0.112264 -0.076203
vn -0.679772 0.201186 0.705290
vn -0.289061 0.935858 0.201527
vn -0.887927 -0.036391 -0.458543
vn -0.993382 -0.018703 -0.113328
vn -0.780597 0.396989 0.482772
vn -0.710338 0.127280 0.692257
vn 0.673474 0.144615 -0.724927
vn 0.588624 0.453420 -0.669277
vn 0.336622 0.464070 -0.819345
vn 0.209687 0.161906 -0.964271
vn -0.622265 -0.436693 -0.649681
vn -0.464057 -0.615160 -0.637361
vn -0.669781 -0.492120 -0.556068
vn -0.522313 -0.374973 -0.765888
vn -0.397502 0.246471 0.883880
vn -0.155428 0.426375 0.891093
vn -0.060097 0.341462 0.937972
vn -0.435838 0.195434 0.878551
vn -0.914751 -0.354882 -0.193105
vn -0.468985 -0.601798 -0.646445
vn -0.614359 -0.679811 -0.400526
vn -0.403612 -0.091111 0.910382
vn -0.904247 -0.185614 0.384558
vn -0.778193 -0.594953 0.201116
vn -0.400119 -0.274411 0.874416
vn 0.143295 -0.079859 -0.986453
vn 0.567974 0.136659 -0.811622
vn -0.023162 -0.775363 -0.631091
vn -0.356022 -0.671025 -0.650364
vn 0.912292 0.054735 -0.405867
vn 0.986367 -0.050064 0.156761
vn 0.928346 -0.370707 0.027389
vn 0.845022 -0.383801 -0.372337
vn -0.332079 0.319234 -0.887588
vn -0.315995 0.191627 -0.929207
vn -0.604617 0.324543 -0.727400
vn -0.662589 0.173205 -0.728681
vn -0.295574 -0.016888 -0.955171
vn 0.202239 0.974518 -0.097022
vn 0.866879 0.417520 -0.272393
vn -0.075027 -0.005240 -0.997168
vn -0.719556 -0.064197 -0.691461
vn 0.109549 0.936294 -0.333694
vn 0.015503 -0.999217 -0.036404
vn -0.301768 -0.532979 -0.790487
vn 0.377687 -0.590852 -0.712914
vn -0.314829 -0.773341 -0.550296
vn -0.322231 -0.742449 -0.587313
vn 0.933950 0.266389 0.238275
vn 0.885400 0.440418 0.148657
vn 0.812893 0.500752 -0.297411
vn 0.987311 0.140264 -0.074455
vn 0.608997 0.349300 0.712118
vn 0.504258 0.580048 0.639741
vn -0.399703 -0.715853 -0.572531
vn -0.384540 -0.681079 -0.623105
vn -0.670326 -0.609776 -0.422890
vn 0.067698 -0.376279 0.924030
vn 0.041649 -0.137231 0.989663
vn 0.676957 -0.455665 0.578013
vn 0.688796 -0.114210 0.715902
vn -0.993947 0.098288 -0.049088
vn -0.846074 0.068568 -0.528637
vn -0.661459 0.066238 -0.747051
vn -0.335582 0.110544 -0.935502
vn 0.196909 0.146802 -0.969369
vn 0.736080 0.178979 -0.652804
vn 0.985911 0.167246 -0.003034
vn 0.884041 0.139167 0.446210
vn 0.605274 0.092835 0.790585
vn 0.255307 0.061885 0.964877
vn -0.213909 0.085441 0.973110
vn -0.607140 0.106793 0.787386
vn -0.999916 0.012769 0.002117
vn -0.867963 0.020000 -0.496226
vn -0.673189 0.061064 -0.736945
vn -0.280178 0.172467 -0.944328
vn 0.123538 0.287975 -0.949636
vn 0.769910 0.359915 -0.526973
vn 0.946221 0.294855 0.133139
vn 0.804235 0.192844 0.562155
vn 0.637357 0.143510 0.757087
vn 0.266013 0.080593 0.960595
vn -0.194201 0.045289 0.979916
vn -0.682556 -0.004973 0.730816
vn -0.186171 0.271647 0.944218
vn 0.147497 0.386880 0.910257
vn -0.440917 -0.683670 -0.581539
vn -0.352585 -0.889713 0.289990
vn -0.576569 -0.809815 -0.108482
vn 0.763667 0.432095 0.479694
vn 0.867613 0.403130 0.291091
vn 0.616753 0.425843 0.662022
vn -0.583458 -0.325797 -0.743931
vn -0.831208 -0.147114 -0.536145
vn 0.622668 0.228761 0.748300
vn 0.960546 0.186901 0.205958
vn -0.694062 -0.055469 -0.717775
vn -0.298177 -0.024274 -0.954202
vn 0.656689 0.245926 0.712938
vn 0.225714 0.221761 0.948618
vn -0.672479 0.034964 0.739290
vn -0.997396 -0.071805 -0.006687
vn 0.879649 0.287039 -0.379245
vn 0.916343 0.318285 0.242919
vn -0.181518 0.121719 0.975826
vn -0.998609 0.024147 0.046874
vn -0.885223 0.112557 0.451345
vn -0.416671 0.085561 0.905022
vn 0.311661 0.207786 -0.927196
vn 0.584534 0.306084 -0.751420
vn 0.905882 0.265586 -0.329912
vn -0.321264 -0.074180 -0.944080
vn -0.006681 0.093002 0.995643
vn -0.880645 -0.092196 -0.464720
vn 0.068264 0.099671 -0.992676
vn 0.781013 0.306791 0.543965
s 1
g Upper_Canine_Right Upper_Teeth Teeth group1
usemtl Upper_Canine1_Carpals_RightSG
f 16/1/1 21/2/2 9/3/3 25/4/4
f 54/5/5 48/6/6 38/7/7 1/8/8
f 9/3/3 45/9/9 42/10/10 25/4/4
f 41/11/11 46/12/12 10/13/13 2/14/14
f 55/15/15 66/16/16 49/17/17 13/18/18
f 11/19/19 24/20/20 18/21/21 5/22/22
f 84/23/23 87/24/24 13/18/18 67/25/25
f 86/26/26 95/27/27 43/28/28 7/29/29
f 79/30/30 97/31/31 44/32/32 4/33/33
f 81/34/34 93/35/35 20/36/36 8/37/37
f 22/38/38 15/39/39 2/14/14 10/13/13
f 59/40/40 56/41/41 15/39/39 22/38/38
f 37/42/42 47/43/43 53/44/44 34/45/45
f 63/46/46 65/47/47 47/43/43 37/42/42
f 78/48/48 66/16/16 50/49/49 74/50/50
f 74/50/50 50/49/49 76/51/51 70/52/52
f 17/53/53 23/54/54 12/55/55 6/56/56
f 57/57/57 60/58/58 23/54/54 17/53/53
f 55/15/15 100/59/59 89/60/60 14/61/61
f 14/61/61 89/60/60 79/30/30 4/33/33
f 19/62/62 91/63/63 86/26/26 7/29/29
f 58/64/64 102/65/65 91/63/63 19/62/62
f 33/66/66 30/67/67 16/1/1 25/4/4
f 30/67/67 61/68/68 56/41/41 16/1/1
f 29/69/69 26/70/70 2/14/14 15/39/39
f 26/70/70 51/71/71 41/11/11 2/14/14
f 28/72/72 31/73/73 17/53/53 6/56/56
f 31/73/73 62/74/74 57/57/57 17/53/53
f 32/75/75 27/76/76 5/22/22 18/21/21
f 27/76/76 52/77/77 42/10/10 5/22/22
f 68/78/78 115/79/79 30/67/67 33/66/66
f 115/79/79 71/80/80 61/68/68 30/67/67
f 116/81/81 117/82/82 26/70/70 29/69/69
f 117/82/82 77/83/83 51/71/71 26/70/70
f 118/84/84 119/85/85 31/73/73 28/72/72
f 119/85/85 3/86/86 62/74/74 31/73/73
f 120/87/87 121/88/88 27/76/76 32/75/75
f 121/88/88 72/89/89 52/77/77 27/76/76
f 48/6/6 54/5/5 35/90/90 40/91/91
f 42/10/10 45/9/9 11/19/19 5/22/22
f 46/12/12 41/11/11 6/56/56 12/55/55
f 75/92/92 49/17/17 73/93/93 69/94/94
f 43/28/28 95/27/27 84/23/23 67/25/25
f 44/32/32 97/31/31 81/34/34 8/37/37
f 53/44/44 47/43/43 39/95/95 36/96/96
f 47/43/43 65/47/47 64/97/97 39/95/95
f 50/49/49 66/16/16 55/15/15 14/61/61
f 44/32/32 76/51/51 14/61/61 4/33/33
f 41/11/11 51/71/71 28/72/72 6/56/56
f 42/10/10 52/77/77 33/66/66 25/4/4
f 51/71/71 77/83/83 118/84/84 28/72/72
f 52/77/77 72/89/89 68/78/78 33/66/66
f 56/41/41 59/40/40 21/2/2 16/1/1
f 65/47/47 63/46/46 38/7/7 48/6/6
f 66/16/16 78/48/48 73/93/93 49/17/17
f 60/58/58 57/57/57 18/21/21 24/20/20
f 59/40/40 99/98/98 88/99/99 21/2/2
f 60/58/58 101/100/100 94/101/101 23/54/54
f 56/41/41 61/68/68 29/69/69 15/39/39
f 57/57/57 62/74/74 32/75/75 18/21/21
f 61/68/68 71/80/80 116/81/81 29/69/69
f 62/74/74 3/86/86 120/87/87 32/75/75
f 64/97/97 65/47/47 48/6/6 40/91/91
f 13/18/18 75/92/92 43/28/28 67/25/25
f 116/81/81 71/80/80 113/102/102 105/103/103
f 75/92/92 69/94/94 7/29/29 43/28/28
f 69/94/94 73/93/93 19/62/62 7/29/29
f 73/93/93 78/48/48 58/64/64 19/62/62
f 78/48/48 74/50/50 20/36/36 58/64/64
f 74/50/50 70/52/52 8/37/37 20/36/36
f 70/52/52 76/51/51 44/32/32 8/37/37
f 120/87/87 3/86/86 114/104/104 109/105/105
f 68/78/78 72/89/89 112/106/106 104/107/107
f 118/84/84 77/83/83 111/108/108 107/109/109
f 72/89/89 121/88/88 110/110/110 112/106/106
f 121/88/88 120/87/87 109/105/105 110/110/110
f 88/99/99 83/111/111 9/3/3 21/2/2
f 87/24/24 84/23/23 83/111/111 88/99/99
f 96/112/112 85/113/113 11/19/19 45/9/9
f 95/27/27 86/26/26 85/113/113 96/112/112
f 97/31/31 79/30/30 80/114/114 98/115/115
f 98/115/115 80/114/114 10/13/13 46/12/12
f 93/35/35 81/34/34 82/116/116 94/101/101
f 94/101/101 82/116/116 12/55/55 23/54/54
f 89/60/60 100/59/59 99/98/98 90/117/117
f 90/117/117 99/98/98 59/40/40 22/38/38
f 79/30/30 89/60/60 90/117/117 80/114/114
f 80/114/114 90/117/117 22/38/38 10/13/13
f 85/113/113 92/118/118 24/20/20 11/19/19
f 86/26/26 91/63/63 92/118/118 85/113/113
f 91/63/63 102/65/65 101/100/100 92/118/118
f 92/118/118 101/100/100 60/58/58 24/20/20
f 83/111/111 96/112/112 45/9/9 9/3/3
f 84/23/23 95/27/27 96/112/112 83/111/111
f 81/34/34 97/31/31 98/115/115 82/116/116
f 82/116/116 98/115/115 46/12/12 12/55/55
f 87/24/24 100/59/59 55/15/15 13/18/18
f 88/99/99 99/98/98 100/59/59 87/24/24
f 93/35/35 102/65/65 58/64/64 20/36/36
f 94/101/101 101/100/100 102/65/65 93/35/35
f 103/119/119 104/107/107 1/8/8 38/7/7
f 113/102/102 103/119/119 38/7/7 63/46/46
f 106/120/120 105/103/103 37/42/42 34/45/45
f 111/108/108 106/120/120 34/45/45 53/44/44
f 108/121/121 107/109/109 36/96/96 39/95/95
f 114/104/104 108/121/121 39/95/95 64/97/97
f 110/110/110 109/105/105 40/91/91 35/90/90
f 112/106/106 110/110/110 35/90/90 54/5/5
f 107/109/109 111/108/108 53/44/44 36/96/96
f 104/107/107 112/106/106 54/5/5 1/8/8
f 105/103/103 113/102/102 63/46/46 37/42/42
f 109/105/105 114/104/104 64/97/97 40/91/91
f 115/79/79 68/78/78 104/107/107 103/119/119
f 71/80/80 115/79/79 103/119/119 113/102/102
f 117/82/82 116/81/81 105/103/103 106/120/120
f 77/83/83 117/82/82 106/120/120 111/108/108
f 119/85/85 118/84/84 107/109/109 108/121/121
f 3/86/86 119/85/85 108/121/121 114/104/104
f 14/61/61 76/51/51 50/49/49
f 75/92/92 13/18/18 49/17/17
