# This file uses centimeters as units for non-parametric coordinates.

mtllib Upper_Incisor_Right_02.mtl
g default
v 0.092273 1.209351 0.989684
v 0.089200 1.050434 1.020806
v 0.139483 0.968773 0.997744
v 0.090657 0.965433 1.041359
v 0.132925 1.057543 0.999223
v 0.099082 1.056379 1.034035
v 0.151353 0.968664 0.999685
v 0.094370 0.961571 1.051544
v 0.120681 1.057508 0.986535
v 0.083706 1.055246 1.024185
v 0.141141 1.051315 0.998958
v 0.097963 1.047472 1.035464
v 0.134352 0.971283 0.998921
v 0.093059 0.966068 1.035617
v 0.079715 1.052727 1.014448
v 0.111947 1.057613 0.982201
v 0.106314 1.053946 1.035096
v 0.132643 1.065687 1.005093
v 0.154016 0.964127 1.008584
v 0.101839 0.957067 1.053276
v 0.110915 1.061626 0.980311
v 0.076121 1.054455 1.014560
v 0.106206 1.053059 1.037379
v 0.140701 1.057163 1.008760
v 0.119823 1.060202 0.989391
v 0.083884 1.113655 1.022435
v 0.123144 1.112675 1.002458
v 0.099526 1.115990 1.030445
v 0.080677 1.110371 1.008495
v 0.097729 1.106436 0.991196
v 0.108867 1.114391 1.029174
v 0.122866 1.113808 1.012987
v 0.112741 1.102890 0.991455
v 0.082373 1.207333 1.003278
v 0.097578 1.208780 0.992400
v 0.088308 1.206450 1.005766
v 0.084267 1.209747 0.994968
v 0.086400 1.210749 0.993353
v 0.093935 1.211636 1.001756
v 0.096260 1.213747 0.999241
v 0.093810 1.048910 1.028012
v 0.127699 1.058123 0.992887
v 0.143873 0.970829 0.998491
v 0.094450 0.963877 1.043934
v 0.132323 1.044600 0.989397
v 0.089186 1.044115 1.030571
v 0.085647 1.209469 1.003148
v 0.094090 1.211655 0.992377
v 0.141799 0.966566 1.003105
v 0.098408 0.961426 1.041532
v 0.091543 1.115574 1.027064
v 0.116139 1.111639 0.996952
v 0.084672 1.206987 1.005010
v 0.095045 1.209839 0.990884
v 0.115361 0.969481 1.020844
v 0.090139 1.060364 0.996678
v 0.124139 1.068727 1.025006
v 0.135240 0.959908 1.036149
v 0.085206 1.057869 0.992868
v 0.127681 1.070463 1.034454
v 0.085485 1.107525 0.996510
v 0.118330 1.113293 1.021896
v 0.084642 1.209312 0.993875
v 0.096166 1.212538 1.000272
v 0.089981 1.212273 0.997090
v 0.122196 0.962545 1.023097
v 0.139858 0.970425 0.997789
v 0.091303 0.963278 1.041223
v 0.150932 0.966351 1.000336
v 0.093591 0.959648 1.052055
v 0.134115 0.969599 0.998816
v 0.093340 0.963644 1.035423
v 0.153650 0.961573 1.008993
v 0.101005 0.955126 1.053706
v 0.143638 0.968637 0.999050
v 0.094199 0.962013 1.044110
v 0.114191 0.967077 1.020441
v 0.134486 0.957438 1.036208
v 0.081672 0.994541 1.036202
v 0.079515 1.027441 1.025964
v 0.094451 0.991169 1.048801
v 0.094128 1.032612 1.045353
v 0.124082 1.037333 0.981312
v 0.135405 1.000381 0.987893
v 0.145435 1.038651 0.994592
v 0.151252 1.002323 0.997198
v 0.128289 0.997330 0.991026
v 0.110276 1.036184 0.976470
v 0.084122 0.995640 1.029053
v 0.069459 1.027069 1.016534
v 0.152453 1.000067 1.007506
v 0.148040 1.037468 1.005278
v 0.104776 0.990540 1.049147
v 0.105976 1.028868 1.046471
v 0.143562 1.002518 0.989028
v 0.136294 1.038397 0.985859
v 0.085151 0.993132 1.042957
v 0.086490 1.027699 1.035299
v 0.081833 1.028999 0.981952
v 0.105318 1.020981 1.016838
v 0.133257 1.034651 1.035848
v 0.135388 0.996891 1.036732
v 0.089117 1.154337 0.993764
v 0.098847 1.155998 0.993683
v 0.080935 1.153061 1.003358
v 0.083077 1.150595 1.016525
v 0.095826 1.151791 1.021944
v 0.102736 1.156830 1.016553
v 0.109606 1.160099 1.007049
v 0.110095 1.157419 0.999926
v 0.089552 1.151146 1.019666
v 0.105023 1.157530 0.996050
v 0.084216 1.153023 0.998467
v 0.108029 1.157671 1.012765
v 0.095165 1.131920 0.993442
v 0.083705 1.130610 1.006408
v 0.086082 1.130266 1.019020
v 0.099720 1.132162 1.025264
v 0.107290 1.134544 1.021591
v 0.116789 1.138107 1.009345
v 0.116727 1.136902 1.001592
v 0.093166 1.131346 1.022528
v 0.110540 1.136608 0.997282
v 0.086979 1.130476 0.999049
v 0.113951 1.135635 1.016160
v 0.104232 1.134687 0.993720
vt 0.931614 0.953943
vt 0.931844 0.953493
vt 0.929228 0.954180
vt 0.929505 0.953511
vt 0.924235 0.978821
vt 0.922662 0.979054
vt 0.924722 0.979205
vt 0.924978 0.978902
vt 0.933724 0.953596
vt 0.934962 0.951340
vt 0.923412 0.952313
vt 0.921941 0.953116
vt 0.923408 0.951259
vt 0.924647 0.952059
vt 0.936880 0.938692
vt 0.937993 0.938670
vt 0.937500 0.938324
vt 0.935442 0.938830
vt 0.935124 0.953499
vt 0.935048 0.954858
vt 0.937207 0.953436
vt 0.937324 0.952461
vt 0.936981 0.938968
vt 0.935506 0.939111
vt 0.933882 0.943456
vt 0.935788 0.943965
vt 0.940059 0.938674
vt 0.938056 0.939035
vt 0.937973 0.944321
vt 0.940033 0.944288
vt 0.923802 0.938135
vt 0.924818 0.937876
vt 0.922327 0.942755
vt 0.921396 0.942990
vt 0.924797 0.937491
vt 0.926797 0.936740
vt 0.927584 0.942323
vt 0.924818 0.942428
vt 0.920871 0.952696
vt 0.919909 0.952984
vt 0.923663 0.953970
vt 0.922342 0.953554
vt 0.921583 0.978484
vt 0.922199 0.978427
vt 0.922460 0.978841
vt 0.922091 0.978887
vt 0.923621 0.979308
vt 0.922191 0.978814
vt 0.926574 0.936416
vt 0.925878 0.937467
vt 0.932250 0.937654
vt 0.935542 0.936802
vt 0.924588 0.937170
vt 0.924751 0.937565
vt 0.926059 0.953305
vt 0.925759 0.951819
vt 0.927967 0.952751
vt 0.927996 0.952899
vt 0.933719 0.955654
vt 0.932770 0.955365
vt 0.924446 0.938241
vt 0.922052 0.943174
vt 0.927729 0.947401
vt 0.930419 0.938810
vt 0.940354 0.943912
vt 0.940773 0.937917
vt 0.935783 0.943382
vt 0.935744 0.937214
vt 0.925696 0.961655
vt 0.929717 0.961063
vt 0.922417 0.961836
vt 0.921988 0.962859
vt 0.921129 0.962311
vt 0.924039 0.963179
vt 0.928680 0.962981
vt 0.926178 0.963248
vt 0.931214 0.962798
vt 0.932504 0.962695
vt 0.932429 0.962884
vt 0.930627 0.962522
vt 0.925010 0.965905
vt 0.927438 0.966367
vt 0.922817 0.965665
vt 0.922577 0.965629
vt 0.921940 0.965687
vt 0.924474 0.965809
vt 0.928257 0.966343
vt 0.926230 0.965946
vt 0.930042 0.966525
vt 0.930785 0.966736
vt 0.930802 0.966937
vt 0.929128 0.966687
vt 0.925303 0.979554
vt 0.925656 0.978726
vt 0.939947 0.938288
vt 0.940675 0.937491
vt 0.923173 0.978337
vt 0.924680 0.979202
vt 0.925278 0.979352
vt 0.924521 0.937837
vt 0.930106 0.938409
vt 0.923975 0.937776
vt 0.929057 0.949937
vt 0.921439 0.948738
vt 0.927905 0.948716
vt 0.935213 0.949681
vt 0.932755 0.950128
vt 0.938474 0.950348
vt 0.936026 0.950306
vt 0.922686 0.948521
vt 0.920818 0.948478
vt 0.924732 0.949341
vt 0.918124 0.948416
vt 0.939172 0.950151
vt 0.925996 0.969922
vt 0.923390 0.969644
vt 0.922077 0.969425
vt 0.921198 0.969431
vt 0.921772 0.969020
vt 0.923506 0.969112
vt 0.925187 0.969220
vt 0.927038 0.970060
vt 0.928455 0.970201
vt 0.928878 0.970606
vt 0.929009 0.970159
vt 0.927650 0.970177
vn 0.432349 0.210039 -0.876902
vn 0.466844 0.319063 -0.824776
vn -0.153782 0.379353 -0.912383
vn -0.163949 0.196767 -0.966646
vn -0.028678 -0.022738 -0.999330
vn -0.352773 0.017601 -0.935543
vn 0.137126 0.904759 -0.403246
vn 0.453684 0.064993 -0.888789
vn 0.627111 0.245119 -0.739356
vn 0.491365 0.450642 -0.745307
vn -0.754122 0.045338 0.655167
vn -0.636458 0.388797 0.666152
vn -0.671581 0.348290 0.653967
vn -0.638656 0.090314 0.764174
vn -0.074529 -0.795263 -0.601667
vn -0.085969 -0.799111 -0.595005
vn -0.184266 -0.924432 -0.333873
vn -0.390358 -0.763250 -0.514850
vn 0.735284 0.326748 -0.593795
vn 0.943199 0.321593 0.083394
vn 0.902769 0.329367 0.276634
vn 0.759863 0.475625 -0.443159
vn 0.001880 -0.300703 -0.953716
vn -0.723153 -0.248424 -0.644465
vn -0.604586 -0.438817 -0.664767
vn 0.143388 -0.194962 -0.970273
vn 0.875917 -0.058778 -0.478869
vn 0.384831 -0.204206 -0.900114
vn 0.484288 -0.059275 -0.872898
vn 0.868180 0.032732 -0.495168
vn -0.945846 -0.287678 0.150387
vn -0.832093 -0.110770 0.543462
vn -0.771698 0.034427 0.635057
vn -0.941394 -0.073953 0.329102
vn -0.370710 0.067085 0.926323
vn 0.346829 0.036386 0.937222
vn 0.296535 0.049107 0.953759
vn -0.418393 0.066489 0.905829
vn -0.985693 0.125796 0.112181
vn -0.946527 0.316872 -0.060657
vn -0.734603 0.073795 -0.674473
vn -0.702925 0.355515 -0.616040
vn -0.965500 0.093406 0.243074
vn -0.399324 0.243425 0.883903
vn -0.288890 0.842011 0.455587
vn -0.987346 0.085402 -0.133623
vn -0.268621 0.960881 0.067451
vn -0.727768 0.010068 -0.685749
vn -0.130171 -0.969524 -0.207553
vn -0.181248 -0.922487 -0.340832
vn -0.181841 -0.923997 -0.336397
vn -0.043505 -0.983088 -0.177893
vn -0.574047 -0.815123 -0.077748
vn -0.511108 -0.829025 -0.226906
vn -0.341054 0.068588 0.937538
vn -0.446672 0.457151 0.769089
vn 0.068780 0.290847 0.954294
vn 0.104929 0.293450 0.950199
vn 0.584756 0.394491 0.708828
vn 0.693936 0.318370 0.645828
vn -0.516662 -0.222447 -0.826788
vn -0.519986 -0.425783 -0.740489
vn -0.461604 -0.638906 -0.615404
vn -0.629789 -0.215615 -0.746242
vn 0.927179 0.064466 0.369031
vn 0.899803 0.009135 0.436201
vn 0.662336 0.050536 0.747500
vn 0.647178 0.016490 0.762160
vn -0.277441 0.048395 -0.959523
vn 0.380423 0.163811 -0.910189
vn -0.730772 -0.015420 -0.682447
vn -0.809715 0.026823 0.586210
vn -0.999982 0.003171 -0.005137
vn -0.605902 0.052050 0.793835
vn 0.359257 0.139518 0.922751
vn -0.244460 0.119802 0.962230
vn 0.721684 0.152312 0.675258
vn 0.880875 0.204891 -0.426708
vn 0.949152 0.186710 0.253477
vn 0.613613 0.168732 -0.771368
vn -0.226035 0.032566 -0.973575
vn 0.219552 0.090117 -0.971430
vn -0.722732 0.002945 -0.691122
vn -0.875711 0.089085 0.474547
vn -0.996439 0.008757 -0.083861
vn -0.430054 0.164982 0.887600
vn 0.481903 0.297802 0.824065
vn 0.042033 0.269722 0.962020
vn 0.728218 0.301279 0.615573
vn 0.873047 0.226339 -0.431925
vn 0.938377 0.291272 0.186033
vn 0.541075 0.130127 -0.830846
vn 0.939516 0.337068 0.060783
vn 0.916503 0.192325 -0.350761
vn 0.117103 -0.790059 -0.601743
vn 0.027308 -0.977742 -0.208026
vn 0.155402 0.306221 0.939190
vn 0.412120 0.378275 0.828894
vn 0.726893 0.369297 0.579004
vn -0.362418 -0.765132 -0.532190
vn -0.360327 -0.765677 -0.532826
vn -0.589656 -0.804525 -0.071038
vn -0.361309 -0.368474 -0.856553
vn -0.627872 -0.399548 -0.667936
vn 0.208825 0.114204 0.971262
vn 0.658131 0.132116 0.741221
vn 0.285594 -0.005407 -0.958335
vn 0.846475 0.200489 -0.493238
vn 0.500433 0.125926 -0.856568
vn -0.739737 0.179431 0.648531
vn -0.805992 0.104875 0.582562
vn -0.427038 0.240581 0.871642
vn -0.790072 -0.470600 -0.392839
vn 0.936407 0.153160 0.315729
vn 0.050914 -0.017194 -0.998555
vn -0.356194 -0.056460 -0.932705
vn -0.741393 -0.085268 -0.665632
vn -0.994547 -0.028676 -0.100265
vn -0.908111 0.034256 0.417327
vn -0.391694 0.158893 0.906272
vn 0.092816 0.251649 0.963358
vn 0.449148 0.294228 0.843621
vn 0.688783 0.303124 0.658554
vn 0.953019 0.271303 0.134720
vn 0.904098 0.206319 -0.374219
vn 0.483971 0.034251 -0.874414
s 1
g Upper_Incisor_Right_02 Upper_Teeth Teeth group1
usemtl Upper_Incisor_Carpals_RightSG
f 25/1/1 9/2/2 21/3/3 16/4/4
f 1/5/5 38/6/6 48/7/7 54/8/8
f 25/1/1 42/9/9 45/10/10 9/2/2
f 2/11/11 10/12/12 46/13/13 41/14/14
f 3/15/15 75/16/16 49/17/17 71/18/18
f 5/19/19 18/20/20 24/21/21 11/22/22
f 67/23/23 13/24/24 87/25/25 84/26/26
f 7/27/27 43/28/28 95/29/29 86/30/30
f 4/31/31 44/32/32 97/33/33 79/34/34
f 8/35/35 20/36/36 93/37/37 81/38/38
f 10/12/12 2/11/11 15/39/39 22/40/40
f 22/40/40 15/39/39 56/41/41 59/42/42
f 34/43/43 53/44/44 47/45/45 37/46/46
f 37/46/46 47/45/45 65/47/47 63/48/48
f 74/49/49 50/50/50 66/51/51 78/52/52
f 70/53/53 76/54/54 50/50/50 74/49/49
f 6/55/55 12/56/56 23/57/57 17/58/58
f 17/58/58 23/57/57 60/59/59 57/60/60
f 14/61/61 89/62/62 100/63/63 55/64/64
f 4/31/31 79/34/34 89/62/62 14/61/61
f 7/27/27 86/30/30 91/65/65 19/66/66
f 19/66/66 91/65/65 102/67/67 58/68/68
f 25/1/1 16/4/4 30/69/69 33/70/70
f 16/4/4 56/41/41 61/71/71 30/69/69
f 15/39/39 2/11/11 26/72/72 29/73/73
f 2/11/11 41/14/14 51/74/74 26/72/72
f 6/55/55 17/58/58 31/75/75 28/76/76
f 17/58/58 57/60/60 62/77/77 31/75/75
f 18/20/20 5/19/19 27/78/78 32/79/79
f 5/19/19 42/9/9 52/80/80 27/78/78
f 33/70/70 30/69/69 115/81/81 126/82/82
f 30/69/69 61/71/71 124/83/83 115/81/81
f 29/73/73 26/72/72 117/84/84 116/85/85
f 26/72/72 51/74/74 122/86/86 117/84/84
f 28/76/76 31/75/75 119/87/87 118/88/88
f 31/75/75 62/77/77 125/89/89 119/87/87
f 32/79/79 27/78/78 121/90/90 120/91/91
f 27/78/78 52/80/80 123/92/92 121/90/90
f 40/93/93 35/94/94 54/8/8 48/7/7
f 5/19/19 11/22/22 45/10/10 42/9/9
f 12/56/56 6/55/55 41/14/14 46/13/13
f 69/95/95 73/96/96 49/17/17 75/16/16
f 67/23/23 84/26/26 95/29/29 43/28/28
f 8/35/35 81/38/38 97/33/33 44/32/32
f 36/97/97 39/98/98 47/45/45 53/44/44
f 39/98/98 64/99/99 65/47/47 47/45/45
f 72/100/100 77/101/101 66/51/51 50/50/50
f 68/102/102 72/100/100 50/50/50 76/54/54
f 6/55/55 28/76/76 51/74/74 41/14/14
f 25/1/1 33/70/70 52/80/80 42/9/9
f 28/76/76 118/88/88 122/86/86 51/74/74
f 33/70/70 126/82/82 123/92/92 52/80/80
f 16/4/4 21/3/3 59/42/42 56/41/41
f 48/7/7 38/6/6 63/48/48 65/47/47
f 49/17/17 73/96/96 78/52/52 66/51/51
f 24/21/21 18/20/20 57/60/60 60/59/59
f 21/3/3 88/103/103 99/104/104 59/42/42
f 23/57/57 94/105/105 101/106/106 60/59/59
f 15/39/39 29/73/73 61/71/71 56/41/41
f 18/20/20 32/79/79 62/77/77 57/60/60
f 29/73/73 116/85/85 124/83/83 61/71/71
f 32/79/79 120/91/91 125/89/89 62/77/77
f 40/93/93 48/7/7 65/47/47 64/99/99
f 71/18/18 49/17/17 66/51/51 77/101/101
f 67/23/23 43/28/28 75/16/16 3/15/15
f 43/28/28 7/27/27 69/95/95 75/16/16
f 7/27/27 19/66/66 73/96/96 69/95/95
f 19/66/66 58/68/68 78/52/52 73/96/96
f 58/68/68 20/36/36 74/49/49 78/52/52
f 20/36/36 8/35/35 70/53/53 74/49/49
f 8/35/35 44/32/32 76/54/54 70/53/53
f 44/32/32 4/31/31 68/102/102 76/54/54
f 4/31/31 14/61/61 72/100/100 68/102/102
f 14/61/61 55/64/64 77/101/101 72/100/100
f 55/64/64 13/24/24 71/18/18 77/101/101
f 13/24/24 67/23/23 3/15/15 71/18/18
f 21/3/3 9/2/2 83/107/107 88/103/103
f 88/103/103 83/107/107 84/26/26 87/25/25
f 45/10/10 11/22/22 85/108/108 96/109/109
f 96/109/109 85/108/108 86/30/30 95/29/29
f 98/110/110 80/111/111 79/34/34 97/33/33
f 46/13/13 10/12/12 80/111/111 98/110/110
f 94/105/105 82/112/112 81/38/38 93/37/37
f 23/57/57 12/56/56 82/112/112 94/105/105
f 90/113/113 99/104/104 100/63/63 89/62/62
f 22/40/40 59/42/42 99/104/104 90/113/113
f 80/111/111 90/113/113 89/62/62 79/34/34
f 10/12/12 22/40/40 90/113/113 80/111/111
f 11/22/22 24/21/21 92/114/114 85/108/108
f 85/108/108 92/114/114 91/65/65 86/30/30
f 92/114/114 101/106/106 102/67/67 91/65/65
f 24/21/21 60/59/59 101/106/106 92/114/114
f 9/2/2 45/10/10 96/109/109 83/107/107
f 83/107/107 96/109/109 95/29/29 84/26/26
f 82/112/112 98/110/110 97/33/33 81/38/38
f 12/56/56 46/13/13 98/110/110 82/112/112
f 13/24/24 55/64/64 100/63/63 87/25/25
f 87/25/25 100/63/63 99/104/104 88/103/103
f 20/36/36 58/68/68 102/67/67 93/37/37
f 93/37/37 102/67/67 101/106/106 94/105/105
f 38/6/6 1/5/5 104/115/115 103/116/116
f 63/48/48 38/6/6 103/116/116 113/117/117
f 34/43/43 37/46/46 105/118/118 106/119/119
f 53/44/44 34/43/43 106/119/119 111/120/120
f 39/98/98 36/97/97 107/121/121 108/122/122
f 64/99/99 39/98/98 108/122/122 114/123/123
f 35/94/94 40/93/93 109/124/124 110/125/125
f 54/8/8 35/94/94 110/125/125 112/126/126
f 36/97/97 53/44/44 111/120/120 107/121/121
f 1/5/5 54/8/8 112/126/126 104/115/115
f 37/46/46 63/48/48 113/117/117 105/118/118
f 40/93/93 64/99/99 114/123/123 109/124/124
f 103/116/116 104/115/115 126/82/82 115/81/81
f 113/117/117 103/116/116 115/81/81 124/83/83
f 106/119/119 105/118/118 116/85/85 117/84/84
f 111/120/120 106/119/119 117/84/84 122/86/86
f 108/122/122 107/121/121 118/88/88 119/87/87
f 114/123/123 108/122/122 119/87/87 125/89/89
f 110/125/125 109/124/124 120/91/91 121/90/90
f 112/126/126 110/125/125 121/90/90 123/92/92
f 107/121/121 111/120/120 122/86/86 118/88/88
f 104/115/115 112/126/126 123/92/92 126/82/82
f 105/118/118 113/117/117 124/83/83 116/85/85
f 109/124/124 114/123/123 125/89/89 120/91/91
