# This file uses centimeters as units for non-parametric coordinates.

mtllib Upper_Incisor_Left_02.mtl
g default
v -0.092232 1.209351 0.989684
v -0.089159 1.050434 1.020806
v -0.139442 0.968773 0.997744
v -0.090617 0.965433 1.041359
v -0.132885 1.057543 0.999223
v -0.099041 1.056379 1.034035
v -0.151312 0.968664 0.999685
v -0.094329 0.961571 1.051544
v -0.120640 1.057508 0.986535
v -0.083666 1.055246 1.024185
v -0.141100 1.051315 0.998958
v -0.097922 1.047472 1.035464
v -0.134311 0.971283 0.998921
v -0.093018 0.966068 1.035617
v -0.079674 1.052727 1.014448
v -0.111906 1.057613 0.982201
v -0.106273 1.053946 1.035096
v -0.132602 1.065687 1.005093
v -0.153975 0.964127 1.008584
v -0.101799 0.957067 1.053276
v -0.110875 1.061626 0.980311
v -0.076080 1.054455 1.014560
v -0.106166 1.053059 1.037379
v -0.140660 1.057163 1.008760
v -0.119782 1.060202 0.989391
v -0.083844 1.113655 1.022435
v -0.123103 1.112675 1.002458
v -0.099485 1.115990 1.030445
v -0.080636 1.110371 1.008495
v -0.097688 1.106436 0.991196
v -0.108826 1.114391 1.029174
v -0.122825 1.113808 1.012987
v -0.112700 1.102890 0.991455
v -0.082333 1.207333 1.003278
v -0.097537 1.208780 0.992400
v -0.088267 1.206450 1.005766
v -0.084226 1.209747 0.994968
v -0.086359 1.210749 0.993353
v -0.093894 1.211636 1.001756
v -0.096220 1.213747 0.999241
v -0.093769 1.048910 1.028012
v -0.127658 1.058123 0.992887
v -0.143832 0.970829 0.998491
v -0.094409 0.963877 1.043934
v -0.132282 1.044600 0.989397
v -0.089145 1.044115 1.030571
v -0.085606 1.209469 1.003148
v -0.094050 1.211655 0.992377
v -0.141758 0.966566 1.003105
v -0.098367 0.961426 1.041532
v -0.091502 1.115574 1.027064
v -0.116098 1.111639 0.996952
v -0.084631 1.206987 1.005010
v -0.095005 1.209839 0.990884
v -0.115320 0.969481 1.020844
v -0.090098 1.060364 0.996678
v -0.124098 1.068727 1.025006
v -0.135200 0.959908 1.036149
v -0.085165 1.057869 0.992868
v -0.127640 1.070463 1.034454
v -0.085444 1.107525 0.996510
v -0.118289 1.113293 1.021896
v -0.084601 1.209312 0.993875
v -0.096125 1.212538 1.000272
v -0.089940 1.212273 0.997090
v -0.122155 0.962545 1.023097
v -0.139817 0.970425 0.997789
v -0.091263 0.963278 1.041223
v -0.150891 0.966351 1.000336
v -0.093550 0.959648 1.052055
v -0.134074 0.969599 0.998816
v -0.093299 0.963644 1.035423
v -0.153609 0.961573 1.008993
v -0.100965 0.955126 1.053706
v -0.143598 0.968637 0.999050
v -0.094159 0.962013 1.044110
v -0.114150 0.967077 1.020441
v -0.134445 0.957438 1.036208
v -0.081631 0.994541 1.036202
v -0.079474 1.027441 1.025964
v -0.094410 0.991169 1.048801
v -0.094087 1.032612 1.045353
v -0.124042 1.037333 0.981312
v -0.135364 1.000381 0.987893
v -0.145394 1.038651 0.994592
v -0.151211 1.002323 0.997198
v -0.128248 0.997330 0.991026
v -0.110235 1.036184 0.976470
v -0.084081 0.995640 1.029053
v -0.069419 1.027069 1.016534
v -0.152412 1.000067 1.007506
v -0.147999 1.037468 1.005278
v -0.104735 0.990540 1.049147
v -0.105935 1.028868 1.046471
v -0.143521 1.002518 0.989028
v -0.136253 1.038397 0.985859
v -0.085110 0.993132 1.042957
v -0.086450 1.027699 1.035299
v -0.081792 1.028999 0.981952
v -0.105277 1.020981 1.016838
v -0.133216 1.034651 1.035848
v -0.135347 0.996891 1.036732
v -0.089076 1.154337 0.993764
v -0.098806 1.155998 0.993683
v -0.080894 1.153061 1.003358
v -0.083036 1.150595 1.016525
v -0.095785 1.151791 1.021944
v -0.102696 1.156830 1.016553
v -0.109566 1.160099 1.007049
v -0.110054 1.157419 0.999926
v -0.089511 1.151146 1.019666
v -0.104982 1.157530 0.996050
v -0.084175 1.153023 0.998467
v -0.107989 1.157671 1.012765
v -0.095124 1.131920 0.993442
v -0.083664 1.130610 1.006408
v -0.086041 1.130266 1.019020
v -0.099679 1.132162 1.025264
v -0.107249 1.134544 1.021591
v -0.116748 1.138107 1.009345
v -0.116686 1.136902 1.001592
v -0.093126 1.131346 1.022528
v -0.110499 1.136608 0.997282
v -0.086939 1.130476 0.999049
v -0.113910 1.135635 1.016160
v -0.104191 1.134687 0.993720
vt 0.869546 0.953511
vt 0.869822 0.954180
vt 0.867206 0.953493
vt 0.867436 0.953943
vt 0.874073 0.978902
vt 0.874329 0.979205
vt 0.876389 0.979054
vt 0.874815 0.978821
vt 0.864088 0.951340
vt 0.865327 0.953596
vt 0.874404 0.952059
vt 0.875642 0.951259
vt 0.877110 0.953116
vt 0.875639 0.952313
vt 0.863608 0.938830
vt 0.861550 0.938324
vt 0.861057 0.938670
vt 0.862170 0.938692
vt 0.861726 0.952461
vt 0.861844 0.953436
vt 0.864002 0.954858
vt 0.863927 0.953499
vt 0.863263 0.943965
vt 0.865169 0.943456
vt 0.863545 0.939111
vt 0.862070 0.938968
vt 0.859018 0.944288
vt 0.861078 0.944321
vt 0.860994 0.939035
vt 0.858991 0.938674
vt 0.877655 0.942990
vt 0.876723 0.942755
vt 0.874232 0.937876
vt 0.875248 0.938135
vt 0.874232 0.942428
vt 0.871466 0.942323
vt 0.872253 0.936740
vt 0.874254 0.937491
vt 0.879142 0.952984
vt 0.878179 0.952696
vt 0.876708 0.953554
vt 0.875387 0.953970
vt 0.876960 0.978887
vt 0.876590 0.978841
vt 0.876851 0.978427
vt 0.877467 0.978484
vt 0.876859 0.978814
vt 0.875429 0.979308
vt 0.863509 0.936802
vt 0.866800 0.937654
vt 0.873172 0.937467
vt 0.872476 0.936416
vt 0.874299 0.937565
vt 0.874462 0.937170
vt 0.871054 0.952899
vt 0.871083 0.952751
vt 0.873291 0.951819
vt 0.872992 0.953305
vt 0.866280 0.955365
vt 0.865331 0.955654
vt 0.868631 0.938810
vt 0.871321 0.947401
vt 0.876999 0.943174
vt 0.874605 0.938241
vt 0.858278 0.937917
vt 0.858696 0.943912
vt 0.863307 0.937214
vt 0.863267 0.943382
vt 0.869333 0.961063
vt 0.873354 0.961655
vt 0.876634 0.961836
vt 0.877921 0.962311
vt 0.877062 0.962859
vt 0.875011 0.963179
vt 0.872873 0.963248
vt 0.870371 0.962981
vt 0.867836 0.962798
vt 0.866621 0.962884
vt 0.866547 0.962695
vt 0.868423 0.962522
vt 0.871612 0.966367
vt 0.874041 0.965905
vt 0.876233 0.965665
vt 0.877110 0.965687
vt 0.876474 0.965629
vt 0.874576 0.965809
vt 0.872821 0.965946
vt 0.870793 0.966343
vt 0.869009 0.966525
vt 0.868249 0.966937
vt 0.868265 0.966736
vt 0.869923 0.966687
vt 0.873394 0.978726
vt 0.873747 0.979554
vt 0.858376 0.937491
vt 0.859104 0.938288
vt 0.874370 0.979202
vt 0.875877 0.978337
vt 0.873773 0.979352
vt 0.868945 0.938409
vt 0.874530 0.937837
vt 0.875075 0.937776
vt 0.877612 0.948738
vt 0.869993 0.949937
vt 0.863838 0.949681
vt 0.871145 0.948716
vt 0.866295 0.950128
vt 0.863024 0.950306
vt 0.860576 0.950348
vt 0.878233 0.948478
vt 0.876364 0.948521
vt 0.874319 0.949341
vt 0.880926 0.948416
vt 0.859878 0.950151
vt 0.875661 0.969644
vt 0.873055 0.969922
vt 0.876974 0.969425
vt 0.877279 0.969020
vt 0.877852 0.969431
vt 0.875544 0.969112
vt 0.872013 0.970060
vt 0.873864 0.969220
vt 0.870595 0.970201
vt 0.870042 0.970159
vt 0.870173 0.970606
vt 0.871400 0.970177
vn 0.163945 0.196774 -0.966645
vn 0.153777 0.379349 -0.912386
vn -0.466842 0.319063 -0.824777
vn -0.432334 0.210034 -0.876911
vn -0.453656 0.064982 -0.888804
vn -0.137105 0.904722 -0.403336
vn 0.352784 0.017610 -0.935539
vn 0.028680 -0.022731 -0.999330
vn -0.491353 0.450628 -0.745323
vn -0.627095 0.245116 -0.739371
vn 0.638677 0.090324 0.764156
vn 0.671606 0.348288 0.653942
vn 0.636468 0.388807 0.666136
vn 0.754137 0.045348 0.655149
vn 0.390395 -0.763324 -0.514712
vn 0.184270 -0.924439 -0.333851
vn 0.085963 -0.799025 -0.595122
vn 0.074505 -0.795031 -0.601975
vn -0.759852 0.475612 -0.443191
vn -0.902780 0.329369 0.276595
vn -0.943196 0.321591 0.083435
vn -0.735274 0.326750 -0.593807
vn -0.143383 -0.194966 -0.970273
vn 0.604569 -0.438814 -0.664785
vn 0.723140 -0.248420 -0.644481
vn -0.001875 -0.300707 -0.953715
vn -0.868180 0.032732 -0.495168
vn -0.484297 -0.059273 -0.872894
vn -0.384829 -0.204198 -0.900117
vn -0.875905 -0.058775 -0.478891
vn 0.941382 -0.073943 0.329138
vn 0.771701 0.034429 0.635053
vn 0.832116 -0.110789 0.543424
vn 0.945842 -0.287690 0.150390
vn 0.418397 0.066490 0.905827
vn -0.296540 0.049113 0.953757
vn -0.346825 0.036390 0.937224
vn 0.370724 0.067079 0.926318
vn 0.946532 0.316858 -0.060641
vn 0.985692 0.125802 0.112182
vn 0.702925 0.355510 -0.616043
vn 0.734600 0.073794 -0.674476
vn 0.987350 0.085411 -0.133586
vn 0.288917 0.841971 0.455644
vn 0.399348 0.243414 0.883895
vn 0.965498 0.093412 0.243080
vn 0.727775 0.010069 -0.685742
vn 0.268602 0.960883 0.067510
vn 0.043525 -0.983086 -0.177895
vn 0.181843 -0.924001 -0.336385
vn 0.181247 -0.922478 -0.340859
vn 0.130191 -0.969524 -0.207541
vn 0.511108 -0.829016 -0.226939
vn 0.574048 -0.815122 -0.077748
vn -0.104944 0.293426 0.950204
vn -0.068770 0.290875 0.954286
vn 0.446674 0.457154 0.769086
vn 0.341051 0.068588 0.937539
vn -0.693929 0.318370 0.645835
vn -0.584786 0.394508 0.708794
vn 0.629777 -0.215612 -0.746253
vn 0.461605 -0.638901 -0.615407
vn 0.519993 -0.425773 -0.740489
vn 0.516668 -0.222451 -0.826783
vn -0.899812 0.009137 0.436182
vn -0.927179 0.064470 0.369030
vn -0.647190 0.016493 0.762150
vn -0.662338 0.050542 0.747498
vn -0.380418 0.163808 -0.910192
vn 0.277448 0.048394 -0.959521
vn 0.730766 -0.015417 -0.682454
vn 0.999982 0.003175 -0.005130
vn 0.809714 0.026825 0.586211
vn 0.605916 0.052052 0.793824
vn 0.244459 0.119802 0.962230
vn -0.359252 0.139517 0.922753
vn -0.721679 0.152311 0.675264
vn -0.949145 0.186710 0.253501
vn -0.880878 0.204897 -0.426697
vn -0.613603 0.168733 -0.771376
vn -0.219558 0.090116 -0.971429
vn 0.226054 0.032563 -0.973570
vn 0.722717 0.002947 -0.691138
vn 0.996437 0.008753 -0.083883
vn 0.875700 0.089074 0.474569
vn 0.430053 0.164973 0.887603
vn -0.042040 0.269716 0.962022
vn -0.481896 0.297794 0.824072
vn -0.728228 0.301268 0.615566
vn -0.938388 0.291258 0.186003
vn -0.873042 0.226331 -0.431941
vn -0.541074 0.130127 -0.830846
vn -0.916479 0.192305 -0.350834
vn -0.939521 0.337059 0.060755
vn -0.027310 -0.977735 -0.208061
vn -0.117105 -0.790061 -0.601740
vn -0.412119 0.378285 0.828890
vn -0.155395 0.306218 0.939193
vn -0.726826 0.369333 0.579065
vn 0.360333 -0.765680 -0.532817
vn 0.362407 -0.765077 -0.532276
vn 0.589710 -0.804486 -0.071028
vn 0.627880 -0.399541 -0.667933
vn 0.361307 -0.368463 -0.856558
vn -0.658141 0.132117 0.741212
vn -0.208825 0.114208 0.971262
vn -0.285586 -0.005422 -0.958338
vn -0.500437 0.125925 -0.856566
vn -0.846470 0.200487 -0.493249
vn 0.805982 0.104878 0.582576
vn 0.739734 0.179436 0.648534
vn 0.427041 0.240587 0.871638
vn 0.790086 -0.470589 -0.392823
vn -0.936409 0.153160 0.315723
vn 0.356207 -0.056464 -0.932700
vn -0.050912 -0.017197 -0.998555
vn 0.741399 -0.085277 -0.665624
vn 0.908109 0.034258 0.417331
vn 0.994550 -0.028669 -0.100242
vn 0.391702 0.158885 0.906270
vn -0.449139 0.294230 0.843625
vn -0.092818 0.251642 0.963359
vn -0.688783 0.303118 0.658557
vn -0.904081 0.206302 -0.374269
vn -0.953026 0.271296 0.134686
vn -0.483961 0.034249 -0.874419
s 1
g Upper_Incisor_Left_02 Upper_Teeth Teeth group1
usemtl Upper_Incisor3_Carpals_RightSG
f 16/1/1 21/2/2 9/3/3 25/4/4
f 54/5/5 48/6/6 38/7/7 1/8/8
f 9/3/3 45/9/9 42/10/10 25/4/4
f 41/11/11 46/12/12 10/13/13 2/14/14
f 71/15/15 49/16/16 75/17/17 3/18/18
f 11/19/19 24/20/20 18/21/21 5/22/22
f 84/23/23 87/24/24 13/25/25 67/26/26
f 86/27/27 95/28/28 43/29/29 7/30/30
f 79/31/31 97/32/32 44/33/33 4/34/34
f 81/35/35 93/36/36 20/37/37 8/38/38
f 22/39/39 15/40/40 2/14/14 10/13/13
f 59/41/41 56/42/42 15/40/40 22/39/39
f 37/43/43 47/44/44 53/45/45 34/46/46
f 63/47/47 65/48/48 47/44/44 37/43/43
f 78/49/49 66/50/50 50/51/51 74/52/52
f 74/52/52 50/51/51 76/53/53 70/54/54
f 17/55/55 23/56/56 12/57/57 6/58/58
f 57/59/59 60/60/60 23/56/56 17/55/55
f 55/61/61 100/62/62 89/63/63 14/64/64
f 14/64/64 89/63/63 79/31/31 4/34/34
f 19/65/65 91/66/66 86/27/27 7/30/30
f 58/67/67 102/68/68 91/66/66 19/65/65
f 33/69/69 30/70/70 16/1/1 25/4/4
f 30/70/70 61/71/71 56/42/42 16/1/1
f 29/72/72 26/73/73 2/14/14 15/40/40
f 26/73/73 51/74/74 41/11/11 2/14/14
f 28/75/75 31/76/76 17/55/55 6/58/58
f 31/76/76 62/77/77 57/59/59 17/55/55
f 32/78/78 27/79/79 5/22/22 18/21/21
f 27/79/79 52/80/80 42/10/10 5/22/22
f 126/81/81 115/82/82 30/70/70 33/69/69
f 115/82/82 124/83/83 61/71/71 30/70/70
f 116/84/84 117/85/85 26/73/73 29/72/72
f 117/85/85 122/86/86 51/74/74 26/73/73
f 118/87/87 119/88/88 31/76/76 28/75/75
f 119/88/88 125/89/89 62/77/77 31/76/76
f 120/90/90 121/91/91 27/79/79 32/78/78
f 121/91/91 123/92/92 52/80/80 27/79/79
f 48/6/6 54/5/5 35/93/93 40/94/94
f 42/10/10 45/9/9 11/19/19 5/22/22
f 46/12/12 41/11/11 6/58/58 12/57/57
f 75/17/17 49/16/16 73/95/95 69/96/96
f 43/29/29 95/28/28 84/23/23 67/26/26
f 44/33/33 97/32/32 81/35/35 8/38/38
f 53/45/45 47/44/44 39/97/97 36/98/98
f 47/44/44 65/48/48 64/99/99 39/97/97
f 50/51/51 66/50/50 77/100/100 72/101/101
f 76/53/53 50/51/51 72/101/101 68/102/102
f 41/11/11 51/74/74 28/75/75 6/58/58
f 42/10/10 52/80/80 33/69/69 25/4/4
f 51/74/74 122/86/86 118/87/87 28/75/75
f 52/80/80 123/92/92 126/81/81 33/69/69
f 56/42/42 59/41/41 21/2/2 16/1/1
f 65/48/48 63/47/47 38/7/7 48/6/6
f 66/50/50 78/49/49 73/95/95 49/16/16
f 60/60/60 57/59/59 18/21/21 24/20/20
f 59/41/41 99/103/103 88/104/104 21/2/2
f 60/60/60 101/105/105 94/106/106 23/56/56
f 56/42/42 61/71/71 29/72/72 15/40/40
f 57/59/59 62/77/77 32/78/78 18/21/21
f 61/71/71 124/83/83 116/84/84 29/72/72
f 62/77/77 125/89/89 120/90/90 32/78/78
f 64/99/99 65/48/48 48/6/6 40/94/94
f 77/100/100 66/50/50 49/16/16 71/15/15
f 3/18/18 75/17/17 43/29/29 67/26/26
f 75/17/17 69/96/96 7/30/30 43/29/29
f 69/96/96 73/95/95 19/65/65 7/30/30
f 73/95/95 78/49/49 58/67/67 19/65/65
f 78/49/49 74/52/52 20/37/37 58/67/67
f 74/52/52 70/54/54 8/38/38 20/37/37
f 70/54/54 76/53/53 44/33/33 8/38/38
f 76/53/53 68/102/102 4/34/34 44/33/33
f 68/102/102 72/101/101 14/64/64 4/34/34
f 72/101/101 77/100/100 55/61/61 14/64/64
f 77/100/100 71/15/15 13/25/25 55/61/61
f 71/15/15 3/18/18 67/26/26 13/25/25
f 88/104/104 83/107/107 9/3/3 21/2/2
f 87/24/24 84/23/23 83/107/107 88/104/104
f 96/108/108 85/109/109 11/19/19 45/9/9
f 95/28/28 86/27/27 85/109/109 96/108/108
f 97/32/32 79/31/31 80/110/110 98/111/111
f 98/111/111 80/110/110 10/13/13 46/12/12
f 93/36/36 81/35/35 82/112/112 94/106/106
f 94/106/106 82/112/112 12/57/57 23/56/56
f 89/63/63 100/62/62 99/103/103 90/113/113
f 90/113/113 99/103/103 59/41/41 22/39/39
f 79/31/31 89/63/63 90/113/113 80/110/110
f 80/110/110 90/113/113 22/39/39 10/13/13
f 85/109/109 92/114/114 24/20/20 11/19/19
f 86/27/27 91/66/66 92/114/114 85/109/109
f 91/66/66 102/68/68 101/105/105 92/114/114
f 92/114/114 101/105/105 60/60/60 24/20/20
f 83/107/107 96/108/108 45/9/9 9/3/3
f 84/23/23 95/28/28 96/108/108 83/107/107
f 81/35/35 97/32/32 98/111/111 82/112/112
f 82/112/112 98/111/111 46/12/12 12/57/57
f 87/24/24 100/62/62 55/61/61 13/25/25
f 88/104/104 99/103/103 100/62/62 87/24/24
f 93/36/36 102/68/68 58/67/67 20/37/37
f 94/106/106 101/105/105 102/68/68 93/36/36
f 103/115/115 104/116/116 1/8/8 38/7/7
f 113/117/117 103/115/115 38/7/7 63/47/47
f 106/118/118 105/119/119 37/43/43 34/46/46
f 111/120/120 106/118/118 34/46/46 53/45/45
f 108/121/121 107/122/122 36/98/98 39/97/97
f 114/123/123 108/121/121 39/97/97 64/99/99
f 110/124/124 109/125/125 40/94/94 35/93/93
f 112/126/126 110/124/124 35/93/93 54/5/5
f 107/122/122 111/120/120 53/45/45 36/98/98
f 104/116/116 112/126/126 54/5/5 1/8/8
f 105/119/119 113/117/117 63/47/47 37/43/43
f 109/125/125 114/123/123 64/99/99 40/94/94
f 115/82/82 126/81/81 104/116/116 103/115/115
f 124/83/83 115/82/82 103/115/115 113/117/117
f 117/85/85 116/84/84 105/119/119 106/118/118
f 122/86/86 117/85/85 106/118/118 111/120/120
f 119/88/88 118/87/87 107/122/122 108/121/121
f 125/89/89 119/88/88 108/121/121 114/123/123
f 121/91/91 120/90/90 109/125/125 110/124/124
f 123/92/92 121/91/91 110/124/124 112/126/126
f 118/87/87 122/86/86 111/120/120 107/122/122
f 126/81/81 123/92/92 112/126/126 104/116/116
f 116/84/84 124/83/83 113/117/117 105/119/119
f 120/90/90 125/89/89 114/123/123 109/125/125
