# This file uses centimeters as units for non-parametric coordinates.

mtllib Upper_Premolar_Left_02.mtl
g default
v -0.222067 1.279047 0.756227
v -0.209099 1.074530 0.800691
v -0.232795 1.003347 0.732075
v -0.208917 1.000143 0.810566
v -0.263116 1.068352 0.728554
v -0.245255 1.061865 0.815776
v -0.269895 1.004435 0.732748
v -0.240613 0.987202 0.812176
v -0.236652 1.071959 0.721055
v -0.208303 1.079765 0.808214
v -0.267052 1.066376 0.725323
v -0.251500 1.076519 0.815983
v -0.217849 1.009041 0.732990
v -0.201397 1.001247 0.784475
v -0.202992 1.077879 0.789717
v -0.213722 1.072659 0.735296
v -0.255483 1.070541 0.806209
v -0.263786 1.074583 0.738923
v -0.268022 1.016859 0.747686
v -0.262983 1.005356 0.798709
v -0.206392 1.080450 0.733169
v -0.199482 1.080091 0.793536
v -0.264491 1.081852 0.810581
v -0.269848 1.083252 0.733303
v -0.227120 1.077009 0.725067
v -0.220699 1.134998 0.804812
v -0.252849 1.140383 0.742687
v -0.250476 1.135155 0.807485
v -0.209922 1.146019 0.780129
v -0.214580 1.139223 0.747237
v -0.266678 1.137825 0.790519
v -0.265542 1.141136 0.760715
v -0.226303 1.130655 0.734056
v -0.222748 1.276945 0.774915
v -0.231245 1.278345 0.758825
v -0.232163 1.275875 0.776021
v -0.217422 1.279684 0.764942
v -0.218331 1.280884 0.762451
v -0.235444 1.281853 0.769916
v -0.235347 1.284372 0.766438
v -0.235432 1.077679 0.817489
v -0.253901 1.079319 0.713390
v -0.260944 1.021605 0.728076
v -0.237527 0.998638 0.809621
v -0.260702 1.058382 0.724897
v -0.234522 1.068722 0.816407
v -0.227103 1.279390 0.773398
v -0.226172 1.281910 0.759045
v -0.243280 1.008757 0.742500
v -0.244252 1.006994 0.782476
v -0.234489 1.127863 0.810915
v -0.238329 1.140081 0.736007
v -0.227287 1.276522 0.775998
v -0.226441 1.279633 0.756870
v -0.214258 0.997618 0.746077
v -0.204756 1.069475 0.763283
v -0.266029 1.072933 0.781777
v -0.277307 1.003321 0.782632
v -0.194363 1.080572 0.761933
v -0.278375 1.084536 0.782758
v -0.208980 1.142563 0.764248
v -0.271975 1.134377 0.774255
v -0.216872 1.279137 0.763799
v -0.236146 1.282949 0.767442
v -0.226194 1.282717 0.765530
v -0.237703 1.016542 0.762076
v -0.225820 1.011879 0.708863
v -0.217647 0.992264 0.785639
v -0.262247 1.011297 0.738578
v -0.242152 1.005539 0.788228
v -0.238929 1.022135 0.748819
v -0.221270 1.002316 0.778086
v -0.252507 1.009953 0.751054
v -0.247804 0.992239 0.794125
v -0.248219 1.012810 0.737966
v -0.238867 0.999786 0.785125
v -0.228415 1.006100 0.755234
v -0.254683 1.006224 0.751932
v -0.208064 0.999960 0.811232
v -0.205179 1.045914 0.818996
v -0.236362 1.010662 0.818527
v -0.242665 1.047863 0.828878
v -0.238172 1.049454 0.713959
v -0.241740 1.020748 0.712754
v -0.272105 1.049259 0.723772
v -0.272970 1.025700 0.724305
v -0.210566 1.016197 0.721151
v -0.224137 1.037123 0.716774
v -0.197891 1.009411 0.789591
v -0.196683 1.031914 0.802514
v -0.287072 1.014582 0.740715
v -0.288172 1.046976 0.737627
v -0.268082 1.001978 0.824567
v -0.270452 1.042202 0.823374
v -0.265554 1.027920 0.720756
v -0.263904 1.049276 0.722675
v -0.233855 1.006735 0.819161
v -0.234667 1.039335 0.822305
v -0.196895 1.030615 0.751907
v -0.204573 1.013969 0.752166
v -0.272936 1.052671 0.779272
v -0.283352 1.022123 0.779774
v -0.220291 1.207712 0.757809
v -0.227967 1.208057 0.747780
v -0.217893 1.206913 0.773190
v -0.227996 1.203442 0.790177
v -0.248414 1.203697 0.792279
v -0.254379 1.209852 0.781408
v -0.254952 1.213366 0.765779
v -0.247415 1.209227 0.753337
v -0.238180 1.203661 0.792426
v -0.237497 1.209799 0.749643
v -0.216787 1.206381 0.765761
v -0.257396 1.210308 0.772894
v -0.218500 1.175161 0.756699
v -0.215285 1.174990 0.777883
v -0.226344 1.174019 0.795435
v -0.250592 1.174015 0.797669
v -0.259145 1.175606 0.787025
v -0.260253 1.179262 0.766405
v -0.250432 1.177803 0.752792
v -0.238385 1.174206 0.798042
v -0.238718 1.178373 0.748837
v -0.214085 1.174339 0.767478
v -0.262649 1.175974 0.775764
v -0.227306 1.176676 0.746214
v -0.234673 1.009129 0.721349
v -0.214744 1.008385 0.723309
v -0.268986 1.008060 0.735171
v -0.264670 1.024807 0.727902
v -0.209679 0.997513 0.808795
v -0.232688 1.015383 0.815113
v -0.265478 1.009733 0.747805
v -0.208770 1.001110 0.744815
v -0.202765 1.000858 0.783228
v -0.276188 0.999329 0.780525
v -0.264540 1.005835 0.797665
v -0.244181 0.996384 0.803198
vt 0.842274 0.956021
vt 0.844238 0.957320
vt 0.836133 0.955904
vt 0.838686 0.956746
vt 0.838868 0.990544
vt 0.838940 0.990924
vt 0.841040 0.990752
vt 0.840039 0.990446
vt 0.829691 0.953639
vt 0.831512 0.957131
vt 0.836459 0.956858
vt 0.836703 0.955364
vt 0.843726 0.957206
vt 0.843513 0.956333
vt 0.835523 0.947593
vt 0.834357 0.945362
vt 0.833034 0.946038
vt 0.837166 0.944459
vt 0.827990 0.954972
vt 0.827241 0.957788
vt 0.828865 0.956341
vt 0.829044 0.955302
vt 0.834770 0.947362
vt 0.843120 0.946603
vt 0.842001 0.945300
vt 0.839034 0.945882
vt 0.826405 0.948188
vt 0.828391 0.948558
vt 0.828628 0.948039
vt 0.827228 0.944641
vt 0.843790 0.943894
vt 0.836882 0.945024
vt 0.837194 0.946467
vt 0.843561 0.943925
vt 0.836210 0.945679
vt 0.827714 0.944231
vt 0.828663 0.944874
vt 0.835072 0.941766
vt 0.846088 0.957260
vt 0.845149 0.956891
vt 0.847460 0.957340
vt 0.844676 0.955490
vt 0.841283 0.990552
vt 0.838690 0.990503
vt 0.838641 0.990025
vt 0.839857 0.990096
vt 0.841431 0.990461
vt 0.838934 0.991058
vt 0.831303 0.944939
vt 0.835851 0.946660
vt 0.834097 0.945068
vt 0.833146 0.942606
vt 0.835539 0.943865
vt 0.834659 0.944825
vt 0.831089 0.955667
vt 0.828676 0.957554
vt 0.832155 0.956665
vt 0.833828 0.954220
vt 0.828264 0.956066
vt 0.824957 0.958002
vt 0.843601 0.944086
vt 0.844725 0.946231
vt 0.846515 0.945471
vt 0.845576 0.944109
vt 0.827730 0.946713
vt 0.822628 0.946333
vt 0.825243 0.944455
vt 0.823624 0.947591
vt 0.838905 0.965694
vt 0.842044 0.967124
vt 0.843545 0.967681
vt 0.843292 0.968257
vt 0.840406 0.966419
vt 0.836712 0.965229
vt 0.832430 0.966445
vt 0.828090 0.966890
vt 0.826671 0.966315
vt 0.828395 0.967443
vt 0.831794 0.967317
vt 0.835683 0.967267
vt 0.838636 0.973371
vt 0.840995 0.973118
vt 0.842177 0.972981
vt 0.841856 0.973089
vt 0.838894 0.972927
vt 0.835668 0.972959
vt 0.832399 0.972927
vt 0.830108 0.973192
vt 0.829169 0.973253
vt 0.829811 0.973802
vt 0.832442 0.973559
vt 0.835579 0.973654
vt 0.837581 0.990329
vt 0.836482 0.991334
vt 0.831886 0.945561
vt 0.829277 0.945785
vt 0.836456 0.990914
vt 0.837335 0.989917
vt 0.836268 0.991097
vt 0.838339 0.944918
vt 0.840253 0.944287
vt 0.841223 0.942611
vt 0.846781 0.949008
vt 0.839485 0.950093
vt 0.826414 0.952687
vt 0.827079 0.950940
vt 0.829626 0.947505
vt 0.836663 0.945424
vt 0.827472 0.945245
vt 0.828411 0.945525
vt 0.825543 0.943789
vt 0.829080 0.944794
vt 0.834116 0.943298
vt 0.835898 0.943674
vt 0.843357 0.943486
vt 0.845209 0.944044
vt 0.842131 0.943504
vt 0.841169 0.945409
vt 0.835725 0.952150
vt 0.828833 0.952120
vt 0.826636 0.952117
vt 0.844563 0.951559
vt 0.836664 0.950462
vt 0.834522 0.951885
vt 0.846838 0.949224
vt 0.822333 0.951737
vt 0.840515 0.978548
vt 0.838459 0.978605
vt 0.841453 0.978326
vt 0.838451 0.977835
vt 0.841157 0.978414
vt 0.835723 0.977872
vt 0.831384 0.978904
vt 0.832982 0.977878
vt 0.830576 0.978981
vt 0.833250 0.978800
vt 0.831231 0.979490
vt 0.835906 0.978895
vn 0.843853 0.259101 -0.469871
vn 0.768097 0.137479 -0.625402
vn 0.213861 0.069783 -0.974368
vn 0.469286 0.191464 -0.862040
vn -0.251250 0.184775 -0.950122
vn -0.040306 0.900893 -0.432166
vn 0.839121 0.081661 -0.537780
vn 0.525815 0.082808 -0.846559
vn -0.231837 0.169465 -0.957879
vn -0.283246 0.232030 -0.930556
vn 0.134271 0.124541 0.983087
vn 0.212116 0.324257 0.921881
vn 0.588145 0.313951 0.745332
vn 0.696216 0.190026 0.692224
vn -0.338914 -0.924581 -0.174034
vn 0.132544 -0.985942 0.101742
vn -0.285363 -0.932098 -0.223074
vn -0.112644 -0.979934 0.164440
vn -0.556206 0.263086 -0.788302
vn -0.852630 0.518748 -0.062633
vn -0.868789 0.326804 -0.372028
vn -0.715224 0.299197 -0.631614
vn -0.145039 -0.166217 -0.975364
vn 0.804804 0.040039 -0.592188
vn 0.648609 -0.606172 -0.460285
vn 0.153536 -0.518055 -0.841454
vn -0.586517 -0.213142 -0.781389
vn -0.314443 -0.114884 -0.942299
vn -0.148342 -0.702613 -0.695938
vn -0.438640 -0.835416 -0.331172
vn 0.542554 -0.241989 0.804411
vn 0.195774 -0.202427 0.959529
vn -0.083870 -0.726968 0.681530
vn 0.217493 -0.828096 0.516675
vn 0.043277 -0.304465 0.951540
vn -0.627032 -0.218310 0.747778
vn -0.565924 -0.768053 0.299708
vn -0.085110 -0.921281 0.379469
vn 0.982835 0.120106 0.140035
vn 0.943247 0.260640 0.205794
vn 0.975024 0.111658 -0.191991
vn 0.943655 0.273656 -0.186084
vn 0.889846 0.100468 0.445062
vn 0.137225 0.836447 0.530590
vn 0.118799 0.238124 0.963942
vn 0.738128 0.111587 0.665368
vn 0.978945 0.045702 -0.198942
vn 0.221097 0.944049 0.244720
vn 0.182615 -0.953593 -0.239398
vn 0.194915 -0.936636 -0.291069
vn 0.438846 -0.825762 -0.354304
vn 0.040522 -0.997268 -0.061756
vn -0.209889 -0.945420 -0.249254
vn -0.029578 -0.992856 -0.115593
vn -0.769111 0.178148 0.613785
vn -0.793990 0.395755 0.461474
vn -0.013834 0.476675 0.878971
vn -0.554263 0.113929 0.824507
vn -0.956247 0.273448 0.104014
vn -0.891475 0.427983 0.148669
vn 0.810985 -0.521367 -0.265481
vn 0.963169 -0.137074 -0.231335
vn 0.969604 -0.230162 0.083023
vn 0.918382 -0.380147 -0.109829
vn -0.636678 -0.753715 -0.162956
vn -0.981500 -0.181489 -0.060985
vn -0.715493 -0.698614 -0.002911
vn -0.980666 -0.054952 0.187815
vn 0.462185 0.195182 -0.865037
vn 0.869761 0.124141 -0.477602
vn 0.980157 0.095551 -0.173674
vn 0.958633 0.147215 0.243619
vn 0.675366 0.167780 0.718144
vn 0.197623 0.131682 0.971393
vn -0.501715 0.134592 0.854498
vn -0.858373 0.060268 0.509473
vn -0.999197 -0.004373 0.039826
vn -0.939439 0.091241 -0.330348
vn -0.742333 0.248269 -0.622338
vn -0.255590 0.303783 -0.917818
vn 0.408963 0.196716 -0.891096
vn 0.835380 0.151576 -0.528360
vn 0.977326 0.144391 -0.154873
vn 0.905942 0.175148 0.385478
vn 0.638577 0.227117 0.735280
vn 0.086683 0.236559 0.967743
vn -0.473613 0.221816 0.852343
vn -0.847579 0.194577 0.493711
vn -0.979637 0.196618 0.040646
vn -0.875412 0.166152 -0.453924
vn -0.651482 0.183383 -0.736167
vn -0.250573 0.183118 -0.950621
vn -0.651668 0.220368 -0.725787
vn -0.799973 0.302073 -0.518455
vn 0.070532 -0.983871 -0.164386
vn 0.189602 -0.883616 -0.428106
vn -0.795832 0.364172 0.483767
vn -0.485586 0.303297 0.819889
vn -0.932694 0.360016 0.021681
vn -0.480809 -0.853751 -0.199832
vn -0.255470 -0.944049 -0.208581
vn 0.013436 -0.992114 -0.124618
vn 0.967695 -0.037259 -0.249355
vn 0.627924 0.040282 -0.777232
vn -0.976919 0.126354 0.172235
vn -0.739614 0.083908 0.667780
vn -0.324013 -0.772599 -0.545991
vn -0.319579 -0.918181 -0.234123
vn 0.091640 -0.880227 -0.465621
vn -0.484712 -0.802977 -0.346817
vn -0.420171 -0.898629 -0.126186
vn -0.204006 -0.965822 -0.159906
vn 0.078540 -0.925758 -0.369869
vn 0.012073 -0.955070 0.296133
vn 0.023017 -0.911128 0.411481
vn 0.219994 -0.971535 -0.087879
vn -0.356055 -0.916618 -0.181762
vn -0.321967 -0.925007 -0.201743
vn 0.053112 0.185874 -0.981137
vn -0.280356 0.150344 -0.948049
vn -0.594714 0.098914 -0.797829
vn 0.520080 0.078563 0.850497
vn 0.216422 0.031055 0.975806
vn 0.052910 0.117715 0.991637
vn 0.976609 -0.061191 0.206134
vn -0.983539 0.152020 -0.097674
vn 0.844282 0.025125 -0.535310
vn 0.435903 0.063054 -0.897782
vn 0.985088 0.041883 -0.166874
vn 0.660639 0.137104 0.738078
vn 0.901004 0.070223 0.428089
vn 0.091508 0.198244 0.975872
vn -0.824107 0.259785 0.503348
vn -0.473558 0.245933 0.845731
vn -0.970062 0.222955 0.096285
vn -0.656219 0.151907 -0.739122
vn -0.856045 0.198452 -0.477288
vn -0.273064 0.106441 -0.956089
s 1
g Upper_Premolar_Left_02 Upper_Teeth Teeth group1
usemtl Upper_Premolar3_Carpals_RightSG
f 16/1/1 21/2/2 9/3/3 25/4/4
f 54/5/5 48/6/6 38/7/7 1/8/8
f 9/3/3 45/9/9 42/10/10 25/4/4
f 41/11/11 46/12/12 10/13/13 2/14/14
f 71/15/15 49/16/16 75/17/17 3/18/18
f 11/19/19 24/20/20 18/21/21 5/22/22
f 84/23/23 87/24/24 128/25/25 67/26/26
f 86/27/27 95/28/28 130/29/29 7/30/30
f 79/31/31 97/32/32 132/33/33 4/34/34
f 81/35/35 93/36/36 137/37/37 8/38/38
f 22/39/39 15/40/40 2/14/14 10/13/13
f 59/41/41 56/42/42 15/40/40 22/39/39
f 37/43/43 47/44/44 53/45/45 34/46/46
f 63/47/47 65/48/48 47/44/44 37/43/43
f 78/49/49 66/50/50 50/51/51 74/52/52
f 74/52/52 50/51/51 76/53/53 70/54/54
f 17/55/55 23/56/56 12/57/57 6/58/58
f 57/59/59 60/60/60 23/56/56 17/55/55
f 134/61/61 100/62/62 89/63/63 14/64/64
f 14/64/64 89/63/63 79/31/31 4/34/34
f 19/65/65 91/66/66 86/27/27 7/30/30
f 58/67/67 102/68/68 91/66/66 19/65/65
f 33/69/69 30/70/70 16/1/1 25/4/4
f 30/70/70 61/71/71 56/42/42 16/1/1
f 29/72/72 26/73/73 2/14/14 15/40/40
f 26/73/73 51/74/74 41/11/11 2/14/14
f 28/75/75 31/76/76 17/55/55 6/58/58
f 31/76/76 62/77/77 57/59/59 17/55/55
f 32/78/78 27/79/79 5/22/22 18/21/21
f 27/79/79 52/80/80 42/10/10 5/22/22
f 126/81/81 115/82/82 30/70/70 33/69/69
f 115/82/82 124/83/83 61/71/71 30/70/70
f 116/84/84 117/85/85 26/73/73 29/72/72
f 117/85/85 122/86/86 51/74/74 26/73/73
f 118/87/87 119/88/88 31/76/76 28/75/75
f 119/88/88 125/89/89 62/77/77 31/76/76
f 120/90/90 121/91/91 27/79/79 32/78/78
f 121/91/91 123/92/92 52/80/80 27/79/79
f 48/6/6 54/5/5 35/93/93 40/94/94
f 42/10/10 45/9/9 11/19/19 5/22/22
f 46/12/12 41/11/11 6/58/58 12/57/57
f 75/17/17 49/16/16 73/95/95 69/96/96
f 130/29/29 95/28/28 84/23/23 67/26/26
f 132/33/33 97/32/32 81/35/35 8/38/38
f 53/45/45 47/44/44 39/97/97 36/98/98
f 47/44/44 65/48/48 64/99/99 39/97/97
f 50/51/51 66/50/50 77/100/100 72/101/101
f 76/53/53 50/51/51 72/101/101 68/102/102
f 41/11/11 51/74/74 28/75/75 6/58/58
f 42/10/10 52/80/80 33/69/69 25/4/4
f 51/74/74 122/86/86 118/87/87 28/75/75
f 52/80/80 123/92/92 126/81/81 33/69/69
f 56/42/42 59/41/41 21/2/2 16/1/1
f 65/48/48 63/47/47 38/7/7 48/6/6
f 66/50/50 78/49/49 73/95/95 49/16/16
f 60/60/60 57/59/59 18/21/21 24/20/20
f 59/41/41 99/103/103 88/104/104 21/2/2
f 60/60/60 101/105/105 94/106/106 23/56/56
f 56/42/42 61/71/71 29/72/72 15/40/40
f 57/59/59 62/77/77 32/78/78 18/21/21
f 61/71/71 124/83/83 116/84/84 29/72/72
f 62/77/77 125/89/89 120/90/90 32/78/78
f 64/99/99 65/48/48 48/6/6 40/94/94
f 77/100/100 66/50/50 49/16/16 71/15/15
f 3/18/18 75/17/17 43/107/107 127/108/108
f 75/17/17 69/96/96 129/109/109 43/107/107
f 69/96/96 73/95/95 133/110/110 129/109/109
f 73/95/95 78/49/49 136/111/111 133/110/110
f 78/49/49 74/52/52 20/112/112 136/111/111
f 74/52/52 70/54/54 138/113/113 20/112/112
f 70/54/54 76/53/53 44/114/114 138/113/113
f 76/53/53 68/102/102 131/115/115 44/114/114
f 68/102/102 72/101/101 135/116/116 131/115/115
f 72/101/101 77/100/100 55/117/117 135/116/116
f 77/100/100 71/15/15 13/118/118 55/117/117
f 71/15/15 3/18/18 127/108/108 13/118/118
f 88/104/104 83/119/119 9/3/3 21/2/2
f 87/24/24 84/23/23 83/119/119 88/104/104
f 96/120/120 85/121/121 11/19/19 45/9/9
f 95/28/28 86/27/27 85/121/121 96/120/120
f 97/32/32 79/31/31 80/122/122 98/123/123
f 98/123/123 80/122/122 10/13/13 46/12/12
f 93/36/36 81/35/35 82/124/124 94/106/106
f 94/106/106 82/124/124 12/57/57 23/56/56
f 89/63/63 100/62/62 99/103/103 90/125/125
f 90/125/125 99/103/103 59/41/41 22/39/39
f 79/31/31 89/63/63 90/125/125 80/122/122
f 80/122/122 90/125/125 22/39/39 10/13/13
f 85/121/121 92/126/126 24/20/20 11/19/19
f 86/27/27 91/66/66 92/126/126 85/121/121
f 91/66/66 102/68/68 101/105/105 92/126/126
f 92/126/126 101/105/105 60/60/60 24/20/20
f 83/119/119 96/120/120 45/9/9 9/3/3
f 84/23/23 95/28/28 96/120/120 83/119/119
f 81/35/35 97/32/32 98/123/123 82/124/124
f 82/124/124 98/123/123 46/12/12 12/57/57
f 87/24/24 100/62/62 134/61/61 128/25/25
f 88/104/104 99/103/103 100/62/62 87/24/24
f 93/36/36 102/68/68 58/67/67 137/37/37
f 94/106/106 101/105/105 102/68/68 93/36/36
f 103/127/127 104/128/128 1/8/8 38/7/7
f 113/129/129 103/127/127 38/7/7 63/47/47
f 106/130/130 105/131/131 37/43/43 34/46/46
f 111/132/132 106/130/130 34/46/46 53/45/45
f 108/133/133 107/134/134 36/98/98 39/97/97
f 114/135/135 108/133/133 39/97/97 64/99/99
f 110/136/136 109/137/137 40/94/94 35/93/93
f 112/138/138 110/136/136 35/93/93 54/5/5
f 107/134/134 111/132/132 53/45/45 36/98/98
f 104/128/128 112/138/138 54/5/5 1/8/8
f 105/131/131 113/129/129 63/47/47 37/43/43
f 109/137/137 114/135/135 64/99/99 40/94/94
f 115/82/82 126/81/81 104/128/128 103/127/127
f 124/83/83 115/82/82 103/127/127 113/129/129
f 117/85/85 116/84/84 105/131/131 106/130/130
f 122/86/86 117/85/85 106/130/130 111/132/132
f 119/88/88 118/87/87 107/134/134 108/133/133
f 125/89/89 119/88/88 108/133/133 114/135/135
f 121/91/91 120/90/90 109/137/137 110/136/136
f 123/92/92 121/91/91 110/136/136 112/138/138
f 118/87/87 122/86/86 111/132/132 107/134/134
f 126/81/81 123/92/92 112/138/138 104/128/128
f 116/84/84 124/83/83 113/129/129 105/131/131
f 120/90/90 125/89/89 114/135/135 109/137/137
f 67/26/26 128/25/25 13/118/118 127/108/108
f 7/30/30 130/29/29 43/107/107 129/109/109
f 4/34/34 132/33/33 44/114/114 131/115/115
f 129/109/109 133/110/110 19/65/65 7/30/30
f 128/25/25 134/61/61 55/117/117 13/118/118
f 14/64/64 4/34/34 131/115/115 135/116/116
f 133/110/110 136/111/111 58/67/67 19/65/65
f 20/112/112 138/113/113 8/38/38 137/37/37
f 130/29/29 67/26/26 127/108/108 43/107/107
f 132/33/33 8/38/38 138/113/113 44/114/114
f 134/61/61 14/64/64 135/116/116 55/117/117
f 136/111/111 20/112/112 137/37/37 58/67/67
