# This file uses centimeters as units for non-parametric coordinates.

mtllib Upper_Canine_Left.mtl
g default
v -0.134987 1.213255 0.952968
v -0.176720 1.049698 0.925158
v -0.170859 1.136131 0.966491
v -0.191302 0.996895 0.914431
v -0.148284 1.049530 0.976373
v -0.193569 1.057386 0.940658
v -0.138780 0.988455 0.988824
v -0.201171 0.987375 0.929726
v -0.130847 1.049648 0.961118
v -0.180728 1.053816 0.921600
v -0.144718 1.045567 0.984689
v -0.195765 1.049728 0.938983
v -0.144631 0.992655 0.968429
v -0.180823 0.993660 0.928991
v -0.168922 1.052074 0.922669
v -0.134832 1.047962 0.952410
v -0.194351 1.056725 0.950179
v -0.154722 1.061598 0.977890
v -0.150903 0.983923 0.993826
v -0.202213 0.976509 0.939489
v -0.130865 1.054218 0.950961
v -0.170614 1.053574 0.919066
v -0.197058 1.057087 0.950068
v -0.152279 1.060503 0.986374
v -0.134643 1.052807 0.960347
v -0.179774 1.113583 0.928589
v -0.149699 1.108015 0.974553
v -0.190082 1.114817 0.943719
v -0.162273 1.110683 0.931131
v -0.141388 1.105150 0.950108
v -0.185426 1.112135 0.956041
v -0.164392 1.109301 0.973545
v -0.136492 1.098572 0.963100
v -0.158774 1.211142 0.936323
v -0.140207 1.212414 0.957789
v -0.157692 1.210114 0.945646
v -0.139599 1.213310 0.944084
v -0.138173 1.214401 0.946270
v -0.149384 1.214762 0.953323
v -0.147182 1.217110 0.955239
v -0.192728 1.052214 0.929528
v -0.132366 1.053728 0.973856
v -0.136694 0.990414 0.979658
v -0.197644 0.988321 0.920787
v -0.133561 1.037611 0.972733
v -0.190466 1.045149 0.926729
v -0.149394 1.212292 0.945748
v -0.138611 1.215439 0.953304
v -0.151330 0.986006 0.975470
v -0.182476 0.980186 0.948648
v -0.185983 1.115341 0.935014
v -0.141998 1.107374 0.968657
v -0.157948 1.210726 0.940527
v -0.137019 1.213766 0.954946
v -0.170468 1.003296 0.947281
v -0.149547 1.045568 0.935050
v -0.184622 1.067791 0.967164
v -0.196320 0.967632 0.975784
v -0.146832 1.054426 0.931229
v -0.185702 1.078960 0.977016
v -0.151168 1.107822 0.938375
v -0.175649 1.109659 0.967428
v -0.138570 1.212986 0.944295
v -0.148109 1.215897 0.955082
v -0.143095 1.215708 0.948985
v -0.176305 0.956915 0.949599
v -0.135742 0.993628 0.974697
v -0.139574 1.134796 0.961080
v -0.140692 0.986742 0.984869
v -0.198127 0.982224 0.932058
v -0.150972 1.133394 0.941604
v -0.144655 1.136549 0.966593
v -0.154409 0.973600 0.983655
v -0.191624 0.969467 0.951676
v -0.140273 0.986475 0.977128
v -0.197561 0.987190 0.921980
v -0.180494 1.134541 0.940551
v -0.190419 0.953112 0.968218
v -0.187675 1.000885 0.916772
v -0.184750 1.026274 0.914110
v -0.201729 0.993895 0.922991
v -0.206797 1.033665 0.934135
v -0.123436 1.029636 0.963752
v -0.126441 1.003166 0.967961
v -0.136104 1.031330 0.987212
v -0.133112 1.004816 0.989064
v -0.131991 1.002075 0.960382
v -0.124218 1.029581 0.951293
v -0.176500 1.002703 0.913926
v -0.172572 1.026804 0.911084
v -0.160766 1.003796 0.996890
v -0.165496 1.034353 0.995778
v -0.212115 0.994972 0.949147
v -0.209906 1.031033 0.955215
v -0.123621 1.003426 0.979605
v -0.127313 1.030390 0.976974
v -0.196888 0.994703 0.913996
v -0.196337 1.027199 0.923037
v -0.141829 1.011862 0.923399
v -0.161388 1.017694 0.947723
v -0.193595 1.039875 0.990338
v -0.194764 1.000648 0.990547
v -0.141117 1.160427 0.952608
v -0.136374 1.160339 0.962852
v -0.151873 1.160137 0.942817
v -0.168323 1.157574 0.940573
v -0.176019 1.157980 0.951933
v -0.168824 1.162752 0.961318
v -0.157487 1.165037 0.970743
v -0.146587 1.161385 0.972261
v -0.173095 1.157951 0.945343
v -0.140633 1.161882 0.967699
v -0.146008 1.159575 0.945926
v -0.163584 1.162933 0.967704
v -0.144455 1.133835 0.950081
v -0.158818 1.134123 0.937083
v -0.175195 1.133766 0.934967
v -0.183715 1.134472 0.948083
v -0.177867 1.135998 0.958548
v -0.163213 1.138174 0.970906
v -0.151078 1.136402 0.971799
vt 0.863456 0.952709
vt 0.864472 0.952182
vt 0.864468 0.952945
vt 0.863405 0.951901
vt 0.863364 0.979472
vt 0.862510 0.979663
vt 0.862393 0.979836
vt 0.862819 0.979557
vt 0.864066 0.952863
vt 0.863745 0.950175
vt 0.852185 0.952191
vt 0.851112 0.952878
vt 0.848504 0.951432
vt 0.847898 0.952610
vt 0.860781 0.942676
vt 0.858986 0.941567
vt 0.852296 0.936714
vt 0.853860 0.944451
vt 0.859802 0.952163
vt 0.858077 0.954176
vt 0.858732 0.953993
vt 0.860757 0.951501
vt 0.863161 0.942838
vt 0.864166 0.944247
vt 0.865653 0.944429
vt 0.862348 0.941975
vt 0.862906 0.942302
vt 0.866408 0.944472
vt 0.863866 0.944704
vt 0.848280 0.943383
vt 0.846581 0.941953
vt 0.846783 0.943017
vt 0.849251 0.944049
vt 0.845636 0.941795
vt 0.845357 0.939983
vt 0.842705 0.943062
vt 0.845487 0.942883
vt 0.854274 0.952587
vt 0.853821 0.952837
vt 0.859464 0.951502
vt 0.860191 0.952979
vt 0.856992 0.979120
vt 0.857213 0.979050
vt 0.859505 0.979312
vt 0.862128 0.979481
vt 0.861192 0.979881
vt 0.862404 0.979427
vt 0.848193 0.938808
vt 0.850644 0.940596
vt 0.848516 0.936080
vt 0.846451 0.940936
vt 0.846603 0.941764
vt 0.847672 0.953473
vt 0.847084 0.952196
vt 0.846738 0.953423
vt 0.847463 0.953363
vt 0.849780 0.957072
vt 0.850069 0.955208
vt 0.851086 0.942843
vt 0.852244 0.944352
vt 0.856292 0.946852
vt 0.856459 0.944534
vt 0.859101 0.941219
vt 0.847352 0.944009
vt 0.846936 0.938502
vt 0.861649 0.961440
vt 0.862960 0.960343
vt 0.859029 0.961886
vt 0.851367 0.962847
vt 0.856055 0.962363
vt 0.849704 0.963140
vt 0.849854 0.962605
vt 0.848606 0.963053
vt 0.852472 0.962192
vt 0.859423 0.961918
vt 0.855487 0.962132
vt 0.861486 0.961811
vt 0.860827 0.966225
vt 0.862135 0.966385
vt 0.859082 0.966151
vt 0.852594 0.966213
vt 0.856980 0.966273
vt 0.851175 0.966342
vt 0.851878 0.966586
vt 0.850312 0.966331
vt 0.853755 0.966608
vt 0.859054 0.966653
vt 0.855803 0.966948
vt 0.860774 0.966678
vt 0.860097 0.980115
vt 0.861965 0.979332
vt 0.861835 0.941690
vt 0.858161 0.939498
vt 0.861948 0.941645
vt 0.857282 0.978948
vt 0.859507 0.979724
vt 0.859849 0.979913
vt 0.866248 0.948835
vt 0.861531 0.945880
vt 0.843296 0.949077
vt 0.847665 0.950552
vt 0.858841 0.970612
vt 0.860412 0.970518
vt 0.857337 0.971429
vt 0.855704 0.971078
vt 0.862992 0.970646
vt 0.861851 0.970903
vt 0.852373 0.970252
vt 0.853156 0.970247
vt 0.860257 0.970820
vt 0.866458 0.948844
vt 0.863064 0.949127
vt 0.865419 0.948970
vt 0.846931 0.948438
vt 0.850035 0.948283
vt 0.844129 0.949516
vt 0.853296 0.948372
vt 0.855192 0.949631
vt 0.861722 0.970660
vt 0.854435 0.970184
vt 0.854300 0.971048
vn 0.988098 0.122627 -0.092876
vn 0.934575 0.339079 0.107679
vn 0.788307 0.346592 -0.508375
vn 0.823138 0.191637 -0.534528
vn 0.993381 -0.018705 -0.113336
vn 0.887924 -0.036402 -0.458547
vn 0.289099 0.935886 0.201345
vn 0.679793 0.201186 0.705270
vn 0.700357 0.146234 0.698653
vn 0.741281 0.489768 0.458944
vn -0.224312 0.145591 -0.963581
vn -0.376215 0.416693 -0.827544
vn -0.622950 0.399304 -0.672673
vn -0.692675 0.114230 -0.712146
vn 0.551462 -0.425011 -0.717813
vn 0.709310 -0.515044 -0.481258
vn 0.551503 -0.660014 -0.510124
vn 0.670779 -0.453640 -0.586743
vn 0.450525 0.209676 0.867792
vn 0.084804 0.372362 0.924205
vn 0.144044 0.499103 0.854487
vn 0.488046 0.323448 0.810674
vn 0.583457 -0.745450 -0.322309
vn 0.473203 -0.706636 -0.526066
vn 0.929681 -0.324386 -0.174546
vn 0.482290 -0.267100 0.834298
vn 0.771161 -0.624945 0.121472
vn 0.932090 -0.118871 0.342168
vn 0.471387 0.012168 0.881843
vn 0.373783 -0.694176 -0.615148
vn 0.023176 -0.781126 -0.623944
vn -0.631249 0.072600 -0.772175
vn -0.186717 -0.123378 -0.974636
vn -0.832617 -0.386403 -0.396789
vn -0.911813 -0.407535 0.050118
vn -0.984017 -0.106219 0.142926
vn -0.906582 -0.005573 -0.421993
vn 0.313927 0.185251 -0.931199
vn 0.312482 0.312586 -0.897020
vn 0.662695 0.172832 -0.728673
vn 0.591031 0.333632 -0.734420
vn 0.075034 -0.005243 -0.997167
vn -0.866879 0.417519 -0.272394
vn -0.202238 0.974517 -0.097037
vn 0.295587 -0.016892 -0.955166
vn -0.109544 0.936265 -0.333779
vn 0.719589 -0.064212 -0.691425
vn -0.509372 -0.655773 -0.557226
vn 0.382148 -0.544038 -0.746984
vn 0.074091 -0.976877 0.200554
vn 0.307753 -0.764270 -0.566728
vn 0.332087 -0.779774 -0.530727
vn -0.990375 0.114917 -0.077142
vn -0.829173 0.453300 -0.327096
vn -0.897275 0.424416 0.121524
vn -0.942216 0.245423 0.228028
vn -0.519720 0.605476 0.602735
vn -0.621910 0.352334 0.699349
vn 0.692884 -0.596942 -0.404441
vn 0.376128 -0.715261 -0.589008
vn 0.410372 -0.774521 -0.481365
vn -0.041122 -0.118437 0.992110
vn -0.018823 -0.373929 0.927266
vn -0.645385 -0.152780 0.748422
vn -0.619731 -0.477166 0.623094
vn 0.845843 0.068636 -0.528999
vn 0.993265 0.099876 -0.058731
vn 0.661994 0.066305 -0.746570
vn -0.210288 0.137782 -0.967882
vn 0.331313 0.108925 -0.937212
vn -0.749109 0.161721 -0.642403
vn -0.889667 0.133082 0.436786
vn -0.988361 0.151874 -0.008716
vn -0.606645 0.092150 0.789614
vn 0.220596 0.088272 0.971363
vn -0.256101 0.063967 0.964531
vn 0.602790 0.108362 0.790507
vn 0.867941 0.020003 -0.496265
vn 0.999916 0.012771 0.002116
vn 0.673180 0.061062 -0.736953
vn -0.123533 0.287973 -0.949637
vn 0.280177 0.172469 -0.944328
vn -0.769887 0.359929 -0.526997
vn -0.804222 0.192843 0.562173
vn -0.946215 0.294859 0.133178
vn -0.637352 0.143507 0.757092
vn 0.194214 0.045294 0.979913
vn -0.266008 0.080593 0.960596
vn 0.682554 -0.004968 0.730818
vn -0.147501 0.386891 0.910252
vn 0.186173 0.271646 0.944218
vn 0.598596 -0.799668 0.047055
vn 0.358799 -0.820588 0.444858
vn 0.492229 -0.729879 -0.474328
vn -0.867616 0.403124 0.291090
vn -0.763651 0.432087 0.479727
vn -0.616741 0.425856 0.662025
vn 0.840148 -0.138976 -0.524248
vn 0.603025 -0.343749 -0.719859
vn -0.973316 0.143580 0.179002
vn -0.651019 0.224216 0.725190
vn 0.298185 -0.024280 -0.954199
vn 0.694072 -0.055473 -0.717765
vn -0.225712 0.221760 0.948618
vn -0.656655 0.245922 0.712970
vn 0.997397 -0.071796 -0.006697
vn 0.672482 0.034959 0.739288
vn -0.916340 0.318297 0.242914
vn -0.879635 0.287047 -0.379271
vn 0.181519 0.121721 0.975825
vn 0.995771 0.091198 0.011127
vn 0.455623 0.196441 0.868227
vn 0.874924 0.255428 0.411418
vn -0.638883 0.227477 -0.734904
vn -0.348332 0.159473 -0.923706
vn -0.904455 0.204797 -0.374191
vn 0.308410 -0.062571 -0.949194
vn -0.014832 0.173352 0.984748
vn 0.880633 -0.092189 -0.464743
vn -0.068259 0.099673 -0.992676
vn -0.781000 0.306787 0.543986
s 1
g Upper_Canine_Left Upper_Teeth Teeth group1
usemtl Upper_Canine_Carpals_RightSG
f 25/1/1 9/2/2 21/3/3 16/4/4
f 1/5/5 38/6/6 48/7/7 54/8/8
f 25/1/1 42/9/9 45/10/10 9/2/2
f 2/11/11 10/12/12 46/13/13 41/14/14
f 13/15/15 49/16/16 66/17/17 55/18/18
f 5/19/19 18/20/20 24/21/21 11/22/22
f 67/23/23 13/15/15 87/24/24 84/25/25
f 7/26/26 43/27/27 95/28/28 86/29/29
f 4/30/30 44/31/31 97/32/32 79/33/33
f 8/34/34 20/35/35 93/36/36 81/37/37
f 10/12/12 2/11/11 15/38/38 22/39/39
f 22/39/39 15/38/38 56/40/40 59/41/41
f 34/42/42 53/43/43 47/44/44 37/45/45
f 37/45/45 47/44/44 65/46/46 63/47/47
f 74/48/48 50/49/49 66/17/17 78/50/50
f 70/51/51 76/52/52 50/49/49 74/48/48
f 6/53/53 12/54/54 23/55/55 17/56/56
f 17/56/56 23/55/55 60/57/57 57/58/58
f 14/59/59 89/60/60 100/61/61 55/18/18
f 4/30/30 79/33/33 89/60/60 14/59/59
f 7/26/26 86/29/29 91/62/62 19/63/63
f 19/63/63 91/62/62 102/64/64 58/65/65
f 25/1/1 16/4/4 30/66/66 33/67/67
f 16/4/4 56/40/40 61/68/68 30/66/66
f 15/38/38 2/11/11 26/69/69 29/70/70
f 2/11/11 41/14/14 51/71/71 26/69/69
f 6/53/53 17/56/56 31/72/72 28/73/73
f 17/56/56 57/58/58 62/74/74 31/72/72
f 18/20/20 5/19/19 27/75/75 32/76/76
f 5/19/19 42/9/9 52/77/77 27/75/75
f 33/67/67 30/66/66 115/78/78 68/79/79
f 30/66/66 61/68/68 71/80/80 115/78/78
f 29/70/70 26/69/69 117/81/81 116/82/82
f 26/69/69 51/71/71 77/83/83 117/81/81
f 28/73/73 31/72/72 119/84/84 118/85/85
f 31/72/72 62/74/74 3/86/86 119/84/84
f 32/76/76 27/75/75 121/87/87 120/88/88
f 27/75/75 52/77/77 72/89/89 121/87/87
f 40/90/90 35/91/91 54/8/8 48/7/7
f 5/19/19 11/22/22 45/10/10 42/9/9
f 12/54/54 6/53/53 41/14/14 46/13/13
f 69/92/92 73/93/93 49/16/16 75/94/94
f 67/23/23 84/25/25 95/28/28 43/27/27
f 8/34/34 81/37/37 97/32/32 44/31/31
f 36/95/95 39/96/96 47/44/44 53/43/43
f 39/96/96 64/97/97 65/46/46 47/44/44
f 14/59/59 55/18/18 66/17/17 50/49/49
f 4/30/30 14/59/59 76/52/52 44/31/31
f 6/53/53 28/73/73 51/71/71 41/14/14
f 25/1/1 33/67/67 52/77/77 42/9/9
f 28/73/73 118/85/85 77/83/83 51/71/71
f 33/67/67 68/79/79 72/89/89 52/77/77
f 16/4/4 21/3/3 59/41/41 56/40/40
f 48/7/7 38/6/6 63/47/47 65/46/46
f 49/16/16 73/93/93 78/50/50 66/17/17
f 24/21/21 18/20/20 57/58/58 60/57/57
f 21/3/3 88/98/98 99/99/99 59/41/41
f 23/55/55 94/100/100 101/101/101 60/57/57
f 15/38/38 29/70/70 61/68/68 56/40/40
f 18/20/20 32/76/76 62/74/74 57/58/58
f 29/70/70 116/82/82 71/80/80 61/68/68
f 32/76/76 120/88/88 3/86/86 62/74/74
f 40/90/90 48/7/7 65/46/46 64/97/97
f 67/23/23 43/27/27 75/94/94 13/15/15
f 105/102/102 113/103/103 71/80/80 116/82/82
f 43/27/27 7/26/26 69/92/92 75/94/94
f 7/26/26 19/63/63 73/93/93 69/92/92
f 19/63/63 58/65/65 78/50/50 73/93/93
f 58/65/65 20/35/35 74/48/48 78/50/50
f 20/35/35 8/34/34 70/51/51 74/48/48
f 8/34/34 44/31/31 76/52/52 70/51/51
f 109/104/104 114/105/105 3/86/86 120/88/88
f 104/106/106 112/107/107 72/89/89 68/79/79
f 107/108/108 111/109/109 77/83/83 118/85/85
f 112/107/107 110/110/110 121/87/87 72/89/89
f 110/110/110 109/104/104 120/88/88 121/87/87
f 21/3/3 9/2/2 83/111/111 88/98/98
f 88/98/98 83/111/111 84/25/25 87/24/24
f 45/10/10 11/22/22 85/112/112 96/113/113
f 96/113/113 85/112/112 86/29/29 95/28/28
f 98/114/114 80/115/115 79/33/33 97/32/32
f 46/13/13 10/12/12 80/115/115 98/114/114
f 94/100/100 82/116/116 81/37/37 93/36/36
f 23/55/55 12/54/54 82/116/116 94/100/100
f 90/117/117 99/99/99 100/61/61 89/60/60
f 22/39/39 59/41/41 99/99/99 90/117/117
f 80/115/115 90/117/117 89/60/60 79/33/33
f 10/12/12 22/39/39 90/117/117 80/115/115
f 11/22/22 24/21/21 92/118/118 85/112/112
f 85/112/112 92/118/118 91/62/62 86/29/29
f 92/118/118 101/101/101 102/64/64 91/62/62
f 24/21/21 60/57/57 101/101/101 92/118/118
f 9/2/2 45/10/10 96/113/113 83/111/111
f 83/111/111 96/113/113 95/28/28 84/25/25
f 82/116/116 98/114/114 97/32/32 81/37/37
f 12/54/54 46/13/13 98/114/114 82/116/116
f 13/15/15 55/18/18 100/61/61 87/24/24
f 87/24/24 100/61/61 99/99/99 88/98/98
f 20/35/35 58/65/65 102/64/64 93/36/36
f 93/36/36 102/64/64 101/101/101 94/100/100
f 38/6/6 1/5/5 104/106/106 103/119/119
f 63/47/47 38/6/6 103/119/119 113/103/103
f 34/42/42 37/45/45 105/102/102 106/120/120
f 53/43/43 34/42/42 106/120/120 111/109/109
f 39/96/96 36/95/95 107/108/108 108/121/121
f 64/97/97 39/96/96 108/121/121 114/105/105
f 35/91/91 40/90/90 109/104/104 110/110/110
f 54/8/8 35/91/91 110/110/110 112/107/107
f 36/95/95 53/43/43 111/109/109 107/108/108
f 1/5/5 54/8/8 112/107/107 104/106/106
f 37/45/45 63/47/47 113/103/103 105/102/102
f 40/90/90 64/97/97 114/105/105 109/104/104
f 103/119/119 104/106/106 68/79/79 115/78/78
f 113/103/103 103/119/119 115/78/78 71/80/80
f 106/120/120 105/102/102 116/82/82 117/81/81
f 111/109/109 106/120/120 117/81/81 77/83/83
f 108/121/121 107/108/108 118/85/85 119/84/84
f 114/105/105 108/121/121 119/84/84 3/86/86
f 50/49/49 76/52/52 14/59/59
f 49/16/16 13/15/15 75/94/94
