# This file uses centimeters as units for non-parametric coordinates.

mtllib Zygomaticus_Minor_Muscle_Left.mtl
g default
v 0.335226 1.046343 0.955930
v 0.536782 1.383783 0.793292
v 0.298932 1.055298 0.989430
v 0.464337 1.453423 0.852331
v 0.291360 1.056364 0.998689
v 0.435743 1.476362 0.875036
v 0.302547 1.052092 0.993609
v 0.464727 1.483669 0.862636
v 0.339979 1.041937 0.962243
v 0.554761 1.456310 0.821337
v 0.375447 1.031330 0.927055
v 0.601941 1.432758 0.795744
v 0.384239 1.029110 0.914777
v 0.608905 1.405756 0.778038
v 0.372328 1.034536 0.921729
v 0.597864 1.383207 0.773059
v 0.396763 1.303131 0.883247
v 0.458236 1.260336 0.851077
v 0.372001 1.312696 0.900102
v 0.386443 1.312208 0.909932
v 0.460804 1.274611 0.891822
v 0.504843 1.232998 0.853809
v 0.513921 1.222597 0.831850
v 0.501742 1.228251 0.831166
v 0.348306 1.131958 0.942099
v 0.484758 1.309298 0.801859
v 0.342289 1.133919 0.961095
v 0.369625 1.129124 0.960201
v 0.419448 1.115360 0.942735
v 0.443056 1.104612 0.907362
v 0.439478 1.110880 0.892360
v 0.422963 1.115213 0.895792
v 0.422695 1.365892 0.859015
v 0.383686 1.126762 0.916167
v 0.398871 1.390532 0.886201
v 0.417449 1.404938 0.900579
v 0.503658 1.373827 0.862111
v 0.545134 1.314163 0.799454
v 0.559043 1.295269 0.780340
v 0.547993 1.290226 0.780901
v 0.317656 1.093151 0.963869
v 0.501564 1.349606 0.796866
v 0.309700 1.090168 0.977592
v 0.333356 1.089005 0.978765
v 0.391187 1.072088 0.959461
v 0.414293 1.056013 0.913448
v 0.415259 1.068808 0.892239
v 0.403762 1.073412 0.900730
v 0.441286 1.418003 0.862223
v 0.366064 1.083078 0.935496
v 0.416240 1.440872 0.886776
v 0.438772 1.456852 0.887945
v 0.535512 1.424370 0.853361
v 0.586822 1.370295 0.793935
v 0.582555 1.342741 0.769676
v 0.563286 1.333952 0.770520
v 0.302200 1.066572 0.970598
v 0.518047 1.367805 0.796096
v 0.291179 1.080027 0.997923
v 0.318008 1.067846 0.989559
v 0.360640 1.048752 0.963768
v 0.397725 1.040319 0.924384
v 0.409390 1.041992 0.889965
v 0.387062 1.055727 0.907523
v 0.451855 1.437414 0.857934
v 0.350007 1.065851 0.943386
v 0.417564 1.469746 0.883563
v 0.453086 1.476765 0.879095
v 0.556589 1.448141 0.833775
v 0.607360 1.407671 0.798513
v 0.613283 1.386572 0.768224
v 0.583893 1.354334 0.768219
vt 0.250996 0.126494
vt 0.126494 0.126494
vt 0.126494 0.001992
vt 0.250996 0.001992
vt 0.001992 0.126494
vt 0.001992 0.001992
vt 0.998008 0.126494
vt 0.873506 0.126494
vt 0.873506 0.001992
vt 0.998008 0.001992
vt 0.749004 0.126494
vt 0.749004 0.001992
vt 0.624502 0.126494
vt 0.624502 0.001992
vt 0.500000 0.126494
vt 0.500000 0.001992
vt 0.375498 0.126494
vt 0.375498 0.001992
vt 0.126494 0.873506
vt 0.250996 0.873506
vt 0.250996 0.998008
vt 0.126494 0.998008
vt 0.001992 0.873506
vt 0.001992 0.998008
vt 0.873506 0.873506
vt 0.998008 0.873506
vt 0.998008 0.998008
vt 0.873506 0.998008
vt 0.749004 0.873506
vt 0.749004 0.998008
vt 0.624502 0.873506
vt 0.624502 0.998008
vt 0.500000 0.873506
vt 0.500000 0.998008
vt 0.375498 0.873506
vt 0.375498 0.998008
vt 0.126494 0.375498
vt 0.250996 0.375498
vt 0.250996 0.500000
vt 0.126494 0.500000
vt 0.001992 0.375498
vt 0.001992 0.500000
vt 0.873506 0.375498
vt 0.998008 0.375498
vt 0.998008 0.500000
vt 0.873506 0.500000
vt 0.749004 0.375498
vt 0.749004 0.500000
vt 0.624502 0.375498
vt 0.624502 0.500000
vt 0.500000 0.375498
vt 0.500000 0.500000
vt 0.375498 0.375498
vt 0.375498 0.500000
vt 0.250996 0.624502
vt 0.126494 0.624502
vt 0.001992 0.624502
vt 0.998008 0.624502
vt 0.873506 0.624502
vt 0.749004 0.624502
vt 0.624502 0.624502
vt 0.500000 0.624502
vt 0.375498 0.624502
vt 0.126494 0.250996
vt 0.250996 0.250996
vt 0.001992 0.250996
vt 0.873506 0.250996
vt 0.998008 0.250996
vt 0.749004 0.250996
vt 0.624502 0.250996
vt 0.500000 0.250996
vt 0.375498 0.250996
vt 0.250996 0.749004
vt 0.126494 0.749004
vt 0.001992 0.749004
vt 0.998008 0.749004
vt 0.873506 0.749004
vt 0.749004 0.749004
vt 0.624502 0.749004
vt 0.500000 0.749004
vt 0.375498 0.749004
vn -0.598415 0.031486 -0.800567
vn -0.624977 -0.248261 -0.740115
vn -0.771700 -0.276669 -0.572655
vn -0.666268 -0.104054 -0.738417
vn -0.532913 -0.172414 0.828418
vn -0.599337 0.481791 0.639275
vn 0.362833 -0.274070 0.890639
vn 0.375031 -0.092458 0.922390
vn 0.357742 -0.613303 0.704188
vn 0.439412 -0.434091 0.786436
vn 0.350230 -0.815103 0.461460
vn 0.605390 -0.630797 0.485384
vn -0.167617 -0.827775 -0.535437
vn 0.305319 -0.566286 -0.765572
vn -0.673255 -0.018511 -0.739179
vn -0.635096 0.116136 -0.763653
vn -0.526733 0.207471 -0.824323
vn -0.488583 0.228505 -0.842064
vn -0.396224 0.261727 -0.880060
vn -0.439716 0.257695 -0.860374
vn -0.853642 0.388890 -0.346497
vn -0.530758 0.544428 -0.649534
vn 0.379225 0.383402 0.842135
vn 0.426306 0.736149 0.525688
vn 0.566518 0.185071 0.802999
vn 0.547796 0.606471 0.576291
vn 0.702800 -0.138823 0.697711
vn 0.714755 0.410995 0.565869
vn 0.867550 -0.446933 0.218194
vn 0.948877 0.288373 -0.128347
vn -0.267291 0.211384 -0.940145
vn -0.327621 0.295968 -0.897256
vn -0.635063 -0.072736 -0.769028
vn -0.640323 -0.097110 -0.761943
vn -0.557334 -0.177340 -0.811128
vn -0.541249 -0.105463 -0.834222
vn -0.791182 0.390700 0.470515
vn -0.974199 0.222567 -0.037408
vn 0.251236 0.222636 0.941974
vn 0.206438 0.183537 0.961092
vn 0.541125 0.071354 0.837910
vn 0.534411 0.074919 0.841898
vn 0.806363 -0.148051 0.572591
vn 0.783015 -0.078684 0.617006
vn 0.620826 -0.569807 -0.538419
vn 0.854246 -0.511730 -0.091633
vn -0.471570 -0.132450 -0.871825
vn -0.430912 -0.290874 -0.854229
vn -0.558703 -0.136394 -0.818076
vn -0.634279 0.043659 -0.771870
vn -0.898389 0.295192 -0.325206
vn 0.252528 0.073989 0.964757
vn 0.528977 -0.065943 0.846070
vn 0.726708 -0.159285 0.668224
vn 0.895390 -0.349906 0.275396
vn -0.350104 -0.296117 -0.888674
vn -0.664149 0.161208 -0.730012
vn -0.574343 0.036882 -0.817783
vn -0.497447 0.737385 0.456957
vn 0.276642 0.151324 0.948984
vn 0.554510 -0.162207 0.816215
vn 0.808370 -0.435453 0.396130
vn 0.418772 -0.316657 -0.851093
vn -0.550372 0.101258 -0.828757
vn -0.495281 0.160359 -0.853804
vn -0.572417 0.213606 -0.791651
vn -0.899274 0.325082 -0.292624
vn 0.315994 0.093494 0.944143
vn 0.501479 -0.079072 0.861549
vn 0.637341 -0.327996 0.697291
vn 0.807829 -0.469431 0.356436
vn -0.291346 0.039642 -0.955796
s 1
g Zygomaticus_Minor_Muscle_Left1_Mesh group1
usemtl Zygomaticus_Minor_Muscle_Left1_phong1SG
f 66/1/1 1/4/2 3/3/3 57/2/4
f 57/2/4 3/3/3 5/6/5 59/5/6
f 59/7/6 5/10/5 7/9/7 60/8/8
f 60/8/8 7/9/7 9/12/9 61/11/10
f 61/11/10 9/12/9 11/14/11 62/13/12
f 62/13/12 11/14/11 13/16/13 63/15/14
f 63/15/14 13/16/13 15/18/15 64/17/16
f 64/17/16 15/18/15 1/4/2 66/1/1
f 65/19/17 4/22/18 2/21/19 58/20/20
f 67/23/21 6/24/22 4/22/18 65/19/17
f 68/25/23 8/28/24 6/27/22 67/26/21
f 69/29/25 10/30/26 8/28/24 68/25/23
f 70/31/27 12/32/28 10/30/26 69/29/25
f 71/33/29 14/34/30 12/32/28 70/31/27
f 72/35/31 16/36/32 14/34/30 71/33/29
f 58/20/20 2/21/19 16/36/32 72/35/31
f 25/37/33 17/40/34 18/39/35 34/38/36
f 27/41/37 19/42/38 17/40/34 25/37/33
f 28/43/39 20/46/40 19/45/38 27/44/37
f 29/47/41 21/48/42 20/46/40 28/43/39
f 30/49/43 22/50/44 21/48/42 29/47/41
f 31/51/45 23/52/46 22/50/44 30/49/43
f 32/53/47 24/54/48 23/52/46 31/51/45
f 34/38/36 18/39/35 24/54/48 32/53/47
f 26/55/49 18/39/35 17/40/34 33/56/50
f 33/56/50 17/40/34 19/42/38 35/57/51
f 35/58/51 19/45/38 20/46/40 36/59/52
f 36/59/52 20/46/40 21/48/42 37/60/53
f 37/60/53 21/48/42 22/50/44 38/61/54
f 38/61/54 22/50/44 23/52/46 39/62/55
f 39/62/55 23/52/46 24/54/48 40/63/56
f 40/63/56 24/54/48 18/39/35 26/55/49
f 41/64/57 25/37/33 34/38/36 50/65/58
f 43/66/59 27/41/37 25/37/33 41/64/57
f 44/67/60 28/43/39 27/44/37 43/68/59
f 45/69/61 29/47/41 28/43/39 44/67/60
f 46/70/62 30/49/43 29/47/41 45/69/61
f 47/71/63 31/51/45 30/49/43 46/70/62
f 48/72/64 32/53/47 31/51/45 47/71/63
f 50/65/58 34/38/36 32/53/47 48/72/64
f 42/73/65 26/55/49 33/56/50 49/74/66
f 49/74/66 33/56/50 35/57/51 51/75/67
f 51/76/67 35/58/51 36/59/52 52/77/68
f 52/77/68 36/59/52 37/60/53 53/78/69
f 53/78/69 37/60/53 38/61/54 54/79/70
f 54/79/70 38/61/54 39/62/55 55/80/71
f 55/80/71 39/62/55 40/63/56 56/81/72
f 56/81/72 40/63/56 26/55/49 42/73/65
f 57/2/4 41/64/57 50/65/58 66/1/1
f 59/5/6 43/66/59 41/64/57 57/2/4
f 60/8/8 44/67/60 43/68/59 59/7/6
f 61/11/10 45/69/61 44/67/60 60/8/8
f 62/13/12 46/70/62 45/69/61 61/11/10
f 63/15/14 47/71/63 46/70/62 62/13/12
f 64/17/16 48/72/64 47/71/63 63/15/14
f 66/1/1 50/65/58 48/72/64 64/17/16
f 58/20/20 42/73/65 49/74/66 65/19/17
f 65/19/17 49/74/66 51/75/67 67/23/21
f 67/26/21 51/76/67 52/77/68 68/25/23
f 68/25/23 52/77/68 53/78/69 69/29/25
f 69/29/25 53/78/69 54/79/70 70/31/27
f 70/31/27 54/79/70 55/80/71 71/33/29
f 71/33/29 55/80/71 56/81/72 72/35/31
f 72/35/31 56/81/72 42/73/65 58/20/20
